<?xml version="1.0" encoding="utf-8"?>
<!-- Generator: Adobe Illustrator 19.0.0, SVG Export Plug-In . SVG Version: 6.00 Build 0)  -->
<svg version="1.1" id="Capa_1" xmlns="http://www.w3.org/2000/svg" xmlns:xlink="http://www.w3.org/1999/xlink" x="0px" y="0px"
	 viewBox="0 0 512 404" style="enable-background:new 0 0 512 404;" xml:space="preserve">
<style type="text/css">
	.st0{fill:#F2F2F2;}
	.st1{clip-path:url(#XMLID_3_);}
	.st2{display:none;fill:#F2F2F2;}
	.st3{fill:#C072A3;}
	.st4{fill:#5B5B5B;}
	.st5{clip-path:url(#XMLID_4_);fill:#BC5E9D;}
	.st6{fill:#FFFFFF;}
	.st7{fill:#F3F3F3;}
</style>
<g id="XMLID_1_">
	<path id="XMLID_123_" class="st0" d="M502,404H10c-5.5,0-10-4.5-10-10V114c0-5.5,4.5-10,10-10h492c5.5,0,10,4.5,10,10v280
		C512,399.5,507.5,404,502,404z"/>
	<g id="XMLID_1095_">
		<g id="adulto-mayor">
			<defs>
				<rect id="XMLID_589_" x="0" width="512" height="404"/>
			</defs>
			<clipPath id="XMLID_3_">
				<use xlink:href="#XMLID_589_"  style="overflow:visible;"/>
			</clipPath>
			<g id="XMLID_457_" class="st1">
				<path id="XMLID_525_" class="st2" d="M502,404H10c-5.5,0-10-4.5-10-10V114c0-5.5,4.5-10,10-10h492c5.5,0,10,4.5,10,10v280
					C512,399.5,507.5,404,502,404z"/>
				<circle id="XMLID_524_" class="st3" cx="256" cy="149.27" r="138.569"/>
				<g id="XMLID_815_">
					<path id="XMLID_816_" class="st4" d="M210.153,333.597l-2.07-6.797h-10.41l-2.07,6.797h-6.523l10.078-28.672h7.402
						l10.117,28.672H210.153z M206.638,321.722c-1.914-6.159-2.992-9.642-3.232-10.449c-0.242-0.808-0.414-1.445-0.518-1.914
						c-0.43,1.667-1.66,5.788-3.691,12.363H206.638z"/>
					<path id="XMLID_819_" class="st4" d="M226.716,333.988c-2.566,0-4.58-0.996-6.045-2.988s-2.197-4.753-2.197-8.281
						c0-3.581,0.744-6.37,2.236-8.369c1.49-1.999,3.545-2.998,6.162-2.998c2.746,0,4.844,1.067,6.289,3.203h0.195
						c-0.301-1.628-0.449-3.079-0.449-4.355v-6.992h5.977v30.391h-4.57l-1.152-2.832h-0.254
						C231.552,332.913,229.489,333.988,226.716,333.988z M228.806,329.242c1.523,0,2.639-0.442,3.35-1.328
						c0.709-0.886,1.096-2.39,1.162-4.512v-0.645c0-2.344-0.361-4.023-1.084-5.039s-1.898-1.523-3.525-1.523
						c-1.328,0-2.361,0.563-3.096,1.689c-0.736,1.126-1.104,2.764-1.104,4.912s0.371,3.76,1.113,4.834
						S227.425,329.242,228.806,329.242z"/>
					<path id="XMLID_822_" class="st4" d="M260.583,333.597l-0.801-2.793h-0.313c-0.639,1.016-1.543,1.8-2.715,2.354
						s-2.508,0.83-4.004,0.83c-2.566,0-4.5-0.687-5.801-2.061c-1.303-1.374-1.953-3.35-1.953-5.928v-14.238h5.957v12.754
						c0,1.575,0.279,2.757,0.84,3.545c0.559,0.788,1.451,1.182,2.676,1.182c1.666,0,2.871-0.557,3.613-1.67s1.113-2.959,1.113-5.537
						v-10.273h5.957v21.836H260.583z"/>
					<path id="XMLID_824_" class="st4" d="M277.36,333.597h-5.957v-30.391h5.957V333.597z"/>
					<path id="XMLID_826_" class="st4" d="M292.809,329.242c1.041,0,2.291-0.228,3.75-0.684v4.434
						c-1.484,0.664-3.309,0.996-5.469,0.996c-2.383,0-4.119-0.603-5.205-1.807c-1.088-1.204-1.631-3.011-1.631-5.42v-10.527h-2.852
						v-2.52l3.281-1.992l1.719-4.609h3.809v4.648h6.113v4.473h-6.113v10.527c0,0.847,0.236,1.472,0.713,1.875
						C291.399,329.039,292.028,329.242,292.809,329.242z"/>
					<path id="XMLID_828_" class="st4" d="M320.817,322.64c0,3.555-0.938,6.335-2.813,8.34s-4.486,3.008-7.832,3.008
						c-2.098,0-3.945-0.459-5.547-1.377s-2.832-2.236-3.691-3.955s-1.289-3.724-1.289-6.016c0-3.567,0.93-6.341,2.793-8.32
						c1.861-1.979,4.479-2.969,7.852-2.969c2.096,0,3.945,0.456,5.547,1.367s2.832,2.22,3.691,3.926S320.817,320.348,320.817,322.64
						z M305.72,322.64c0,2.161,0.354,3.796,1.064,4.902c0.709,1.106,1.865,1.66,3.467,1.66c1.588,0,2.73-0.55,3.428-1.65
						c0.695-1.101,1.045-2.737,1.045-4.912c0-2.161-0.352-3.782-1.055-4.863s-1.855-1.621-3.457-1.621
						c-1.59,0-2.734,0.537-3.438,1.611S305.72,320.465,305.72,322.64z"/>
					<path id="XMLID_831_" class="st4" d="M212.907,370.597l-9.688-25.313h-0.156c0.182,2.005,0.273,4.388,0.273,7.148v18.164
						h-3.066v-28.555h5l9.043,23.555h0.156l9.121-23.555h4.961v28.555h-3.32v-18.398c0-2.109,0.09-4.401,0.273-6.875h-0.156
						l-9.766,25.273H212.907z"/>
					<path id="XMLID_833_" class="st4" d="M249.059,370.597l-0.645-3.047h-0.156c-1.068,1.341-2.133,2.249-3.193,2.725
						c-1.063,0.476-2.387,0.713-3.975,0.713c-2.123,0-3.787-0.547-4.99-1.641c-1.205-1.094-1.807-2.649-1.807-4.668
						c0-4.323,3.457-6.589,10.371-6.797l3.633-0.117v-1.328c0-1.68-0.361-2.92-1.084-3.721s-1.879-1.201-3.467-1.201
						c-1.785,0-3.803,0.547-6.055,1.641l-0.996-2.48c1.055-0.573,2.209-1.022,3.467-1.348c1.256-0.325,2.516-0.488,3.779-0.488
						c2.551,0,4.443,0.566,5.674,1.699s1.846,2.949,1.846,5.449v14.609H249.059z M241.735,368.312c2.018,0,3.604-0.554,4.756-1.66
						s1.729-2.656,1.729-4.648v-1.934l-3.242,0.137c-2.578,0.091-4.438,0.491-5.576,1.201c-1.141,0.71-1.709,1.813-1.709,3.311
						c0,1.172,0.354,2.063,1.064,2.676C239.466,368.006,240.458,368.312,241.735,368.312z"/>
					<path id="XMLID_836_" class="st4" d="M254.743,349.191h3.477l4.688,12.207c1.027,2.786,1.666,4.798,1.914,6.035h0.156
						c0.168-0.664,0.523-1.8,1.064-3.408c0.539-1.608,2.307-6.553,5.303-14.834h3.477l-9.199,24.375
						c-0.912,2.409-1.977,4.118-3.193,5.127c-1.219,1.009-2.713,1.514-4.482,1.514c-0.99,0-1.967-0.11-2.93-0.332v-2.598
						c0.715,0.156,1.516,0.234,2.402,0.234c2.227,0,3.814-1.25,4.766-3.75l1.191-3.047L254.743,349.191z"/>
					<path id="XMLID_838_" class="st4" d="M296.774,359.874c0,3.489-0.879,6.214-2.637,8.174s-4.188,2.939-7.285,2.939
						c-1.914,0-3.613-0.449-5.098-1.348s-2.631-2.188-3.438-3.867c-0.809-1.68-1.211-3.646-1.211-5.898
						c0-3.489,0.871-6.208,2.617-8.154c1.744-1.946,4.166-2.92,7.266-2.92c2.994,0,5.373,0.996,7.139,2.988
						C295.891,353.781,296.774,356.476,296.774,359.874z M280.466,359.874c0,2.734,0.547,4.817,1.641,6.25s2.701,2.148,4.824,2.148
						c2.121,0,3.732-0.713,4.834-2.139c1.1-1.426,1.65-3.513,1.65-6.26c0-2.722-0.551-4.788-1.65-6.201
						c-1.102-1.413-2.725-2.119-4.873-2.119c-2.123,0-3.725,0.696-4.805,2.09C281.005,355.037,280.466,357.114,280.466,359.874z"/>
					<path id="XMLID_841_" class="st4" d="M312.224,348.8c0.949,0,1.803,0.078,2.559,0.234l-0.449,3.008
						c-0.887-0.195-1.668-0.293-2.344-0.293c-1.732,0-3.213,0.703-4.443,2.109s-1.846,3.157-1.846,5.254v11.484h-3.242v-21.406
						h2.676l0.371,3.965h0.156c0.793-1.394,1.75-2.468,2.871-3.223C309.651,349.178,310.882,348.8,312.224,348.8z"/>
				</g>
				<g id="XMLID_145_">
					<defs>
						<rect id="XMLID_146_" x="254.189" y="-43.284" width="221.514" height="394.024"/>
					</defs>
					<clipPath id="XMLID_4_">
						<use xlink:href="#XMLID_146_"  style="overflow:visible;"/>
					</clipPath>
					<ellipse id="XMLID_147_" class="st5" cx="256.174" cy="149.344" rx="138.441" ry="138.48"/>
				</g>
				<g id="XMLID_198_">
					<g id="XMLID_5_">
						<path id="XMLID_7_" class="st6" d="M325.994,135.787c1.601-17.613-7.205-16.813-7.205-16.813
							c0-19.214-12.009-16.234-12.009-16.234v55.463h19.409C343.996,150.198,325.994,135.787,325.994,135.787z"/>
						<path id="XMLID_214_" class="st6" d="M312.983,135.381l1.322-25.526l0.003-0.129c0-0.771-0.347-19.063-30.521-35.596
							l-0.362-0.163c-2.183-0.776-21.267-7.489-28.259-6.977c-0.352-0.027-0.742-0.031-1.153-0.022v4.988
							c0.331-0.007,0.628,0.002,0.887,0.03l0.266,0.028l0.266-0.028c4.188-0.446,18.156,3.798,26.128,6.624
							c26.515,14.594,27.704,30.226,27.747,31.079l-1.498,28.941l1.674,0.659c5.203,2.049,13.532,8.231,10.949,26.621
							c-0.336,1.276-3.997,14.373-13.131,13.225L305,178.851l-0.457,2.272c-7.135,35.469-26.176,42.478-26.354,42.539l-0.392,0.17
							c-13.374,7.202-19.697,8.461-22.338,8.573l-0.294,0.006l-0.356-0.009c-0.231-0.01-0.503-0.033-0.796-0.065v5.02
							c0.232,0.019,0.457,0.035,0.667,0.044l0.485,0.01l0.567-0.013c3.659-0.155,10.837-1.858,24.272-9.076
							c2.422-0.907,21.276-9.029,28.998-44.116c12.157-0.402,16.143-16.506,16.315-17.232l0.043-0.226
							C328.3,146.188,318.754,138.25,312.983,135.381z"/>
						<g id="XMLID_8_">
							<path id="XMLID_189_" class="st6" d="M276.316,133.021c-6.58,0-12.228,3.958-14.715,9.619
								c-2.057-0.59-4.602-0.946-7.588-0.707v5.026h6.387c-0.093,0.701-0.158,1.41-0.158,2.137c0,8.878,7.197,16.074,16.074,16.074
								s16.074-7.197,16.074-16.074S285.194,133.021,276.316,133.021z"/>
							<path id="XMLID_184_" class="st6" d="M283.542,191.336c-0.132-0.405-0.491-0.514-0.89-0.502
								c-2.439,0.071-4.577-0.724-6.524-2.169c-1.831-1.359-3.41-2.985-5.026-4.573c-1.435-1.41-2.879-2.807-4.673-3.771
								c-1.887-1.014-3.888-1.437-5.992-0.955c-1.276,0.292-2.51,0.763-3.768,1.138c-0.174,0.052-0.39,0.059-0.561,0.005
								c-0.702-0.224-1.396-0.47-2.095-0.702v19.325c0.745,0.228,1.536,0.351,2.355,0.351c3.284,0,6.104-1.972,7.351-4.795
								c3.452,1.719,7.197,2.501,11.289,2.086c3.499-0.355,6.308-2.049,8.462-4.82C283.582,191.811,283.601,191.519,283.542,191.336
								z"/>
						</g>
					</g>
					<g id="XMLID_6_">
						<path id="XMLID_11_" class="st7" d="M182.383,135.787c-1.601-17.613,7.205-16.813,7.205-16.813
							c0-19.214,12.009-16.234,12.009-16.234v55.463h-19.409C164.381,150.198,182.383,135.787,182.383,135.787z"/>
						<path id="XMLID_10_" class="st7" d="M195.394,135.381l-1.322-25.526l-0.003-0.129c0-0.771,0.347-19.063,30.521-35.596
							l0.362-0.163c2.183-0.776,21.267-7.489,28.259-6.977c0.352-0.027,0.742-0.031,1.153-0.022v4.988
							c-0.331-0.007-0.628,0.002-0.887,0.03l-0.266,0.028l-0.266-0.028c-4.188-0.446-18.156,3.798-26.128,6.624
							c-26.515,14.594-27.704,30.226-27.747,31.079l1.498,28.941l-1.674,0.659c-5.203,2.049-13.532,8.231-10.949,26.621
							c0.336,1.276,3.997,14.373,13.131,13.225l2.301-0.284l0.457,2.272c7.135,35.469,26.176,42.478,26.354,42.539l0.392,0.17
							c13.374,7.202,19.697,8.461,22.338,8.573l0.294,0.006l0.356-0.009c0.231-0.01,0.503-0.033,0.796-0.065v5.02
							c-0.232,0.019-0.457,0.035-0.667,0.044l-0.485,0.01l-0.567-0.013c-3.659-0.155-10.837-1.858-24.272-9.076
							c-2.422-0.907-21.276-9.029-28.998-44.116c-12.157-0.402-16.143-16.506-16.315-17.232l-0.043-0.226
							C180.078,146.188,189.624,138.25,195.394,135.381z"/>
						<g id="XMLID_9_">
							<path id="XMLID_12_" class="st7" d="M232.061,133.021c6.58,0,12.228,3.958,14.715,9.619c2.057-0.59,4.602-0.946,7.588-0.707
								v5.026h-6.387c0.093,0.701,0.158,1.41,0.158,2.137c0,8.878-7.197,16.074-16.074,16.074s-16.074-7.197-16.074-16.074
								S223.183,133.021,232.061,133.021z"/>
							<path id="XMLID_13_" class="st7" d="M224.835,191.336c0.132-0.405,0.491-0.514,0.89-0.502
								c2.439,0.071,4.577-0.724,6.524-2.169c1.831-1.359,3.41-2.985,5.026-4.573c1.435-1.41,2.879-2.807,4.673-3.771
								c1.887-1.014,3.888-1.437,5.992-0.955c1.276,0.292,2.51,0.763,3.768,1.138c0.174,0.052,0.39,0.059,0.561,0.005
								c0.702-0.224,1.396-0.47,2.095-0.702v19.325c-0.745,0.228-1.536,0.351-2.355,0.351c-3.284,0-6.104-1.972-7.351-4.795
								c-3.452,1.719-7.197,2.501-11.289,2.086c-3.499-0.355-6.308-2.049-8.462-4.82
								C224.796,191.811,224.776,191.519,224.835,191.336z"/>
						</g>
					</g>
				</g>
			</g>
		</g>
	</g>
</g>
</svg>
