<?xml version="1.0" encoding="utf-8"?>
<!-- Generator: Adobe Illustrator 19.0.0, SVG Export Plug-In . SVG Version: 6.00 Build 0)  -->
<svg version="1.1" id="Capa_1" xmlns="http://www.w3.org/2000/svg" xmlns:xlink="http://www.w3.org/1999/xlink" x="0px" y="0px"
	 viewBox="0 0 512 404" style="enable-background:new 0 0 512 404;" xml:space="preserve">
<style type="text/css">
	.st0{clip-path:url(#XMLID_6_);fill:#F2F2F2;}
	.st1{clip-path:url(#XMLID_6_);fill:#F2C40F;}
	.st2{clip-path:url(#XMLID_6_);fill:none;}
	.st3{clip-path:url(#XMLID_6_);}
	.st4{fill:#5B5B5B;}
	.st5{clip-path:url(#XMLID_7_);fill:#F39F19;}
	.st6{fill:#FFFFFF;}
	.st7{fill:#F3F3F3;}
</style>
<g id="XMLID_1058_">
	<g id="XMLID_1129_">
		<defs>
			<rect id="XMLID_1111_" width="512" height="404"/>
		</defs>
		<clipPath id="XMLID_6_">
			<use xlink:href="#XMLID_1111_"  style="overflow:visible;"/>
		</clipPath>
		<path id="XMLID_620_" class="st0" d="M502,404H10c-5.5,0-10-4.5-10-10V114c0-5.5,4.5-10,10-10h492c5.5,0,10,4.5,10,10v280
			C512,399.5,507.5,404,502,404z"/>
		<circle id="XMLID_634_" class="st1" cx="256" cy="149.77" r="138.569"/>
		<rect id="XMLID_678_" x="256.12" y="-41.609" class="st2" width="221.514" height="394.024"/>
		<g id="XMLID_1_" class="st3">
			<path id="XMLID_2_" class="st4" d="M188.801,310.17c-2.279,0-4.043,0.856-5.293,2.568s-1.875,4.099-1.875,7.158
				c0,6.367,2.389,9.551,7.168,9.551c2.005,0,4.434-0.501,7.285-1.504v5.078c-2.344,0.977-4.961,1.465-7.852,1.465
				c-4.154,0-7.331-1.26-9.531-3.779c-2.201-2.52-3.301-6.136-3.301-10.85c0-2.969,0.54-5.569,1.621-7.803
				c1.081-2.233,2.633-3.945,4.658-5.137c2.024-1.191,4.397-1.787,7.119-1.787c2.773,0,5.56,0.671,8.359,2.012l-1.953,4.922
				c-1.068-0.508-2.142-0.95-3.223-1.328C190.904,310.359,189.843,310.17,188.801,310.17z"/>
			<path id="XMLID_4_" class="st4" d="M215.559,334.096l-1.152-2.969h-0.156c-1.003,1.263-2.035,2.139-3.096,2.627
				c-1.062,0.488-2.445,0.732-4.15,0.732c-2.097,0-3.747-0.599-4.951-1.797c-1.205-1.198-1.807-2.903-1.807-5.117
				c0-2.317,0.811-4.026,2.432-5.127s4.065-1.709,7.334-1.826l3.789-0.117v-0.957c0-2.214-1.133-3.32-3.398-3.32
				c-1.745,0-3.796,0.527-6.152,1.582l-1.973-4.023c2.513-1.315,5.299-1.973,8.359-1.973c2.93,0,5.176,0.638,6.738,1.914
				s2.344,3.216,2.344,5.82v14.551H215.559z M213.801,323.979l-2.305,0.078c-1.732,0.052-3.021,0.364-3.867,0.938
				c-0.847,0.573-1.27,1.445-1.27,2.617c0,1.68,0.963,2.52,2.891,2.52c1.38,0,2.483-0.397,3.311-1.191
				c0.827-0.794,1.24-1.849,1.24-3.164V323.979z"/>
			<path id="XMLID_18_" class="st4" d="M235.051,329.741c1.042,0,2.292-0.228,3.75-0.684v4.434
				c-1.484,0.664-3.308,0.996-5.469,0.996c-2.383,0-4.118-0.603-5.205-1.807c-1.087-1.204-1.631-3.011-1.631-5.42v-10.527h-2.852
				v-2.52l3.281-1.992l1.719-4.609h3.809v4.648h6.113v4.473h-6.113v10.527c0,0.847,0.237,1.472,0.713,1.875
				C233.642,329.539,234.27,329.741,235.051,329.741z"/>
			<path id="XMLID_20_" class="st4" d="M253.098,334.487c-3.516,0-6.263-0.97-8.242-2.91c-1.979-1.94-2.969-4.688-2.969-8.242
				c0-3.659,0.915-6.487,2.744-8.486c1.829-1.999,4.358-2.998,7.588-2.998c3.086,0,5.488,0.879,7.207,2.637s2.578,4.187,2.578,7.285
				v2.891h-14.082c0.065,1.692,0.566,3.015,1.504,3.965s2.252,1.426,3.945,1.426c1.315,0,2.559-0.137,3.73-0.41
				s2.396-0.71,3.672-1.309v4.609c-1.042,0.521-2.155,0.908-3.34,1.162C256.249,334.36,254.804,334.487,253.098,334.487z
				 M252.258,316.088c-1.263,0-2.253,0.4-2.969,1.201c-0.716,0.801-1.126,1.937-1.23,3.408h8.359
				c-0.026-1.472-0.41-2.607-1.152-3.408S253.521,316.088,252.258,316.088z"/>
			<path id="XMLID_29_" class="st4" d="M285.852,312.26v3.027l-3.418,0.879c0.625,0.977,0.938,2.07,0.938,3.281
				c0,2.344-0.817,4.17-2.451,5.479c-1.634,1.309-3.903,1.963-6.807,1.963l-1.074-0.059l-0.879-0.098
				c-0.612,0.469-0.918,0.989-0.918,1.563c0,0.859,1.094,1.289,3.281,1.289h3.711c2.396,0,4.222,0.515,5.479,1.543
				c1.256,1.028,1.885,2.539,1.885,4.531c0,2.552-1.064,4.531-3.193,5.938s-5.186,2.109-9.17,2.109c-3.047,0-5.375-0.53-6.982-1.592
				c-1.608-1.062-2.412-2.549-2.412-4.463c0-1.315,0.41-2.415,1.23-3.301s2.024-1.517,3.613-1.895
				c-0.612-0.261-1.146-0.687-1.602-1.279c-0.456-0.593-0.684-1.221-0.684-1.885c0-0.833,0.241-1.526,0.723-2.08
				c0.481-0.554,1.178-1.097,2.09-1.631c-1.146-0.495-2.054-1.289-2.725-2.383c-0.671-1.094-1.006-2.383-1.006-3.867
				c0-2.383,0.774-4.226,2.324-5.527c1.549-1.302,3.763-1.953,6.641-1.953c0.612,0,1.338,0.056,2.178,0.166s1.377,0.192,1.611,0.244
				H285.852z M268.997,337.182c0,0.82,0.394,1.465,1.182,1.934c0.788,0.469,1.891,0.703,3.311,0.703c2.135,0,3.809-0.293,5.02-0.879
				s1.816-1.387,1.816-2.402c0-0.82-0.358-1.387-1.074-1.699c-0.716-0.313-1.823-0.469-3.32-0.469h-3.086
				c-1.094,0-2.009,0.257-2.744,0.771C269.364,335.656,268.997,336.335,268.997,337.182z M271.165,319.409
				c0,1.185,0.27,2.122,0.811,2.813c0.54,0.69,1.364,1.035,2.471,1.035c1.12,0,1.94-0.345,2.461-1.035
				c0.521-0.69,0.781-1.628,0.781-2.813c0-2.63-1.081-3.945-3.242-3.945C272.258,315.463,271.165,316.779,271.165,319.409z"/>
			<path id="XMLID_42_" class="st4" d="M309.29,323.139c0,3.555-0.938,6.335-2.813,8.34s-4.486,3.008-7.832,3.008
				c-2.097,0-3.945-0.459-5.547-1.377s-2.832-2.236-3.691-3.955s-1.289-3.724-1.289-6.016c0-3.567,0.931-6.341,2.793-8.32
				c1.862-1.979,4.479-2.969,7.852-2.969c2.096,0,3.945,0.456,5.547,1.367s2.832,2.22,3.691,3.926S309.29,320.847,309.29,323.139z
				 M294.192,323.139c0,2.161,0.354,3.796,1.064,4.902c0.709,1.106,1.865,1.66,3.467,1.66c1.588,0,2.731-0.55,3.428-1.65
				c0.696-1.101,1.045-2.737,1.045-4.912c0-2.161-0.352-3.782-1.055-4.863s-1.855-1.621-3.457-1.621
				c-1.589,0-2.734,0.537-3.438,1.611S294.192,320.964,294.192,323.139z"/>
			<path id="XMLID_46_" class="st4" d="M326.399,311.85c0.807,0,1.478,0.059,2.012,0.176l-0.449,5.586
				c-0.482-0.13-1.068-0.195-1.758-0.195c-1.901,0-3.382,0.488-4.443,1.465c-1.062,0.977-1.592,2.344-1.592,4.102v11.113h-5.957
				V312.26h4.512l0.879,3.672h0.293c0.677-1.224,1.592-2.21,2.744-2.959S325.044,311.85,326.399,311.85z"/>
			<path id="XMLID_48_" class="st4" d="M332.083,309.858v-0.527c2.239-2.604,3.77-4.563,4.59-5.879h6.68v0.41
				c-0.677,0.677-1.833,1.683-3.467,3.018c-1.634,1.335-2.914,2.327-3.838,2.979H332.083z M338.333,334.096h-5.957V312.26h5.957
				V334.096z"/>
			<path id="XMLID_54_" class="st4" d="M358.45,334.096l-1.152-2.969h-0.156c-1.003,1.263-2.035,2.139-3.096,2.627
				c-1.062,0.488-2.445,0.732-4.15,0.732c-2.097,0-3.747-0.599-4.951-1.797c-1.205-1.198-1.807-2.903-1.807-5.117
				c0-2.317,0.811-4.026,2.432-5.127s4.065-1.709,7.334-1.826l3.789-0.117v-0.957c0-2.214-1.133-3.32-3.398-3.32
				c-1.745,0-3.796,0.527-6.152,1.582l-1.973-4.023c2.513-1.315,5.299-1.973,8.359-1.973c2.93,0,5.176,0.638,6.738,1.914
				s2.344,3.216,2.344,5.82v14.551H358.45z M356.692,323.979l-2.305,0.078c-1.732,0.052-3.021,0.364-3.867,0.938
				c-0.847,0.573-1.27,1.445-1.27,2.617c0,1.68,0.963,2.52,2.891,2.52c1.38,0,2.483-0.397,3.311-1.191
				c0.827-0.794,1.24-1.849,1.24-3.164V323.979z"/>
			<path id="XMLID_57_" class="st4" d="M176.848,368.225h-0.176c-1.498,2.175-3.737,3.262-6.719,3.262
				c-2.8,0-4.978-0.957-6.533-2.871c-1.556-1.914-2.334-4.636-2.334-8.164s0.781-6.27,2.344-8.223s3.737-2.93,6.523-2.93
				c2.903,0,5.13,1.055,6.68,3.164h0.254l-0.137-1.543l-0.078-1.504v-8.711h3.242v30.391h-2.637L176.848,368.225z M170.364,368.772
				c2.213,0,3.818-0.603,4.814-1.807s1.494-3.147,1.494-5.83v-0.684c0-3.034-0.505-5.198-1.514-6.494
				c-1.009-1.296-2.621-1.943-4.834-1.943c-1.901,0-3.356,0.739-4.365,2.217c-1.009,1.478-1.514,3.564-1.514,6.26
				c0,2.734,0.501,4.798,1.504,6.191C166.952,368.076,168.423,368.772,170.364,368.772z"/>
			<path id="XMLID_60_" class="st4" d="M195.833,371.487c-3.164,0-5.661-0.964-7.49-2.891c-1.83-1.927-2.744-4.603-2.744-8.027
				c0-3.45,0.85-6.191,2.549-8.223s3.981-3.047,6.846-3.047c2.682,0,4.805,0.882,6.367,2.646s2.344,4.092,2.344,6.982v2.051h-14.746
				c0.065,2.513,0.7,4.421,1.904,5.723c1.204,1.302,2.9,1.953,5.088,1.953c2.305,0,4.583-0.481,6.836-1.445v2.891
				c-1.146,0.495-2.23,0.85-3.252,1.064C198.511,371.379,197.278,371.487,195.833,371.487z M194.954,352.014
				c-1.719,0-3.089,0.56-4.111,1.68c-1.022,1.12-1.625,2.669-1.807,4.648h11.191c0-2.044-0.456-3.61-1.367-4.697
				C197.948,352.558,196.646,352.014,194.954,352.014z"/>
			<path id="XMLID_65_" class="st4" d="M228.899,371.096h-3.32v-25.605h-9.043v-2.949h21.406v2.949h-9.043V371.096z"/>
			<path id="XMLID_67_" class="st4" d="M251.516,349.299c0.95,0,1.803,0.078,2.559,0.234l-0.449,3.008
				c-0.886-0.195-1.667-0.293-2.344-0.293c-1.732,0-3.213,0.703-4.443,2.109s-1.846,3.157-1.846,5.254v11.484h-3.242V349.69h2.676
				l0.371,3.965h0.156c0.794-1.394,1.751-2.468,2.871-3.223C248.944,349.677,250.175,349.299,251.516,349.299z"/>
			<path id="XMLID_69_" class="st4" d="M271.243,371.096l-0.645-3.047h-0.156c-1.068,1.341-2.132,2.249-3.193,2.725
				c-1.062,0.476-2.386,0.713-3.975,0.713c-2.123,0-3.786-0.547-4.99-1.641c-1.205-1.094-1.807-2.649-1.807-4.668
				c0-4.323,3.457-6.589,10.371-6.797l3.633-0.117v-1.328c0-1.68-0.361-2.92-1.084-3.721s-1.878-1.201-3.467-1.201
				c-1.784,0-3.802,0.547-6.055,1.641l-0.996-2.48c1.055-0.573,2.21-1.022,3.467-1.348c1.256-0.325,2.516-0.488,3.779-0.488
				c2.552,0,4.443,0.566,5.674,1.699s1.846,2.949,1.846,5.449v14.609H271.243z M263.918,368.811c2.018,0,3.604-0.554,4.756-1.66
				s1.729-2.656,1.729-4.648v-1.934l-3.242,0.137c-2.578,0.091-4.437,0.491-5.576,1.201c-1.14,0.71-1.709,1.813-1.709,3.311
				c0,1.172,0.354,2.063,1.064,2.676C261.649,368.505,262.642,368.811,263.918,368.811z M263.157,346.37
				c0.625-0.808,1.299-1.784,2.021-2.93s1.292-2.142,1.709-2.988h3.945v0.41c-0.573,0.847-1.426,1.888-2.559,3.125
				s-2.116,2.194-2.949,2.871h-2.168V346.37z"/>
			<path id="XMLID_73_" class="st4" d="M307.61,371.096V357.17c0-1.706-0.365-2.985-1.094-3.838
				c-0.729-0.853-1.862-1.279-3.398-1.279c-2.019,0-3.509,0.579-4.473,1.738c-0.964,1.159-1.445,2.942-1.445,5.352v11.953h-3.242
				V357.17c0-1.706-0.365-2.985-1.094-3.838c-0.729-0.853-1.869-1.279-3.418-1.279c-2.031,0-3.519,0.608-4.463,1.826
				c-0.944,1.218-1.416,3.213-1.416,5.986v11.23h-3.242V349.69h2.637l0.527,2.93h0.156c0.612-1.042,1.475-1.855,2.588-2.441
				s2.36-0.879,3.74-0.879c3.346,0,5.534,1.211,6.563,3.633h0.156c0.638-1.12,1.563-2.005,2.773-2.656s2.591-0.977,4.141-0.977
				c2.422,0,4.235,0.622,5.439,1.865c1.204,1.243,1.807,3.232,1.807,5.967v13.965H307.61z"/>
			<path id="XMLID_78_" class="st4" d="M317.258,343.889c0-0.742,0.182-1.286,0.547-1.631c0.364-0.345,0.82-0.518,1.367-0.518
				c0.521,0,0.97,0.176,1.348,0.527c0.377,0.352,0.566,0.892,0.566,1.621s-0.189,1.272-0.566,1.631
				c-0.378,0.358-0.827,0.537-1.348,0.537c-0.547,0-1.003-0.179-1.367-0.537C317.44,345.162,317.258,344.619,317.258,343.889z
				 M320.774,371.096h-3.242V349.69h3.242V371.096z"/>
			<path id="XMLID_81_" class="st4" d="M334.563,368.811c0.573,0,1.126-0.042,1.66-0.127c0.534-0.085,0.957-0.173,1.27-0.264v2.48
				c-0.352,0.169-0.869,0.31-1.553,0.42s-1.299,0.166-1.846,0.166c-4.141,0-6.211-2.181-6.211-6.543v-12.734h-3.066v-1.563
				l3.066-1.348l1.367-4.57h1.875v4.961h6.211v2.52h-6.211v12.598c0,1.289,0.306,2.278,0.918,2.969
				C332.655,368.466,333.495,368.811,334.563,368.811z"/>
			<path id="XMLID_83_" class="st4" d="M350.813,371.487c-3.164,0-5.661-0.964-7.49-2.891c-1.83-1.927-2.744-4.603-2.744-8.027
				c0-3.45,0.85-6.191,2.549-8.223s3.981-3.047,6.846-3.047c2.682,0,4.805,0.882,6.367,2.646s2.344,4.092,2.344,6.982v2.051h-14.746
				c0.065,2.513,0.7,4.421,1.904,5.723c1.204,1.302,2.9,1.953,5.088,1.953c2.305,0,4.583-0.481,6.836-1.445v2.891
				c-1.146,0.495-2.23,0.85-3.252,1.064C353.492,371.379,352.258,371.487,350.813,371.487z M349.934,352.014
				c-1.719,0-3.089,0.56-4.111,1.68c-1.022,1.12-1.625,2.669-1.807,4.648h11.191c0-2.044-0.456-3.61-1.367-4.697
				C352.929,352.558,351.626,352.014,349.934,352.014z"/>
			<path id="XMLID_86_" class="st4" d="M378.02,365.256c0,1.992-0.742,3.528-2.227,4.609s-3.568,1.621-6.25,1.621
				c-2.839,0-5.052-0.449-6.641-1.348v-3.008c1.028,0.521,2.132,0.931,3.311,1.23c1.178,0.3,2.314,0.449,3.408,0.449
				c1.692,0,2.995-0.271,3.906-0.811c0.911-0.54,1.367-1.364,1.367-2.471c0-0.833-0.361-1.546-1.084-2.139s-2.132-1.292-4.229-2.1
				c-1.992-0.742-3.408-1.39-4.248-1.943s-1.465-1.182-1.875-1.885s-0.615-1.543-0.615-2.52c0-1.745,0.709-3.122,2.129-4.131
				c1.419-1.009,3.366-1.514,5.84-1.514c2.305,0,4.557,0.469,6.758,1.406l-1.152,2.637c-2.148-0.886-4.095-1.328-5.84-1.328
				c-1.537,0-2.695,0.241-3.477,0.723s-1.172,1.146-1.172,1.992c0,0.573,0.146,1.062,0.439,1.465s0.765,0.788,1.416,1.152
				c0.651,0.364,1.901,0.892,3.75,1.582c2.539,0.925,4.254,1.855,5.146,2.793C377.574,362.659,378.02,363.837,378.02,365.256z"/>
		</g>
		<g id="XMLID_63_" class="st3">
			<defs>
				<rect id="XMLID_62_" x="255.335" y="-42.89" width="206.065" height="393.431"/>
			</defs>
			<clipPath id="XMLID_7_">
				<use xlink:href="#XMLID_62_"  style="overflow:visible;"/>
			</clipPath>
			<circle id="XMLID_677_" class="st5" cx="255.335" cy="149.431" r="138.569"/>
		</g>
		<g id="XMLID_31_" class="st3">
			<path id="XMLID_37_" class="st6" d="M308.015,138.005h-7.897v36.112h7.897c2.467,0,4.47-1.996,4.47-4.468v-27.172
				C312.485,140.011,310.482,138.005,308.015,138.005z"/>
			<path id="XMLID_43_" class="st6" d="M308.015,180.741h-7.897v38.008h7.897c2.467,0,4.47-2.001,4.47-4.468v-29.073
				C312.485,182.742,310.482,180.741,308.015,180.741z"/>
			<path id="XMLID_121_" class="st6" d="M308.015,93.749h-56.679v14.624h28.613v12.354h-19.008v57.65h-9.605v7.221h26.887
				c0.988,0,1.788,0.797,1.788,1.782c0,0.99-0.8,1.788-1.788,1.788h-26.887v13.892h27.887c0.988,0,1.788,0.797,1.788,1.783
				c0,0.993-0.8,1.79-1.788,1.79h-27.887v12.486h40.195c2.47,0,4.468-2.001,4.468-4.468v-82.895h12.016
				c2.467,0,4.47-1.996,4.47-4.468V98.217C312.485,95.75,310.482,93.749,308.015,93.749z"/>
		</g>
		<g id="XMLID_34_" class="st3">
			<g id="XMLID_95_">
				<g id="XMLID_96_">
					<path id="XMLID_98_" class="st7" d="M255.338,206.63H226.32c-0.983,0-1.785-0.797-1.785-1.79c0-0.985,0.802-1.783,1.785-1.783
						h29.018v-13.892H225.32c-0.983,0-1.785-0.797-1.785-1.788c0-0.985,0.802-1.782,1.785-1.782h30.018v-7.221h-11.239v-57.65
						h-19.01V108.37h30.249V93.746h-50.014c-2.467,0-4.468,2.001-4.468,4.468v116.435c0,2.467,2.001,4.468,4.468,4.468h50.014
						V206.63z"/>
				</g>
			</g>
		</g>
	</g>
</g>
</svg>
