<?xml version="1.0" encoding="utf-8"?>
<!-- Generator: Adobe Illustrator 19.0.0, SVG Export Plug-In . SVG Version: 6.00 Build 0)  -->
<svg version="1.1" id="Capa_1" xmlns="http://www.w3.org/2000/svg" xmlns:xlink="http://www.w3.org/1999/xlink" x="0px" y="0px"
	 viewBox="0 0 512 404" style="enable-background:new 0 0 512 404;" xml:space="preserve">
<style type="text/css">
	.st0{clip-path:url(#XMLID_2_);}
	.st1{fill:#F2F2F2;}
	.st2{fill:#3095C1;}
	.st3{fill:#5B5B5B;}
	.st4{opacity:0.2;}
	.st5{clip-path:url(#XMLID_4_);fill:#297FA2;}
	.st6{fill:#F3F3F3;}
	.st7{fill:#FFFFFF;}
</style>
<g id="XMLID_1084_">
	<g id="glosario">
		<defs>
			<rect id="XMLID_512_" width="512" height="404"/>
		</defs>
		<clipPath id="XMLID_2_">
			<use xlink:href="#XMLID_512_"  style="overflow:visible;"/>
		</clipPath>
		<g id="XMLID_427_" class="st0">
			<path id="XMLID_397_" class="st1" d="M502,404H10c-5.5,0-10-4.5-10-10V114c0-5.5,4.5-10,10-10h492c5.5,0,10,4.5,10,10v280
				C512,399.5,507.5,404,502,404z"/>
			<circle id="XMLID_396_" class="st2" cx="256" cy="149.77" r="138.569"/>
			<g id="XMLID_439_">
				<g id="XMLID_170_">
					<path id="XMLID_190_" class="st3" d="M187.721,349.062h11.328v14.805c-1.836,0.599-3.564,1.019-5.186,1.26
						s-3.278,0.361-4.971,0.361c-4.311,0-7.602-1.267-9.873-3.799c-2.272-2.532-3.408-6.169-3.408-10.908
						c0-4.609,1.318-8.203,3.955-10.781s6.292-3.867,10.967-3.867c2.93,0,5.755,0.586,8.477,1.758l-2.012,4.844
						c-2.084-1.042-4.252-1.563-6.504-1.563c-2.617,0-4.714,0.879-6.289,2.637c-1.576,1.758-2.363,4.121-2.363,7.09
						c0,3.099,0.635,5.466,1.904,7.1s3.115,2.451,5.537,2.451c1.263,0,2.545-0.13,3.848-0.391v-5.957h-5.41V349.062z"/>
					<path id="XMLID_188_" class="st3" d="M211.334,365.097h-5.957v-30.391h5.957V365.097z"/>
					<path id="XMLID_184_" class="st3" d="M237.428,354.14c0,3.555-0.938,6.335-2.813,8.34s-4.486,3.008-7.832,3.008
						c-2.097,0-3.945-0.459-5.547-1.377s-2.832-2.236-3.691-3.955s-1.289-3.724-1.289-6.016c0-3.567,0.931-6.341,2.793-8.32
						c1.861-1.979,4.479-2.969,7.852-2.969c2.096,0,3.945,0.456,5.547,1.367s2.832,2.22,3.691,3.926S237.428,351.848,237.428,354.14
						z M222.33,354.14c0,2.161,0.354,3.796,1.064,4.902c0.709,1.106,1.865,1.66,3.467,1.66c1.588,0,2.73-0.55,3.428-1.65
						c0.696-1.101,1.045-2.737,1.045-4.912c0-2.161-0.352-3.782-1.055-4.863s-1.855-1.621-3.457-1.621
						c-1.589,0-2.734,0.537-3.438,1.611S222.33,351.965,222.33,354.14z"/>
					<path id="XMLID_182_" class="st3" d="M257.584,358.613c0,2.239-0.778,3.945-2.334,5.117c-1.557,1.172-3.884,1.758-6.982,1.758
						c-1.589,0-2.943-0.107-4.063-0.322c-1.12-0.215-2.168-0.53-3.145-0.947v-4.922c1.106,0.521,2.354,0.957,3.74,1.309
						s2.607,0.527,3.662,0.527c2.161,0,3.242-0.625,3.242-1.875c0-0.469-0.144-0.85-0.43-1.143
						c-0.287-0.293-0.781-0.625-1.484-0.996s-1.641-0.804-2.813-1.299c-1.68-0.703-2.914-1.354-3.701-1.953
						c-0.788-0.599-1.361-1.286-1.719-2.061c-0.358-0.774-0.537-1.729-0.537-2.861c0-1.94,0.752-3.44,2.256-4.502
						s3.636-1.592,6.396-1.592c2.63,0,5.188,0.573,7.676,1.719l-1.797,4.297c-1.094-0.469-2.116-0.853-3.066-1.152
						c-0.951-0.3-1.921-0.449-2.91-0.449c-1.758,0-2.637,0.476-2.637,1.426c0,0.534,0.283,0.996,0.85,1.387s1.807,0.97,3.721,1.738
						c1.705,0.69,2.955,1.335,3.75,1.934c0.794,0.599,1.38,1.289,1.758,2.07C257.395,356.601,257.584,357.532,257.584,358.613z"/>
					<path id="XMLID_179_" class="st3" d="M276.1,365.097l-1.152-2.969h-0.156c-1.003,1.263-2.035,2.139-3.096,2.627
						c-1.062,0.488-2.445,0.732-4.15,0.732c-2.097,0-3.747-0.599-4.951-1.797c-1.205-1.198-1.807-2.903-1.807-5.117
						c0-2.317,0.811-4.026,2.432-5.127s4.065-1.709,7.334-1.826l3.789-0.117v-0.957c0-2.214-1.133-3.32-3.398-3.32
						c-1.745,0-3.796,0.527-6.152,1.582l-1.973-4.023c2.513-1.315,5.299-1.973,8.359-1.973c2.93,0,5.176,0.638,6.738,1.914
						s2.344,3.216,2.344,5.82v14.551H276.1z M274.342,354.98l-2.305,0.078c-1.732,0.052-3.021,0.364-3.867,0.938
						c-0.847,0.573-1.27,1.445-1.27,2.617c0,1.68,0.963,2.52,2.891,2.52c1.38,0,2.483-0.397,3.311-1.191
						c0.826-0.794,1.24-1.849,1.24-3.164V354.98z"/>
					<path id="XMLID_177_" class="st3" d="M298.58,342.851c0.807,0,1.478,0.059,2.012,0.176l-0.449,5.586
						c-0.482-0.13-1.068-0.195-1.758-0.195c-1.901,0-3.383,0.488-4.443,1.465c-1.062,0.977-1.592,2.344-1.592,4.102v11.113h-5.957
						v-21.836h4.512l0.879,3.672h0.293c0.677-1.224,1.592-2.21,2.744-2.959S297.226,342.851,298.58,342.851z"/>
					<path id="XMLID_174_" class="st3" d="M304.303,337.617c0-1.94,1.08-2.91,3.242-2.91c2.161,0,3.242,0.97,3.242,2.91
						c0,0.925-0.271,1.644-0.811,2.158c-0.541,0.515-1.352,0.771-2.432,0.771C305.383,340.546,304.303,339.57,304.303,337.617z
						 M310.514,365.097h-5.957v-21.836h5.957V365.097z"/>
					<path id="XMLID_171_" class="st3" d="M336.608,354.14c0,3.555-0.938,6.335-2.813,8.34s-4.486,3.008-7.832,3.008
						c-2.097,0-3.945-0.459-5.547-1.377s-2.832-2.236-3.691-3.955s-1.289-3.724-1.289-6.016c0-3.567,0.931-6.341,2.793-8.32
						c1.861-1.979,4.479-2.969,7.852-2.969c2.096,0,3.945,0.456,5.547,1.367s2.832,2.22,3.691,3.926S336.608,351.848,336.608,354.14
						z M321.51,354.14c0,2.161,0.354,3.796,1.064,4.902c0.709,1.106,1.865,1.66,3.467,1.66c1.588,0,2.73-0.55,3.428-1.65
						c0.696-1.101,1.045-2.737,1.045-4.912c0-2.161-0.352-3.782-1.055-4.863s-1.855-1.621-3.457-1.621
						c-1.589,0-2.734,0.537-3.438,1.611S321.51,351.965,321.51,354.14z"/>
				</g>
			</g>
			<g id="XMLID_390_" class="st4">
				<defs>
					<rect id="XMLID_391_" x="256.12" y="-41.609" class="st4" width="221.514" height="394.024"/>
				</defs>
				<clipPath id="XMLID_3_">
					<use xlink:href="#XMLID_391_"  style="overflow:visible;"/>
				</clipPath>
			</g>
			<g id="XMLID_140_">
				<defs>
					<rect id="XMLID_141_" x="255.787" y="-42.555" width="221.514" height="394.024"/>
				</defs>
				<clipPath id="XMLID_4_">
					<use xlink:href="#XMLID_141_"  style="overflow:visible;"/>
				</clipPath>
				<circle id="XMLID_142_" class="st5" cx="255.787" cy="149.504" r="138.569"/>
			</g>
			<g id="XMLID_186_">
				<g id="XMLID_197_">
					<g id="XMLID_61_">
						<path id="XMLID_67_" class="st6" d="M205.364,130.136c0,1.034,0.841,1.879,1.882,1.879h31.768
							c1.041,0,1.882-0.846,1.882-1.879c0-1.044-0.84-1.887-1.882-1.887h-31.768C206.205,128.249,205.364,129.092,205.364,130.136z"
							/>
						<path id="XMLID_66_" class="st6" d="M239.014,143.742h-31.768c-1.041,0-1.882,0.838-1.882,1.879
							c0,1.041,0.841,1.887,1.882,1.887h31.768c1.041,0,1.882-0.846,1.882-1.887C240.896,144.58,240.056,143.742,239.014,143.742z"
							/>
						<path id="XMLID_65_" class="st6" d="M239.014,159.229h-31.768c-1.041,0-1.882,0.843-1.882,1.884
							c0,1.036,0.841,1.879,1.882,1.879h31.768c1.041,0,1.882-0.843,1.882-1.879C240.896,160.072,240.056,159.229,239.014,159.229z"
							/>
						<path id="XMLID_62_" class="st6" d="M254.784,102.669c-6.833-4.513-19.749-6.276-31.332-6.276
							c-16.687,0-36.179,3.65-36.179,13.936v82.187c0,1.395,0.613,2.704,1.673,3.605c1.063,0.893,2.469,1.266,3.833,1.031
							c9.256-1.596,19.862-2.447,30.674-2.447c10.815,0,21.424,0.851,30.677,2.447c0.129,0.021,0.262,0.021,0.389,0.037
							c0.09,0.007,0.177,0.019,0.266,0.022V102.669z M250.228,187.036c-8.365-1.142-17.509-1.742-26.776-1.742
							c-9.263,0-18.405,0.6-26.773,1.742v-76.109c1.908-1.869,11.304-5.127,26.773-5.127c15.472,0,24.873,3.259,26.776,5.127
							V187.036z"/>
					</g>
				</g>
				<g id="XMLID_234_">
					<g id="XMLID_29_">
						<path id="XMLID_31_" class="st7" d="M273.224,166.162c0.222,0.09,0.454,0.122,0.687,0.132c0.026,0,0.047,0.016,0.074,0.016
							c0.048,0,0.085-0.024,0.127-0.027c0.172-0.005,0.338-0.042,0.502-0.095c0.066-0.019,0.127-0.042,0.19-0.069
							c0.214-0.095,0.418-0.217,0.587-0.391l11.238-11.219l11.243,11.219c0.172,0.175,0.373,0.296,0.581,0.389
							c0.066,0.029,0.132,0.053,0.198,0.071c0.161,0.053,0.325,0.09,0.494,0.095c0.045,0.003,0.084,0.027,0.129,0.027
							c0.024,0,0.05-0.016,0.077-0.016c0.232-0.011,0.465-0.042,0.684-0.132c0.248-0.106,0.468-0.254,0.645-0.434
							c0.367-0.362,0.584-0.867,0.584-1.406v-57.378v-9.538v-6.689c0-0.529-0.206-1.038-0.582-1.411
							c-0.37-0.373-0.877-0.579-1.406-0.579h-25.293l0,0c-0.19,0-0.365,0.058-0.542,0.108c-0.077,0.019-0.161,0.016-0.23,0.042
							c-0.716,0.301-1.216,1.009-1.216,1.834v6.639v9.52v57.452C271.998,165.123,272.484,165.848,273.224,166.162z"/>
						<path id="XMLID_30_" class="st7" d="M306.911,98.461v9.715c3.335,0.933,5.474,1.961,6.272,2.746v76.109
							c-16.732-2.286-36.819-2.286-53.546,0v-76.109c0.835-0.822,3.116-1.911,6.716-2.87V98.36c-4.541,1.02-8.542,2.455-11.42,4.395
							c-0.047-0.032-0.101-0.06-0.149-0.091v94.543c0.005,0,0.011,0.001,0.016,0.001c0.045,0,0.088,0.013,0.132,0.013
							c0.251,0,0.505-0.026,0.75-0.071c0.019-0.003,0.034,0,0.053-0.003c9.253-1.596,19.862-2.447,30.677-2.447
							c10.812,0,21.418,0.851,30.674,2.447c0.264,0.048,0.534,0.074,0.801,0.074c1.102,0,2.175-0.386,3.029-1.105
							c1.063-0.901,1.676-2.21,1.676-3.605v-82.187C322.592,104.275,315.855,100.522,306.911,98.461z"/>
					</g>
				</g>
			</g>
		</g>
	</g>
</g>
</svg>
