<?xml version="1.0" encoding="utf-8"?>
<!-- Generator: Adobe Illustrator 19.0.0, SVG Export Plug-In . SVG Version: 6.00 Build 0)  -->
<svg version="1.1" id="Capa_1" xmlns="http://www.w3.org/2000/svg" xmlns:xlink="http://www.w3.org/1999/xlink" x="0px" y="0px"
	 viewBox="0 0 400 400" style="enable-background:new 0 0 400 400;" xml:space="preserve">
<style type="text/css">
	.st0{clip-path:url(#XMLID_966_);fill:#155980;}
	.st1{clip-path:url(#XMLID_966_);}
	.st2{opacity:0.08;clip-path:url(#XMLID_967_);fill:#1D1D1B;}
	.st3{fill:#F3F3F3;}
	.st4{fill:#FFFFFF;}
	.st5{clip-path:url(#XMLID_968_);}
	.st6{fill:#155980;}
	.st7{opacity:0.08;clip-path:url(#XMLID_969_);fill:#1D1D1B;}
	.st8{clip-path:url(#XMLID_970_);fill:#155980;}
	.st9{clip-path:url(#XMLID_970_);}
	.st10{opacity:0.08;clip-path:url(#XMLID_971_);fill:#1D1D1B;}
	.st11{clip-path:url(#XMLID_972_);fill:#155980;}
	.st12{clip-path:url(#XMLID_972_);}
	.st13{opacity:0.08;clip-path:url(#XMLID_973_);fill:#1D1D1B;}
	.st14{clip-path:url(#XMLID_974_);fill:#FFFFFF;}
	.st15{clip-path:url(#XMLID_974_);fill:#155980;}
	.st16{clip-path:url(#XMLID_974_);}
	.st17{opacity:0.08;clip-path:url(#XMLID_975_);fill:#1D1D1B;}
	.st18{clip-path:url(#XMLID_974_);fill:#F3F3F3;}
	.st19{clip-path:url(#XMLID_976_);fill:#155980;}
	.st20{clip-path:url(#XMLID_976_);}
	.st21{opacity:0.08;clip-path:url(#XMLID_977_);fill:#1D1D1B;}
</style>
<g id="XMLID_530_">
	<defs>
		<circle id="XMLID_572_" cx="200" cy="200" r="138.569"/>
	</defs>
	<clipPath id="XMLID_966_">
		<use xlink:href="#XMLID_572_"  style="overflow:visible;"/>
	</clipPath>
	<circle id="XMLID_719_" class="st0" cx="200" cy="200" r="138.569"/>
	<g id="XMLID_713_" class="st1">
		<defs>
			<rect id="XMLID_714_" x="199.252" y="7.454" width="206.065" height="393.431"/>
		</defs>
		<clipPath id="XMLID_967_">
			<use xlink:href="#XMLID_714_"  style="overflow:visible;"/>
		</clipPath>
		<circle id="XMLID_715_" class="st2" cx="199.252" cy="199.775" r="138.569"/>
	</g>
	<g id="XMLID_117_" class="st1">
		<path id="XMLID_122_" class="st3" d="M220.829,188.252c-0.042,0.005-0.08,0.025-0.124,0.025H160.71
			c-0.615,0-1.118-0.503-1.118-1.118v-0.745c0-0.615,0.503-1.118,1.118-1.118h47.353c-4.15-1.889-7.848-4.597-10.875-7.93H160.71
			c-0.615,0-1.118-0.503-1.118-1.118v-0.745c0-0.615,0.503-1.118,1.118-1.118h34.079c-1.513-2.108-2.787-4.397-3.779-6.833h-30.3
			c-0.615,0-1.118-0.503-1.118-1.118v-0.745c0-0.615,0.503-1.118,1.118-1.118h29.247c-0.907-3.029-1.401-6.236-1.401-9.56
			c0-5.66,1.418-10.987,3.911-15.653h-40.141c-0.615,0-1.118,0.503-1.118,1.118v118.127c0,0.615,0.503,1.118,1.118,1.118h76.764
			c0.615,0,1.118-0.503,1.118-1.118V187.21c-2.679,0.696-5.488,1.067-8.385,1.067C221.49,188.278,221.16,188.262,220.829,188.252z
			 M221.823,229.741c0,0.615-0.503,1.118-1.118,1.118H160.71c-0.615,0-1.118-0.503-1.118-1.118v-0.745
			c0-0.615,0.503-1.118,1.118-1.118h59.995c0.615,0,1.118,0.503,1.118,1.118V229.741z M221.823,220.188
			c0,0.615-0.503,1.118-1.118,1.118H160.71c-0.615,0-1.118-0.503-1.118-1.118v-0.745c0-0.615,0.503-1.118,1.118-1.118h59.995
			c0.615,0,1.118,0.503,1.118,1.118V220.188z M221.823,196.712c0,0.615-0.503,1.118-1.118,1.118H160.71
			c-0.615,0-1.118-0.503-1.118-1.118v-0.745c0-0.615,0.503-1.118,1.118-1.118h59.995c0.615,0,1.118,0.503,1.118,1.118V196.712z"/>
		<path id="XMLID_208_" class="st3" d="M221.823,127.857c-15.188,0-27.5,12.312-27.5,27.5c0,15.188,12.312,27.5,27.5,27.5
			s27.5-12.312,27.5-27.5C249.323,140.169,237.011,127.857,221.823,127.857z M236.434,157.579c0,1.65-1.35,3-3,3h-8.111v8.111
			c0,1.65-1.35,3-3,3h-1c-1.65,0-3-1.35-3-3v-8.111h-8.111c-1.65,0-3-1.35-3-3v-1c0-1.65,1.35-3,3-3h8.111v-8.111c0-1.65,1.35-3,3-3
			h1c1.65,0,3,1.35,3,3v8.111h8.111c1.65,0,3,1.35,3,3V157.579z"/>
	</g>
	<g id="XMLID_104_" class="st1">
		<path id="XMLID_701_" class="st4" d="M198.987,179.419v5.893h8.845C204.566,183.826,201.586,181.826,198.987,179.419z"/>
		<path id="XMLID_702_" class="st4" d="M221.858,188.278c-0.333,0-0.663-0.015-0.994-0.025c-0.042,0.005-0.08,0.025-0.124,0.025
			h-21.487v6.571h21.487c0.615,0,1.118,0.503,1.118,1.118v0.745c0,0.615-0.503,1.118-1.118,1.118h-21.487v20.495h21.487
			c0.615,0,1.118,0.503,1.118,1.118v0.745c0,0.615-0.503,1.118-1.118,1.118h-21.487v6.571h21.487c0.615,0,1.118,0.503,1.118,1.118
			v0.745c0,0.615-0.503,1.118-1.118,1.118h-21.487v28.862h29.872c0.615,0,1.118-0.503,1.118-1.118V187.21
			C227.564,187.906,224.754,188.278,221.858,188.278z"/>
		<path id="XMLID_245_" class="st4" d="M221.592,127.873c-9.37,0-17.64,4.69-22.605,11.846v31.308
			c4.965,7.156,13.236,11.846,22.605,11.846c15.188,0,27.5-12.312,27.5-27.5C249.092,140.185,236.78,127.873,221.592,127.873z
			 M236.203,157.595c0,1.65-1.35,3-3,3h-8.111v8.111c0,1.65-1.35,3-3,3h-1c-1.65,0-3-1.35-3-3v-8.111h-8.111c-1.65,0-3-1.35-3-3v-1
			c0-1.65,1.35-3,3-3h8.111v-8.111c0-1.65,1.35-3,3-3h1c1.65,0,3,1.35,3,3v8.111h8.111c1.65,0,3,1.35,3,3V157.595z"/>
	</g>
</g>
<g id="XMLID_46_">
	<defs>
		<circle id="XMLID_39_" cx="743" cy="200" r="138.569"/>
	</defs>
	<clipPath id="XMLID_968_">
		<use xlink:href="#XMLID_39_"  style="overflow:visible;"/>
	</clipPath>
	<g id="XMLID_528_" class="st5">
		<circle id="XMLID_187_" class="st6" cx="743" cy="200" r="138.569"/>
		<g id="XMLID_169_">
			<defs>
				<rect id="XMLID_174_" x="742.252" y="7.454" width="206.065" height="393.431"/>
			</defs>
			<clipPath id="XMLID_969_">
				<use xlink:href="#XMLID_174_"  style="overflow:visible;"/>
			</clipPath>
			<circle id="XMLID_175_" class="st7" cx="742.252" cy="199.775" r="138.569"/>
		</g>
		<g id="XMLID_105_">
			<g id="XMLID_329_">
				<path id="XMLID_332_" class="st3" d="M763.637,189.224c-0.042,0.005-0.08,0.025-0.124,0.025h-59.995
					c-0.615,0-1.118-0.503-1.118-1.118v-0.745c0-0.615,0.503-1.118,1.118-1.118h47.353c-4.15-1.889-7.848-4.597-10.875-7.93h-36.478
					c-0.615,0-1.118-0.503-1.118-1.118v-0.745c0-0.615,0.503-1.118,1.118-1.118h34.079c-1.513-2.108-2.787-4.397-3.779-6.833h-30.3
					c-0.615,0-1.118-0.503-1.118-1.118v-0.745c0-0.615,0.503-1.118,1.118-1.118h29.247c-0.907-3.029-1.401-6.236-1.401-9.56
					c0-5.66,1.418-10.987,3.911-15.653h-40.142c-0.615,0-1.118,0.503-1.118,1.118v118.127c0,0.615,0.503,1.118,1.118,1.118h76.764
					c0.615,0,1.118-0.503,1.118-1.118v-71.392c-2.679,0.696-5.488,1.067-8.385,1.067
					C764.298,189.249,763.968,189.234,763.637,189.224z M764.631,230.712c0,0.615-0.503,1.118-1.118,1.118h-59.995
					c-0.615,0-1.118-0.503-1.118-1.118v-0.745c0-0.615,0.503-1.118,1.118-1.118h59.995c0.615,0,1.118,0.503,1.118,1.118V230.712z
					 M764.631,221.16c0,0.615-0.503,1.118-1.118,1.118h-59.995c-0.615,0-1.118-0.503-1.118-1.118v-0.745
					c0-0.615,0.503-1.118,1.118-1.118h59.995c0.615,0,1.118,0.503,1.118,1.118V221.16z M764.631,197.683
					c0,0.615-0.503,1.118-1.118,1.118h-59.995c-0.615,0-1.118-0.503-1.118-1.118v-0.745c0-0.615,0.503-1.118,1.118-1.118h59.995
					c0.615,0,1.118,0.503,1.118,1.118V197.683z"/>
				<path id="XMLID_338_" class="st3" d="M764.631,128.829c-15.188,0-27.5,12.312-27.5,27.5c0,15.188,12.313,27.5,27.5,27.5
					c15.188,0,27.5-12.312,27.5-27.5C792.131,141.141,779.819,128.829,764.631,128.829z M781.335,150.234L763.709,168.3
					c-0.975,0.999-2.335,1.403-3.625,1.215c-1.329,0.201-2.734-0.232-3.715-1.284l-8.507-9.125
					c-1.578-1.692-1.484-4.368,0.208-5.945v0c1.692-1.578,4.368-1.484,5.945,0.208l6.111,6.555l15.185-15.565
					c1.616-1.656,4.293-1.689,5.949-0.073C782.917,145.901,782.95,148.578,781.335,150.234z"/>
			</g>
			<g id="XMLID_173_">
				<path id="XMLID_895_" class="st4" d="M742.278,180.605v5.663h8.602C747.717,184.828,744.819,182.91,742.278,180.605z"/>
				<path id="XMLID_896_" class="st4" d="M764.64,189.249c-0.333,0-0.663-0.015-0.994-0.025c-0.042,0.005-0.08,0.025-0.124,0.025
					h-21.244v6.571h21.244c0.615,0,1.118,0.503,1.118,1.118v0.745c0,0.615-0.503,1.118-1.118,1.118h-21.244v20.495h21.244
					c0.615,0,1.118,0.503,1.118,1.118v0.745c0,0.615-0.503,1.118-1.118,1.118h-21.244v6.571h21.244c0.615,0,1.118,0.503,1.118,1.118
					v0.745c0,0.615-0.503,1.118-1.118,1.118h-21.244v28.862h29.628c0.615,0,1.118-0.503,1.118-1.118v-71.392
					C770.346,188.877,767.537,189.249,764.64,189.249z"/>
				<path id="XMLID_395_" class="st4" d="M764.64,128.829c-9.219,0-17.372,4.541-22.362,11.504v31.993
					c4.99,6.962,13.143,11.504,22.362,11.504c15.188,0,27.5-12.312,27.5-27.5C792.14,141.141,779.828,128.829,764.64,128.829z
					 M781.344,150.234L763.718,168.3c-0.975,0.999-2.335,1.403-3.625,1.215c-1.329,0.201-2.734-0.232-3.715-1.284l-8.507-9.125
					c-1.578-1.692-1.484-4.368,0.208-5.945v0c1.692-1.578,4.368-1.484,5.945,0.208l6.111,6.555l15.185-15.565
					c1.616-1.656,4.293-1.689,5.949-0.073C782.926,145.901,782.959,148.578,781.344,150.234z"/>
			</g>
		</g>
	</g>
</g>
<g id="XMLID_614_">
	<g id="XMLID_45_">
		<defs>
			<circle id="XMLID_40_" cx="-411.126" cy="200" r="138.569"/>
		</defs>
		<clipPath id="XMLID_970_">
			<use xlink:href="#XMLID_40_"  style="overflow:visible;"/>
		</clipPath>
		<circle id="XMLID_176_" class="st8" cx="-411.126" cy="200" r="138.569"/>
		<g id="XMLID_166_" class="st9">
			<defs>
				<rect id="XMLID_167_" x="-411.874" y="7.454" width="206.065" height="393.431"/>
			</defs>
			<clipPath id="XMLID_971_">
				<use xlink:href="#XMLID_167_"  style="overflow:visible;"/>
			</clipPath>
			<circle id="XMLID_168_" class="st10" cx="-411.874" cy="199.775" r="138.569"/>
		</g>
		<g id="XMLID_258_" class="st9">
			<g id="XMLID_263_">
				<path id="XMLID_266_" class="st3" d="M-386.803,136.903h-76.764c-0.615,0-1.118,0.503-1.118,1.118v118.127
					c0,0.615,0.503,1.118,1.118,1.118h76.764c0.615,0,1.118-0.503,1.118-1.118V138.021
					C-385.685,137.406-386.188,136.903-386.803,136.903z M-456.3,163.234c0-0.615,0.503-1.118,1.118-1.118h44.158
					c0.615,0,1.118,0.503,1.118,1.118v0.745c0,0.615-0.503,1.118-1.118,1.118h-44.158c-0.615,0-1.118-0.503-1.118-1.118V163.234z
					 M-394.069,227.286c0,0.615-0.503,1.118-1.118,1.118h-59.995c-0.615,0-1.118-0.503-1.118-1.118v-0.745
					c0-0.615,0.503-1.118,1.118-1.118h59.995c0.615,0,1.118,0.503,1.118,1.118V227.286z M-394.069,217.734
					c0,0.615-0.503,1.118-1.118,1.118h-59.995c-0.615,0-1.118-0.503-1.118-1.118v-0.745c0-0.615,0.503-1.118,1.118-1.118h59.995
					c0.615,0,1.118,0.503,1.118,1.118V217.734z M-394.069,194.257c0,0.615-0.503,1.118-1.118,1.118h-59.995
					c-0.615,0-1.118-0.503-1.118-1.118v-0.745c0-0.615,0.503-1.118,1.118-1.118h59.995c0.615,0,1.118,0.503,1.118,1.118V194.257z
					 M-394.069,184.705c0,0.615-0.503,1.118-1.118,1.118h-59.995c-0.615,0-1.118-0.503-1.118-1.118v-0.745
					c0-0.615,0.503-1.118,1.118-1.118h59.995c0.615,0,1.118,0.503,1.118,1.118V184.705z M-394.069,173.794
					c0,0.615-0.503,1.118-1.118,1.118h-59.995c-0.615,0-1.118-0.503-1.118-1.118v-0.745c0-0.615,0.503-1.118,1.118-1.118h59.995
					c0.615,0,1.118,0.503,1.118,1.118V173.794z"/>
				<g id="XMLID_264_">
					<path id="XMLID_265_" class="st3" d="M-358.436,177.916h-22.208v20.528h2.488c0.5,0,0.91,0.41,0.91,0.91v0.607
						c0,0.501-0.41,0.91-0.91,0.91h-2.488v5.563h15.382c0.5,0,0.91,0.41,0.91,0.91v0.607c0,0.501-0.41,0.91-0.91,0.91h-15.382v6.456
						h15.382c0.5,0,0.91,0.409,0.91,0.91v0.607c0,0.501-0.41,0.91-0.91,0.91h-15.382v5.35h15.382c0.5,0,0.91,0.41,0.91,0.91v0.607
						c0,0.501-0.41,0.91-0.91,0.91h-15.382v16.686h15.382c0.5,0,0.91,0.41,0.91,0.91v0.607c0,0.5-0.41,0.91-0.91,0.91h-15.382v5.35
						h15.382c0.5,0,0.91,0.41,0.91,0.91v0.607c0,0.501-0.41,0.91-0.91,0.91h-15.382v8.898h-41.2V275c0,0.501,0.41,0.91,0.91,0.91
						h62.498c0.5,0,0.91-0.41,0.91-0.91v-96.173C-357.526,178.326-357.936,177.916-358.436,177.916z"/>
				</g>
			</g>
			<g id="XMLID_259_">
				<path id="XMLID_262_" class="st4" d="M-386.803,136.903h-25.067v25.214h0.845c0.615,0,1.118,0.503,1.118,1.118v0.745
					c0,0.615-0.503,1.118-1.118,1.118h-0.845v6.833h16.682c0.615,0,1.118,0.503,1.118,1.118v0.745c0,0.615-0.503,1.118-1.118,1.118
					h-16.682v7.93h16.682c0.615,0,1.118,0.503,1.118,1.118v0.745c0,0.615-0.503,1.118-1.118,1.118h-16.682v6.571h16.682
					c0.615,0,1.118,0.503,1.118,1.118v0.745c0,0.615-0.503,1.118-1.118,1.118h-16.682v20.495h16.682
					c0.615,0,1.118,0.503,1.118,1.118v0.745c0,0.615-0.503,1.118-1.118,1.118h-16.682v6.571h16.682c0.615,0,1.118,0.503,1.118,1.118
					v0.745c0,0.615-0.503,1.118-1.118,1.118h-16.682v28.862h25.067c0.615,0,1.118-0.503,1.118-1.118V138.021
					C-385.685,137.406-386.188,136.903-386.803,136.903z"/>
				<g id="XMLID_260_">
					<path id="XMLID_261_" class="st4" d="M-358.439,177.916h-22.208v20.528h2.488c0.5,0,0.91,0.409,0.91,0.91v0.607
						c0,0.501-0.41,0.91-0.91,0.91h-2.488v5.563h15.382c0.5,0,0.91,0.41,0.91,0.91v0.607c0,0.5-0.41,0.91-0.91,0.91h-15.382v6.456
						h15.382c0.5,0,0.91,0.409,0.91,0.91v0.607c0,0.501-0.41,0.91-0.91,0.91h-15.382v5.35h15.382c0.5,0,0.91,0.41,0.91,0.91v0.607
						c0,0.5-0.41,0.91-0.91,0.91h-15.382v16.686h15.382c0.5,0,0.91,0.41,0.91,0.91v0.607c0,0.5-0.41,0.91-0.91,0.91h-15.382v5.35
						h15.382c0.5,0,0.91,0.41,0.91,0.91v0.607c0,0.501-0.41,0.91-0.91,0.91h-15.382v8.898h-31.226v14.6h53.433
						c0.5,0,0.91-0.409,0.91-0.91v-96.173C-357.529,178.325-357.939,177.916-358.439,177.916z"/>
				</g>
			</g>
		</g>
	</g>
</g>
<g id="XMLID_599_">
	<defs>
		<circle id="XMLID_411_" cx="-976.597" cy="200" r="138.569"/>
	</defs>
	<clipPath id="XMLID_972_">
		<use xlink:href="#XMLID_411_"  style="overflow:visible;"/>
	</clipPath>
	<circle id="XMLID_190_" class="st11" cx="-975.822" cy="200" r="138.569"/>
	<g id="XMLID_178_" class="st12">
		<defs>
			<rect id="XMLID_179_" x="-976.57" y="7.454" width="206.065" height="393.431"/>
		</defs>
		<clipPath id="XMLID_973_">
			<use xlink:href="#XMLID_179_"  style="overflow:visible;"/>
		</clipPath>
		<circle id="XMLID_180_" class="st13" cx="-976.57" cy="199.775" r="138.569"/>
	</g>
	<g id="XMLID_133_" class="st12">
		<path id="XMLID_325_" class="st3" d="M-1000.904,293.604c-1.526-3.307-3.173-6.566-4.549-9.934
			c-1.897-4.642-4.736-6.092-9.663-4.18c-3.429,1.331-7.81,5.154-10.623,2.022c-2.964-3.3,1.264-7.484,2.774-11.039
			c4.959-11.68,10.272-23.21,15.495-34.777c0.682-1.511,0.869-3.741,2.826-4.009c2.186-0.299,2.414,2.064,3.239,3.436
			c5.672,9.429,10.954,10.993,20.183,5.397c3.333-2.021,5.921-2.31,9.418-0.206c9.869,5.936,14.577,4.547,20.561-5.399
			c0.763-1.267,1.163-3.262,2.769-3.28c2.069-0.023,2.382,2.231,3.054,3.733c6.152,13.743,12.259,27.507,18.347,41.279
			c0.68,1.538,1.873,3.27,0.604,4.846c-1.498,1.86-3.529,0.854-5.371,0.301c-12.729-3.827-12.72-3.822-18.106,8.443
			c-0.514,1.17-1.239,2.248-1.867,3.368c-0.861,0-1.723,0-2.584,0c-7.162-13.022-12.275-26.986-18.614-40.384
			c-0.846-1.789-1.016-4.875-3.672-4.634c-1.963,0.178-2.232,2.922-3.026,4.629c-6.251,13.441-11.612,27.292-18.612,40.389
			C-999.181,293.604-1000.042,293.604-1000.904,293.604z"/>
		<path id="XMLID_321_" class="st3" d="M-921.788,169.534c-0.08,2.267-1.213,4.159-2.451,5.881
			c-3.444,4.793-3.377,9.285-0.134,14.301c4.376,6.77,3.774,8.99-3.332,12.599c-5.057,2.568-7.15,6.191-7.077,11.823
			c0.113,8.664-1.243,10.145-9.463,9.922c-6.221-0.169-10.001,2.272-12.687,7.816c-2.939,6.065-5.735,6.893-11.24,3.171
			c-5.577-3.77-10.396-3.756-16.025-0.085c-5.952,3.882-8.535,3.078-11.698-3.398c-2.746-5.623-6.763-7.716-12.881-7.506
			c-7.577,0.26-9.596-1.617-9.158-8.898c0.39-6.479-1.828-10.504-7.763-13.255c-6.063-2.811-6.913-5.734-3.224-11.217
			c3.741-5.56,3.828-10.364,0.113-16.015c-3.905-5.939-3.073-8.591,3.374-11.705c5.61-2.71,7.828-6.557,7.534-12.776
			c-0.374-7.894,1.37-9.62,9.407-9.227c6.294,0.308,9.988-2.156,12.677-7.694c3.072-6.326,5.725-7.021,11.744-3.052
			c5.396,3.558,10.099,3.509,15.474-0.042c5.966-3.943,8.681-3.248,11.709,3.156c2.82,5.965,6.97,7.965,13.371,7.594
			c7.016-0.406,9.046,1.628,8.702,8.687c-0.327,6.715,2.021,11.15,8.278,13.685C-923.872,164.378-921.674,166.163-921.788,169.534z
			 M-1010.441,181.6c-0.858,18.073,14.313,34.162,33.173,35.178c17.767,0.957,34.169-14.61,35.186-33.396
			c0.976-18.018-14.344-34.059-33.392-34.963C-993.85,147.547-1009.53,162.426-1010.441,181.6z"/>
		<path id="XMLID_320_" class="st3" d="M-976.422,154.935c15.943,0.046,27.664,11.784,27.627,27.665
			c-0.037,15.77-11.969,27.537-27.849,27.466c-15.754-0.07-27.337-11.962-27.283-28.01
			C-1003.875,166.726-991.871,154.89-976.422,154.935z"/>
	</g>
	<g id="XMLID_314_" class="st12">
		<path id="XMLID_361_" class="st4" d="M-927.073,276.655c-6.088-13.772-12.195-27.535-18.347-41.279
			c-0.672-1.502-0.985-3.756-3.054-3.733c-1.606,0.018-2.007,2.012-2.769,3.28c-5.984,9.946-10.693,11.335-20.562,5.399
			c-1.757-1.057-3.285-1.498-4.793-1.43v9.702c2.571-0.165,2.75,2.866,3.587,4.635c6.339,13.398,11.452,27.362,18.614,40.384h2.584
			c0.627-1.121,1.353-2.198,1.867-3.368c5.386-12.264,5.377-12.269,18.106-8.443c1.841,0.554,3.873,1.559,5.371-0.301
			C-925.2,279.926-926.393,278.194-927.073,276.655z"/>
		<path id="XMLID_362_" class="st4" d="M-924.374,189.726c-3.243-5.016-3.31-9.509,0.134-14.301
			c1.238-1.723,2.372-3.615,2.451-5.882c0.115-3.37-2.084-5.155-4.751-6.236c-6.257-2.535-8.605-6.969-8.278-13.685
			c0.344-7.058-1.686-9.093-8.702-8.687c-6.401,0.371-10.55-1.63-13.371-7.595c-3.028-6.404-5.743-7.098-11.709-3.156
			c-2.783,1.839-5.386,2.726-7.999,2.67V148.4c0.373,0.003,0.747,0.011,1.123,0.029c19.049,0.904,34.368,16.945,33.392,34.963
			c-1.005,18.548-17.009,33.948-34.516,33.413v15.445c2.75-0.101,5.482,0.818,8.424,2.807c5.506,3.722,8.302,2.894,11.241-3.171
			c2.686-5.544,6.466-7.985,12.687-7.816c8.22,0.223,9.576-1.257,9.463-9.922c-0.074-5.632,2.02-9.255,7.077-11.823
			C-920.6,198.716-919.997,196.496-924.374,189.726z"/>
		<path id="XMLID_363_" class="st4" d="M-976.422,154.944c-0.059,0-0.117,0.003-0.175,0.004v55.127
			c15.857,0.047,27.765-11.711,27.802-27.465C-948.758,166.728-960.479,154.991-976.422,154.944z"/>
	</g>
</g>
<g id="XMLID_698_">
	<defs>
		<circle id="XMLID_595_" cx="-1540.569" cy="200" r="138.569"/>
	</defs>
	<clipPath id="XMLID_974_">
		<use xlink:href="#XMLID_595_"  style="overflow:visible;"/>
	</clipPath>
	<path id="XMLID_115_" class="st14" d="M-1507.651,138.366v9.531c0,1.65,1.35,3,3,3h10.069L-1507.651,138.366z"/>
	<circle id="XMLID_153_" class="st15" cx="-1540.569" cy="200" r="138.569"/>
	<g id="XMLID_138_" class="st16">
		<defs>
			<rect id="XMLID_139_" x="-1541.318" y="7.454" width="206.065" height="393.431"/>
		</defs>
		<clipPath id="XMLID_975_">
			<use xlink:href="#XMLID_139_"  style="overflow:visible;"/>
		</clipPath>
		<circle id="XMLID_143_" class="st17" cx="-1541.318" cy="199.775" r="138.569"/>
	</g>
	<path id="XMLID_29_" class="st18" d="M-1506.318,153.387c-1.65,0-3-1.35-3-3v-12.833h-78.333c-1.65,0-3,1.35-3,3v125.667
		c0,1.65,1.35,3,3,3h92.667c1.65,0,3-1.35,3-3V153.387H-1506.318z M-1581.429,169.221h43c1.192,0,2.167,0.975,2.167,2.167
		s-0.975,2.167-2.167,2.167h-43c-1.192,0-2.167-0.975-2.167-2.167S-1582.621,169.221-1581.429,169.221z M-1581.429,181.054h79.278
		c1.192,0,2.167,0.975,2.167,2.167s-0.975,2.167-2.167,2.167h-79.278c-1.192,0-2.167-0.975-2.167-2.167
		S-1582.621,181.054-1581.429,181.054z M-1581.666,214.387h79.278c1.192,0,2.167,0.975,2.167,2.167s-0.975,2.167-2.167,2.167
		h-79.278c-1.192,0-2.167-0.975-2.167-2.167S-1582.857,214.387-1581.666,214.387z M-1505.624,265.36l-9.333-7.333l-10.333,6
		l3.082-11.227c-2.282-2.097-3.721-5.097-3.721-8.44c0-6.336,5.136-11.472,11.473-11.472c6.336,0,11.472,5.136,11.472,11.472
		c0,3.941-1.989,7.416-5.016,9.482L-1505.624,265.36z M-1501.915,229.054h-79.278c-1.192,0-2.167-0.975-2.167-2.167
		s0.975-2.167,2.167-2.167h79.278c1.192,0,2.167,0.975,2.167,2.167S-1500.723,229.054-1501.915,229.054z M-1501.678,195.721h-79.278
		c-1.192,0-2.167-0.975-2.167-2.167s0.975-2.167,2.167-2.167h79.278c1.192,0,2.167,0.975,2.167,2.167
		S-1500.487,195.721-1501.678,195.721z"/>
	<path id="XMLID_195_" class="st14" d="M-1506.321,153.387c-1.65,0-3-1.35-3-3v-12.833h-32v31.667h2.888
		c1.192,0,2.167,0.975,2.167,2.167s-0.975,2.167-2.167,2.167h-2.888v7.5h39.167c1.192,0,2.167,0.975,2.167,2.167
		s-0.975,2.167-2.167,2.167h-39.167v6h39.639c1.192,0,2.167,0.975,2.167,2.167s-0.975,2.167-2.167,2.167h-39.639v18.667h38.93
		c1.192,0,2.167,0.975,2.167,2.167s-0.975,2.167-2.167,2.167h-38.93v6h39.403c1.192,0,2.167,0.975,2.167,2.167
		s-0.975,2.167-2.167,2.167h-39.403v40.167h46.333c1.65,0,3-1.35,3-3V153.387H-1506.321z M-1505.627,265.359l-9.333-7.333l-10.333,6
		l3.082-11.227c-2.282-2.097-3.721-5.097-3.721-8.44c0-6.336,5.136-11.472,11.473-11.472c6.336,0,11.472,5.136,11.472,11.472
		c0,3.941-1.989,7.416-5.016,9.482L-1505.627,265.359z"/>
</g>
<g id="XMLID_743_">
	<defs>
		<circle id="XMLID_695_" cx="-2125.569" cy="200" r="138.569"/>
	</defs>
	<clipPath id="XMLID_976_">
		<use xlink:href="#XMLID_695_"  style="overflow:visible;"/>
	</clipPath>
	<circle id="XMLID_849_" class="st19" cx="-2125.569" cy="200" r="138.569"/>
	<g id="XMLID_841_" class="st20">
		<defs>
			<rect id="XMLID_842_" x="-2126.318" y="7.454" width="206.065" height="393.431"/>
		</defs>
		<clipPath id="XMLID_977_">
			<use xlink:href="#XMLID_842_"  style="overflow:visible;"/>
		</clipPath>
		<circle id="XMLID_843_" class="st21" cx="-2126.318" cy="199.775" r="138.569"/>
	</g>
	<g id="XMLID_17_" class="st20">
		<path id="XMLID_18_" class="st3" d="M-2041.13,176.826l-16.842-26.914l-11.488-15.936c0,0-1.771-4.25-10.978,0
			c0,0-9.916,5.666-17.706,6.374c0,0-6.374,0-16.29-4.249c0,0-17.352-8.499-32.225,0c0,0-13.457,6.728-22.31,10.27
			c0,0-15.582,4.958-5.312,16.29c0,0,7.083,8.499,19.477,8.145c0,0,17.352-1.062,25.143-6.02l52.41,40.37
			c0,0,26.559,0.708,34.35-10.978C-2042.9,194.178-2034.755,188.866-2041.13,176.826z"/>
		<path id="XMLID_22_" class="st3" d="M-2128.163,207.805l6.414-8.434c-1.512-0.571-2.842-0.818-3.99-0.74
			c-1.148,0.077-2.185,0.724-3.112,1.943c-0.882,1.159-1.227,2.282-1.032,3.368
			C-2129.689,205.028-2129.116,206.315-2128.163,207.805z"/>
		<path id="XMLID_23_" class="st3" d="M-2132.884,226.946c1.488-0.281,2.685-1.017,3.589-2.206c0.971-1.277,1.329-2.564,1.074-3.858
			c-0.255-1.294-0.962-2.765-2.12-4.411l-7.335,9.645C-2135.969,226.951-2134.371,227.228-2132.884,226.946z"/>
		<path id="XMLID_57_" class="st3" d="M-2183.488,169.389l4.25-6.374l-1.417-6.728l-33.288,42.495l114.028,90.302l46.745-59.139
			l-77.199-60.555C-2130.369,169.389-2154.45,181.076-2183.488,169.389z M-2187.739,214.001l-19.719-16.276l17.055-22.465
			C-2190.403,175.26-2171.555,196.859-2187.739,214.001z M-2085.041,211.176l21.956,17.706l-15.227,20.539
			C-2098.144,236.673-2085.041,211.176-2085.041,211.176z M-2082.497,257.564l-17.706,21.956l-20.539-15.227
			C-2107.994,244.462-2082.497,257.564-2082.497,257.564z M-2118.484,195.076l1.775-2.334c0.938-1.233,1.869-1.498,2.794-0.795
			c0.939,0.714,0.951,1.674,0.036,2.877l-1.809,2.379c1.448,1.357,2.549,2.703,3.304,4.042c0.755,1.338,1.176,2.818,1.265,4.438
			c0.091,1.251,0.015,2.41-0.228,3.476c-0.243,1.067-0.616,1.93-1.118,2.591c-0.559,0.734-1.308,1.165-2.252,1.293
			c-0.944,0.129-1.797-0.098-2.56-0.678c-1.439-1.094-1.779-2.581-1.022-4.461c0.912-2.204,0.67-4.309-0.721-6.318l-6.967,9.161
			c1.441,1.883,2.544,3.441,3.311,4.673c0.767,1.231,1.28,2.56,1.54,3.986c0.297,1.5,0.263,2.998-0.099,4.495
			c-0.362,1.497-1.052,2.914-2.067,4.25c-1.273,1.673-2.857,2.941-4.754,3.805c-1.896,0.864-3.959,1.178-6.19,0.941
			c-2.23-0.237-4.461-1.064-6.695-2.485l-4.17,5.483c-0.659,0.867-1.224,1.433-1.693,1.701c-0.47,0.268-0.992,0.184-1.564-0.251
			c-0.528-0.402-0.776-0.846-0.744-1.33c0.033-0.484,0.306-1.065,0.82-1.74l4.522-5.946c-1.573-1.497-2.766-3.042-3.582-4.636
			c-0.816-1.594-1.304-3.176-1.465-4.746c-0.161-1.57-0.071-3.008,0.272-4.311c0.343-1.303,0.876-2.432,1.603-3.387
			c0.536-0.705,1.294-1.131,2.274-1.277c0.98-0.146,1.881,0.093,2.704,0.718c0.661,0.502,1.102,1.081,1.322,1.735
			c0.22,0.654,0.207,1.327-0.041,2.02c-0.519,1.505-0.875,2.689-1.067,3.551c-0.192,0.862-0.192,1.783,0.001,2.764
			s0.675,1.985,1.446,3.011l7.787-10.24c-1.555-2.039-2.738-3.895-3.551-5.568s-1.162-3.438-1.046-5.297
			c0.115-1.859,0.91-3.757,2.384-5.695c1.92-2.525,4.298-3.984,7.134-4.376C-2124.761,192.202-2121.723,193.029-2118.484,195.076z"
			/>
	</g>
	<g id="XMLID_21_" class="st20">
		<path id="XMLID_127_" class="st4" d="M-2041.212,176.826l-16.842-26.914l-11.488-15.936c0,0-1.771-4.25-10.978,0
			c0,0-9.916,5.666-17.706,6.374c0,0-6.374,0-16.29-4.249c0,0-4.891-2.395-11.704-3.371V167.5l48.887,37.656
			c0,0,26.559,0.708,34.35-10.978C-2042.982,194.178-2034.838,188.866-2041.212,176.826z"/>
		<path id="XMLID_119_" class="st4" d="M-2126.22,205.141l4.389-5.771c-1.512-0.571-2.842-0.818-3.99-0.74
			c-0.136,0.009-0.266,0.053-0.399,0.078V205.141z"/>
		<path id="XMLID_136_" class="st4" d="M-2126.22,172.708v19.805c2.413,0.017,4.963,0.863,7.654,2.563l1.775-2.334
			c0.938-1.233,1.869-1.498,2.794-0.795c0.939,0.714,0.951,1.674,0.036,2.877l-1.809,2.379c1.448,1.357,2.549,2.703,3.304,4.042
			c0.755,1.338,1.176,2.818,1.265,4.438c0.091,1.251,0.015,2.41-0.228,3.476c-0.243,1.067-0.616,1.93-1.118,2.591
			c-0.559,0.734-1.308,1.165-2.252,1.293c-0.944,0.129-1.797-0.098-2.56-0.678c-1.439-1.094-1.779-2.581-1.022-4.461
			c0.912-2.204,0.67-4.309-0.721-6.318l-6.967,9.161c1.441,1.883,2.544,3.441,3.311,4.673c0.767,1.231,1.28,2.56,1.54,3.986
			c0.297,1.5,0.263,2.998-0.099,4.495c-0.362,1.497-1.052,2.914-2.067,4.25c-0.813,1.069-1.768,1.954-2.836,2.693v37.474
			l26.223,20.767l46.745-59.139L-2126.22,172.708z M-2100.286,279.52l-20.539-15.227c12.749-19.831,38.246-6.728,38.246-6.728
			L-2100.286,279.52z M-2085.123,211.176l21.956,17.706l-15.227,20.539C-2098.226,236.673-2085.123,211.176-2085.123,211.176z"/>
	</g>
</g>
</svg>
