<?xml version="1.0" encoding="utf-8"?>
<!-- Generator: Adobe Illustrator 19.0.0, SVG Export Plug-In . SVG Version: 6.00 Build 0)  -->
<svg version="1.1" id="Capa_1" xmlns="http://www.w3.org/2000/svg" xmlns:xlink="http://www.w3.org/1999/xlink" x="0px" y="0px"
	 viewBox="0 0 512 404" style="enable-background:new 0 0 512 404;" xml:space="preserve">
<style type="text/css">
	.st0{fill:#F2F2F2;}
	.st1{fill:#DE0065;}
	.st2{fill:#5B5B5B;}
	.st3{clip-path:url(#XMLID_3_);fill:#C90567;}
	.st4{fill:#FFFFFF;}
	.st5{fill:#F3F3F3;}
	.st6{fill:none;}
</style>
<g id="XMLID_1_">
	<path id="XMLID_884_" class="st0" d="M502,404H10c-5.5,0-10-4.5-10-10V114c0-5.5,4.5-10,10-10h492c5.5,0,10,4.5,10,10v280
		C512,399.5,507.5,404,502,404z"/>
	<circle id="XMLID_883_" class="st1" cx="256" cy="149.27" r="138.569"/>
	<g id="XMLID_761_">
		<path id="XMLID_762_" class="st2" d="M222.741,319.281c0,4.727-1.172,8.359-3.516,10.898s-5.703,3.809-10.078,3.809
			s-7.734-1.27-10.078-3.809s-3.516-6.185-3.516-10.938s1.174-8.382,3.525-10.889c2.35-2.507,5.719-3.76,10.107-3.76
			c4.387,0,7.744,1.263,10.068,3.789S222.741,314.541,222.741,319.281z M201.901,319.281c0,3.19,0.605,5.593,1.816,7.207
			s3.02,2.422,5.43,2.422c4.83,0,7.246-3.21,7.246-9.629c0-6.433-2.402-9.648-7.207-9.648c-2.41,0-4.227,0.811-5.449,2.432
			C202.513,313.685,201.901,316.09,201.901,319.281z"/>
		<path id="XMLID_765_" class="st2" d="M240.378,311.351c0.807,0,1.477,0.059,2.012,0.176l-0.449,5.586
			c-0.482-0.13-1.068-0.195-1.758-0.195c-1.902,0-3.383,0.488-4.443,1.465c-1.063,0.977-1.592,2.344-1.592,4.102v11.113h-5.957
			v-21.836h4.512l0.879,3.672h0.293c0.676-1.224,1.592-2.21,2.744-2.959S239.022,311.351,240.378,311.351z"/>
		<path id="XMLID_767_" class="st2" d="M253.268,333.988c-2.566,0-4.58-0.996-6.045-2.988s-2.197-4.753-2.197-8.281
			c0-3.581,0.744-6.37,2.236-8.369c1.49-1.999,3.545-2.998,6.162-2.998c2.746,0,4.844,1.067,6.289,3.203h0.195
			c-0.301-1.628-0.449-3.079-0.449-4.355v-6.992h5.977v30.391h-4.57l-1.152-2.832h-0.254
			C258.104,332.913,256.042,333.988,253.268,333.988z M255.358,329.242c1.523,0,2.639-0.442,3.35-1.328
			c0.709-0.886,1.096-2.39,1.162-4.512v-0.645c0-2.344-0.361-4.023-1.084-5.039s-1.898-1.523-3.525-1.523
			c-1.328,0-2.361,0.563-3.096,1.689c-0.736,1.126-1.104,2.764-1.104,4.912s0.371,3.76,1.113,4.834S253.977,329.242,255.358,329.242
			z"/>
		<path id="XMLID_770_" class="st2" d="M281.55,333.988c-3.516,0-6.264-0.97-8.242-2.91c-1.98-1.94-2.969-4.688-2.969-8.242
			c0-3.659,0.914-6.487,2.744-8.486c1.828-1.999,4.357-2.998,7.588-2.998c3.086,0,5.488,0.879,7.207,2.637s2.578,4.187,2.578,7.285
			v2.891h-14.082c0.064,1.692,0.566,3.015,1.504,3.965s2.252,1.426,3.945,1.426c1.314,0,2.559-0.137,3.73-0.41
			s2.395-0.71,3.672-1.309v4.609c-1.043,0.521-2.156,0.908-3.34,1.162C284.7,333.861,283.255,333.988,281.55,333.988z
			 M280.71,315.589c-1.264,0-2.254,0.4-2.969,1.201c-0.717,0.801-1.127,1.937-1.23,3.408h8.359c-0.027-1.472-0.41-2.607-1.152-3.408
			S281.972,315.589,280.71,315.589z"/>
		<path id="XMLID_773_" class="st2" d="M315.456,333.597h-5.957v-12.754c0-1.575-0.281-2.757-0.84-3.545
			c-0.561-0.788-1.453-1.182-2.676-1.182c-1.668,0-2.871,0.557-3.613,1.67s-1.113,2.959-1.113,5.537v10.273H295.3v-21.836h4.551
			l0.801,2.793h0.332c0.664-1.055,1.578-1.853,2.744-2.393c1.164-0.54,2.49-0.811,3.975-0.811c2.539,0,4.465,0.687,5.781,2.061
			c1.314,1.374,1.973,3.356,1.973,5.947V333.597z"/>
		<path id="XMLID_775_" class="st2" d="M184.909,370.597l-3.555-9.082h-11.445l-3.516,9.082h-3.359l11.289-28.672h2.793
			l11.23,28.672H184.909z M180.319,358.527l-3.32-8.848c-0.43-1.12-0.873-2.493-1.328-4.121c-0.287,1.25-0.697,2.624-1.23,4.121
			l-3.359,8.848H180.319z"/>
		<path id="XMLID_778_" class="st2" d="M195.026,370.597h-3.242v-30.391h3.242V370.597z"/>
		<path id="XMLID_780_" class="st2" d="M211.55,351.71H206.1v18.887h-3.242V351.71h-3.828v-1.465l3.828-1.172v-1.191
			c0-5.261,2.297-7.891,6.895-7.891c1.133,0,2.461,0.228,3.984,0.684l-0.84,2.598c-1.25-0.403-2.318-0.605-3.203-0.605
			c-1.225,0-2.129,0.407-2.715,1.221s-0.879,2.119-0.879,3.916v1.387h5.449V351.71z"/>
		<path id="XMLID_782_" class="st2" d="M228.62,370.597l-0.645-3.047h-0.156c-1.068,1.341-2.133,2.249-3.193,2.725
			c-1.063,0.476-2.387,0.713-3.975,0.713c-2.123,0-3.787-0.547-4.99-1.641c-1.205-1.094-1.807-2.649-1.807-4.668
			c0-4.323,3.457-6.589,10.371-6.797l3.633-0.117v-1.328c0-1.68-0.361-2.92-1.084-3.721s-1.879-1.201-3.467-1.201
			c-1.785,0-3.803,0.547-6.055,1.641l-0.996-2.48c1.055-0.573,2.209-1.022,3.467-1.348c1.256-0.325,2.516-0.488,3.779-0.488
			c2.551,0,4.443,0.566,5.674,1.699s1.846,2.949,1.846,5.449v14.609H228.62z M221.296,368.312c2.018,0,3.604-0.554,4.756-1.66
			s1.729-2.656,1.729-4.648v-1.934l-3.242,0.137c-2.578,0.091-4.438,0.491-5.576,1.201c-1.141,0.71-1.709,1.813-1.709,3.311
			c0,1.172,0.354,2.063,1.064,2.676C219.026,368.006,220.018,368.312,221.296,368.312z"/>
		<path id="XMLID_785_" class="st2" d="M247.663,348.839c2.813,0,4.996,0.96,6.553,2.881c1.555,1.921,2.334,4.639,2.334,8.154
			s-0.785,6.247-2.354,8.193c-1.57,1.946-3.748,2.92-6.533,2.92c-1.395,0-2.666-0.257-3.818-0.771s-2.119-1.306-2.9-2.373h-0.234
			l-0.684,2.754h-2.324v-30.391h3.242v7.383c0,1.653-0.053,3.138-0.156,4.453h0.156
			C242.454,349.907,244.694,348.839,247.663,348.839z M247.194,351.554c-2.215,0-3.809,0.635-4.785,1.904s-1.465,3.408-1.465,6.416
			s0.5,5.159,1.504,6.455c1.002,1.296,2.609,1.943,4.824,1.943c1.992,0,3.477-0.726,4.453-2.178s1.465-3.538,1.465-6.26
			c0-2.786-0.488-4.863-1.465-6.23S249.237,351.554,247.194,351.554z"/>
		<path id="XMLID_788_" class="st2" d="M271.257,370.988c-3.164,0-5.662-0.964-7.49-2.891c-1.83-1.927-2.744-4.603-2.744-8.027
			c0-3.45,0.85-6.191,2.549-8.223s3.98-3.047,6.846-3.047c2.682,0,4.805,0.882,6.367,2.646s2.344,4.092,2.344,6.982v2.051h-14.746
			c0.064,2.513,0.699,4.421,1.904,5.723c1.203,1.302,2.9,1.953,5.088,1.953c2.305,0,4.582-0.481,6.836-1.445v2.891
			c-1.146,0.495-2.23,0.85-3.252,1.064C273.934,370.88,272.702,370.988,271.257,370.988z M270.378,351.515
			c-1.719,0-3.09,0.56-4.111,1.68c-1.023,1.12-1.625,2.669-1.807,4.648h11.191c0-2.044-0.457-3.61-1.367-4.697
			C273.372,352.059,272.069,351.515,270.378,351.515z M267.975,345.87c0.625-0.808,1.299-1.784,2.021-2.93s1.291-2.142,1.709-2.988
			h3.945v0.41c-0.574,0.847-1.426,1.888-2.559,3.125s-2.117,2.194-2.949,2.871h-2.168V345.87z"/>
		<path id="XMLID_792_" class="st2" d="M291.569,368.312c0.572,0,1.125-0.042,1.66-0.127c0.533-0.085,0.957-0.173,1.27-0.264v2.48
			c-0.352,0.169-0.869,0.31-1.553,0.42s-1.299,0.166-1.846,0.166c-4.141,0-6.211-2.181-6.211-6.543V351.71h-3.066v-1.563
			l3.066-1.348l1.367-4.57h1.875v4.961h6.211v2.52h-6.211v12.598c0,1.289,0.305,2.278,0.918,2.969
			C289.661,367.967,290.501,368.312,291.569,368.312z"/>
		<path id="XMLID_794_" class="st2" d="M298.503,343.39c0-0.742,0.182-1.286,0.547-1.631c0.363-0.345,0.82-0.518,1.367-0.518
			c0.52,0,0.969,0.176,1.348,0.527c0.377,0.352,0.566,0.892,0.566,1.621s-0.189,1.272-0.566,1.631
			c-0.379,0.358-0.828,0.537-1.348,0.537c-0.547,0-1.004-0.179-1.367-0.537C298.684,344.662,298.503,344.12,298.503,343.39z
			 M302.018,370.597h-3.242v-21.406h3.242V370.597z"/>
		<path id="XMLID_797_" class="st2" d="M317.448,370.988c-3.1,0-5.498-0.954-7.197-2.861s-2.549-4.606-2.549-8.096
			c0-3.581,0.861-6.348,2.588-8.301c1.725-1.953,4.182-2.93,7.373-2.93c1.027,0,2.057,0.11,3.086,0.332
			c1.027,0.222,1.836,0.481,2.422,0.781l-0.996,2.754c-0.717-0.286-1.498-0.524-2.344-0.713c-0.848-0.188-1.596-0.283-2.246-0.283
			c-4.35,0-6.523,2.773-6.523,8.32c0,2.63,0.529,4.648,1.592,6.055c1.061,1.406,2.633,2.109,4.717,2.109
			c1.783,0,3.613-0.384,5.488-1.152v2.871C321.425,370.617,319.622,370.988,317.448,370.988z"/>
		<path id="XMLID_799_" class="st2" d="M346.413,359.874c0,3.489-0.879,6.214-2.637,8.174s-4.188,2.939-7.285,2.939
			c-1.914,0-3.613-0.449-5.098-1.348s-2.631-2.188-3.438-3.867c-0.809-1.68-1.211-3.646-1.211-5.898
			c0-3.489,0.871-6.208,2.617-8.154c1.744-1.946,4.166-2.92,7.266-2.92c2.994,0,5.373,0.996,7.139,2.988
			C345.53,353.781,346.413,356.476,346.413,359.874z M330.104,359.874c0,2.734,0.547,4.817,1.641,6.25s2.701,2.148,4.824,2.148
			c2.121,0,3.732-0.713,4.834-2.139c1.1-1.426,1.65-3.513,1.65-6.26c0-2.722-0.551-4.788-1.65-6.201
			c-1.102-1.413-2.725-2.119-4.873-2.119c-2.123,0-3.725,0.696-4.805,2.09C330.643,355.037,330.104,357.114,330.104,359.874z"/>
	</g>
	<g id="XMLID_878_">
		<defs>
			<rect id="XMLID_879_" x="255.501" y="-44.823" width="221.514" height="394.024"/>
		</defs>
		<clipPath id="XMLID_3_">
			<use xlink:href="#XMLID_879_"  style="overflow:visible;"/>
		</clipPath>
		<circle id="XMLID_880_" class="st3" cx="255.501" cy="149.236" r="138.569"/>
	</g>
	<path id="XMLID_113_" class="st4" d="M304.041,113.524L285.41,95.159c-0.806-0.796-1.896-1.242-3.032-1.242h-27.848v8.641h25.257
		v14.083c0,1.431,1.161,2.592,2.591,2.592h14.31v93.567h-42.159v8.641h46.478c2.385,0,4.319-1.934,4.319-4.319V116.599
		C305.326,115.443,304.863,114.335,304.041,113.524z"/>
	<path id="XMLID_28_" class="st5" d="M255.529,154.624v0.01l-4.853-12.203c-0.516-1.379-0.942-2.476-1.275-3.301
		c-0.332-0.825-0.743-1.594-1.229-2.317c-0.484-0.715-1.126-1.302-1.917-1.758c-0.791-0.456-1.775-0.682-2.959-0.682
		c-1.163,0-2.141,0.226-2.929,0.682c-0.793,0.456-1.433,1.051-1.921,1.794c-0.484,0.733-0.94,1.661-1.37,2.773
		c-0.428,1.117-0.793,2.071-1.1,2.868l-10.721,27.704c-0.443,1.107-0.756,1.974-0.947,2.594c-0.192,0.62-0.285,1.225-0.285,1.804
		c0,1.007,0.41,1.912,1.232,2.707c0.816,0.795,1.76,1.194,2.831,1.194c1.254,0,2.161-0.374,2.715-1.122
		c0.554-0.749,1.219-2.186,2-4.321l2.005-5.472h17.045l2,5.354c0.267,0.661,0.584,1.42,0.957,2.286
		c0.253,0.588,0.493,1.062,0.723,1.441v-0.039c0.351,0.786,0.68,1.377,0.986,1.761c0.325,0.413,0.725,0.735,1.204,0.977
		c0.473,0.237,1.048,0.358,1.715,0.358c1.146,0,2.12-0.408,2.934-1.219c0.808-0.808,1.211-1.697,1.211-2.67
		c0-0.937-0.428-2.433-1.287-4.493L255.529,154.624z M237.033,161.085l6.206-17.603l6.322,17.603H237.033z"/>
	<path id="XMLID_96_" class="st4" d="M262.293,171.428l-6.764-16.71v21.996c0.351,0.786,0.68,1.377,0.986,1.761
		c0.325,0.413,0.725,0.735,1.204,0.977c0.473,0.237,1.048,0.358,1.715,0.358c1.146,0,2.12-0.408,2.934-1.219
		c0.808-0.808,1.211-1.697,1.211-2.67C263.58,174.984,263.152,173.488,262.293,171.428z"/>
	<path id="XMLID_103_" class="st5" d="M255.529,212.801h-42.243V102.559h42.243v-8.641h-46.562c-2.387,0-4.322,1.932-4.322,4.319
		v118.885c0,2.385,1.934,4.319,4.322,4.319h46.562V212.801z"/>
	<g id="XMLID_35_">
		<path id="XMLID_39_" class="st5" d="M283.194,164.324l-9.766,10.918h10.449c0.847,0,1.484,0.198,1.914,0.596
			s0.645,0.908,0.645,1.533c0,0.599-0.212,1.087-0.635,1.465s-1.064,0.566-1.924,0.566h-14.453c-1.016,0-1.774-0.222-2.275-0.664
			s-0.752-1.048-0.752-1.816c0-0.456,0.176-0.915,0.527-1.377s1.081-1.312,2.188-2.549c1.172-1.302,2.236-2.48,3.193-3.535
			s1.846-2.041,2.666-2.959s1.501-1.696,2.041-2.334s0.974-1.185,1.299-1.641h-7.93c-1.094,0-1.921-0.098-2.48-0.293
			s-0.84-0.71-0.84-1.543c0-0.612,0.212-1.101,0.635-1.465s1.025-0.547,1.807-0.547h12.246c1.133,0,2.002,0.166,2.607,0.498
			s0.908,0.928,0.908,1.787c0,0.286-0.059,0.583-0.176,0.889s-0.247,0.557-0.391,0.752s-0.339,0.433-0.586,0.713
			S283.558,163.933,283.194,164.324z"/>
	</g>
	<rect id="XMLID_570_" x="0" class="st6" width="512" height="404"/>
</g>
</svg>
