<?xml version="1.0" encoding="utf-8"?>
<!-- Generator: Adobe Illustrator 19.0.0, SVG Export Plug-In . SVG Version: 6.00 Build 0)  -->
<svg version="1.1" id="Capa_1" xmlns="http://www.w3.org/2000/svg" xmlns:xlink="http://www.w3.org/1999/xlink" x="0px" y="0px"
	 viewBox="0 0 512 404" style="enable-background:new 0 0 512 404;" xml:space="preserve">
<style type="text/css">
	.st0{clip-path:url(#XMLID_2_);}
	.st1{fill:#F2F2F2;}
	.st2{fill:#FC5857;}
	.st3{fill:#5B5B5B;}
	.st4{clip-path:url(#XMLID_3_);fill:#E94D4E;}
	.st5{fill:#FFFFFF;}
	.st6{fill:#F3F3F3;}
</style>
<g id="XMLID_1083_">
	<g id="pagos">
		<defs>
			<rect id="XMLID_485_" width="512" height="404"/>
		</defs>
		<clipPath id="XMLID_2_">
			<use xlink:href="#XMLID_485_"  style="overflow:visible;"/>
		</clipPath>
		<g id="XMLID_426_" class="st0">
			<path id="XMLID_90_" class="st1" d="M500.631,404h-492c-5.5,0-10-4.5-10-10V114c0-5.5,4.5-10,10-10h492c5.5,0,10,4.5,10,10v280
				C510.631,399.5,506.131,404,500.631,404z"/>
			<circle id="XMLID_89_" class="st2" cx="256" cy="149.77" r="138.569"/>
			<g id="XMLID_472_">
				<path id="XMLID_473_" class="st3" d="M220.905,314.449c0,3.073-0.961,5.423-2.881,7.051c-1.921,1.628-4.652,2.441-8.193,2.441
					h-2.598v10.156h-6.055v-28.555h9.121c3.463,0,6.097,0.745,7.9,2.236C220.003,309.27,220.905,311.493,220.905,314.449z
					 M207.233,318.98h1.992c1.861,0,3.255-0.368,4.18-1.104c0.924-0.735,1.387-1.807,1.387-3.213c0-1.419-0.388-2.468-1.162-3.145
					c-0.775-0.677-1.989-1.016-3.643-1.016h-2.754V318.98z"/>
				<path id="XMLID_476_" class="st3" d="M239.694,334.097l-1.152-2.969h-0.156c-1.003,1.263-2.035,2.139-3.096,2.627
					c-1.062,0.488-2.445,0.732-4.15,0.732c-2.097,0-3.747-0.599-4.951-1.797c-1.205-1.198-1.807-2.903-1.807-5.117
					c0-2.317,0.811-4.026,2.432-5.127s4.065-1.709,7.334-1.826l3.789-0.117v-0.957c0-2.214-1.133-3.32-3.398-3.32
					c-1.745,0-3.796,0.527-6.152,1.582l-1.973-4.023c2.513-1.315,5.299-1.973,8.359-1.973c2.93,0,5.176,0.638,6.738,1.914
					s2.344,3.216,2.344,5.82v14.551H239.694z M237.936,323.98l-2.305,0.078c-1.732,0.052-3.021,0.364-3.867,0.938
					c-0.847,0.573-1.27,1.445-1.27,2.617c0,1.68,0.963,2.52,2.891,2.52c1.38,0,2.483-0.397,3.311-1.191
					c0.826-0.794,1.24-1.849,1.24-3.164V323.98z"/>
				<path id="XMLID_479_" class="st3" d="M268.991,312.261v3.027l-3.418,0.879c0.625,0.977,0.938,2.07,0.938,3.281
					c0,2.344-0.817,4.17-2.451,5.479c-1.635,1.309-3.903,1.963-6.807,1.963l-1.074-0.059l-0.879-0.098
					c-0.612,0.469-0.918,0.989-0.918,1.563c0,0.859,1.094,1.289,3.281,1.289h3.711c2.396,0,4.222,0.515,5.479,1.543
					c1.256,1.028,1.885,2.539,1.885,4.531c0,2.552-1.064,4.531-3.193,5.938s-5.186,2.109-9.17,2.109
					c-3.047,0-5.375-0.53-6.982-1.592c-1.608-1.062-2.412-2.549-2.412-4.463c0-1.315,0.41-2.415,1.23-3.301s2.024-1.517,3.613-1.895
					c-0.612-0.261-1.146-0.687-1.602-1.279c-0.456-0.593-0.684-1.221-0.684-1.885c0-0.833,0.24-1.526,0.723-2.08
					c0.481-0.554,1.178-1.097,2.09-1.631c-1.146-0.495-2.055-1.289-2.725-2.383c-0.671-1.094-1.006-2.383-1.006-3.867
					c0-2.383,0.774-4.226,2.324-5.527c1.549-1.302,3.763-1.953,6.641-1.953c0.611,0,1.338,0.056,2.178,0.166
					s1.377,0.192,1.611,0.244H268.991z M252.136,337.183c0,0.82,0.394,1.465,1.182,1.934c0.787,0.469,1.891,0.703,3.311,0.703
					c2.135,0,3.809-0.293,5.02-0.879s1.816-1.387,1.816-2.402c0-0.82-0.358-1.387-1.074-1.699c-0.717-0.313-1.823-0.469-3.32-0.469
					h-3.086c-1.094,0-2.009,0.257-2.744,0.771C252.503,335.657,252.136,336.336,252.136,337.183z M254.303,319.41
					c0,1.185,0.27,2.122,0.811,2.813c0.54,0.69,1.363,1.035,2.471,1.035c1.119,0,1.939-0.345,2.461-1.035
					c0.521-0.69,0.781-1.628,0.781-2.813c0-2.63-1.081-3.945-3.242-3.945C255.397,315.464,254.303,316.78,254.303,319.41z"/>
				<path id="XMLID_483_" class="st3" d="M292.428,323.14c0,3.555-0.938,6.335-2.813,8.34s-4.486,3.008-7.832,3.008
					c-2.097,0-3.945-0.459-5.547-1.377s-2.832-2.236-3.691-3.955s-1.289-3.724-1.289-6.016c0-3.567,0.931-6.341,2.793-8.32
					c1.861-1.979,4.479-2.969,7.852-2.969c2.096,0,3.945,0.456,5.547,1.367s2.832,2.22,3.691,3.926S292.428,320.848,292.428,323.14z
					 M277.331,323.14c0,2.161,0.354,3.796,1.064,4.902c0.709,1.106,1.865,1.66,3.467,1.66c1.588,0,2.73-0.55,3.428-1.65
					c0.696-1.101,1.045-2.737,1.045-4.912c0-2.161-0.352-3.782-1.055-4.863s-1.855-1.621-3.457-1.621
					c-1.589,0-2.734,0.537-3.438,1.611S277.331,320.965,277.331,323.14z"/>
				<path id="XMLID_487_" class="st3" d="M312.585,327.613c0,2.239-0.778,3.945-2.334,5.117c-1.557,1.172-3.884,1.758-6.982,1.758
					c-1.589,0-2.943-0.107-4.063-0.322c-1.12-0.215-2.168-0.53-3.145-0.947v-4.922c1.106,0.521,2.354,0.957,3.74,1.309
					s2.607,0.527,3.662,0.527c2.161,0,3.242-0.625,3.242-1.875c0-0.469-0.144-0.85-0.43-1.143c-0.287-0.293-0.781-0.625-1.484-0.996
					s-1.641-0.804-2.813-1.299c-1.68-0.703-2.914-1.354-3.701-1.953c-0.788-0.599-1.361-1.286-1.719-2.061
					c-0.358-0.774-0.537-1.729-0.537-2.861c0-1.94,0.752-3.44,2.256-4.502s3.636-1.592,6.396-1.592c2.63,0,5.188,0.573,7.676,1.719
					l-1.797,4.297c-1.094-0.469-2.116-0.853-3.066-1.152c-0.951-0.3-1.921-0.449-2.91-0.449c-1.758,0-2.637,0.476-2.637,1.426
					c0,0.534,0.283,0.996,0.85,1.387s1.807,0.97,3.721,1.738c1.705,0.69,2.955,1.335,3.75,1.934c0.794,0.599,1.38,1.289,1.758,2.07
					C312.395,325.601,312.585,326.532,312.585,327.613z"/>
				<path id="XMLID_489_" class="st3" d="M189.577,376.488c-3.164,0-5.661-0.964-7.49-2.891c-1.83-1.927-2.744-4.603-2.744-8.027
					c0-3.45,0.85-6.191,2.549-8.223s3.98-3.047,6.846-3.047c2.682,0,4.805,0.882,6.367,2.646s2.344,4.092,2.344,6.982v2.051h-14.746
					c0.064,2.513,0.699,4.421,1.904,5.723c1.204,1.302,2.9,1.953,5.088,1.953c2.305,0,4.583-0.481,6.836-1.445v2.891
					c-1.146,0.495-2.23,0.85-3.252,1.064C192.256,376.38,191.022,376.488,189.577,376.488z M188.698,357.015
					c-1.719,0-3.09,0.56-4.111,1.68c-1.022,1.12-1.625,2.669-1.807,4.648h11.191c0-2.044-0.456-3.61-1.367-4.697
					C191.692,357.559,190.39,357.015,188.698,357.015z"/>
				<path id="XMLID_492_" class="st3" d="M217.624,376.097V362.25c0-1.745-0.397-3.047-1.191-3.906
					c-0.795-0.859-2.038-1.289-3.73-1.289c-2.24,0-3.881,0.605-4.922,1.816c-1.042,1.211-1.563,3.21-1.563,5.996v11.23h-3.242
					v-21.406h2.637l0.527,2.93h0.156c0.664-1.055,1.595-1.872,2.793-2.451c1.197-0.579,2.532-0.869,4.004-0.869
					c2.578,0,4.518,0.622,5.82,1.865c1.302,1.243,1.953,3.232,1.953,5.967v13.965H217.624z"/>
				<path id="XMLID_494_" class="st3" d="M238.405,376.097v-28.555h3.32v25.547h12.598v3.008H238.405z"/>
				<path id="XMLID_496_" class="st3" d="M258.542,351.371c0.625-0.808,1.299-1.784,2.021-2.93s1.292-2.142,1.709-2.988h3.945v0.41
					c-0.573,0.847-1.426,1.888-2.559,3.125s-2.116,2.194-2.949,2.871h-2.168V351.371z M261.921,376.097h-3.242v-21.406h3.242
					V376.097z"/>
				<path id="XMLID_499_" class="st3" d="M283.444,376.097V362.25c0-1.745-0.397-3.047-1.191-3.906
					c-0.795-0.859-2.038-1.289-3.73-1.289c-2.24,0-3.881,0.605-4.922,1.816c-1.042,1.211-1.563,3.21-1.563,5.996v11.23h-3.242
					v-21.406h2.637l0.527,2.93h0.156c0.664-1.055,1.595-1.872,2.793-2.451c1.197-0.579,2.532-0.869,4.004-0.869
					c2.578,0,4.518,0.622,5.82,1.865c1.302,1.243,1.953,3.232,1.953,5.967v13.965H283.444z"/>
				<path id="XMLID_501_" class="st3" d="M302.389,376.488c-3.164,0-5.661-0.964-7.49-2.891c-1.83-1.927-2.744-4.603-2.744-8.027
					c0-3.45,0.85-6.191,2.549-8.223s3.98-3.047,6.846-3.047c2.682,0,4.805,0.882,6.367,2.646s2.344,4.092,2.344,6.982v2.051h-14.746
					c0.064,2.513,0.699,4.421,1.904,5.723c1.204,1.302,2.9,1.953,5.088,1.953c2.305,0,4.583-0.481,6.836-1.445v2.891
					c-1.146,0.495-2.23,0.85-3.252,1.064C305.068,376.38,303.835,376.488,302.389,376.488z M301.51,357.015
					c-1.719,0-3.09,0.56-4.111,1.68c-1.022,1.12-1.625,2.669-1.807,4.648h11.191c0-2.044-0.456-3.61-1.367-4.697
					C304.505,357.559,303.203,357.015,301.51,357.015z"/>
				<path id="XMLID_504_" class="st3" d="M328.952,376.097l-0.645-3.047h-0.156c-1.068,1.341-2.133,2.249-3.193,2.725
					c-1.062,0.476-2.387,0.713-3.975,0.713c-2.123,0-3.786-0.547-4.99-1.641c-1.205-1.094-1.807-2.649-1.807-4.668
					c0-4.323,3.457-6.589,10.371-6.797l3.633-0.117v-1.328c0-1.68-0.361-2.92-1.084-3.721s-1.879-1.201-3.467-1.201
					c-1.784,0-3.803,0.547-6.055,1.641l-0.996-2.48c1.055-0.573,2.21-1.022,3.467-1.348c1.256-0.325,2.516-0.488,3.779-0.488
					c2.552,0,4.443,0.566,5.674,1.699s1.846,2.949,1.846,5.449v14.609H328.952z M321.628,373.812c2.018,0,3.604-0.554,4.756-1.66
					s1.729-2.656,1.729-4.648v-1.934l-3.242,0.137c-2.578,0.091-4.438,0.491-5.576,1.201c-1.14,0.71-1.709,1.813-1.709,3.311
					c0,1.172,0.354,2.063,1.064,2.676C319.358,373.506,320.351,373.812,321.628,373.812z"/>
			</g>
			<g id="XMLID_74_">
				<defs>
					<rect id="XMLID_75_" x="255.542" y="-42.304" width="221.514" height="394.024"/>
				</defs>
				<clipPath id="XMLID_3_">
					<use xlink:href="#XMLID_75_"  style="overflow:visible;"/>
				</clipPath>
				<circle id="XMLID_76_" class="st4" cx="255.542" cy="149.755" r="138.569"/>
			</g>
			<path id="XMLID_209_" class="st5" d="M316.788,180.195v-80.189c0-3.001-2.237-5.426-4.999-5.426h-59.301v11.187h54.013v67.836
				h-54.013v5.349h14.185v3.521h-14.185v9.782h76.242c2.763,0,5.003-2.426,5.003-5.426v-6.633H316.788z"/>
			<g id="XMLID_174_">
				<path id="XMLID_188_" class="st6" d="M262.176,139.804c-0.639-0.585-1.365-1.032-2.176-1.341
					c-0.81-0.309-1.899-0.651-3.268-1.026v-6.883c1.389,0.45,2.267,1.366,2.63,2.746c0.321,1.171,1.019,1.753,2.104,1.753
					c0.572,0,1.06-0.201,1.464-0.604c0.401-0.401,0.602-0.878,0.602-1.43c0-0.497-0.135-1.043-0.405-1.639
					c-0.271-0.596-0.654-1.175-1.15-1.737c-0.629-0.738-1.365-1.29-2.209-1.655c-0.843-0.364-1.856-0.608-3.037-0.728v-2.479
					c0-0.903-0.354-1.358-1.059-1.358c-0.696,0-1.043,0.464-1.043,1.391v2.446c-0.712,0.062-1.353,0.191-1.961,0.352v0
					c-1.341,0.355-2.445,0.932-3.276,1.767c-1.208,1.212-1.811,2.767-1.811,4.666c0,1.457,0.308,2.648,0.927,3.574
					c0.617,0.927,1.424,1.641,2.416,2.143c0.515,0.26,1.099,0.508,1.745,0.743v0c0.599,0.218,1.25,0.426,1.961,0.622v7.694
					c-0.739-0.208-1.332-0.513-1.78-0.909c-0.069-0.062-0.118-0.131-0.181-0.195v0c-0.347-0.347-0.633-0.716-0.819-1.122
					c-0.22-0.479-0.48-1.172-0.777-2.077c-0.133-0.417-0.371-0.746-0.712-0.976c-0.341-0.232-0.761-0.348-1.257-0.348
					c-0.618,0-1.133,0.212-1.547,0.637c-0.413,0.425-0.621,0.902-0.621,1.43c0,0.718,0.154,1.449,0.462,2.194
					c0.309,0.743,0.786,1.461,1.431,2.15c0.646,0.69,1.451,1.266,2.415,1.73c0.44,0.21,0.917,0.383,1.424,0.528v0
					c0.607,0.173,1.258,0.303,1.961,0.381v3.083c0,0.508,0.08,0.883,0.24,1.125c0.159,0.243,0.439,0.364,0.836,0.364
					c0.43,0,0.707-0.148,0.835-0.447c0.126-0.297,0.19-0.771,0.19-1.423v-2.736c1.578-0.133,2.939-0.547,4.086-1.24
					c1.148-0.697,2.016-1.594,2.607-2.69c0.589-1.097,0.885-2.275,0.885-3.533c0-1.003-0.185-1.928-0.553-2.772
					C263.386,141.135,262.861,140.409,262.176,139.804z M254.631,136.824c-0.838-0.307-1.484-0.645-1.961-1.011
					c-0.089-0.068-0.182-0.135-0.258-0.205c-0.484-0.447-0.727-1.106-0.727-1.977c0-0.915,0.26-1.599,0.778-2.051
					c0.063-0.055,0.138-0.104,0.207-0.156v0c0.5-0.379,1.147-0.693,1.961-0.935V136.824z M259.314,147.645
					c-0.607,0.675-1.469,1.121-2.582,1.342v-7.247c1.148,0.364,2.017,0.809,2.607,1.332c0.588,0.525,0.885,1.266,0.885,2.225
					C260.224,146.19,259.919,146.976,259.314,147.645z"/>
				<path id="XMLID_222_" class="st6" d="M255.699,114.891c-1.026,0-2.036,0.07-3.03,0.191v0c-12.303,1.5-21.864,12.002-21.864,24.7
					c0,12.701,9.561,23.203,21.864,24.703v0c0.994,0.121,2.003,0.191,3.03,0.191c13.725,0,24.892-11.167,24.892-24.894
					C280.591,126.058,269.425,114.891,255.699,114.891z M255.699,161.217c-1.031,0-2.037-0.098-3.03-0.24v0
					c-10.386-1.479-18.405-10.405-18.405-21.195c0-10.785,8.019-19.712,18.405-21.192v0c0.992-0.141,1.999-0.24,3.03-0.24
					c11.818,0,21.432,9.615,21.432,21.431C277.132,151.603,267.517,161.217,255.699,161.217z"/>
			</g>
			<g id="XMLID_16_">
				<path id="XMLID_279_" class="st5" d="M263.817,141.979c-0.372-0.844-0.897-1.57-1.582-2.175
					c-0.639-0.585-1.365-1.032-2.176-1.341c-0.81-0.309-1.899-0.651-3.268-1.026v-6.883c1.389,0.45,2.267,1.366,2.63,2.746
					c0.321,1.171,1.019,1.753,2.104,1.753c0.572,0,1.06-0.201,1.464-0.604c0.401-0.401,0.602-0.878,0.602-1.43
					c0-0.497-0.135-1.043-0.405-1.639c-0.271-0.596-0.654-1.175-1.15-1.737c-0.629-0.738-1.365-1.29-2.209-1.655
					c-0.843-0.364-1.856-0.608-3.037-0.728v-2.479c0-0.903-0.354-1.358-1.059-1.358c-0.013,0-0.021,0.006-0.034,0.006v33.378
					c0.025,0.001,0.041,0.012,0.067,0.012c0.43,0,0.707-0.148,0.835-0.447c0.126-0.297,0.19-0.771,0.19-1.423v-2.736
					c1.578-0.133,2.939-0.547,4.086-1.24c1.148-0.697,2.016-1.594,2.607-2.69c0.589-1.097,0.885-2.275,0.885-3.533
					C264.37,143.748,264.185,142.823,263.817,141.979z M259.373,147.645c-0.607,0.675-1.469,1.121-2.582,1.342v-7.247
					c1.148,0.364,2.017,0.809,2.607,1.332c0.588,0.525,0.885,1.266,0.885,2.225C260.283,146.189,259.978,146.976,259.373,147.645z"
					/>
				<path id="XMLID_252_" class="st5" d="M255.758,114.891c-0.02,0-0.04,0.002-0.06,0.002v3.461c0.02,0,0.04-0.003,0.06-0.003
					c11.818,0,21.432,9.615,21.432,21.431c0,11.821-9.615,21.434-21.432,21.434c-0.02,0-0.04-0.003-0.06-0.003v3.461
					c0.02,0,0.04,0.002,0.06,0.002c13.725,0,24.892-11.167,24.892-24.894C280.65,126.058,269.483,114.891,255.758,114.891z"/>
			</g>
			<path id="XMLID_200_" class="st6" d="M255.488,182.472h-9.295v-3.521h9.295v-5.349H205.82v-67.836h49.668V94.579h-54.959
				c-2.762,0-4.999,2.426-4.999,5.426v80.189h-16.397v6.633c0,3.001,2.24,5.426,5,5.426h71.355V182.472z"/>
		</g>
	</g>
</g>
</svg>
