<?xml version="1.0" encoding="utf-8"?>
<!-- Generator: Adobe Illustrator 19.0.0, SVG Export Plug-In . SVG Version: 6.00 Build 0)  -->
<svg version="1.1" id="Capa_1" xmlns="http://www.w3.org/2000/svg" xmlns:xlink="http://www.w3.org/1999/xlink" x="0px" y="0px"
	 viewBox="0 0 400 400" style="enable-background:new 0 0 400 400;" xml:space="preserve">
<style type="text/css">
	.st0{clip-path:url(#XMLID_914_);fill:#155980;}
	.st1{clip-path:url(#XMLID_914_);}
	.st2{opacity:0.08;clip-path:url(#XMLID_915_);fill:#1D1D1B;}
	.st3{fill:#F3F3F3;}
	.st4{fill:#FFFFFF;}
	.st5{clip-path:url(#XMLID_916_);}
	.st6{fill:#155980;}
	.st7{opacity:0.08;clip-path:url(#XMLID_917_);fill:#1D1D1B;}
	.st8{clip-path:url(#XMLID_918_);fill:#155980;}
	.st9{clip-path:url(#XMLID_918_);}
	.st10{opacity:0.08;clip-path:url(#XMLID_919_);fill:#1D1D1B;}
	.st11{clip-path:url(#XMLID_920_);fill:#155980;}
	.st12{clip-path:url(#XMLID_920_);}
	.st13{opacity:0.08;clip-path:url(#XMLID_921_);fill:#1D1D1B;}
	.st14{clip-path:url(#XMLID_922_);fill:#FFFFFF;}
	.st15{clip-path:url(#XMLID_922_);fill:#155980;}
	.st16{clip-path:url(#XMLID_922_);}
	.st17{opacity:0.08;clip-path:url(#XMLID_923_);fill:#1D1D1B;}
	.st18{clip-path:url(#XMLID_922_);fill:#F3F3F3;}
	.st19{clip-path:url(#XMLID_924_);fill:#155980;}
	.st20{clip-path:url(#XMLID_924_);}
	.st21{opacity:0.08;clip-path:url(#XMLID_925_);fill:#1D1D1B;}
</style>
<g id="XMLID_530_">
	<defs>
		<circle id="XMLID_572_" cx="2525.569" cy="200" r="138.569"/>
	</defs>
	<clipPath id="XMLID_914_">
		<use xlink:href="#XMLID_572_"  style="overflow:visible;"/>
	</clipPath>
	<circle id="XMLID_719_" class="st0" cx="2525.569" cy="200" r="138.569"/>
	<g id="XMLID_713_" class="st1">
		<defs>
			<rect id="XMLID_714_" x="2524.821" y="7.454" width="206.065" height="393.431"/>
		</defs>
		<clipPath id="XMLID_915_">
			<use xlink:href="#XMLID_714_"  style="overflow:visible;"/>
		</clipPath>
		<circle id="XMLID_715_" class="st2" cx="2524.821" cy="199.775" r="138.569"/>
	</g>
	<g id="XMLID_117_" class="st1">
		<path id="XMLID_122_" class="st3" d="M2546.398,188.252c-0.042,0.005-0.08,0.025-0.124,0.025h-59.995
			c-0.615,0-1.118-0.503-1.118-1.118v-0.745c0-0.615,0.503-1.118,1.118-1.118h47.353c-4.15-1.889-7.848-4.597-10.875-7.93h-36.478
			c-0.615,0-1.118-0.503-1.118-1.118v-0.745c0-0.615,0.503-1.118,1.118-1.118h34.079c-1.513-2.108-2.787-4.397-3.779-6.833h-30.3
			c-0.615,0-1.118-0.503-1.118-1.118v-0.745c0-0.615,0.503-1.118,1.118-1.118h29.247c-0.907-3.029-1.401-6.236-1.401-9.56
			c0-5.66,1.418-10.987,3.911-15.653h-40.141c-0.615,0-1.118,0.503-1.118,1.118v118.127c0,0.615,0.503,1.118,1.118,1.118h76.764
			c0.615,0,1.118-0.503,1.118-1.118V187.21c-2.679,0.696-5.488,1.067-8.385,1.067
			C2547.059,188.278,2546.729,188.262,2546.398,188.252z M2547.393,229.741c0,0.615-0.503,1.118-1.118,1.118h-59.995
			c-0.615,0-1.118-0.503-1.118-1.118v-0.745c0-0.615,0.503-1.118,1.118-1.118h59.995c0.615,0,1.118,0.503,1.118,1.118V229.741z
			 M2547.393,220.188c0,0.615-0.503,1.118-1.118,1.118h-59.995c-0.615,0-1.118-0.503-1.118-1.118v-0.745
			c0-0.615,0.503-1.118,1.118-1.118h59.995c0.615,0,1.118,0.503,1.118,1.118V220.188z M2547.393,196.712
			c0,0.615-0.503,1.118-1.118,1.118h-59.995c-0.615,0-1.118-0.503-1.118-1.118v-0.745c0-0.615,0.503-1.118,1.118-1.118h59.995
			c0.615,0,1.118,0.503,1.118,1.118V196.712z"/>
		<path id="XMLID_208_" class="st3" d="M2547.393,127.857c-15.188,0-27.5,12.312-27.5,27.5c0,15.188,12.312,27.5,27.5,27.5
			s27.5-12.312,27.5-27.5C2574.893,140.169,2562.58,127.857,2547.393,127.857z M2562.003,157.579c0,1.65-1.35,3-3,3h-8.111v8.111
			c0,1.65-1.35,3-3,3h-1c-1.65,0-3-1.35-3-3v-8.111h-8.111c-1.65,0-3-1.35-3-3v-1c0-1.65,1.35-3,3-3h8.111v-8.111c0-1.65,1.35-3,3-3
			h1c1.65,0,3,1.35,3,3v8.111h8.111c1.65,0,3,1.35,3,3V157.579z"/>
	</g>
	<g id="XMLID_104_" class="st1">
		<path id="XMLID_701_" class="st4" d="M2524.556,179.419v5.893h8.845C2530.135,183.826,2527.155,181.826,2524.556,179.419z"/>
		<path id="XMLID_702_" class="st4" d="M2547.427,188.278c-0.333,0-0.663-0.015-0.994-0.025c-0.042,0.005-0.08,0.025-0.124,0.025
			h-21.487v6.571h21.487c0.615,0,1.118,0.503,1.118,1.118v0.745c0,0.615-0.503,1.118-1.118,1.118h-21.487v20.495h21.487
			c0.615,0,1.118,0.503,1.118,1.118v0.745c0,0.615-0.503,1.118-1.118,1.118h-21.487v6.571h21.487c0.615,0,1.118,0.503,1.118,1.118
			v0.745c0,0.615-0.503,1.118-1.118,1.118h-21.487v28.862h29.872c0.615,0,1.118-0.503,1.118-1.118V187.21
			C2553.133,187.906,2550.323,188.278,2547.427,188.278z"/>
		<path id="XMLID_245_" class="st4" d="M2547.161,127.873c-9.37,0-17.64,4.69-22.605,11.846v31.308
			c4.965,7.156,13.236,11.846,22.605,11.846c15.188,0,27.5-12.312,27.5-27.5C2574.661,140.185,2562.349,127.873,2547.161,127.873z
			 M2561.772,157.595c0,1.65-1.35,3-3,3h-8.111v8.111c0,1.65-1.35,3-3,3h-1c-1.65,0-3-1.35-3-3v-8.111h-8.111c-1.65,0-3-1.35-3-3v-1
			c0-1.65,1.35-3,3-3h8.111v-8.111c0-1.65,1.35-3,3-3h1c1.65,0,3,1.35,3,3v8.111h8.111c1.65,0,3,1.35,3,3V157.595z"/>
	</g>
</g>
<g id="XMLID_46_">
	<defs>
		<circle id="XMLID_39_" cx="3068.569" cy="200" r="138.569"/>
	</defs>
	<clipPath id="XMLID_916_">
		<use xlink:href="#XMLID_39_"  style="overflow:visible;"/>
	</clipPath>
	<g id="XMLID_528_" class="st5">
		<circle id="XMLID_187_" class="st6" cx="3068.569" cy="200" r="138.569"/>
		<g id="XMLID_169_">
			<defs>
				<rect id="XMLID_174_" x="3067.821" y="7.454" width="206.065" height="393.431"/>
			</defs>
			<clipPath id="XMLID_917_">
				<use xlink:href="#XMLID_174_"  style="overflow:visible;"/>
			</clipPath>
			<circle id="XMLID_175_" class="st7" cx="3067.821" cy="199.775" r="138.569"/>
		</g>
		<g id="XMLID_105_">
			<g id="XMLID_329_">
				<path id="XMLID_332_" class="st3" d="M3089.207,189.224c-0.042,0.005-0.08,0.025-0.124,0.025h-59.995
					c-0.615,0-1.118-0.503-1.118-1.118v-0.745c0-0.615,0.503-1.118,1.118-1.118h47.353c-4.15-1.889-7.848-4.597-10.875-7.93h-36.478
					c-0.615,0-1.118-0.503-1.118-1.118v-0.745c0-0.615,0.503-1.118,1.118-1.118h34.079c-1.513-2.108-2.787-4.397-3.779-6.833h-30.3
					c-0.615,0-1.118-0.503-1.118-1.118v-0.745c0-0.615,0.503-1.118,1.118-1.118h29.247c-0.907-3.029-1.401-6.236-1.401-9.56
					c0-5.66,1.418-10.987,3.911-15.653h-40.142c-0.615,0-1.118,0.503-1.118,1.118v118.127c0,0.615,0.503,1.118,1.118,1.118h76.764
					c0.615,0,1.118-0.503,1.118-1.118v-71.392c-2.679,0.696-5.488,1.067-8.385,1.067
					C3089.868,189.249,3089.538,189.234,3089.207,189.224z M3090.201,230.712c0,0.615-0.503,1.118-1.118,1.118h-59.995
					c-0.615,0-1.118-0.503-1.118-1.118v-0.745c0-0.615,0.503-1.118,1.118-1.118h59.995c0.615,0,1.118,0.503,1.118,1.118V230.712z
					 M3090.201,221.16c0,0.615-0.503,1.118-1.118,1.118h-59.995c-0.615,0-1.118-0.503-1.118-1.118v-0.745
					c0-0.615,0.503-1.118,1.118-1.118h59.995c0.615,0,1.118,0.503,1.118,1.118V221.16z M3090.201,197.683
					c0,0.615-0.503,1.118-1.118,1.118h-59.995c-0.615,0-1.118-0.503-1.118-1.118v-0.745c0-0.615,0.503-1.118,1.118-1.118h59.995
					c0.615,0,1.118,0.503,1.118,1.118V197.683z"/>
				<path id="XMLID_338_" class="st3" d="M3090.201,128.829c-15.188,0-27.5,12.312-27.5,27.5c0,15.188,12.313,27.5,27.5,27.5
					c15.188,0,27.5-12.312,27.5-27.5C3117.701,141.141,3105.389,128.829,3090.201,128.829z M3106.904,150.234l-17.625,18.066
					c-0.975,0.999-2.335,1.403-3.625,1.215c-1.329,0.201-2.734-0.232-3.715-1.284l-8.507-9.125
					c-1.578-1.692-1.484-4.368,0.208-5.945v0c1.692-1.578,4.368-1.484,5.945,0.208l6.111,6.555l15.185-15.565
					c1.616-1.656,4.293-1.689,5.949-0.073C3108.487,145.901,3108.52,148.578,3106.904,150.234z"/>
			</g>
			<g id="XMLID_173_">
				<path id="XMLID_895_" class="st4" d="M3067.848,180.605v5.663h8.602C3073.286,184.828,3070.388,182.91,3067.848,180.605z"/>
				<path id="XMLID_896_" class="st4" d="M3090.209,189.249c-0.333,0-0.663-0.015-0.994-0.025c-0.042,0.005-0.08,0.025-0.124,0.025
					h-21.244v6.571h21.244c0.615,0,1.118,0.503,1.118,1.118v0.745c0,0.615-0.503,1.118-1.118,1.118h-21.244v20.495h21.244
					c0.615,0,1.118,0.503,1.118,1.118v0.745c0,0.615-0.503,1.118-1.118,1.118h-21.244v6.571h21.244c0.615,0,1.118,0.503,1.118,1.118
					v0.745c0,0.615-0.503,1.118-1.118,1.118h-21.244v28.862h29.628c0.615,0,1.118-0.503,1.118-1.118v-71.392
					C3095.916,188.877,3093.106,189.249,3090.209,189.249z"/>
				<path id="XMLID_395_" class="st4" d="M3090.209,128.829c-9.219,0-17.372,4.541-22.362,11.504v31.993
					c4.99,6.962,13.143,11.504,22.362,11.504c15.188,0,27.5-12.312,27.5-27.5C3117.709,141.141,3105.397,128.829,3090.209,128.829z
					 M3106.913,150.234l-17.625,18.066c-0.975,0.999-2.335,1.403-3.625,1.215c-1.329,0.201-2.734-0.232-3.715-1.284l-8.507-9.125
					c-1.578-1.692-1.484-4.368,0.208-5.945v0c1.692-1.578,4.368-1.484,5.945,0.208l6.111,6.555l15.185-15.565
					c1.616-1.656,4.293-1.689,5.949-0.073C3108.496,145.901,3108.528,148.578,3106.913,150.234z"/>
			</g>
		</g>
	</g>
</g>
<g id="XMLID_614_">
	<g id="XMLID_45_">
		<defs>
			<circle id="XMLID_40_" cx="1914.443" cy="200" r="138.569"/>
		</defs>
		<clipPath id="XMLID_918_">
			<use xlink:href="#XMLID_40_"  style="overflow:visible;"/>
		</clipPath>
		<circle id="XMLID_176_" class="st8" cx="1914.443" cy="200" r="138.569"/>
		<g id="XMLID_166_" class="st9">
			<defs>
				<rect id="XMLID_167_" x="1913.695" y="7.454" width="206.065" height="393.431"/>
			</defs>
			<clipPath id="XMLID_919_">
				<use xlink:href="#XMLID_167_"  style="overflow:visible;"/>
			</clipPath>
			<circle id="XMLID_168_" class="st10" cx="1913.695" cy="199.775" r="138.569"/>
		</g>
		<g id="XMLID_258_" class="st9">
			<g id="XMLID_263_">
				<path id="XMLID_266_" class="st3" d="M1938.766,136.903h-76.764c-0.615,0-1.118,0.503-1.118,1.118v118.127
					c0,0.615,0.503,1.118,1.118,1.118h76.764c0.615,0,1.118-0.503,1.118-1.118V138.021
					C1939.884,137.406,1939.381,136.903,1938.766,136.903z M1869.269,163.234c0-0.615,0.503-1.118,1.118-1.118h44.158
					c0.615,0,1.118,0.503,1.118,1.118v0.745c0,0.615-0.503,1.118-1.118,1.118h-44.158c-0.615,0-1.118-0.503-1.118-1.118V163.234z
					 M1931.5,227.286c0,0.615-0.503,1.118-1.118,1.118h-59.995c-0.615,0-1.118-0.503-1.118-1.118v-0.745
					c0-0.615,0.503-1.118,1.118-1.118h59.995c0.615,0,1.118,0.503,1.118,1.118V227.286z M1931.5,217.734
					c0,0.615-0.503,1.118-1.118,1.118h-59.995c-0.615,0-1.118-0.503-1.118-1.118v-0.745c0-0.615,0.503-1.118,1.118-1.118h59.995
					c0.615,0,1.118,0.503,1.118,1.118V217.734z M1931.5,194.257c0,0.615-0.503,1.118-1.118,1.118h-59.995
					c-0.615,0-1.118-0.503-1.118-1.118v-0.745c0-0.615,0.503-1.118,1.118-1.118h59.995c0.615,0,1.118,0.503,1.118,1.118V194.257z
					 M1931.5,184.705c0,0.615-0.503,1.118-1.118,1.118h-59.995c-0.615,0-1.118-0.503-1.118-1.118v-0.745
					c0-0.615,0.503-1.118,1.118-1.118h59.995c0.615,0,1.118,0.503,1.118,1.118V184.705z M1931.5,173.794
					c0,0.615-0.503,1.118-1.118,1.118h-59.995c-0.615,0-1.118-0.503-1.118-1.118v-0.745c0-0.615,0.503-1.118,1.118-1.118h59.995
					c0.615,0,1.118,0.503,1.118,1.118V173.794z"/>
				<g id="XMLID_264_">
					<path id="XMLID_265_" class="st3" d="M1967.133,177.916h-22.208v20.528h2.488c0.5,0,0.91,0.41,0.91,0.91v0.607
						c0,0.501-0.41,0.91-0.91,0.91h-2.488v5.563h15.382c0.5,0,0.91,0.41,0.91,0.91v0.607c0,0.501-0.41,0.91-0.91,0.91h-15.382v6.456
						h15.382c0.5,0,0.91,0.409,0.91,0.91v0.607c0,0.501-0.41,0.91-0.91,0.91h-15.382v5.35h15.382c0.5,0,0.91,0.41,0.91,0.91v0.607
						c0,0.501-0.41,0.91-0.91,0.91h-15.382v16.686h15.382c0.5,0,0.91,0.41,0.91,0.91v0.607c0,0.5-0.41,0.91-0.91,0.91h-15.382v5.35
						h15.382c0.5,0,0.91,0.41,0.91,0.91v0.607c0,0.501-0.41,0.91-0.91,0.91h-15.382v8.898h-41.2V275c0,0.501,0.41,0.91,0.91,0.91
						h62.498c0.5,0,0.91-0.41,0.91-0.91v-96.173C1968.043,178.326,1967.634,177.916,1967.133,177.916z"/>
				</g>
			</g>
			<g id="XMLID_259_">
				<path id="XMLID_262_" class="st4" d="M1938.766,136.903H1913.7v25.214h0.845c0.615,0,1.118,0.503,1.118,1.118v0.745
					c0,0.615-0.503,1.118-1.118,1.118h-0.845v6.833h16.682c0.615,0,1.118,0.503,1.118,1.118v0.745c0,0.615-0.503,1.118-1.118,1.118
					H1913.7v7.93h16.682c0.615,0,1.118,0.503,1.118,1.118v0.745c0,0.615-0.503,1.118-1.118,1.118H1913.7v6.571h16.682
					c0.615,0,1.118,0.503,1.118,1.118v0.745c0,0.615-0.503,1.118-1.118,1.118H1913.7v20.495h16.682c0.615,0,1.118,0.503,1.118,1.118
					v0.745c0,0.615-0.503,1.118-1.118,1.118H1913.7v6.571h16.682c0.615,0,1.118,0.503,1.118,1.118v0.745
					c0,0.615-0.503,1.118-1.118,1.118H1913.7v28.862h25.067c0.615,0,1.118-0.503,1.118-1.118V138.021
					C1939.884,137.406,1939.381,136.903,1938.766,136.903z"/>
				<g id="XMLID_260_">
					<path id="XMLID_261_" class="st4" d="M1967.13,177.916h-22.208v20.528h2.488c0.5,0,0.91,0.409,0.91,0.91v0.607
						c0,0.501-0.41,0.91-0.91,0.91h-2.488v5.563h15.382c0.5,0,0.91,0.41,0.91,0.91v0.607c0,0.5-0.41,0.91-0.91,0.91h-15.382v6.456
						h15.382c0.5,0,0.91,0.409,0.91,0.91v0.607c0,0.501-0.41,0.91-0.91,0.91h-15.382v5.35h15.382c0.5,0,0.91,0.41,0.91,0.91v0.607
						c0,0.5-0.41,0.91-0.91,0.91h-15.382v16.686h15.382c0.5,0,0.91,0.41,0.91,0.91v0.607c0,0.5-0.41,0.91-0.91,0.91h-15.382v5.35
						h15.382c0.5,0,0.91,0.41,0.91,0.91v0.607c0,0.501-0.41,0.91-0.91,0.91h-15.382v8.898h-31.226v14.6h53.433
						c0.5,0,0.91-0.409,0.91-0.91v-96.173C1968.04,178.325,1967.63,177.916,1967.13,177.916z"/>
				</g>
			</g>
		</g>
	</g>
</g>
<g id="XMLID_599_">
	<defs>
		<circle id="XMLID_411_" cx="1348.972" cy="200" r="138.569"/>
	</defs>
	<clipPath id="XMLID_920_">
		<use xlink:href="#XMLID_411_"  style="overflow:visible;"/>
	</clipPath>
	<circle id="XMLID_190_" class="st11" cx="1349.748" cy="200" r="138.569"/>
	<g id="XMLID_178_" class="st12">
		<defs>
			<rect id="XMLID_179_" x="1348.999" y="7.454" width="206.065" height="393.431"/>
		</defs>
		<clipPath id="XMLID_921_">
			<use xlink:href="#XMLID_179_"  style="overflow:visible;"/>
		</clipPath>
		<circle id="XMLID_180_" class="st13" cx="1348.999" cy="199.775" r="138.569"/>
	</g>
	<g id="XMLID_133_" class="st12">
		<path id="XMLID_325_" class="st3" d="M1324.666,293.604c-1.526-3.307-3.173-6.566-4.549-9.934
			c-1.897-4.642-4.736-6.092-9.663-4.18c-3.429,1.331-7.81,5.154-10.623,2.022c-2.963-3.3,1.264-7.484,2.774-11.039
			c4.959-11.68,10.272-23.21,15.495-34.777c0.682-1.511,0.869-3.741,2.826-4.009c2.186-0.299,2.413,2.064,3.239,3.436
			c5.672,9.429,10.954,10.993,20.183,5.397c3.333-2.021,5.921-2.31,9.418-0.206c9.869,5.936,14.577,4.547,20.561-5.399
			c0.763-1.267,1.163-3.262,2.769-3.28c2.069-0.023,2.382,2.231,3.054,3.733c6.152,13.743,12.259,27.507,18.347,41.279
			c0.68,1.538,1.873,3.27,0.604,4.846c-1.498,1.86-3.529,0.854-5.371,0.301c-12.729-3.827-12.72-3.822-18.106,8.443
			c-0.514,1.17-1.24,2.248-1.867,3.368c-0.861,0-1.723,0-2.584,0c-7.162-13.022-12.275-26.986-18.614-40.384
			c-0.846-1.789-1.016-4.875-3.672-4.634c-1.963,0.178-2.232,2.922-3.026,4.629c-6.251,13.441-11.612,27.292-18.612,40.389
			C1326.388,293.604,1325.527,293.604,1324.666,293.604z"/>
		<path id="XMLID_321_" class="st3" d="M1403.781,169.534c-0.08,2.267-1.213,4.159-2.451,5.881
			c-3.444,4.793-3.377,9.285-0.134,14.301c4.376,6.77,3.774,8.99-3.332,12.599c-5.057,2.568-7.15,6.191-7.077,11.823
			c0.113,8.664-1.243,10.145-9.463,9.922c-6.221-0.169-10.001,2.272-12.687,7.816c-2.939,6.065-5.735,6.893-11.24,3.171
			c-5.577-3.77-10.396-3.756-16.025-0.085c-5.952,3.882-8.536,3.078-11.698-3.398c-2.746-5.623-6.763-7.716-12.881-7.506
			c-7.577,0.26-9.596-1.617-9.158-8.898c0.39-6.479-1.828-10.504-7.763-13.255c-6.063-2.811-6.913-5.734-3.224-11.217
			c3.741-5.56,3.828-10.364,0.113-16.015c-3.905-5.939-3.073-8.591,3.374-11.705c5.61-2.71,7.828-6.557,7.534-12.776
			c-0.374-7.894,1.37-9.62,9.407-9.227c6.294,0.308,9.988-2.156,12.677-7.694c3.072-6.326,5.725-7.021,11.744-3.052
			c5.396,3.558,10.099,3.509,15.474-0.042c5.966-3.943,8.681-3.248,11.709,3.156c2.82,5.965,6.97,7.965,13.371,7.594
			c7.016-0.406,9.046,1.628,8.702,8.687c-0.327,6.715,2.021,11.15,8.278,13.685C1401.697,164.378,1403.895,166.163,1403.781,169.534
			z M1315.128,181.6c-0.858,18.073,14.313,34.162,33.173,35.178c17.767,0.957,34.169-14.61,35.186-33.396
			c0.976-18.018-14.344-34.059-33.392-34.963C1331.719,147.547,1316.039,162.426,1315.128,181.6z"/>
		<path id="XMLID_320_" class="st3" d="M1349.147,154.935c15.943,0.046,27.664,11.784,27.627,27.665
			c-0.037,15.77-11.969,27.537-27.849,27.466c-15.754-0.07-27.337-11.962-27.283-28.01
			C1321.694,166.726,1333.698,154.89,1349.147,154.935z"/>
	</g>
	<g id="XMLID_314_" class="st12">
		<path id="XMLID_361_" class="st4" d="M1398.497,276.655c-6.088-13.772-12.195-27.535-18.347-41.279
			c-0.672-1.502-0.985-3.756-3.054-3.733c-1.606,0.018-2.007,2.012-2.769,3.28c-5.984,9.946-10.693,11.335-20.561,5.399
			c-1.757-1.057-3.285-1.498-4.793-1.43v9.702c2.571-0.165,2.75,2.866,3.587,4.635c6.339,13.398,11.452,27.362,18.614,40.384h2.584
			c0.627-1.121,1.353-2.198,1.867-3.368c5.386-12.264,5.377-12.269,18.106-8.443c1.841,0.554,3.873,1.559,5.371-0.301
			C1400.37,279.926,1399.177,278.194,1398.497,276.655z"/>
		<path id="XMLID_362_" class="st4" d="M1401.195,189.726c-3.243-5.016-3.31-9.509,0.134-14.301
			c1.238-1.723,2.372-3.615,2.451-5.882c0.115-3.37-2.084-5.155-4.751-6.236c-6.257-2.535-8.605-6.969-8.278-13.685
			c0.344-7.058-1.686-9.093-8.702-8.687c-6.401,0.371-10.55-1.63-13.371-7.595c-3.028-6.404-5.743-7.098-11.709-3.156
			c-2.783,1.839-5.386,2.726-7.999,2.67V148.4c0.373,0.003,0.747,0.011,1.123,0.029c19.049,0.904,34.368,16.945,33.392,34.963
			c-1.005,18.548-17.009,33.948-34.516,33.413v15.445c2.75-0.101,5.482,0.818,8.424,2.807c5.506,3.722,8.302,2.894,11.241-3.171
			c2.686-5.544,6.466-7.985,12.687-7.816c8.22,0.223,9.576-1.257,9.463-9.922c-0.073-5.632,2.02-9.255,7.077-11.823
			C1404.969,198.716,1405.572,196.496,1401.195,189.726z"/>
		<path id="XMLID_363_" class="st4" d="M1349.147,154.944c-0.059,0-0.117,0.003-0.176,0.004v55.127
			c15.857,0.047,27.765-11.711,27.802-27.465C1376.812,166.728,1365.09,154.991,1349.147,154.944z"/>
	</g>
</g>
<g id="XMLID_698_">
	<defs>
		<circle id="XMLID_595_" cx="785" cy="200" r="138.569"/>
	</defs>
	<clipPath id="XMLID_922_">
		<use xlink:href="#XMLID_595_"  style="overflow:visible;"/>
	</clipPath>
	<path id="XMLID_115_" class="st14" d="M817.918,138.366v9.531c0,1.65,1.35,3,3,3h10.069L817.918,138.366z"/>
	<circle id="XMLID_153_" class="st15" cx="785" cy="200" r="138.569"/>
	<g id="XMLID_138_" class="st16">
		<defs>
			<rect id="XMLID_139_" x="784.252" y="7.454" width="206.065" height="393.431"/>
		</defs>
		<clipPath id="XMLID_923_">
			<use xlink:href="#XMLID_139_"  style="overflow:visible;"/>
		</clipPath>
		<circle id="XMLID_143_" class="st17" cx="784.252" cy="199.775" r="138.569"/>
	</g>
	<path id="XMLID_29_" class="st18" d="M819.252,153.387c-1.65,0-3-1.35-3-3v-12.833h-78.333c-1.65,0-3,1.35-3,3v125.667
		c0,1.65,1.35,3,3,3h92.667c1.65,0,3-1.35,3-3V153.387H819.252z M744.14,169.221h43c1.192,0,2.167,0.975,2.167,2.167
		s-0.975,2.167-2.167,2.167h-43c-1.192,0-2.167-0.975-2.167-2.167S742.948,169.221,744.14,169.221z M744.14,181.054h79.278
		c1.192,0,2.167,0.975,2.167,2.167s-0.975,2.167-2.167,2.167H744.14c-1.192,0-2.167-0.975-2.167-2.167
		S742.948,181.054,744.14,181.054z M743.904,214.387h79.278c1.192,0,2.167,0.975,2.167,2.167s-0.975,2.167-2.167,2.167h-79.278
		c-1.192,0-2.167-0.975-2.167-2.167S742.712,214.387,743.904,214.387z M819.946,265.36l-9.333-7.333l-10.333,6l3.082-11.227
		c-2.282-2.097-3.721-5.097-3.721-8.44c0-6.336,5.136-11.472,11.473-11.472c6.336,0,11.472,5.136,11.472,11.472
		c0,3.941-1.989,7.416-5.016,9.482L819.946,265.36z M823.654,229.054h-79.278c-1.192,0-2.167-0.975-2.167-2.167
		s0.975-2.167,2.167-2.167h79.278c1.192,0,2.167,0.975,2.167,2.167S824.846,229.054,823.654,229.054z M823.891,195.721h-79.278
		c-1.192,0-2.167-0.975-2.167-2.167s0.975-2.167,2.167-2.167h79.278c1.192,0,2.167,0.975,2.167,2.167
		S825.082,195.721,823.891,195.721z"/>
	<path id="XMLID_195_" class="st14" d="M819.248,153.387c-1.65,0-3-1.35-3-3v-12.833h-32v31.667h2.888
		c1.192,0,2.167,0.975,2.167,2.167s-0.975,2.167-2.167,2.167h-2.888v7.5h39.167c1.192,0,2.167,0.975,2.167,2.167
		s-0.975,2.167-2.167,2.167h-39.167v6h39.639c1.192,0,2.167,0.975,2.167,2.167s-0.975,2.167-2.167,2.167h-39.639v18.667h38.93
		c1.192,0,2.167,0.975,2.167,2.167s-0.975,2.167-2.167,2.167h-38.93v6h39.403c1.192,0,2.167,0.975,2.167,2.167
		s-0.975,2.167-2.167,2.167h-39.403v40.167h46.333c1.65,0,3-1.35,3-3V153.387H819.248z M819.943,265.359l-9.333-7.333l-10.333,6
		l3.082-11.227c-2.282-2.097-3.721-5.097-3.721-8.44c0-6.336,5.136-11.472,11.473-11.472c6.336,0,11.472,5.136,11.472,11.472
		c0,3.941-1.989,7.416-5.016,9.482L819.943,265.359z"/>
</g>
<g id="XMLID_743_">
	<defs>
		<circle id="XMLID_695_" cx="200" cy="200" r="138.569"/>
	</defs>
	<clipPath id="XMLID_924_">
		<use xlink:href="#XMLID_695_"  style="overflow:visible;"/>
	</clipPath>
	<circle id="XMLID_849_" class="st19" cx="200" cy="200" r="138.569"/>
	<g id="XMLID_841_" class="st20">
		<defs>
			<rect id="XMLID_842_" x="199.252" y="7.454" width="206.065" height="393.431"/>
		</defs>
		<clipPath id="XMLID_925_">
			<use xlink:href="#XMLID_842_"  style="overflow:visible;"/>
		</clipPath>
		<circle id="XMLID_843_" class="st21" cx="199.252" cy="199.775" r="138.569"/>
	</g>
	<g id="XMLID_17_" class="st20">
		<path id="XMLID_18_" class="st3" d="M284.44,176.826l-16.842-26.914l-11.488-15.936c0,0-1.771-4.25-10.978,0
			c0,0-9.915,5.666-17.706,6.374c0,0-6.374,0-16.29-4.249c0,0-17.352-8.499-32.225,0c0,0-13.457,6.728-22.31,10.27
			c0,0-15.581,4.958-5.312,16.29c0,0,7.082,8.499,19.477,8.145c0,0,17.352-1.062,25.143-6.02l52.411,40.37
			c0,0,26.559,0.708,34.35-10.978C282.669,194.178,290.814,188.866,284.44,176.826z"/>
		<path id="XMLID_22_" class="st3" d="M197.406,207.805l6.414-8.434c-1.512-0.571-2.842-0.818-3.99-0.74
			c-1.148,0.077-2.185,0.724-3.112,1.943c-0.882,1.159-1.227,2.282-1.032,3.368C195.88,205.028,196.453,206.315,197.406,207.805z"/>
		<path id="XMLID_23_" class="st3" d="M192.686,226.946c1.488-0.281,2.685-1.017,3.589-2.206c0.971-1.277,1.329-2.564,1.074-3.858
			c-0.255-1.294-0.961-2.765-2.12-4.411l-7.335,9.645C189.601,226.951,191.198,227.228,192.686,226.946z"/>
		<path id="XMLID_57_" class="st3" d="M142.081,169.389l4.25-6.374l-1.417-6.728l-33.288,42.495l114.028,90.302l46.745-59.139
			L195.2,169.389C195.2,169.389,171.12,181.076,142.081,169.389z M137.83,214.001l-19.719-16.276l17.055-22.465
			C135.166,175.26,154.015,196.859,137.83,214.001z M240.528,211.176l21.956,17.706l-15.227,20.539
			C227.425,236.673,240.528,211.176,240.528,211.176z M243.072,257.564l-17.706,21.956l-20.539-15.227
			C217.575,244.462,243.072,257.564,243.072,257.564z M207.086,195.076l1.775-2.334c0.938-1.233,1.869-1.498,2.794-0.795
			c0.939,0.714,0.951,1.674,0.036,2.877l-1.809,2.379c1.448,1.357,2.549,2.703,3.304,4.042c0.755,1.338,1.176,2.818,1.265,4.438
			c0.091,1.251,0.015,2.41-0.228,3.476c-0.243,1.067-0.616,1.93-1.118,2.591c-0.559,0.734-1.308,1.165-2.252,1.293
			c-0.944,0.129-1.797-0.098-2.56-0.678c-1.439-1.094-1.779-2.581-1.022-4.461c0.911-2.204,0.67-4.309-0.721-6.318l-6.967,9.161
			c1.441,1.883,2.544,3.441,3.311,4.673c0.767,1.231,1.28,2.56,1.539,3.986c0.297,1.5,0.263,2.998-0.099,4.495
			c-0.362,1.497-1.052,2.914-2.067,4.25c-1.273,1.673-2.857,2.941-4.754,3.805c-1.896,0.864-3.959,1.178-6.19,0.941
			c-2.231-0.237-4.462-1.064-6.695-2.485l-4.17,5.483c-0.659,0.867-1.224,1.433-1.693,1.701s-0.992,0.184-1.564-0.251
			c-0.529-0.402-0.776-0.846-0.744-1.33c0.033-0.484,0.306-1.065,0.82-1.74l4.522-5.946c-1.573-1.497-2.766-3.042-3.582-4.636
			c-0.816-1.594-1.304-3.176-1.465-4.746c-0.161-1.57-0.071-3.008,0.272-4.311s0.876-2.432,1.602-3.387
			c0.536-0.705,1.294-1.131,2.274-1.277c0.98-0.146,1.881,0.093,2.704,0.718c0.661,0.502,1.102,1.081,1.322,1.735
			c0.22,0.654,0.207,1.327-0.041,2.02c-0.519,1.505-0.875,2.689-1.067,3.551c-0.192,0.862-0.192,1.783,0.001,2.764
			c0.193,0.981,0.675,1.985,1.446,3.011l7.787-10.24c-1.555-2.039-2.738-3.895-3.551-5.568c-0.813-1.673-1.162-3.438-1.046-5.297
			c0.115-1.859,0.91-3.757,2.384-5.695c1.92-2.525,4.298-3.984,7.134-4.376C200.808,192.202,203.846,193.029,207.086,195.076z"/>
	</g>
	<g id="XMLID_21_" class="st20">
		<path id="XMLID_127_" class="st4" d="M284.357,176.826l-16.842-26.914l-11.488-15.936c0,0-1.771-4.25-10.978,0
			c0,0-9.915,5.666-17.706,6.374c0,0-6.374,0-16.29-4.249c0,0-4.891-2.395-11.704-3.371V167.5l48.888,37.656
			c0,0,26.559,0.708,34.35-10.978C282.587,194.178,290.732,188.866,284.357,176.826z"/>
		<path id="XMLID_119_" class="st4" d="M199.349,205.141l4.389-5.771c-1.512-0.571-2.842-0.818-3.99-0.74
			c-0.136,0.009-0.266,0.053-0.399,0.078V205.141z"/>
		<path id="XMLID_136_" class="st4" d="M199.349,172.708v19.805c2.413,0.017,4.963,0.863,7.654,2.563l1.775-2.334
			c0.938-1.233,1.869-1.498,2.794-0.795c0.939,0.714,0.951,1.674,0.036,2.877l-1.809,2.379c1.448,1.357,2.549,2.703,3.304,4.042
			c0.755,1.338,1.176,2.818,1.265,4.438c0.091,1.251,0.015,2.41-0.228,3.476c-0.243,1.067-0.616,1.93-1.118,2.591
			c-0.559,0.734-1.308,1.165-2.252,1.293c-0.944,0.129-1.797-0.098-2.56-0.678c-1.439-1.094-1.779-2.581-1.022-4.461
			c0.911-2.204,0.67-4.309-0.721-6.318l-6.967,9.161c1.441,1.883,2.544,3.441,3.311,4.673c0.767,1.231,1.28,2.56,1.539,3.986
			c0.297,1.5,0.263,2.998-0.099,4.495c-0.362,1.497-1.052,2.914-2.067,4.25c-0.813,1.069-1.768,1.954-2.836,2.693v37.474
			l26.224,20.767l46.745-59.139L199.349,172.708z M225.284,279.52l-20.539-15.227c12.748-19.831,38.245-6.728,38.245-6.728
			L225.284,279.52z M240.446,211.176l21.956,17.706l-15.227,20.539C227.343,236.673,240.446,211.176,240.446,211.176z"/>
	</g>
</g>
</svg>
