<?xml version="1.0" encoding="utf-8"?>
<!-- Generator: Adobe Illustrator 19.0.0, SVG Export Plug-In . SVG Version: 6.00 Build 0)  -->
<svg version="1.1" id="Capa_1" xmlns="http://www.w3.org/2000/svg" xmlns:xlink="http://www.w3.org/1999/xlink" x="0px" y="0px"
	 viewBox="0 0 512 404" style="enable-background:new 0 0 512 404;" xml:space="preserve">
<style type="text/css">
	.st0{clip-path:url(#XMLID_2_);}
	.st1{fill:#F2F2F2;}
	.st2{fill:#9A58B9;}
	.st3{fill:#5B5B5B;}
	.st4{opacity:0.2;}
	.st5{clip-path:url(#XMLID_4_);fill:#924AB0;}
	.st6{fill:#F3F3F3;}
	.st7{fill:#FFFFFF;}
</style>
<g id="XMLID_1085_">
	<g id="frecuentes">
		<defs>
			<rect id="XMLID_542_" width="512" height="404"/>
		</defs>
		<clipPath id="XMLID_2_">
			<use xlink:href="#XMLID_542_"  style="overflow:visible;"/>
		</clipPath>
		<g id="XMLID_428_" class="st0">
			<path id="XMLID_587_" class="st1" d="M502,404H10c-5.5,0-10-4.5-10-10V114c0-5.5,4.5-10,10-10h492c5.5,0,10,4.5,10,10v280
				C512,399.5,507.5,404,502,404z"/>
			<circle id="XMLID_586_" class="st2" cx="256" cy="149.27" r="138.569"/>
			<g id="XMLID_607_">
				<path id="XMLID_608_" class="st3" d="M172.223,313.949c0,3.073-0.96,5.423-2.881,7.051c-1.921,1.628-4.652,2.441-8.193,2.441
					h-2.598v10.156h-6.055v-28.555h9.121c3.463,0,6.097,0.745,7.9,2.236C171.321,308.77,172.223,310.993,172.223,313.949z
					 M158.551,318.48h1.992c1.862,0,3.255-0.368,4.18-1.104c0.924-0.735,1.387-1.807,1.387-3.213c0-1.419-0.388-2.468-1.162-3.145
					c-0.775-0.677-1.989-1.016-3.643-1.016h-2.754V318.48z"/>
				<path id="XMLID_611_" class="st3" d="M189.333,311.351c0.807,0,1.478,0.059,2.012,0.176l-0.449,5.586
					c-0.482-0.13-1.068-0.195-1.758-0.195c-1.901,0-3.382,0.488-4.443,1.465c-1.062,0.977-1.592,2.344-1.592,4.102v11.113h-5.957
					v-21.836h4.512l0.879,3.672h0.293c0.677-1.224,1.592-2.21,2.744-2.959S187.978,311.351,189.333,311.351z"/>
				<path id="XMLID_613_" class="st3" d="M205.192,333.988c-3.516,0-6.263-0.97-8.242-2.91c-1.979-1.94-2.969-4.688-2.969-8.242
					c0-3.659,0.915-6.487,2.744-8.486c1.829-1.999,4.358-2.998,7.588-2.998c3.086,0,5.488,0.879,7.207,2.637
					s2.578,4.187,2.578,7.285v2.891h-14.082c0.065,1.692,0.566,3.015,1.504,3.965s2.252,1.426,3.945,1.426
					c1.315,0,2.559-0.137,3.73-0.41s2.396-0.71,3.672-1.309v4.609c-1.042,0.521-2.155,0.908-3.34,1.162
					C208.343,333.861,206.897,333.988,205.192,333.988z M204.352,315.589c-1.263,0-2.253,0.4-2.969,1.201
					c-0.716,0.801-1.126,1.937-1.23,3.408h8.359c-0.026-1.472-0.41-2.607-1.152-3.408S205.615,315.589,204.352,315.589z"/>
				<path id="XMLID_616_" class="st3" d="M237.946,311.761v3.027l-3.418,0.879c0.625,0.977,0.938,2.07,0.938,3.281
					c0,2.344-0.817,4.17-2.451,5.479c-1.634,1.309-3.903,1.963-6.807,1.963l-1.074-0.059l-0.879-0.098
					c-0.612,0.469-0.918,0.989-0.918,1.563c0,0.859,1.094,1.289,3.281,1.289h3.711c2.396,0,4.222,0.515,5.479,1.543
					c1.256,1.028,1.885,2.539,1.885,4.531c0,2.552-1.064,4.531-3.193,5.938s-5.186,2.109-9.17,2.109
					c-3.047,0-5.375-0.53-6.982-1.592c-1.608-1.062-2.412-2.549-2.412-4.463c0-1.315,0.41-2.415,1.23-3.301s2.024-1.517,3.613-1.895
					c-0.612-0.261-1.146-0.687-1.602-1.279c-0.456-0.593-0.684-1.221-0.684-1.885c0-0.833,0.241-1.526,0.723-2.08
					c0.481-0.554,1.178-1.097,2.09-1.631c-1.146-0.495-2.054-1.289-2.725-2.383c-0.671-1.094-1.006-2.383-1.006-3.867
					c0-2.383,0.774-4.226,2.324-5.527c1.549-1.302,3.763-1.953,6.641-1.953c0.612,0,1.338,0.056,2.178,0.166
					s1.377,0.192,1.611,0.244H237.946z M221.09,336.683c0,0.82,0.394,1.465,1.182,1.934c0.788,0.469,1.891,0.703,3.311,0.703
					c2.135,0,3.809-0.293,5.02-0.879s1.816-1.387,1.816-2.402c0-0.82-0.358-1.387-1.074-1.699c-0.716-0.313-1.823-0.469-3.32-0.469
					h-3.086c-1.094,0-2.009,0.257-2.744,0.771C221.458,335.157,221.09,335.836,221.09,336.683z M223.258,318.91
					c0,1.185,0.27,2.122,0.811,2.813c0.54,0.69,1.364,1.035,2.471,1.035c1.12,0,1.94-0.345,2.461-1.035
					c0.521-0.69,0.781-1.628,0.781-2.813c0-2.63-1.081-3.945-3.242-3.945C224.352,314.964,223.258,316.28,223.258,318.91z"/>
				<path id="XMLID_621_" class="st3" d="M257.008,333.597l-0.801-2.793h-0.313c-0.638,1.016-1.543,1.8-2.715,2.354
					s-2.507,0.83-4.004,0.83c-2.565,0-4.499-0.687-5.801-2.061c-1.302-1.374-1.953-3.35-1.953-5.928v-14.238h5.957v12.754
					c0,1.575,0.28,2.757,0.84,3.545c0.56,0.788,1.452,1.182,2.676,1.182c1.667,0,2.871-0.557,3.613-1.67s1.113-2.959,1.113-5.537
					v-10.273h5.957v21.836H257.008z"/>
				<path id="XMLID_623_" class="st3" d="M287.985,333.597h-5.957v-12.754c0-1.575-0.28-2.757-0.84-3.545
					c-0.56-0.788-1.452-1.182-2.676-1.182c-1.667,0-2.871,0.557-3.613,1.67s-1.113,2.959-1.113,5.537v10.273h-5.957v-21.836h4.551
					l0.801,2.793h0.332c0.664-1.055,1.579-1.853,2.744-2.393c1.165-0.54,2.49-0.811,3.975-0.811c2.539,0,4.466,0.687,5.781,2.061
					c1.315,1.374,1.973,3.356,1.973,5.947V333.597z"/>
				<path id="XMLID_647_" class="st3" d="M303.317,329.242c1.042,0,2.292-0.228,3.75-0.684v4.434
					c-1.484,0.664-3.308,0.996-5.469,0.996c-2.383,0-4.118-0.603-5.205-1.807c-1.087-1.204-1.631-3.011-1.631-5.42v-10.527h-2.852
					v-2.52l3.281-1.992l1.719-4.609h3.809v4.648h6.113v4.473h-6.113v10.527c0,0.847,0.237,1.472,0.713,1.875
					C301.907,329.039,302.536,329.242,303.317,329.242z"/>
				<path id="XMLID_649_" class="st3" d="M325.348,333.597l-1.152-2.969h-0.156c-1.003,1.263-2.035,2.139-3.096,2.627
					c-1.062,0.488-2.445,0.732-4.15,0.732c-2.097,0-3.747-0.599-4.951-1.797c-1.205-1.198-1.807-2.903-1.807-5.117
					c0-2.317,0.811-4.026,2.432-5.127s4.065-1.709,7.334-1.826l3.789-0.117v-0.957c0-2.214-1.133-3.32-3.398-3.32
					c-1.745,0-3.796,0.527-6.152,1.582l-1.973-4.023c2.513-1.315,5.299-1.973,8.359-1.973c2.93,0,5.176,0.638,6.738,1.914
					s2.344,3.216,2.344,5.82v14.551H325.348z M323.59,323.48l-2.305,0.078c-1.732,0.052-3.021,0.364-3.867,0.938
					c-0.847,0.573-1.27,1.445-1.27,2.617c0,1.68,0.963,2.52,2.891,2.52c1.38,0,2.483-0.397,3.311-1.191
					c0.827-0.794,1.24-1.849,1.24-3.164V323.48z"/>
				<path id="XMLID_652_" class="st3" d="M350.875,327.113c0,2.239-0.778,3.945-2.334,5.117c-1.556,1.172-3.884,1.758-6.982,1.758
					c-1.589,0-2.943-0.107-4.063-0.322c-1.12-0.215-2.168-0.53-3.145-0.947v-4.922c1.106,0.521,2.354,0.957,3.74,1.309
					s2.607,0.527,3.662,0.527c2.161,0,3.242-0.625,3.242-1.875c0-0.469-0.144-0.85-0.43-1.143c-0.287-0.293-0.781-0.625-1.484-0.996
					s-1.641-0.804-2.813-1.299c-1.68-0.703-2.914-1.354-3.701-1.953c-0.788-0.599-1.361-1.286-1.719-2.061
					c-0.358-0.774-0.537-1.729-0.537-2.861c0-1.94,0.752-3.44,2.256-4.502s3.636-1.592,6.396-1.592c2.63,0,5.188,0.573,7.676,1.719
					l-1.797,4.297c-1.094-0.469-2.116-0.853-3.066-1.152c-0.951-0.3-1.921-0.449-2.91-0.449c-1.758,0-2.637,0.476-2.637,1.426
					c0,0.534,0.283,0.996,0.85,1.387s1.807,0.97,3.721,1.738c1.706,0.69,2.956,1.335,3.75,1.934c0.794,0.599,1.38,1.289,1.758,2.07
					C350.687,325.101,350.875,326.032,350.875,327.113z"/>
				<path id="XMLID_654_" class="st3" d="M160.27,370.597h-3.32v-28.555h15.918v2.949H160.27v10.449h11.836v2.949H160.27V370.597z"
					/>
				<path id="XMLID_656_" class="st3" d="M186.872,348.8c0.95,0,1.803,0.078,2.559,0.234l-0.449,3.008
					c-0.886-0.195-1.667-0.293-2.344-0.293c-1.732,0-3.213,0.703-4.443,2.109s-1.846,3.157-1.846,5.254v11.484h-3.242v-21.406h2.676
					l0.371,3.965h0.156c0.794-1.394,1.751-2.468,2.871-3.223C184.3,349.178,185.53,348.8,186.872,348.8z"/>
				<path id="XMLID_658_" class="st3" d="M202.477,370.988c-3.164,0-5.661-0.964-7.49-2.891c-1.83-1.927-2.744-4.603-2.744-8.027
					c0-3.45,0.85-6.191,2.549-8.223s3.981-3.047,6.846-3.047c2.682,0,4.805,0.882,6.367,2.646s2.344,4.092,2.344,6.982v2.051
					h-14.746c0.065,2.513,0.7,4.421,1.904,5.723c1.204,1.302,2.9,1.953,5.088,1.953c2.305,0,4.583-0.481,6.836-1.445v2.891
					c-1.146,0.495-2.23,0.85-3.252,1.064C205.156,370.88,203.922,370.988,202.477,370.988z M201.598,351.515
					c-1.719,0-3.089,0.56-4.111,1.68c-1.022,1.12-1.625,2.669-1.807,4.648h11.191c0-2.044-0.456-3.61-1.367-4.697
					C204.593,352.059,203.291,351.515,201.598,351.515z"/>
				<path id="XMLID_661_" class="st3" d="M224.43,370.988c-3.099,0-5.498-0.954-7.197-2.861s-2.549-4.606-2.549-8.096
					c0-3.581,0.862-6.348,2.588-8.301c1.725-1.953,4.183-2.93,7.373-2.93c1.028,0,2.057,0.11,3.086,0.332
					c1.028,0.222,1.836,0.481,2.422,0.781l-0.996,2.754c-0.716-0.286-1.498-0.524-2.344-0.713c-0.847-0.188-1.595-0.283-2.246-0.283
					c-4.349,0-6.523,2.773-6.523,8.32c0,2.63,0.53,4.648,1.592,6.055c1.061,1.406,2.633,2.109,4.717,2.109
					c1.784,0,3.613-0.384,5.488-1.152v2.871C228.408,370.617,226.604,370.988,224.43,370.988z"/>
				<path id="XMLID_663_" class="st3" d="M237.965,349.191v13.887c0,1.745,0.397,3.047,1.191,3.906
					c0.794,0.859,2.038,1.289,3.73,1.289c2.239,0,3.877-0.612,4.912-1.836s1.553-3.223,1.553-5.996v-11.25h3.242v21.406h-2.676
					l-0.469-2.871h-0.176c-0.664,1.055-1.585,1.862-2.764,2.422c-1.179,0.56-2.523,0.84-4.033,0.84c-2.604,0-4.554-0.618-5.85-1.855
					c-1.296-1.237-1.943-3.216-1.943-5.938v-14.004H237.965z"/>
				<path id="XMLID_665_" class="st3" d="M268.512,370.988c-3.164,0-5.661-0.964-7.49-2.891c-1.83-1.927-2.744-4.603-2.744-8.027
					c0-3.45,0.85-6.191,2.549-8.223s3.981-3.047,6.846-3.047c2.682,0,4.805,0.882,6.367,2.646s2.344,4.092,2.344,6.982v2.051
					h-14.746c0.065,2.513,0.7,4.421,1.904,5.723c1.204,1.302,2.9,1.953,5.088,1.953c2.305,0,4.583-0.481,6.836-1.445v2.891
					c-1.146,0.495-2.23,0.85-3.252,1.064C271.191,370.88,269.958,370.988,268.512,370.988z M267.633,351.515
					c-1.719,0-3.089,0.56-4.111,1.68c-1.022,1.12-1.625,2.669-1.807,4.648h11.191c0-2.044-0.456-3.61-1.367-4.697
					C270.628,352.059,269.326,351.515,267.633,351.515z"/>
				<path id="XMLID_668_" class="st3" d="M296.559,370.597v-13.848c0-1.745-0.397-3.047-1.191-3.906
					c-0.794-0.859-2.038-1.289-3.73-1.289c-2.24,0-3.88,0.605-4.922,1.816c-1.042,1.211-1.563,3.21-1.563,5.996v11.23h-3.242
					v-21.406h2.637l0.527,2.93h0.156c0.664-1.055,1.595-1.872,2.793-2.451c1.198-0.579,2.532-0.869,4.004-0.869
					c2.578,0,4.518,0.622,5.82,1.865c1.302,1.243,1.953,3.232,1.953,5.967v13.965H296.559z"/>
				<path id="XMLID_670_" class="st3" d="M313.375,368.312c0.573,0,1.126-0.042,1.66-0.127c0.534-0.085,0.957-0.173,1.27-0.264v2.48
					c-0.352,0.169-0.869,0.31-1.553,0.42s-1.299,0.166-1.846,0.166c-4.141,0-6.211-2.181-6.211-6.543V351.71h-3.066v-1.563
					l3.066-1.348l1.367-4.57h1.875v4.961h6.211v2.52h-6.211v12.598c0,1.289,0.306,2.278,0.918,2.969
					C311.468,367.967,312.308,368.312,313.375,368.312z"/>
				<path id="XMLID_672_" class="st3" d="M329.625,370.988c-3.164,0-5.661-0.964-7.49-2.891c-1.83-1.927-2.744-4.603-2.744-8.027
					c0-3.45,0.85-6.191,2.549-8.223s3.981-3.047,6.846-3.047c2.682,0,4.805,0.882,6.367,2.646s2.344,4.092,2.344,6.982v2.051H322.75
					c0.065,2.513,0.7,4.421,1.904,5.723c1.204,1.302,2.9,1.953,5.088,1.953c2.305,0,4.583-0.481,6.836-1.445v2.891
					c-1.146,0.495-2.23,0.85-3.252,1.064C332.304,370.88,331.071,370.988,329.625,370.988z M328.747,351.515
					c-1.719,0-3.089,0.56-4.111,1.68c-1.022,1.12-1.625,2.669-1.807,4.648h11.191c0-2.044-0.456-3.61-1.367-4.697
					C331.741,352.059,330.439,351.515,328.747,351.515z"/>
				<path id="XMLID_675_" class="st3" d="M356.833,364.757c0,1.992-0.742,3.528-2.227,4.609s-3.568,1.621-6.25,1.621
					c-2.839,0-5.052-0.449-6.641-1.348v-3.008c1.028,0.521,2.132,0.931,3.311,1.23c1.178,0.3,2.314,0.449,3.408,0.449
					c1.692,0,2.995-0.271,3.906-0.811c0.911-0.54,1.367-1.364,1.367-2.471c0-0.833-0.361-1.546-1.084-2.139s-2.132-1.292-4.229-2.1
					c-1.992-0.742-3.408-1.39-4.248-1.943s-1.465-1.182-1.875-1.885s-0.615-1.543-0.615-2.52c0-1.745,0.709-3.122,2.129-4.131
					c1.419-1.009,3.366-1.514,5.84-1.514c2.305,0,4.557,0.469,6.758,1.406l-1.152,2.637c-2.148-0.886-4.095-1.328-5.84-1.328
					c-1.537,0-2.695,0.241-3.477,0.723s-1.172,1.146-1.172,1.992c0,0.573,0.146,1.062,0.439,1.465s0.765,0.788,1.416,1.152
					c0.651,0.364,1.901,0.892,3.75,1.582c2.539,0.925,4.254,1.855,5.146,2.793C356.386,362.16,356.833,363.338,356.833,364.757z"/>
			</g>
			<g id="XMLID_580_" class="st4">
				<defs>
					<rect id="XMLID_582_" x="385.114" y="-43.12" class="st4" width="221.514" height="394.024"/>
				</defs>
				<clipPath id="XMLID_3_">
					<use xlink:href="#XMLID_582_"  style="overflow:visible;"/>
				</clipPath>
			</g>
			<g id="XMLID_304_">
				<defs>
					<rect id="XMLID_305_" x="255.252" y="-43.276" width="206.065" height="393.431"/>
				</defs>
				<clipPath id="XMLID_4_">
					<use xlink:href="#XMLID_305_"  style="overflow:visible;"/>
				</clipPath>
				<circle id="XMLID_306_" class="st5" cx="255.252" cy="149.045" r="138.569"/>
			</g>
			<g id="XMLID_251_">
				<g id="XMLID_29_">
					<path id="XMLID_31_" class="st6" d="M228.287,161.168c0,2.582,1.977,4.674,4.41,4.674c0.028,0,0.05-0.002,0.077-0.002
						c0.912,12.326,10.623,24.661,22.483,24.661c5.477,0,10.493-2.635,14.399-6.682v0c4.55-4.715,7.591-11.347,8.083-17.979
						c0.025,0,0.05,0.002,0.077,0.002c2.434,0,4.408-2.093,4.408-4.674c0-1.908-1.074-3.542-2.611-4.27
						c0.892-2.771,1.381-5.732,1.381-8.821c0-9.419-4.497-17.724-11.339-22.631v0c-4.109-2.947-9.064-4.669-14.399-4.669
						c-14.217,0-25.738,12.224-25.738,27.3c0,3.089,0.491,6.05,1.381,8.821C229.361,157.626,228.287,159.259,228.287,161.168z"/>
					<path id="XMLID_30_" class="st6" d="M311.605,219.028c-10.509-10.206-23.34-17.41-37.138-20.849
						c-0.348-0.191-0.742-0.296-1.149-0.296h-1.251c-0.396,0-0.785,0.1-1.133,0.286c-0.408,0.219-0.842,0.42-1.278,0.62
						c-4.02,1.844-9.17,2.896-14.399,2.896c-5.796,0-11.51-1.283-15.681-3.519c-0.35-0.184-0.739-0.284-1.133-0.284h-0.91
						c-0.187,0-0.371,0.023-0.55,0.064c-14.162,3.351-27.323,10.641-38.073,21.081c-0.466,0.45-0.728,1.069-0.728,1.717v8.573
						c0,1.319,1.074,2.397,2.397,2.397h69.077h40.279c1.324,0,2.398-1.078,2.398-2.398v-8.573
						C312.333,220.097,312.069,219.476,311.605,219.028z"/>
				</g>
			</g>
			<g id="XMLID_267_">
				<path id="XMLID_310_" class="st7" d="M280.357,156.898c0.892-2.771,1.381-5.732,1.381-8.821c0-9.419-4.497-17.724-11.339-22.631
					v0c-4.109-2.947-9.064-4.669-14.399-4.669c-0.249,0-0.495,0.012-0.742,0.02v69.681c0.247,0.011,0.493,0.024,0.742,0.024
					c5.477,0,10.493-2.635,14.399-6.682v0c4.55-4.715,7.591-11.347,8.083-17.979c0.025,0,0.05,0.002,0.077,0.002
					c2.434,0,4.408-2.093,4.408-4.674C282.968,159.259,281.895,157.626,280.357,156.898z"/>
				<path id="XMLID_300_" class="st7" d="M312.348,219.028c-10.509-10.206-23.34-17.41-37.138-20.849
					c-0.348-0.191-0.742-0.296-1.149-0.296h-1.251c-0.396,0-0.785,0.1-1.133,0.286c-0.408,0.219-0.842,0.42-1.278,0.62
					c-4.02,1.844-9.17,2.896-14.399,2.896c-0.248,0-0.494-0.016-0.742-0.02v30.05h55.42c1.324,0,2.398-1.078,2.398-2.398v-8.573
					C313.075,220.097,312.812,219.476,312.348,219.028z"/>
			</g>
			<path id="XMLID_257_" class="st6" d="M244.437,88.038v2.018c0,1.782-0.405,3.317-1.213,4.608
				c-0.808,1.291-2.195,2.635-4.158,4.036c-1.981,1.418-3.231,2.526-3.749,3.327c-0.518,0.8-0.777,1.772-0.777,2.918
				c0,1.036,0.395,1.891,1.186,2.563c0.791,0.672,1.995,1.009,3.613,1.009c1.436,0,2.972-0.263,4.608-0.791
				c1.636-0.528,3.327-1.173,5.072-1.936l2.781,6.026c-1.782,1.018-3.794,1.841-6.04,2.468s-4.331,0.941-6.258,0.941
				c-3.999,0-7.14-0.877-9.421-2.631s-3.422-4.168-3.422-7.24c0-1.963,0.44-3.663,1.322-5.099c0.882-1.436,2.622-3.108,5.222-5.017
				c1.727-1.272,2.832-2.245,3.313-2.918c0.481-0.672,0.723-1.564,0.723-2.672v-1.609H244.437z M245.309,78.712
				c0,1.527-0.409,2.682-1.227,3.463c-0.818,0.781-2.008,1.173-3.572,1.173c-1.509,0-2.676-0.399-3.504-1.2
				c-0.828-0.8-1.241-1.946-1.241-3.436c0-1.472,0.423-2.614,1.268-3.422c0.845-0.808,2.004-1.213,3.477-1.213
				c1.527,0,2.709,0.399,3.545,1.2S245.309,77.222,245.309,78.712z"/>
			<path id="XMLID_261_" class="st7" d="M266.142,91.337v-2.018c0-1.745,0.372-3.263,1.118-4.554
				c0.746-1.291,2.109-2.663,4.09-4.117c1.909-1.363,3.167-2.472,3.777-3.327s0.913-1.809,0.913-2.863
				c0-1.182-0.436-2.082-1.309-2.699s-2.09-0.927-3.654-0.927c-2.727,0-5.835,0.89-9.326,2.672l-2.972-5.972
				c4.053-2.273,8.353-3.408,12.898-3.408c3.745,0,6.721,0.9,8.93,2.699c2.209,1.8,3.313,4.199,3.313,7.199
				c0,2-0.454,3.726-1.363,5.181c-0.909,1.455-2.635,3.091-5.181,4.908c-1.745,1.291-2.849,2.273-3.313,2.945
				c-0.464,0.672-0.695,1.554-0.695,2.645v1.636H266.142z M265.269,100.663c0-1.527,0.409-2.682,1.227-3.463
				c0.818-0.781,2.008-1.173,3.572-1.173c1.509,0,2.676,0.399,3.504,1.2c0.828,0.8,1.241,1.946,1.241,3.436
				c0,1.436-0.419,2.567-1.254,3.395c-0.836,0.828-2,1.241-3.49,1.241c-1.527,0-2.709-0.405-3.545-1.213
				C265.688,103.276,265.269,102.135,265.269,100.663z"/>
		</g>
	</g>
</g>
</svg>
