<?xml version="1.0" encoding="utf-8"?>
<!-- Generator: Adobe Illustrator 19.0.0, SVG Export Plug-In . SVG Version: 6.00 Build 0)  -->
<svg version="1.1" id="Capa_1" xmlns="http://www.w3.org/2000/svg" xmlns:xlink="http://www.w3.org/1999/xlink" x="0px" y="0px"
	 viewBox="0 0 512 404" style="enable-background:new 0 0 512 404;" xml:space="preserve">
<style type="text/css">
	.st0{clip-path:url(#XMLID_2_);}
	.st1{fill:#F2F2F2;}
	.st2{fill:#64A625;}
	.st3{fill:#5B5B5B;}
	.st4{clip-path:url(#XMLID_3_);fill:#529110;}
	.st5{fill:#FFFFFF;}
	.st6{fill:#F3F3F3;}
</style>
<g id="XMLID_1093_">
	<g id="surusales">
		<defs>
			<rect id="XMLID_556_" width="512" height="404"/>
		</defs>
		<clipPath id="XMLID_2_">
			<use xlink:href="#XMLID_556_"  style="overflow:visible;"/>
		</clipPath>
		<g id="XMLID_429_" class="st0">
			<path id="XMLID_698_" class="st1" d="M502,404H10c-5.5,0-10-4.5-10-10V114c0-5.5,4.5-10,10-10h492c5.5,0,10,4.5,10,10v280
				C512,399.5,507.5,404,502,404z"/>
			<circle id="XMLID_697_" class="st2" cx="256" cy="149.27" r="138.569"/>
			<g id="XMLID_376_">
				<g id="XMLID_354_">
					<path id="XMLID_408_" class="st3" d="M177.471,325.666c0,2.578-0.928,4.609-2.783,6.094s-4.438,2.227-7.744,2.227
						c-3.047,0-5.742-0.573-8.086-1.719v-5.625c1.927,0.859,3.558,1.465,4.893,1.816c1.334,0.352,2.555,0.527,3.662,0.527
						c1.328,0,2.347-0.254,3.057-0.762c0.709-0.508,1.064-1.263,1.064-2.266c0-0.56-0.156-1.058-0.469-1.494
						s-0.771-0.856-1.377-1.26s-1.84-1.048-3.701-1.934c-1.745-0.82-3.054-1.608-3.926-2.363c-0.873-0.755-1.569-1.634-2.09-2.637
						c-0.521-1.003-0.781-2.175-0.781-3.516c0-2.526,0.855-4.512,2.568-5.957c1.712-1.445,4.078-2.168,7.1-2.168
						c1.484,0,2.9,0.176,4.248,0.527s2.757,0.847,4.229,1.484l-1.953,4.707c-1.523-0.625-2.783-1.062-3.779-1.309
						s-1.977-0.371-2.939-0.371c-1.146,0-2.025,0.267-2.637,0.801c-0.612,0.534-0.918,1.23-0.918,2.09
						c0,0.534,0.123,0.999,0.371,1.396c0.247,0.397,0.641,0.781,1.182,1.152c0.54,0.371,1.819,1.038,3.838,2.002
						c2.669,1.276,4.498,2.556,5.488,3.838C176.975,322.232,177.471,323.804,177.471,325.666z"/>
					<path id="XMLID_406_" class="st3" d="M197.646,333.596l-0.801-2.793h-0.313c-0.639,1.016-1.543,1.8-2.715,2.354
						s-2.507,0.83-4.004,0.83c-2.565,0-4.499-0.687-5.801-2.061c-1.303-1.374-1.953-3.35-1.953-5.928V311.76h5.957v12.754
						c0,1.575,0.279,2.757,0.84,3.545c0.56,0.788,1.451,1.182,2.676,1.182c1.666,0,2.871-0.557,3.613-1.67s1.113-2.959,1.113-5.537
						V311.76h5.957v21.836H197.646z"/>
					<path id="XMLID_404_" class="st3" d="M217.334,333.987c-6.797,0-10.195-3.73-10.195-11.191c0-3.711,0.924-6.546,2.773-8.506
						c1.849-1.96,4.498-2.939,7.949-2.939c2.525,0,4.791,0.495,6.797,1.484l-1.758,4.609c-0.938-0.378-1.811-0.687-2.617-0.928
						c-0.808-0.241-1.615-0.361-2.422-0.361c-3.1,0-4.648,2.2-4.648,6.602c0,4.271,1.549,6.406,4.648,6.406
						c1.146,0,2.207-0.153,3.184-0.459s1.953-0.784,2.93-1.436v5.098c-0.964,0.612-1.938,1.035-2.92,1.27
						C220.071,333.87,218.831,333.987,217.334,333.987z"/>
					<path id="XMLID_402_" class="st3" d="M244.502,333.596l-0.801-2.793h-0.313c-0.639,1.016-1.543,1.8-2.715,2.354
						s-2.507,0.83-4.004,0.83c-2.565,0-4.499-0.687-5.801-2.061c-1.303-1.374-1.953-3.35-1.953-5.928V311.76h5.957v12.754
						c0,1.575,0.279,2.757,0.84,3.545c0.56,0.788,1.451,1.182,2.676,1.182c1.666,0,2.871-0.557,3.613-1.67s1.113-2.959,1.113-5.537
						V311.76h5.957v21.836H244.502z"/>
					<path id="XMLID_400_" class="st3" d="M267.51,311.35c0.807,0,1.478,0.059,2.012,0.176l-0.449,5.586
						c-0.482-0.13-1.068-0.195-1.758-0.195c-1.901,0-3.383,0.488-4.443,1.465c-1.062,0.977-1.592,2.344-1.592,4.102v11.113h-5.957
						V311.76h4.512l0.879,3.672h0.293c0.677-1.224,1.592-2.21,2.744-2.959S266.155,311.35,267.51,311.35z"/>
					<path id="XMLID_398_" class="st3" d="M288.721,327.112c0,2.239-0.778,3.945-2.334,5.117c-1.557,1.172-3.884,1.758-6.982,1.758
						c-1.589,0-2.943-0.107-4.063-0.322c-1.12-0.215-2.168-0.53-3.145-0.947v-4.922c1.106,0.521,2.354,0.957,3.74,1.309
						s2.607,0.527,3.662,0.527c2.161,0,3.242-0.625,3.242-1.875c0-0.469-0.144-0.85-0.43-1.143
						c-0.287-0.293-0.781-0.625-1.484-0.996s-1.641-0.804-2.813-1.299c-1.68-0.703-2.914-1.354-3.701-1.953
						c-0.788-0.599-1.361-1.286-1.719-2.061c-0.358-0.774-0.537-1.729-0.537-2.861c0-1.94,0.752-3.44,2.256-4.502
						s3.636-1.592,6.396-1.592c2.63,0,5.188,0.573,7.676,1.719l-1.797,4.297c-1.094-0.469-2.116-0.853-3.066-1.152
						c-0.951-0.3-1.921-0.449-2.91-0.449c-1.758,0-2.637,0.476-2.637,1.426c0,0.534,0.283,0.996,0.85,1.387s1.807,0.97,3.721,1.738
						c1.705,0.69,2.955,1.335,3.75,1.934c0.794,0.599,1.38,1.289,1.758,2.07C288.531,325.1,288.721,326.031,288.721,327.112z"/>
					<path id="XMLID_395_" class="st3" d="M307.236,333.596l-1.152-2.969h-0.156c-1.003,1.263-2.035,2.139-3.096,2.627
						c-1.062,0.488-2.445,0.732-4.15,0.732c-2.097,0-3.747-0.599-4.951-1.797c-1.205-1.198-1.807-2.903-1.807-5.117
						c0-2.317,0.811-4.026,2.432-5.127s4.065-1.709,7.334-1.826l3.789-0.117v-0.957c0-2.214-1.133-3.32-3.398-3.32
						c-1.745,0-3.796,0.527-6.152,1.582l-1.973-4.023c2.513-1.315,5.299-1.973,8.359-1.973c2.93,0,5.176,0.638,6.738,1.914
						s2.344,3.216,2.344,5.82v14.551H307.236z M305.478,323.479l-2.305,0.078c-1.732,0.052-3.021,0.364-3.867,0.938
						c-0.847,0.573-1.27,1.445-1.27,2.617c0,1.68,0.963,2.52,2.891,2.52c1.38,0,2.483-0.397,3.311-1.191
						c0.826-0.794,1.24-1.849,1.24-3.164V323.479z"/>
					<path id="XMLID_393_" class="st3" d="M323.486,333.596h-5.957v-30.391h5.957V333.596z"/>
					<path id="XMLID_390_" class="st3" d="M339.619,333.987c-3.516,0-6.264-0.97-8.242-2.91c-1.979-1.94-2.969-4.688-2.969-8.242
						c0-3.659,0.914-6.487,2.744-8.486c1.829-1.999,4.358-2.998,7.588-2.998c3.086,0,5.488,0.879,7.207,2.637
						s2.578,4.187,2.578,7.285v2.891h-14.082c0.064,1.692,0.566,3.015,1.504,3.965s2.252,1.426,3.945,1.426
						c1.314,0,2.559-0.137,3.73-0.41s2.396-0.71,3.672-1.309v4.609c-1.042,0.521-2.155,0.908-3.34,1.162
						C342.769,333.86,341.324,333.987,339.619,333.987z M338.779,315.588c-1.264,0-2.253,0.4-2.969,1.201
						c-0.717,0.801-1.127,1.937-1.23,3.408h8.359c-0.026-1.472-0.41-2.607-1.152-3.408S340.042,315.588,338.779,315.588z"/>
					<path id="XMLID_388_" class="st3" d="M368.603,327.112c0,2.239-0.778,3.945-2.334,5.117c-1.557,1.172-3.884,1.758-6.982,1.758
						c-1.589,0-2.943-0.107-4.063-0.322c-1.12-0.215-2.168-0.53-3.145-0.947v-4.922c1.106,0.521,2.354,0.957,3.74,1.309
						s2.607,0.527,3.662,0.527c2.161,0,3.242-0.625,3.242-1.875c0-0.469-0.144-0.85-0.43-1.143
						c-0.287-0.293-0.781-0.625-1.484-0.996s-1.641-0.804-2.813-1.299c-1.68-0.703-2.914-1.354-3.701-1.953
						c-0.788-0.599-1.361-1.286-1.719-2.061c-0.358-0.774-0.537-1.729-0.537-2.861c0-1.94,0.752-3.44,2.256-4.502
						s3.636-1.592,6.396-1.592c2.63,0,5.188,0.573,7.676,1.719l-1.797,4.297c-1.094-0.469-2.116-0.853-3.066-1.152
						c-0.951-0.3-1.921-0.449-2.91-0.449c-1.758,0-2.637,0.476-2.637,1.426c0,0.534,0.283,0.996,0.85,1.387s1.807,0.97,3.721,1.738
						c1.705,0.69,2.955,1.335,3.75,1.934c0.794,0.599,1.38,1.289,1.758,2.07C368.414,325.1,368.603,326.031,368.603,327.112z"/>
					<path id="XMLID_383_" class="st3" d="M168.691,370.596l-9.688-25.313h-0.156c0.182,2.005,0.273,4.388,0.273,7.148v18.164
						h-3.066v-28.555h5l9.043,23.555h0.156l9.121-23.555h4.961v28.555h-3.32v-18.398c0-2.109,0.091-4.401,0.273-6.875h-0.156
						l-9.766,25.273H168.691z"/>
					<path id="XMLID_380_" class="st3" d="M194.726,349.19v13.887c0,1.745,0.396,3.047,1.191,3.906
						c0.794,0.859,2.037,1.289,3.73,1.289c2.239,0,3.877-0.612,4.912-1.836s1.553-3.223,1.553-5.996v-11.25h3.242v21.406h-2.676
						l-0.469-2.871h-0.176c-0.664,1.055-1.586,1.862-2.764,2.422c-1.179,0.56-2.523,0.84-4.033,0.84
						c-2.604,0-4.555-0.618-5.85-1.855c-1.296-1.237-1.943-3.216-1.943-5.938V349.19H194.726z"/>
					<path id="XMLID_378_" class="st3" d="M230.879,370.596v-13.848c0-1.745-0.397-3.047-1.191-3.906
						c-0.795-0.859-2.038-1.289-3.73-1.289c-2.24,0-3.881,0.605-4.922,1.816c-1.042,1.211-1.563,3.21-1.563,5.996v11.23h-3.242
						V349.19h2.637l0.527,2.93h0.156c0.664-1.055,1.595-1.872,2.793-2.451c1.197-0.579,2.532-0.869,4.004-0.869
						c2.578,0,4.518,0.622,5.82,1.865c1.302,1.243,1.953,3.232,1.953,5.967v13.965H230.879z"/>
					<path id="XMLID_374_" class="st3" d="M240.508,343.389c0-0.742,0.182-1.286,0.547-1.631c0.364-0.345,0.82-0.518,1.367-0.518
						c0.521,0,0.97,0.176,1.348,0.527c0.377,0.352,0.566,0.892,0.566,1.621s-0.189,1.272-0.566,1.631
						c-0.378,0.358-0.827,0.537-1.348,0.537c-0.547,0-1.003-0.179-1.367-0.537C240.689,344.661,240.508,344.119,240.508,343.389z
						 M244.023,370.596h-3.242V349.19h3.242V370.596z"/>
					<path id="XMLID_372_" class="st3" d="M259.453,370.987c-3.1,0-5.498-0.954-7.197-2.861s-2.549-4.606-2.549-8.096
						c0-3.581,0.862-6.348,2.588-8.301c1.725-1.953,4.183-2.93,7.373-2.93c1.028,0,2.057,0.11,3.086,0.332
						c1.028,0.222,1.836,0.481,2.422,0.781l-0.996,2.754c-0.717-0.286-1.498-0.524-2.344-0.713
						c-0.847-0.188-1.596-0.283-2.246-0.283c-4.35,0-6.523,2.773-6.523,8.32c0,2.63,0.53,4.648,1.592,6.055
						c1.061,1.406,2.633,2.109,4.717,2.109c1.783,0,3.613-0.384,5.488-1.152v2.871C263.431,370.616,261.627,370.987,259.453,370.987
						z"/>
					<path id="XMLID_368_" class="st3" d="M269.668,343.389c0-0.742,0.182-1.286,0.547-1.631c0.364-0.345,0.82-0.518,1.367-0.518
						c0.521,0,0.97,0.176,1.348,0.527c0.377,0.352,0.566,0.892,0.566,1.621s-0.189,1.272-0.566,1.631
						c-0.378,0.358-0.827,0.537-1.348,0.537c-0.547,0-1.003-0.179-1.367-0.537C269.849,344.661,269.668,344.119,269.668,343.389z
						 M273.183,370.596h-3.242V349.19h3.242V370.596z"/>
					<path id="XMLID_365_" class="st3" d="M290.019,370.987c-1.394,0-2.666-0.257-3.818-0.771s-2.119-1.306-2.9-2.373h-0.234
						c0.156,1.25,0.234,2.435,0.234,3.555v8.809h-3.242V349.19h2.637l0.449,2.93h0.156c0.833-1.172,1.803-2.019,2.91-2.539
						c1.106-0.521,2.376-0.781,3.809-0.781c2.838,0,5.029,0.97,6.572,2.91s2.314,4.661,2.314,8.164c0,3.516-0.785,6.247-2.354,8.193
						C294.983,370.013,292.806,370.987,290.019,370.987z M289.551,351.553c-2.188,0-3.77,0.605-4.746,1.816
						s-1.479,3.138-1.504,5.781v0.723c0,3.008,0.501,5.159,1.504,6.455c1.002,1.296,2.61,1.943,4.824,1.943
						c1.849,0,3.297-0.749,4.346-2.246c1.048-1.497,1.572-3.562,1.572-6.191c0-2.669-0.524-4.717-1.572-6.143
						C292.926,352.266,291.451,351.553,289.551,351.553z"/>
					<path id="XMLID_362_" class="st3" d="M317.734,370.596l-0.645-3.047h-0.156c-1.068,1.341-2.133,2.249-3.193,2.725
						c-1.062,0.476-2.387,0.713-3.975,0.713c-2.123,0-3.786-0.547-4.99-1.641c-1.205-1.094-1.807-2.649-1.807-4.668
						c0-4.323,3.457-6.589,10.371-6.797l3.633-0.117v-1.328c0-1.68-0.361-2.92-1.084-3.721s-1.879-1.201-3.467-1.201
						c-1.784,0-3.803,0.547-6.055,1.641l-0.996-2.48c1.055-0.573,2.21-1.022,3.467-1.348c1.256-0.325,2.516-0.488,3.779-0.488
						c2.552,0,4.443,0.566,5.674,1.699s1.846,2.949,1.846,5.449v14.609H317.734z M310.41,368.311c2.018,0,3.604-0.554,4.756-1.66
						s1.729-2.656,1.729-4.648v-1.934l-3.242,0.137c-2.578,0.091-4.438,0.491-5.576,1.201c-1.14,0.71-1.709,1.813-1.709,3.311
						c0,1.172,0.354,2.063,1.064,2.676C308.141,368.005,309.134,368.311,310.41,368.311z"/>
					<path id="XMLID_360_" class="st3" d="M330.058,370.596h-3.242v-30.391h3.242V370.596z"/>
					<path id="XMLID_357_" class="st3" d="M345.976,370.987c-3.164,0-5.661-0.964-7.49-2.891c-1.83-1.927-2.744-4.603-2.744-8.027
						c0-3.45,0.85-6.191,2.549-8.223s3.98-3.047,6.846-3.047c2.682,0,4.805,0.882,6.367,2.646s2.344,4.092,2.344,6.982v2.051
						h-14.746c0.064,2.513,0.699,4.421,1.904,5.723c1.204,1.302,2.9,1.953,5.088,1.953c2.305,0,4.583-0.481,6.836-1.445v2.891
						c-1.146,0.495-2.23,0.85-3.252,1.064C348.655,370.879,347.422,370.987,345.976,370.987z M345.098,351.514
						c-1.719,0-3.09,0.56-4.111,1.68c-1.022,1.12-1.625,2.669-1.807,4.648h11.191c0-2.044-0.456-3.61-1.367-4.697
						C348.092,352.058,346.79,351.514,345.098,351.514z"/>
					<path id="XMLID_355_" class="st3" d="M373.183,364.756c0,1.992-0.742,3.528-2.227,4.609s-3.568,1.621-6.25,1.621
						c-2.839,0-5.053-0.449-6.641-1.348v-3.008c1.028,0.521,2.132,0.931,3.311,1.23c1.178,0.3,2.314,0.449,3.408,0.449
						c1.692,0,2.994-0.271,3.906-0.811c0.911-0.54,1.367-1.364,1.367-2.471c0-0.833-0.361-1.546-1.084-2.139s-2.133-1.292-4.229-2.1
						c-1.992-0.742-3.408-1.39-4.248-1.943s-1.465-1.182-1.875-1.885s-0.615-1.543-0.615-2.52c0-1.745,0.709-3.122,2.129-4.131
						c1.419-1.009,3.365-1.514,5.84-1.514c2.305,0,4.557,0.469,6.758,1.406l-1.152,2.637c-2.148-0.886-4.096-1.328-5.84-1.328
						c-1.537,0-2.695,0.241-3.477,0.723s-1.172,1.146-1.172,1.992c0,0.573,0.146,1.062,0.439,1.465s0.765,0.788,1.416,1.152
						c0.65,0.364,1.9,0.892,3.75,1.582c2.539,0.925,4.254,1.855,5.146,2.793C372.737,362.159,373.183,363.337,373.183,364.756z"/>
				</g>
			</g>
			<g id="XMLID_691_">
				<defs>
					<rect id="XMLID_692_" x="255.249" y="-44.714" width="221.514" height="394.024"/>
				</defs>
				<clipPath id="XMLID_3_">
					<use xlink:href="#XMLID_692_"  style="overflow:visible;"/>
				</clipPath>
				<circle id="XMLID_694_" class="st4" cx="255.249" cy="149.345" r="138.569"/>
			</g>
			<g id="XMLID_757_">
				<path id="XMLID_420_" class="st5" d="M303.539,130.309l-30.154-7.394c-0.741-0.182-1.483-0.202-2.195-0.109V98.706
					c1.622-1.312,2.537-3.406,2.195-5.612c-0.515-3.298-3.611-5.557-6.902-5.044l-11.231,1.748v12.233l8.386-1.305v93.36h-8.386
					v7.552h46.171c2.084,0,3.775-1.693,3.775-3.775v-56.515c1.334-0.799,2.372-2.099,2.772-3.73
					C308.763,134.373,306.779,131.104,303.539,130.309z M297.643,194.085h-9.749v-9.667h-6.955v9.667h-9.749v-58.494l26.453,5.952
					V194.085z"/>
				<rect id="XMLID_729_" x="280.939" y="145.819" class="st5" width="6.955" height="6.777"/>
				<rect id="XMLID_728_" x="280.939" y="158.072" class="st5" width="6.955" height="6.777"/>
				<rect id="XMLID_690_" x="280.939" y="170.324" class="st5" width="6.955" height="6.775"/>
			</g>
			<g id="XMLID_370_">
				<path id="XMLID_421_" class="st6" d="M255.252,194.085h-11.663v-18.91h-11.731v18.91h-19.052v-85.606l42.446-6.605V89.641
					l-47.151,7.338c-3.3,0.515-5.555,3.604-5.044,6.9c0.244,1.553,1.061,2.863,2.197,3.773v90.211c0,2.082,1.686,3.775,3.775,3.775
					h46.223V194.085z"/>
				<rect id="XMLID_387_" x="231.858" y="111.552" class="st6" width="11.731" height="11.436"/>
				<rect id="XMLID_386_" x="231.858" y="132.227" class="st6" width="11.731" height="11.442"/>
				<rect id="XMLID_385_" x="231.858" y="152.905" class="st6" width="11.731" height="11.436"/>
			</g>
		</g>
	</g>
</g>
</svg>
