<?xml version="1.0" encoding="utf-8"?>
<!-- Generator: Adobe Illustrator 19.0.0, SVG Export Plug-In . SVG Version: 6.00 Build 0)  -->
<svg version="1.1" id="Capa_1" xmlns="http://www.w3.org/2000/svg" xmlns:xlink="http://www.w3.org/1999/xlink" x="0px" y="0px"
	 viewBox="0 0 512 404" style="enable-background:new 0 0 512 404;" xml:space="preserve">
<style type="text/css">
	.st0{fill:#F2F2F2;}
	.st1{fill:#FF7B10;}
	.st2{fill:#5B5B5B;}
	.st3{opacity:0.47;fill:#EA6706;}
	.st4{fill:none;}
	.st5{fill:#FFFFFF;}
	.st6{fill:#F3F3F3;}
</style>
<g id="XMLID_408_">
	<path id="XMLID_51_" class="st0" d="M502,404H10c-5.5,0-10-4.5-10-10V114c0-5.5,4.5-10,10-10h492c5.5,0,10,4.5,10,10v280
		C512,399.5,507.5,404,502,404z"/>
	<circle id="XMLID_50_" class="st1" cx="256" cy="149.77" r="138.569"/>
	<g id="XMLID_375_">
		<g id="XMLID_376_">
			<path id="XMLID_427_" class="st2" d="M173.695,334.097h-6.055v-23.516h-7.754v-5.039h21.563v5.039h-7.754V334.097z"/>
			<path id="XMLID_424_" class="st2" d="M195.258,334.488c-3.516,0-6.264-0.97-8.242-2.91c-1.979-1.94-2.969-4.688-2.969-8.242
				c0-3.659,0.914-6.487,2.744-8.486c1.829-1.999,4.358-2.998,7.588-2.998c3.086,0,5.488,0.879,7.207,2.637s2.578,4.187,2.578,7.285
				v2.891h-14.082c0.064,1.692,0.566,3.015,1.504,3.965s2.252,1.426,3.945,1.426c1.314,0,2.559-0.137,3.73-0.41
				s2.396-0.71,3.672-1.309v4.609c-1.042,0.521-2.155,0.908-3.34,1.162C198.408,334.361,196.963,334.488,195.258,334.488z
				 M194.418,316.089c-1.264,0-2.253,0.4-2.969,1.201c-0.717,0.801-1.127,1.937-1.23,3.408h8.359
				c-0.026-1.472-0.41-2.607-1.152-3.408S195.68,316.089,194.418,316.089z"/>
			<path id="XMLID_422_" class="st2" d="M214.965,334.097h-5.957v-30.391h5.957V334.097z"/>
			<path id="XMLID_418_" class="st2" d="M231.097,334.488c-3.516,0-6.264-0.97-8.242-2.91c-1.979-1.94-2.969-4.688-2.969-8.242
				c0-3.659,0.914-6.487,2.744-8.486c1.829-1.999,4.358-2.998,7.588-2.998c3.086,0,5.488,0.879,7.207,2.637s2.578,4.187,2.578,7.285
				v2.891h-14.082c0.064,1.692,0.566,3.015,1.504,3.965s2.252,1.426,3.945,1.426c1.314,0,2.559-0.137,3.73-0.41
				s2.396-0.71,3.672-1.309v4.609c-1.042,0.521-2.155,0.908-3.34,1.162C234.248,334.361,232.803,334.488,231.097,334.488z
				 M230.258,316.089c-1.264,0-2.253,0.4-2.969,1.201c-0.717,0.801-1.127,1.937-1.23,3.408h8.359
				c-0.026-1.472-0.41-2.607-1.152-3.408S231.52,316.089,230.258,316.089z M226.82,309.859v-0.527
				c2.239-2.604,3.77-4.563,4.59-5.879h6.68v0.41c-0.678,0.677-1.833,1.683-3.467,3.018c-1.635,1.335-2.914,2.327-3.838,2.979
				H226.82z"/>
			<path id="XMLID_416_" class="st2" d="M256.918,316.734h-5.156v17.363h-5.957v-17.363h-3.281v-2.871l3.281-1.602v-1.602
				c0-2.487,0.611-4.304,1.836-5.449c1.224-1.146,3.184-1.719,5.879-1.719c2.057,0,3.887,0.306,5.488,0.918l-1.523,4.375
				c-1.198-0.378-2.305-0.566-3.32-0.566c-0.847,0-1.459,0.251-1.836,0.752c-0.378,0.501-0.566,1.143-0.566,1.924v1.367h5.156
				V316.734z"/>
			<path id="XMLID_413_" class="st2" d="M280.18,323.14c0,3.555-0.938,6.335-2.813,8.34s-4.486,3.008-7.832,3.008
				c-2.097,0-3.945-0.459-5.547-1.377s-2.832-2.236-3.691-3.955s-1.289-3.724-1.289-6.016c0-3.567,0.931-6.341,2.793-8.32
				c1.861-1.979,4.479-2.969,7.852-2.969c2.096,0,3.945,0.456,5.547,1.367s2.832,2.22,3.691,3.926S280.18,320.848,280.18,323.14z
				 M265.082,323.14c0,2.161,0.354,3.796,1.064,4.902c0.709,1.106,1.865,1.66,3.467,1.66c1.588,0,2.73-0.55,3.428-1.65
				c0.696-1.101,1.045-2.737,1.045-4.912c0-2.161-0.352-3.782-1.055-4.863s-1.855-1.621-3.457-1.621
				c-1.589,0-2.734,0.537-3.438,1.611S265.082,320.965,265.082,323.14z"/>
			<path id="XMLID_411_" class="st2" d="M305.258,334.097h-5.957v-12.754c0-1.575-0.28-2.757-0.84-3.545
				c-0.561-0.788-1.452-1.182-2.676-1.182c-1.667,0-2.871,0.557-3.613,1.67s-1.113,2.959-1.113,5.537v10.273h-5.957v-21.836h4.551
				l0.801,2.793h0.332c0.664-1.055,1.578-1.853,2.744-2.393c1.165-0.54,2.49-0.811,3.975-0.811c2.539,0,4.466,0.687,5.781,2.061
				c1.314,1.374,1.973,3.356,1.973,5.947V334.097z"/>
			<path id="XMLID_407_" class="st2" d="M331.234,323.14c0,3.555-0.938,6.335-2.813,8.34s-4.486,3.008-7.832,3.008
				c-2.097,0-3.945-0.459-5.547-1.377s-2.832-2.236-3.691-3.955s-1.289-3.724-1.289-6.016c0-3.567,0.931-6.341,2.793-8.32
				c1.861-1.979,4.479-2.969,7.852-2.969c2.096,0,3.945,0.456,5.547,1.367s2.832,2.22,3.691,3.926S331.234,320.848,331.234,323.14z
				 M316.137,323.14c0,2.161,0.354,3.796,1.064,4.902c0.709,1.106,1.865,1.66,3.467,1.66c1.588,0,2.73-0.55,3.428-1.65
				c0.696-1.101,1.045-2.737,1.045-4.912c0-2.161-0.352-3.782-1.055-4.863s-1.855-1.621-3.457-1.621
				c-1.589,0-2.734,0.537-3.438,1.611S316.137,320.965,316.137,323.14z"/>
			<path id="XMLID_405_" class="st2" d="M351.39,327.613c0,2.239-0.778,3.945-2.334,5.117c-1.557,1.172-3.884,1.758-6.982,1.758
				c-1.589,0-2.943-0.107-4.063-0.322c-1.12-0.215-2.168-0.53-3.145-0.947v-4.922c1.106,0.521,2.354,0.957,3.74,1.309
				s2.607,0.527,3.662,0.527c2.161,0,3.242-0.625,3.242-1.875c0-0.469-0.144-0.85-0.43-1.143c-0.287-0.293-0.781-0.625-1.484-0.996
				s-1.641-0.804-2.813-1.299c-1.68-0.703-2.914-1.354-3.701-1.953c-0.788-0.599-1.361-1.286-1.719-2.061
				c-0.358-0.774-0.537-1.729-0.537-2.861c0-1.94,0.752-3.44,2.256-4.502s3.636-1.592,6.396-1.592c2.63,0,5.188,0.573,7.676,1.719
				l-1.797,4.297c-1.094-0.469-2.116-0.853-3.066-1.152c-0.951-0.3-1.921-0.449-2.91-0.449c-1.758,0-2.637,0.476-2.637,1.426
				c0,0.534,0.283,0.996,0.85,1.387s1.807,0.97,3.721,1.738c1.705,0.69,2.955,1.335,3.75,1.934c0.794,0.599,1.38,1.289,1.758,2.07
				C351.201,325.601,351.39,326.532,351.39,327.613z"/>
			<path id="XMLID_403_" class="st2" d="M161.117,371.097l-9.688-25.313h-0.156c0.182,2.005,0.273,4.388,0.273,7.148v18.164h-3.066
				v-28.555h5l9.043,23.555h0.156l9.121-23.555h4.961v28.555h-3.32v-18.398c0-2.109,0.091-4.401,0.273-6.875h-0.156l-9.766,25.273
				H161.117z"/>
			<path id="XMLID_401_" class="st2" d="M187.152,349.691v13.887c0,1.745,0.396,3.047,1.191,3.906
				c0.794,0.859,2.037,1.289,3.73,1.289c2.239,0,3.877-0.612,4.912-1.836s1.553-3.223,1.553-5.996v-11.25h3.242v21.406h-2.676
				l-0.469-2.871h-0.176c-0.664,1.055-1.586,1.862-2.764,2.422c-1.179,0.56-2.523,0.84-4.033,0.84c-2.604,0-4.555-0.618-5.85-1.855
				c-1.296-1.237-1.943-3.216-1.943-5.938v-14.004H187.152z"/>
			<path id="XMLID_399_" class="st2" d="M223.305,371.097V357.25c0-1.745-0.397-3.047-1.191-3.906
				c-0.795-0.859-2.038-1.289-3.73-1.289c-2.24,0-3.881,0.605-4.922,1.816c-1.042,1.211-1.563,3.21-1.563,5.996v11.23h-3.242
				v-21.406h2.637l0.527,2.93h0.156c0.664-1.055,1.595-1.872,2.793-2.451c1.197-0.579,2.532-0.869,4.004-0.869
				c2.578,0,4.518,0.622,5.82,1.865c1.302,1.243,1.953,3.232,1.953,5.967v13.965H223.305z"/>
			<path id="XMLID_396_" class="st2" d="M232.933,343.89c0-0.742,0.182-1.286,0.547-1.631c0.364-0.345,0.82-0.518,1.367-0.518
				c0.521,0,0.97,0.176,1.348,0.527c0.377,0.352,0.566,0.892,0.566,1.621s-0.189,1.272-0.566,1.631
				c-0.378,0.358-0.827,0.537-1.348,0.537c-0.547,0-1.003-0.179-1.367-0.537C233.115,345.163,232.933,344.62,232.933,343.89z
				 M236.449,371.097h-3.242v-21.406h3.242V371.097z"/>
			<path id="XMLID_394_" class="st2" d="M251.879,371.488c-3.1,0-5.498-0.954-7.197-2.861s-2.549-4.606-2.549-8.096
				c0-3.581,0.862-6.348,2.588-8.301c1.725-1.953,4.183-2.93,7.373-2.93c1.028,0,2.057,0.11,3.086,0.332
				c1.028,0.222,1.836,0.481,2.422,0.781l-0.996,2.754c-0.717-0.286-1.498-0.524-2.344-0.713c-0.847-0.188-1.596-0.283-2.246-0.283
				c-4.35,0-6.523,2.773-6.523,8.32c0,2.63,0.53,4.648,1.592,6.055c1.061,1.406,2.633,2.109,4.717,2.109
				c1.783,0,3.613-0.384,5.488-1.152v2.871C255.856,371.117,254.053,371.488,251.879,371.488z"/>
			<path id="XMLID_391_" class="st2" d="M262.094,343.89c0-0.742,0.182-1.286,0.547-1.631c0.364-0.345,0.82-0.518,1.367-0.518
				c0.521,0,0.97,0.176,1.348,0.527c0.377,0.352,0.566,0.892,0.566,1.621s-0.189,1.272-0.566,1.631
				c-0.378,0.358-0.827,0.537-1.348,0.537c-0.547,0-1.003-0.179-1.367-0.537C262.275,345.163,262.094,344.62,262.094,343.89z
				 M265.609,371.097h-3.242v-21.406h3.242V371.097z"/>
			<path id="XMLID_388_" class="st2" d="M282.445,371.488c-1.394,0-2.666-0.257-3.818-0.771s-2.119-1.306-2.9-2.373h-0.234
				c0.156,1.25,0.234,2.435,0.234,3.555v8.809h-3.242v-31.016h2.637l0.449,2.93h0.156c0.833-1.172,1.803-2.019,2.91-2.539
				c1.106-0.521,2.376-0.781,3.809-0.781c2.838,0,5.029,0.97,6.572,2.91s2.314,4.661,2.314,8.164c0,3.516-0.785,6.247-2.354,8.193
				C287.409,370.514,285.231,371.488,282.445,371.488z M281.976,352.054c-2.188,0-3.77,0.605-4.746,1.816s-1.479,3.138-1.504,5.781
				v0.723c0,3.008,0.501,5.159,1.504,6.455c1.002,1.296,2.61,1.943,4.824,1.943c1.849,0,3.297-0.749,4.346-2.246
				c1.048-1.497,1.572-3.562,1.572-6.191c0-2.669-0.524-4.717-1.572-6.143C285.351,352.767,283.877,352.054,281.976,352.054z"/>
			<path id="XMLID_385_" class="st2" d="M310.16,371.097l-0.645-3.047h-0.156c-1.068,1.341-2.133,2.249-3.193,2.725
				c-1.062,0.476-2.387,0.713-3.975,0.713c-2.123,0-3.786-0.547-4.99-1.641c-1.205-1.094-1.807-2.649-1.807-4.668
				c0-4.323,3.457-6.589,10.371-6.797l3.633-0.117v-1.328c0-1.68-0.361-2.92-1.084-3.721s-1.879-1.201-3.467-1.201
				c-1.784,0-3.803,0.547-6.055,1.641l-0.996-2.48c1.055-0.573,2.21-1.022,3.467-1.348c1.256-0.325,2.516-0.488,3.779-0.488
				c2.552,0,4.443,0.566,5.674,1.699s1.846,2.949,1.846,5.449v14.609H310.16z M302.836,368.812c2.018,0,3.604-0.554,4.756-1.66
				s1.729-2.656,1.729-4.648v-1.934l-3.242,0.137c-2.578,0.091-4.438,0.491-5.576,1.201c-1.14,0.71-1.709,1.813-1.709,3.311
				c0,1.172,0.354,2.063,1.064,2.676C300.566,368.506,301.559,368.812,302.836,368.812z"/>
			<path id="XMLID_383_" class="st2" d="M322.484,371.097h-3.242v-30.391h3.242V371.097z"/>
			<path id="XMLID_379_" class="st2" d="M338.402,371.488c-3.164,0-5.661-0.964-7.49-2.891c-1.83-1.927-2.744-4.603-2.744-8.027
				c0-3.45,0.85-6.191,2.549-8.223s3.98-3.047,6.846-3.047c2.682,0,4.805,0.882,6.367,2.646s2.344,4.092,2.344,6.982v2.051h-14.746
				c0.064,2.513,0.699,4.421,1.904,5.723c1.204,1.302,2.9,1.953,5.088,1.953c2.305,0,4.583-0.481,6.836-1.445v2.891
				c-1.146,0.495-2.23,0.85-3.252,1.064C341.081,371.38,339.848,371.488,338.402,371.488z M337.523,352.015
				c-1.719,0-3.09,0.56-4.111,1.68c-1.022,1.12-1.625,2.669-1.807,4.648h11.191c0-2.044-0.456-3.61-1.367-4.697
				C340.517,352.559,339.216,352.015,337.523,352.015z"/>
			<path id="XMLID_377_" class="st2" d="M365.609,365.257c0,1.992-0.742,3.528-2.227,4.609s-3.568,1.621-6.25,1.621
				c-2.839,0-5.053-0.449-6.641-1.348v-3.008c1.028,0.521,2.132,0.931,3.311,1.23c1.178,0.3,2.314,0.449,3.408,0.449
				c1.692,0,2.994-0.271,3.906-0.811c0.911-0.54,1.367-1.364,1.367-2.471c0-0.833-0.361-1.546-1.084-2.139s-2.133-1.292-4.229-2.1
				c-1.992-0.742-3.408-1.39-4.248-1.943s-1.465-1.182-1.875-1.885s-0.615-1.543-0.615-2.52c0-1.745,0.709-3.122,2.129-4.131
				c1.419-1.009,3.365-1.514,5.84-1.514c2.305,0,4.557,0.469,6.758,1.406l-1.152,2.637c-2.148-0.886-4.096-1.328-5.84-1.328
				c-1.537,0-2.695,0.241-3.477,0.723s-1.172,1.146-1.172,1.992c0,0.573,0.146,1.062,0.439,1.465s0.765,0.788,1.416,1.152
				c0.65,0.364,1.9,0.892,3.75,1.582c2.539,0.925,4.254,1.855,5.146,2.793C365.163,362.66,365.609,363.838,365.609,365.257z"/>
		</g>
	</g>
	<path id="XMLID_105_" class="st3" d="M259.768,11.253v277.033c74.788-1.997,134.801-63.247,134.801-138.517
		S334.555,13.25,259.768,11.253z"/>
	<rect id="XMLID_14_" x="256.12" y="-41.609" class="st4" width="221.514" height="394.024"/>
	<g id="XMLID_131_">
		<g id="XMLID_228_">
			<path id="XMLID_107_" class="st5" d="M320.059,173.642l-26.044-24.529c-0.52-0.488-1.219-0.736-1.938-0.689
				c-0.711,0.049-1.368,0.396-1.817,0.957c-1.346,1.69-6.023,6.504-9.739,6.504c-1.016,0-1.869-0.367-2.697-1.155
				c-4.805-4.588-14.522-14.407-18.865-18.82v34.143l5.81,5.81c0.454,0.501,11.29,12.294,28.022,12.294
				c1.453,0,2.9-0.117,4.348-0.297c0.543,2.776,0.704,9.042-6.194,15.943c-2.977,2.98-6.492,3.53-8.951,3.46
				c-4.541-0.124-9.399-2.459-12.659-6.097c-0.04-0.04-0.077-0.084-0.121-0.124l-10.255-10.497v12.228l4.083,4.163
				c4.846,5.364,11.836,8.676,18.719,8.859c0.216,0.005,0.426,0.01,0.64,0.01c5.637,0,10.668-2.057,14.58-5.969
				c9.776-9.778,9.439-19.317,8.445-23.984c4.895-1.77,9.739-4.536,14.483-8.348c0.578-0.461,0.927-1.155,0.957-1.894
				C320.892,174.866,320.599,174.153,320.059,173.642z"/>
			<path id="XMLID_106_" class="st6" d="M231.696,142.801l28.263,28.261v-34.143c-1.58-1.605-2.587-2.633-2.609-2.654
				c-0.173-0.201-4.049-4.818,2.609-14.069v-4.95l-19.94-24.041c-0.803-0.967-2.189-1.215-3.274-0.57
				c-0.548,0.327-13.417,8.085-15.792,22.274c-1.601,9.578,1.966,19.582,10.604,29.739
				C231.602,142.702,231.649,142.751,231.696,142.801z"/>
		</g>
		<path id="XMLID_109_" class="st6" d="M213.265,180.66c-0.734-1.472-2.84-6.729,1.911-11.194c4.737-4.454,9.548-1.477,10.8-0.56
			l33.984,34.875v-12.228l-28.087-28.823c-0.116-0.119-0.24-0.233-0.372-0.337c-3.954-3.202-13.67-7.136-22.167,0.855
			c-8.346,7.833-5.726,17.943-3.178,22.192c0.178,0.302,0.397,0.575,0.642,0.823l15.18,15.179c1.668,1.666,4.37,1.666,6.036,0
			c1.668-1.666,1.668-4.367,0-6.033L213.265,180.66z"/>
		<path id="XMLID_98_" class="st6" d="M258.776,113.818l3.19,3.467c0,0,0.578,0.255-0.833,1.75l-2.356,2.931l-5.394-4.931
			L258.776,113.818z"/>
	</g>
</g>
</svg>
