<?xml version="1.0" encoding="utf-8"?>
<!-- Generator: Adobe Illustrator 19.0.0, SVG Export Plug-In . SVG Version: 6.00 Build 0)  -->
<svg version="1.1" id="Capa_1" xmlns="http://www.w3.org/2000/svg" xmlns:xlink="http://www.w3.org/1999/xlink" x="0px" y="0px"
	 viewBox="0 0 512 404" style="enable-background:new 0 0 512 404;" xml:space="preserve">
<style type="text/css">
	.st0{clip-path:url(#XMLID_3_);fill:#ED54AF;}
	.st1{clip-path:url(#XMLID_3_);fill:#DD50AB;}
	.st2{clip-path:url(#XMLID_3_);}
	.st3{fill:#5B5B5B;}
	.st4{clip-path:url(#XMLID_3_);fill:#FFFFFF;}
	.st5{clip-path:url(#XMLID_4_);fill:#F3F3F3;}
</style>
<g id="XMLID_932_">
	<defs>
		<rect id="XMLID_361_" width="512" height="404"/>
	</defs>
	<clipPath id="XMLID_3_">
		<use xlink:href="#XMLID_361_"  style="overflow:visible;"/>
	</clipPath>
	<circle id="XMLID_524_" class="st0" cx="256" cy="173.569" r="138.569"/>
	<path id="XMLID_521_" class="st1" d="M257.431,35v277.102c75.869-0.769,137.138-62.5,137.138-138.551S333.3,35.769,257.431,35z"/>
	<g id="XMLID_1_" class="st2">
		<path id="XMLID_10_" class="st3" d="M135.375,362h-3.164v-20.352c0-1.692,0.052-3.294,0.156-4.805
			c-0.273,0.273-0.579,0.56-0.918,0.859s-1.888,1.569-4.648,3.809l-1.719-2.227l7.559-5.84h2.734V362z"/>
		<path id="XMLID_13_" class="st3" d="M165.16,347.684c0,4.935-0.778,8.62-2.334,11.055s-3.936,3.652-7.139,3.652
			c-3.073,0-5.41-1.247-7.012-3.74s-2.402-6.149-2.402-10.967c0-4.974,0.774-8.665,2.324-11.074s3.913-3.613,7.09-3.613
			c3.099,0,5.452,1.257,7.061,3.77S165.16,342.918,165.16,347.684z M149.554,347.684c0,4.153,0.488,7.178,1.465,9.072
			s2.532,2.842,4.668,2.842c2.161,0,3.728-0.96,4.697-2.881s1.455-4.932,1.455-9.033s-0.485-7.106-1.455-9.014
			s-2.536-2.861-4.697-2.861c-2.136,0-3.691,0.94-4.668,2.822S149.554,343.53,149.554,347.684z"/>
		<path id="XMLID_63_" class="st3" d="M188.031,347.684c0,4.935-0.778,8.62-2.334,11.055s-3.936,3.652-7.139,3.652
			c-3.073,0-5.41-1.247-7.012-3.74s-2.402-6.149-2.402-10.967c0-4.974,0.774-8.665,2.324-11.074s3.913-3.613,7.09-3.613
			c3.099,0,5.452,1.257,7.061,3.77S188.031,342.918,188.031,347.684z M172.425,347.684c0,4.153,0.488,7.178,1.465,9.072
			s2.532,2.842,4.668,2.842c2.161,0,3.728-0.96,4.697-2.881s1.455-4.932,1.455-9.033s-0.485-7.106-1.455-9.014
			s-2.536-2.861-4.697-2.861c-2.136,0-3.691,0.94-4.668,2.822S172.425,343.53,172.425,347.684z"/>
		<path id="XMLID_66_" class="st3" d="M203.695,341.961c0,2.969-0.498,5.212-1.494,6.729s-2.458,2.275-4.385,2.275
			c-1.823,0-3.239-0.774-4.248-2.324s-1.514-3.776-1.514-6.68c0-2.956,0.485-5.183,1.455-6.68s2.405-2.246,4.307-2.246
			c1.888,0,3.34,0.774,4.355,2.324S203.695,339.109,203.695,341.961z M194.75,341.961c0,2.214,0.241,3.874,0.723,4.98
			s1.263,1.66,2.344,1.66c2.136,0,3.203-2.214,3.203-6.641c0-4.401-1.067-6.602-3.203-6.602c-1.081,0-1.862,0.547-2.344,1.641
			S194.75,339.747,194.75,341.961z M215.863,333.445L200.023,362h-2.871l15.84-28.555H215.863z M220.902,353.406
			c0,2.956-0.498,5.192-1.494,6.709s-2.458,2.275-4.385,2.275c-1.849,0-3.271-0.774-4.268-2.324s-1.494-3.77-1.494-6.66
			c0-2.956,0.485-5.183,1.455-6.68s2.405-2.246,4.307-2.246c1.849,0,3.291,0.765,4.326,2.295S220.902,350.516,220.902,353.406z
			 M211.937,353.406c0,2.227,0.241,3.89,0.723,4.99s1.27,1.65,2.363,1.65s1.901-0.544,2.422-1.631s0.781-2.757,0.781-5.01
			c0-2.227-0.261-3.877-0.781-4.951s-1.328-1.611-2.422-1.611s-1.882,0.537-2.363,1.611S211.937,351.18,211.937,353.406z"/>
		<path id="XMLID_72_" class="st3" d="M245.824,362.391c-3.164,0-5.661-0.964-7.49-2.891s-2.744-4.603-2.744-8.027
			c0-3.45,0.85-6.191,2.549-8.223s3.981-3.047,6.846-3.047c2.683,0,4.805,0.882,6.367,2.646s2.344,4.092,2.344,6.982v2.051h-14.746
			c0.065,2.513,0.7,4.421,1.904,5.723s2.9,1.953,5.088,1.953c2.305,0,4.583-0.481,6.836-1.445v2.891
			c-1.146,0.495-2.229,0.85-3.252,1.064S247.269,362.391,245.824,362.391z M244.945,342.918c-1.719,0-3.089,0.56-4.111,1.68
			s-1.624,2.669-1.807,4.648h11.191c0-2.044-0.456-3.61-1.367-4.697S246.637,342.918,244.945,342.918z"/>
		<path id="XMLID_75_" class="st3" d="M273.871,362v-13.848c0-1.745-0.397-3.047-1.191-3.906s-2.038-1.289-3.73-1.289
			c-2.239,0-3.88,0.605-4.922,1.816s-1.563,3.21-1.563,5.996V362h-3.242v-21.406h2.637l0.527,2.93h0.156
			c0.664-1.055,1.595-1.872,2.793-2.451s2.532-0.869,4.004-0.869c2.578,0,4.519,0.622,5.82,1.865s1.953,3.232,1.953,5.967V362
			H273.871z"/>
		<path id="XMLID_77_" class="st3" d="M297.406,362h-3.242v-30.391h3.242V362z"/>
		<path id="XMLID_79_" class="st3" d="M304.144,337.273c0.625-0.808,1.299-1.784,2.021-2.93s1.292-2.142,1.709-2.988h3.945v0.41
			c-0.573,0.847-1.426,1.888-2.559,3.125s-2.116,2.194-2.949,2.871h-2.168V337.273z M307.523,362h-3.242v-21.406h3.242V362z"/>
		<path id="XMLID_82_" class="st3" d="M329.047,362v-13.848c0-1.745-0.397-3.047-1.191-3.906s-2.038-1.289-3.73-1.289
			c-2.239,0-3.88,0.605-4.922,1.816s-1.563,3.21-1.563,5.996V362h-3.242v-21.406h2.637l0.527,2.93h0.156
			c0.664-1.055,1.595-1.872,2.793-2.451s2.532-0.869,4.004-0.869c2.578,0,4.519,0.622,5.82,1.865s1.953,3.232,1.953,5.967V362
			H329.047z"/>
		<path id="XMLID_84_" class="st3" d="M347.992,362.391c-3.164,0-5.661-0.964-7.49-2.891s-2.744-4.603-2.744-8.027
			c0-3.45,0.85-6.191,2.549-8.223s3.981-3.047,6.846-3.047c2.683,0,4.805,0.882,6.367,2.646s2.344,4.092,2.344,6.982v2.051h-14.746
			c0.065,2.513,0.7,4.421,1.904,5.723s2.9,1.953,5.088,1.953c2.305,0,4.583-0.481,6.836-1.445v2.891
			c-1.146,0.495-2.229,0.85-3.252,1.064S349.437,362.391,347.992,362.391z M347.113,342.918c-1.719,0-3.089,0.56-4.111,1.68
			s-1.624,2.669-1.807,4.648h11.191c0-2.044-0.456-3.61-1.367-4.697S348.805,342.918,347.113,342.918z"/>
		<path id="XMLID_87_" class="st3" d="M374.554,362l-0.645-3.047h-0.156c-1.067,1.341-2.132,2.249-3.193,2.725
			s-2.386,0.713-3.975,0.713c-2.122,0-3.786-0.547-4.99-1.641s-1.807-2.649-1.807-4.668c0-4.323,3.457-6.589,10.371-6.797
			l3.633-0.117v-1.328c0-1.68-0.361-2.92-1.084-3.721s-1.878-1.201-3.467-1.201c-1.784,0-3.802,0.547-6.055,1.641l-0.996-2.48
			c1.055-0.573,2.21-1.022,3.467-1.348s2.517-0.488,3.779-0.488c2.552,0,4.443,0.566,5.674,1.699s1.846,2.949,1.846,5.449V362
			H374.554z M367.23,359.715c2.019,0,3.604-0.554,4.756-1.66s1.729-2.656,1.729-4.648v-1.934l-3.242,0.137
			c-2.578,0.091-4.437,0.491-5.576,1.201s-1.709,1.813-1.709,3.311c0,1.172,0.354,2.063,1.064,2.676S365.954,359.715,367.23,359.715
			z"/>
	</g>
	<path id="XMLID_253_" class="st4" d="M329.956,167.013h-14.915v-44.466c0-8.408-6.893-15.3-15.3-15.3H189.207
		c-8.399,0-15.3,6.893-15.3,15.3v64.633c0,8.435,6.902,15.3,15.3,15.3h14.144v44.502c0,6.928,5.674,12.602,12.575,12.602h28.001
		c6.937,0,12.611-5.674,12.611-12.602v-44.502h10.119v22.264c0,6.095,4.966,11.07,11.096,11.07h52.201
		c6.095,0,11.07-4.974,11.07-11.07v-46.671C341.026,171.979,336.051,167.013,329.956,167.013z M326.703,173.072
		c1.891,0,3.433,1.533,3.433,3.424s-1.542,3.433-3.433,3.433c-1.891,0-3.433-1.542-3.433-3.433S324.811,173.072,326.703,173.072z
		 M316.896,173.099c1.891,0,3.433,1.506,3.433,3.397s-1.542,3.433-3.433,3.433c-1.891,0-3.397-1.542-3.397-3.433
		S315.006,173.099,316.896,173.099z M296.308,115.054c2.456,0,4.481,1.999,4.481,4.482c0,2.447-2.026,4.482-4.481,4.482
		c-2.483,0-4.482-2.035-4.482-4.482C291.827,117.053,293.826,115.054,296.308,115.054z M283.5,115.054
		c2.447,0,4.446,1.999,4.446,4.482c0,2.447-1.998,4.446-4.446,4.446c-2.492,0-4.482-1.999-4.482-4.446
		C279.018,117.053,281.008,115.054,283.5,115.054z M247.011,248.766h-34.132V188.4h34.132V248.766z M229.748,178.638
		c0-1.891,1.542-3.397,3.433-3.397c1.891,0,3.397,1.506,3.397,3.397c0,1.891-1.506,3.424-3.397,3.424
		C231.29,182.063,229.748,180.53,229.748,178.638z M239.554,178.638c0-1.891,1.541-3.397,3.433-3.397
		c1.891,0,3.397,1.506,3.397,3.397c0,1.891-1.506,3.424-3.397,3.424C241.095,182.063,239.554,180.53,239.554,178.638z
		 M266.658,178.074v11.276h-10.119v-8.157c0-6.937-5.674-12.602-12.611-12.602h-28.001c-6.902,0-12.575,5.665-12.575,12.602v8.157
		h-17.855v-57.804h117.956v35.467h-25.697C271.624,167.013,266.658,171.979,266.658,178.074z M332.618,226.323h-57.562V185.11
		h57.562V226.323z"/>
	<g id="XMLID_490_" class="st2">
		<defs>
			<rect id="XMLID_488_" x="153.864" y="100.455" width="103.603" height="163.216"/>
		</defs>
		<clipPath id="XMLID_4_">
			<use xlink:href="#XMLID_488_"  style="overflow:visible;"/>
		</clipPath>
		<path id="XMLID_263_" class="st5" d="M329.956,167.013h-14.915v-44.466c0-8.408-6.893-15.3-15.3-15.3H189.207
			c-8.399,0-15.3,6.893-15.3,15.3v64.633c0,8.435,6.902,15.3,15.3,15.3h14.144v44.502c0,6.928,5.674,12.602,12.575,12.602h28.001
			c6.937,0,12.611-5.674,12.611-12.602v-44.502h10.119v22.264c0,6.095,4.966,11.07,11.096,11.07h52.201
			c6.095,0,11.07-4.974,11.07-11.07v-46.671C341.026,171.979,336.051,167.013,329.956,167.013z M326.703,173.072
			c1.891,0,3.433,1.533,3.433,3.424s-1.542,3.433-3.433,3.433c-1.891,0-3.433-1.542-3.433-3.433S324.811,173.072,326.703,173.072z
			 M316.896,173.099c1.891,0,3.433,1.506,3.433,3.397s-1.542,3.433-3.433,3.433c-1.891,0-3.397-1.542-3.397-3.433
			S315.006,173.099,316.896,173.099z M296.308,115.054c2.456,0,4.481,1.999,4.481,4.482c0,2.447-2.026,4.482-4.481,4.482
			c-2.483,0-4.482-2.035-4.482-4.482C291.827,117.053,293.826,115.054,296.308,115.054z M283.5,115.054
			c2.447,0,4.446,1.999,4.446,4.482c0,2.447-1.998,4.446-4.446,4.446c-2.492,0-4.482-1.999-4.482-4.446
			C279.018,117.053,281.008,115.054,283.5,115.054z M247.011,248.766h-34.132V188.4h34.132V248.766z M229.748,178.638
			c0-1.891,1.542-3.397,3.433-3.397c1.891,0,3.397,1.506,3.397,3.397c0,1.891-1.506,3.424-3.397,3.424
			C231.29,182.063,229.748,180.53,229.748,178.638z M239.554,178.638c0-1.891,1.541-3.397,3.433-3.397
			c1.891,0,3.397,1.506,3.397,3.397c0,1.891-1.506,3.424-3.397,3.424C241.095,182.063,239.554,180.53,239.554,178.638z
			 M266.658,178.074v11.276h-10.119v-8.157c0-6.937-5.674-12.602-12.611-12.602h-28.001c-6.902,0-12.575,5.665-12.575,12.602v8.157
			h-17.855v-57.804h117.956v35.467h-25.697C271.624,167.013,266.658,171.979,266.658,178.074z M332.618,226.323h-57.562V185.11
			h57.562V226.323z"/>
	</g>
</g>
</svg>
