<?xml version="1.0" encoding="utf-8"?>
<!-- Generator: Adobe Illustrator 19.0.0, SVG Export Plug-In . SVG Version: 6.00 Build 0)  -->
<svg version="1.1" id="Capa_1" xmlns="http://www.w3.org/2000/svg" xmlns:xlink="http://www.w3.org/1999/xlink" x="0px" y="0px"
	 viewBox="0 0 512 404" style="enable-background:new 0 0 512 404;" xml:space="preserve">
<style type="text/css">
	.st0{clip-path:url(#XMLID_2_);fill:#C072A3;}
	.st1{opacity:0.57;clip-path:url(#XMLID_2_);}
	.st2{opacity:0.57;}
	.st3{clip-path:url(#XMLID_3_);fill:#BC5E9D;}
	.st4{clip-path:url(#XMLID_2_);}
	.st5{fill:#FFFFFF;}
	.st6{fill:#F3F3F3;}
	.st7{fill:#5B5B5B;}
</style>
<g id="XMLID_516_">
	<defs>
		<rect id="XMLID_513_" y="0" width="512" height="404"/>
	</defs>
	<clipPath id="XMLID_2_">
		<use xlink:href="#XMLID_513_"  style="overflow:visible;"/>
	</clipPath>
	<circle id="XMLID_1050_" class="st0" cx="254.094" cy="173.768" r="138.569"/>
	<g id="XMLID_1046_" class="st1">
		<defs>
			<rect id="XMLID_1047_" x="252.283" y="-18.787" class="st2" width="221.514" height="394.024"/>
		</defs>
		<clipPath id="XMLID_3_">
			<use xlink:href="#XMLID_1047_"  style="overflow:visible;"/>
		</clipPath>
		<circle id="XMLID_1048_" class="st3" cx="252.283" cy="173.272" r="138.569"/>
	</g>
	<g id="XMLID_310_" class="st4">
		<g id="XMLID_317_">
			<path id="XMLID_325_" class="st5" d="M324.088,160.285c1.601-17.613-7.205-16.813-7.205-16.813
				c0-19.214-12.009-16.234-12.009-16.234v55.463h19.409C342.091,174.696,324.088,160.285,324.088,160.285z"/>
			<path id="XMLID_324_" class="st5" d="M311.077,159.878l1.322-25.526l0.003-0.129c0-0.771-0.347-19.063-30.521-35.596
				l-0.362-0.163c-2.183-0.776-21.267-7.489-28.259-6.977c-0.352-0.027-0.742-0.031-1.153-0.022v4.988
				c0.331-0.007,0.628,0.002,0.887,0.03l0.266,0.028l0.266-0.028c4.188-0.446,18.156,3.798,26.128,6.624
				c26.515,14.594,27.704,30.226,27.747,31.079l-1.498,28.941l1.674,0.659c5.203,2.049,13.532,8.231,10.949,26.621
				c-0.336,1.276-3.997,14.373-13.131,13.225l-2.301-0.284l-0.457,2.272c-7.135,35.469-26.176,42.478-26.354,42.539l-0.392,0.17
				c-13.374,7.202-19.697,8.461-22.338,8.573l-0.294,0.006l-0.356-0.009c-0.231-0.01-0.503-0.033-0.796-0.065v5.02
				c0.232,0.019,0.457,0.035,0.667,0.044l0.485,0.01l0.567-0.013c3.659-0.155,10.837-1.858,24.272-9.076
				c2.422-0.907,21.276-9.029,28.998-44.116c12.157-0.402,16.143-16.506,16.315-17.232l0.043-0.226
				C326.394,170.686,316.848,162.748,311.077,159.878z"/>
			<g id="XMLID_318_">
				<path id="XMLID_320_" class="st5" d="M274.411,157.519c-6.58,0-12.228,3.958-14.715,9.619c-2.057-0.59-4.602-0.946-7.588-0.707
					v5.026h6.387c-0.093,0.701-0.158,1.41-0.158,2.137c0,8.878,7.197,16.074,16.074,16.074s16.074-7.197,16.074-16.074
					S283.288,157.519,274.411,157.519z"/>
				<path id="XMLID_319_" class="st5" d="M281.636,215.834c-0.132-0.405-0.491-0.514-0.89-0.502
					c-2.439,0.071-4.577-0.724-6.524-2.169c-1.831-1.359-3.41-2.985-5.026-4.573c-1.435-1.41-2.879-2.807-4.673-3.771
					c-1.887-1.014-3.888-1.437-5.992-0.955c-1.276,0.292-2.51,0.763-3.768,1.138c-0.174,0.052-0.39,0.059-0.561,0.005
					c-0.702-0.224-1.396-0.47-2.095-0.702v19.325c0.745,0.228,1.536,0.351,2.355,0.351c3.284,0,6.104-1.972,7.351-4.795
					c3.452,1.719,7.197,2.501,11.289,2.086c3.499-0.355,6.308-2.049,8.462-4.82C281.676,216.309,281.696,216.017,281.636,215.834z"
					/>
			</g>
		</g>
		<g id="XMLID_311_">
			<path id="XMLID_316_" class="st6" d="M180.478,160.285c-1.601-17.613,7.205-16.813,7.205-16.813
				c0-19.214,12.009-16.234,12.009-16.234v55.463h-19.409C162.475,174.696,180.478,160.285,180.478,160.285z"/>
			<path id="XMLID_315_" class="st6" d="M193.489,159.878l-1.322-25.526l-0.003-0.129c0-0.771,0.347-19.063,30.521-35.596
				l0.362-0.163c2.183-0.776,21.267-7.489,28.259-6.977c0.352-0.027,0.742-0.031,1.153-0.022v4.988
				c-0.331-0.007-0.628,0.002-0.887,0.03l-0.266,0.028l-0.266-0.028c-4.188-0.446-18.156,3.798-26.128,6.624
				c-26.515,14.594-27.704,30.226-27.747,31.079l1.498,28.941l-1.674,0.659c-5.203,2.049-13.532,8.231-10.949,26.621
				c0.336,1.276,3.997,14.373,13.131,13.225l2.301-0.284l0.457,2.272c7.135,35.469,26.176,42.478,26.354,42.539l0.392,0.17
				c13.374,7.202,19.697,8.461,22.338,8.573l0.294,0.006l0.356-0.009c0.231-0.01,0.503-0.033,0.796-0.065v5.02
				c-0.232,0.019-0.457,0.035-0.667,0.044l-0.485,0.01l-0.567-0.013c-3.659-0.155-10.837-1.858-24.272-9.076
				c-2.422-0.907-21.276-9.029-28.998-44.116c-12.157-0.402-16.143-16.506-16.315-17.232l-0.043-0.226
				C178.172,170.686,187.718,162.748,193.489,159.878z"/>
			<g id="XMLID_312_">
				<path id="XMLID_314_" class="st6" d="M230.155,157.519c6.58,0,12.228,3.958,14.715,9.619c2.057-0.59,4.602-0.946,7.588-0.707
					v5.026h-6.387c0.093,0.701,0.158,1.41,0.158,2.137c0,8.878-7.197,16.074-16.074,16.074s-16.074-7.197-16.074-16.074
					S221.278,157.519,230.155,157.519z"/>
				<path id="XMLID_313_" class="st6" d="M222.93,215.834c0.132-0.405,0.491-0.514,0.89-0.502c2.439,0.071,4.577-0.724,6.524-2.169
					c1.831-1.359,3.41-2.985,5.026-4.573c1.435-1.41,2.879-2.807,4.673-3.771c1.887-1.014,3.888-1.437,5.992-0.955
					c1.276,0.292,2.51,0.763,3.768,1.138c0.174,0.052,0.39,0.059,0.561,0.005c0.702-0.224,1.396-0.47,2.095-0.702v19.325
					c-0.745,0.228-1.536,0.351-2.355,0.351c-3.284,0-6.104-1.972-7.351-4.795c-3.452,1.719-7.197,2.501-11.289,2.086
					c-3.499-0.355-6.308-2.049-8.462-4.82C222.89,216.309,222.87,216.017,222.93,215.834z"/>
			</g>
		</g>
	</g>
	<g id="XMLID_398_" class="st4">
		<path id="XMLID_420_" class="st7" d="M158.371,362.582l-3.498-8.938h-11.262l-3.461,8.938h-3.305l11.107-28.214h2.75
			l11.051,28.214H158.371z M153.854,350.704l-3.266-8.706c-0.424-1.102-0.859-2.453-1.309-4.056
			c-0.281,1.23-0.686,2.582-1.209,4.056l-3.307,8.706H153.854z"/>
		<path id="XMLID_423_" class="st7" d="M179.475,359.757h-0.174c-1.473,2.14-3.678,3.21-6.611,3.21c-2.756,0-4.898-0.942-6.43-2.825
			c-1.531-1.884-2.297-4.562-2.297-8.034c0-3.472,0.77-6.169,2.307-8.092c1.537-1.922,3.678-2.883,6.42-2.883
			c2.857,0,5.049,1.038,6.572,3.114h0.25l-0.135-1.519l-0.076-1.48v-8.571h3.189v29.905h-2.594L179.475,359.757z M173.094,360.295
			c2.178,0,3.756-0.593,4.736-1.777c0.98-1.186,1.471-3.098,1.471-5.737v-0.673c0-2.985-0.496-5.115-1.49-6.391
			c-0.992-1.274-2.578-1.912-4.756-1.912c-1.871,0-3.303,0.728-4.295,2.182c-0.994,1.454-1.49,3.507-1.49,6.159
			c0,2.691,0.492,4.722,1.48,6.093C169.736,359.609,171.184,360.295,173.094,360.295z"/>
		<path id="XMLID_426_" class="st7" d="M192.254,341.518v13.665c0,1.717,0.391,2.998,1.174,3.844
			c0.781,0.846,2.004,1.269,3.67,1.269c2.203,0,3.814-0.603,4.834-1.807c1.018-1.204,1.527-3.171,1.527-5.9v-11.07h3.191v21.064
			h-2.633l-0.463-2.825h-0.172c-0.654,1.038-1.561,1.832-2.721,2.383c-1.158,0.551-2.482,0.827-3.969,0.827
			c-2.563,0-4.48-0.608-5.756-1.826c-1.275-1.217-1.912-3.165-1.912-5.843v-13.78H192.254z"/>
		<path id="XMLID_444_" class="st7" d="M216.606,362.582h-3.189v-29.905h3.189V362.582z"/>
		<path id="XMLID_446_" class="st7" d="M230.176,360.333c0.563,0,1.107-0.041,1.633-0.125c0.525-0.083,0.941-0.169,1.25-0.259v2.44
			c-0.346,0.167-0.855,0.305-1.529,0.413c-0.672,0.109-1.277,0.164-1.816,0.164c-4.074,0-6.111-2.146-6.111-6.438v-12.531h-3.018
			v-1.538l3.018-1.326l1.346-4.497h1.846v4.882h6.111v2.479h-6.111v12.396c0,1.269,0.301,2.242,0.902,2.921
			C228.299,359.994,229.125,360.333,230.176,360.333z"/>
		<path id="XMLID_555_" class="st7" d="M255.449,352.03c0,3.435-0.865,6.115-2.596,8.044c-1.729,1.929-4.119,2.893-7.168,2.893
			c-1.885,0-3.557-0.442-5.018-1.326c-1.459-0.885-2.588-2.153-3.383-3.806c-0.793-1.653-1.191-3.588-1.191-5.805
			c0-3.434,0.859-6.108,2.576-8.023c1.717-1.916,4.1-2.874,7.15-2.874c2.945,0,5.287,0.98,7.023,2.941
			C254.58,346.034,255.449,348.687,255.449,352.03z M239.401,352.03c0,2.691,0.537,4.741,1.615,6.15
			c1.076,1.41,2.658,2.114,4.746,2.114s3.674-0.701,4.758-2.104c1.082-1.403,1.623-3.456,1.623-6.16
			c0-2.678-0.541-4.712-1.623-6.102c-1.084-1.391-2.682-2.086-4.797-2.086c-2.088,0-3.664,0.686-4.727,2.057
			C239.932,347.271,239.401,349.314,239.401,352.03z"/>
		<path id="XMLID_558_" class="st7" d="M284.182,362.582l-9.533-24.908h-0.154c0.18,1.973,0.27,4.318,0.27,7.034v17.874h-3.018
			v-28.099h4.92l8.898,23.179h0.154l8.977-23.179h4.881v28.099h-3.268v-18.104c0-2.076,0.09-4.331,0.27-6.766h-0.154l-9.609,24.87
			H284.182z"/>
		<path id="XMLID_560_" class="st7" d="M319.756,362.582l-0.635-2.998h-0.152c-1.051,1.319-2.1,2.213-3.143,2.681
			c-1.045,0.468-2.35,0.702-3.912,0.702c-2.088,0-3.725-0.538-4.91-1.615c-1.186-1.076-1.777-2.606-1.777-4.593
			c0-4.254,3.4-6.483,10.205-6.688l3.574-0.115v-1.307c0-1.653-0.355-2.874-1.066-3.662s-1.848-1.182-3.412-1.182
			c-1.754,0-3.74,0.538-5.957,1.614l-0.98-2.44c1.037-0.563,2.176-1.006,3.412-1.326s2.475-0.48,3.719-0.48
			c2.512,0,4.373,0.557,5.582,1.672c1.211,1.114,1.816,2.902,1.816,5.362v14.376H319.756z M312.549,360.333
			c1.986,0,3.545-0.544,4.68-1.633c1.135-1.09,1.701-2.614,1.701-4.574v-1.903l-3.191,0.135c-2.537,0.09-4.365,0.483-5.486,1.182
			c-1.121,0.699-1.682,1.784-1.682,3.258c0,1.153,0.35,2.031,1.047,2.633C310.317,360.032,311.293,360.333,312.549,360.333z"/>
		<path id="XMLID_563_" class="st7" d="M325.35,341.518h3.422l4.611,12.012c1.012,2.742,1.641,4.722,1.885,5.939h0.152
			c0.166-0.653,0.516-1.771,1.049-3.354c0.531-1.582,2.27-6.447,5.217-14.597h3.422l-9.053,23.985
			c-0.896,2.371-1.945,4.053-3.143,5.046c-1.197,0.992-2.668,1.489-4.41,1.489c-0.975,0-1.936-0.109-2.883-0.327v-2.556
			c0.703,0.153,1.492,0.23,2.363,0.23c2.191,0,3.754-1.23,4.689-3.69l1.172-2.998L325.35,341.518z"/>
		<path id="XMLID_960_" class="st7" d="M366.709,352.03c0,3.435-0.865,6.115-2.594,8.044c-1.73,1.929-4.121,2.893-7.17,2.893
			c-1.883,0-3.555-0.442-5.016-1.326c-1.461-0.885-2.588-2.153-3.383-3.806c-0.795-1.653-1.191-3.588-1.191-5.805
			c0-3.434,0.857-6.108,2.574-8.023c1.719-1.916,4.102-2.874,7.15-2.874c2.947,0,5.289,0.98,7.025,2.941
			C365.842,346.034,366.709,348.687,366.709,352.03z M350.66,352.03c0,2.691,0.539,4.741,1.615,6.15
			c1.076,1.41,2.658,2.114,4.748,2.114c2.088,0,3.674-0.701,4.756-2.104s1.625-3.456,1.625-6.16c0-2.678-0.543-4.712-1.625-6.102
			c-1.082-1.391-2.682-2.086-4.795-2.086c-2.088,0-3.664,0.686-4.729,2.057C351.193,347.271,350.66,349.314,350.66,352.03z"/>
		<path id="XMLID_963_" class="st7" d="M381.912,341.133c0.936,0,1.773,0.077,2.518,0.231l-0.441,2.959
			c-0.873-0.191-1.641-0.288-2.307-0.288c-1.705,0-3.162,0.692-4.373,2.076s-1.816,3.106-1.816,5.17v11.301h-3.189v-21.064h2.633
			l0.365,3.901h0.152c0.783-1.371,1.725-2.428,2.826-3.171S380.592,341.133,381.912,341.133z"/>
	</g>
</g>
</svg>
