<?xml version="1.0" encoding="utf-8"?>
<!-- Generator: Adobe Illustrator 19.0.0, SVG Export Plug-In . SVG Version: 6.00 Build 0)  -->
<svg version="1.1" id="Capa_1" xmlns="http://www.w3.org/2000/svg" xmlns:xlink="http://www.w3.org/1999/xlink" x="0px" y="0px"
	 viewBox="0 0 280 280" style="enable-background:new 0 0 280 280;" xml:space="preserve">
<style type="text/css">
	.st0{fill:#C072A3;}
	.st1{fill:#FFFFFF;}
	.st2{fill:#F3F3F3;}
</style>
<circle id="XMLID_106_" class="st0" cx="140" cy="140" r="138.569"/>
<g id="XMLID_310_">
	<g id="XMLID_317_">
		<path id="XMLID_325_" class="st1" d="M221.916,121.291c1.827-20.093-8.22-19.18-8.22-19.18c0-21.92-13.7-18.519-13.7-18.519
			v63.272h22.142C242.453,137.731,221.916,121.291,221.916,121.291z"/>
		<path id="XMLID_324_" class="st1" d="M207.073,120.827l1.508-29.121l0.003-0.147c0-0.879-0.395-21.747-34.819-40.608l-0.413-0.186
			c-2.49-0.886-24.261-8.544-32.238-7.959c-0.401-0.031-0.847-0.035-1.315-0.025v5.691c0.377-0.008,0.716,0.003,1.012,0.034
			l0.303,0.032l0.303-0.032c4.777-0.509,20.713,4.333,29.807,7.557c30.248,16.649,31.605,34.481,31.654,35.455l-1.709,33.016
			l1.91,0.752c5.936,2.337,15.438,9.39,12.491,30.369c-0.383,1.456-4.56,16.397-14.98,15.087l-2.625-0.324l-0.521,2.592
			c-8.139,40.463-29.861,48.459-30.064,48.529l-0.447,0.194c-15.257,8.216-22.471,9.652-25.483,9.78l-0.335,0.007l-0.407-0.01
			c-0.263-0.011-0.574-0.038-0.908-0.074v5.727c0.265,0.022,0.521,0.04,0.761,0.05l0.554,0.011l0.647-0.014
			c4.174-0.177,12.363-2.12,27.69-10.354c2.763-1.035,24.272-10.301,33.081-50.328c13.869-0.459,18.416-18.83,18.613-19.659
			l0.049-0.257C224.546,133.157,213.656,124.1,207.073,120.827z"/>
		<g id="XMLID_318_">
			<path id="XMLID_320_" class="st1" d="M165.243,118.135c-7.506,0-13.95,4.515-16.787,10.973c-2.347-0.673-5.25-1.079-8.656-0.807
				v5.734h7.286c-0.106,0.8-0.18,1.609-0.18,2.438c0,10.128,8.21,18.338,18.338,18.338s18.338-8.21,18.338-18.338
				C183.581,126.345,175.371,118.135,165.243,118.135z"/>
			<path id="XMLID_319_" class="st1" d="M173.486,184.662c-0.15-0.462-0.561-0.586-1.015-0.573
				c-2.782,0.081-5.222-0.826-7.443-2.475c-2.089-1.551-3.89-3.405-5.734-5.217c-1.637-1.609-3.284-3.202-5.331-4.301
				c-2.153-1.157-4.436-1.639-6.836-1.09c-1.456,0.333-2.863,0.871-4.298,1.298c-0.198,0.059-0.445,0.068-0.64,0.006
				c-0.8-0.255-1.592-0.537-2.39-0.801v22.046c0.849,0.261,1.752,0.401,2.687,0.401c3.747,0,6.963-2.25,8.386-5.47
				c3.938,1.961,8.211,2.853,12.878,2.38c3.992-0.405,7.197-2.338,9.653-5.499C173.532,185.203,173.554,184.87,173.486,184.662z"/>
		</g>
	</g>
	<g id="XMLID_311_">
		<path id="XMLID_316_" class="st2" d="M58.084,121.291c-1.827-20.093,8.22-19.18,8.22-19.18c0-21.92,13.7-18.519,13.7-18.519
			v63.272H57.862C37.547,137.731,58.084,121.291,58.084,121.291z"/>
		<path id="XMLID_315_" class="st2" d="M72.927,120.827l-1.508-29.121l-0.003-0.147c0-0.879,0.395-21.747,34.819-40.608l0.413-0.186
			c2.49-0.886,24.261-8.544,32.238-7.959c0.401-0.031,0.847-0.035,1.315-0.025v5.691c-0.377-0.008-0.716,0.003-1.012,0.034
			l-0.303,0.032l-0.303-0.032c-4.777-0.509-20.713,4.333-29.807,7.557C78.528,72.712,77.171,90.545,77.122,91.518l1.709,33.016
			l-1.91,0.752c-5.936,2.337-15.438,9.39-12.491,30.369c0.383,1.456,4.56,16.397,14.98,15.087l2.625-0.324l0.521,2.592
			c8.139,40.463,29.861,48.459,30.064,48.529l0.447,0.194c15.257,8.216,22.471,9.652,25.483,9.78l0.335,0.007l0.407-0.01
			c0.263-0.011,0.574-0.038,0.908-0.074v5.727c-0.265,0.022-0.521,0.04-0.761,0.05l-0.554,0.011l-0.647-0.014
			c-4.174-0.177-12.363-2.12-27.69-10.354c-2.763-1.035-24.272-10.301-33.081-50.328c-13.869-0.459-18.416-18.83-18.613-19.659
			l-0.049-0.257C55.454,133.157,66.344,124.1,72.927,120.827z"/>
		<g id="XMLID_312_">
			<path id="XMLID_314_" class="st2" d="M114.757,118.135c7.506,0,13.95,4.515,16.787,10.973c2.347-0.673,5.25-1.079,8.656-0.807
				v5.734h-7.286c0.106,0.8,0.18,1.609,0.18,2.438c0,10.128-8.21,18.338-18.338,18.338s-18.338-8.21-18.338-18.338
				S104.629,118.135,114.757,118.135z"/>
			<path id="XMLID_313_" class="st2" d="M106.514,184.662c0.15-0.462,0.561-0.586,1.015-0.573c2.782,0.081,5.222-0.826,7.443-2.475
				c2.089-1.551,3.89-3.405,5.734-5.217c1.637-1.609,3.284-3.202,5.331-4.301c2.153-1.157,4.436-1.639,6.836-1.09
				c1.456,0.333,2.863,0.871,4.298,1.298c0.198,0.059,0.445,0.068,0.64,0.006c0.8-0.255,1.592-0.537,2.39-0.801v22.046
				c-0.849,0.261-1.752,0.401-2.687,0.401c-3.747,0-6.963-2.25-8.386-5.47c-3.938,1.961-8.211,2.853-12.878,2.38
				c-3.992-0.405-7.197-2.338-9.653-5.499C106.468,185.203,106.446,184.87,106.514,184.662z"/>
		</g>
	</g>
</g>
</svg>
