<?xml version="1.0" encoding="utf-8"?>
<!-- Generator: Adobe Illustrator 19.0.0, SVG Export Plug-In . SVG Version: 6.00 Build 0)  -->
<svg version="1.1" id="Capa_1" xmlns="http://www.w3.org/2000/svg" xmlns:xlink="http://www.w3.org/1999/xlink" x="0px" y="0px"
	 viewBox="0 0 512 404" style="enable-background:new 0 0 512 404;" xml:space="preserve">
<style type="text/css">
	.st0{clip-path:url(#XMLID_2_);fill:#3DB39E;}
	.st1{clip-path:url(#XMLID_2_);fill:#3EAD98;}
	.st2{clip-path:url(#XMLID_2_);}
	.st3{fill:#5B5B5B;}
	.st4{fill:#FFFFFF;}
	.st5{fill:none;}
	.st6{clip-path:url(#XMLID_3_);}
	.st7{clip-path:url(#XMLID_4_);fill:#F3F3F3;}
	.st8{clip-path:url(#XMLID_3_);fill:#FFFFFF;}
</style>
<g id="XMLID_871_">
	<defs>
		<rect id="XMLID_842_" width="512" height="404"/>
	</defs>
	<clipPath id="XMLID_2_">
		<use xlink:href="#XMLID_842_"  style="overflow:visible;"/>
	</clipPath>
	<circle id="XMLID_323_" class="st0" cx="256" cy="173.569" r="138.569"/>
	<path id="XMLID_322_" class="st1" d="M257.431,35v277.102c75.869-0.769,137.138-62.5,137.138-138.551S333.3,35.769,257.431,35z"/>
	<g id="XMLID_744_" class="st2">
		<path id="XMLID_745_" class="st3" d="M205.561,333.445h8.066c3.789,0,6.53,0.566,8.223,1.699s2.539,2.923,2.539,5.371
			c0,1.692-0.472,3.089-1.416,4.189s-2.321,1.813-4.131,2.139v0.195c4.336,0.742,6.504,3.021,6.504,6.836
			c0,2.552-0.862,4.544-2.588,5.977S218.62,362,215.522,362h-9.961V333.445z M208.881,345.672h5.469c2.344,0,4.03-0.368,5.059-1.104
			s1.543-1.976,1.543-3.721c0-1.602-0.573-2.757-1.719-3.467s-2.969-1.064-5.469-1.064h-4.883V345.672z M208.881,348.484v10.684
			h5.957c2.305,0,4.04-0.446,5.205-1.338s1.748-2.288,1.748-4.189c0-1.771-0.596-3.073-1.787-3.906s-3.005-1.25-5.439-1.25H208.881z
			"/>
		<path id="XMLID_749_" class="st3" d="M240.033,362.391c-3.164,0-5.661-0.964-7.49-2.891s-2.744-4.603-2.744-8.027
			c0-3.45,0.85-6.191,2.549-8.223s3.981-3.047,6.846-3.047c2.683,0,4.805,0.882,6.367,2.646s2.344,4.092,2.344,6.982v2.051h-14.746
			c0.065,2.513,0.7,4.421,1.904,5.723s2.9,1.953,5.088,1.953c2.305,0,4.583-0.481,6.836-1.445v2.891
			c-1.146,0.495-2.229,0.85-3.252,1.064S241.479,362.391,240.033,362.391z M239.154,342.918c-1.719,0-3.089,0.56-4.111,1.68
			s-1.624,2.669-1.807,4.648h11.191c0-2.044-0.456-3.61-1.367-4.697S240.847,342.918,239.154,342.918z"/>
		<path id="XMLID_752_" class="st3" d="M261.986,362.391c-3.099,0-5.498-0.954-7.197-2.861c-1.699-1.907-2.549-4.606-2.549-8.096
			c0-3.581,0.862-6.348,2.588-8.301c1.726-1.953,4.183-2.93,7.373-2.93c1.028,0,2.058,0.11,3.086,0.332s1.836,0.481,2.422,0.781
			l-0.996,2.754c-0.716-0.286-1.497-0.524-2.344-0.713s-1.595-0.283-2.246-0.283c-4.349,0-6.523,2.773-6.523,8.32
			c0,2.63,0.53,4.648,1.592,6.055s2.634,2.109,4.717,2.109c1.784,0,3.613-0.384,5.488-1.152v2.871
			C265.964,362.02,264.161,362.391,261.986,362.391z"/>
		<path id="XMLID_754_" class="st3" d="M285.639,362l-0.645-3.047h-0.156c-1.067,1.341-2.132,2.249-3.193,2.725
			s-2.386,0.713-3.975,0.713c-2.122,0-3.786-0.547-4.99-1.641s-1.807-2.649-1.807-4.668c0-4.323,3.457-6.589,10.371-6.797
			l3.633-0.117v-1.328c0-1.68-0.361-2.92-1.084-3.721s-1.878-1.201-3.467-1.201c-1.784,0-3.802,0.547-6.055,1.641l-0.996-2.48
			c1.055-0.573,2.21-1.022,3.467-1.348s2.517-0.488,3.779-0.488c2.552,0,4.443,0.566,5.674,1.699s1.846,2.949,1.846,5.449V362
			H285.639z M278.315,359.715c2.019,0,3.604-0.554,4.756-1.66s1.729-2.656,1.729-4.648v-1.934l-3.242,0.137
			c-2.578,0.091-4.437,0.491-5.576,1.201s-1.709,1.813-1.709,3.311c0,1.172,0.354,2.063,1.064,2.676
			S277.038,359.715,278.315,359.715z"/>
		<path id="XMLID_757_" class="st3" d="M308.529,356.16c0,1.992-0.742,3.528-2.227,4.609s-3.567,1.621-6.25,1.621
			c-2.839,0-5.052-0.449-6.641-1.348v-3.008c1.028,0.521,2.132,0.931,3.311,1.23s2.314,0.449,3.408,0.449
			c1.692,0,2.995-0.271,3.906-0.811s1.367-1.364,1.367-2.471c0-0.833-0.361-1.546-1.084-2.139s-2.132-1.292-4.229-2.1
			c-1.992-0.742-3.408-1.39-4.248-1.943s-1.465-1.182-1.875-1.885s-0.615-1.543-0.615-2.52c0-1.745,0.71-3.122,2.129-4.131
			s3.366-1.514,5.84-1.514c2.305,0,4.558,0.469,6.758,1.406l-1.152,2.637c-2.148-0.886-4.095-1.328-5.84-1.328
			c-1.536,0-2.695,0.241-3.477,0.723s-1.172,1.146-1.172,1.992c0,0.573,0.146,1.062,0.439,1.465s0.765,0.788,1.416,1.152
			s1.901,0.892,3.75,1.582c2.539,0.925,4.255,1.855,5.146,2.793S308.529,354.741,308.529,356.16z"/>
	</g>
	<g id="XMLID_203_" class="st2">
		<path id="XMLID_416_" class="st4" d="M267.689,194.934c-2.936,1.823-6.698,2.828-10.589,2.828c-3.893,0-7.655-1.006-10.591-2.828
			l-47.945-29.76c0,0-4.327-2.686-4.327,3.397v29.719c0,15.655,28.146,32.531,62.862,32.531s62.862-16.876,62.862-32.531v-31.395
			c0-4.883-3.078-2.495-3.078-2.495L267.689,194.934z M267.689,194.934"/>
		<path id="XMLID_415_" class="st4" d="M336.309,142.306c3.683-2.272,3.683-5.99,0-8.263L263.27,97.317
			c-3.683-2.272-9.711-2.272-13.396,0l-73.037,36.727c-3.683,2.273-3.683,5.99,0,8.263l73.037,45.044
			c3.685,2.272,9.713,2.272,13.396,0"/>
		<rect id="XMLID_414_" x="178.727" y="97.681" class="st5" width="165.382" height="134.923"/>
		<g id="XMLID_170_">
			<defs>
				<rect id="XMLID_411_" x="154.431" y="92" width="102.873" height="188.163"/>
			</defs>
			<clipPath id="XMLID_3_">
				<use xlink:href="#XMLID_411_"  style="overflow:visible;"/>
			</clipPath>
			<g id="XMLID_392_" class="st6">
				<defs>
					<rect id="XMLID_393_" x="174.63" y="96.136" width="165.382" height="134.923"/>
				</defs>
				<clipPath id="XMLID_4_">
					<use xlink:href="#XMLID_393_"  style="overflow:visible;"/>
				</clipPath>
				<path id="XMLID_395_" class="st7" d="M267.718,195.363c-2.936,1.801-6.698,2.795-10.589,2.795
					c-3.893,0-7.655-0.994-10.591-2.795l-47.945-29.403c0,0-4.327-2.654-4.327,3.356v29.363c0,15.468,28.146,32.142,62.862,32.142
					s62.862-16.674,62.862-32.142V167.66c0-4.824-3.078-2.465-3.078-2.465L267.718,195.363z M267.718,195.363"/>
				<path id="XMLID_394_" class="st7" d="M336.864,142.57c3.683-2.26,3.683-5.957,0-8.217L263.825,97.83
					c-3.683-2.26-9.711-2.26-13.396,0l-73.037,36.523c-3.683,2.26-3.683,5.957,0,8.217l73.037,44.795
					c3.685,2.26,9.713,2.26,13.396,0"/>
			</g>
			<path id="XMLID_389_" class="st8" d="M333.843,208.966v-49.472c0,0,0.035-2.344-1.357-1.569c-1.115,0.62-3.849,2.145-4.812,2.983
				c-1.113,0.965-0.86,3.136-0.86,3.136v44.922c0,0.638-0.549,0.943-0.81,1.096c-2.526,1.484-4.222,4.224-4.222,7.364
				c0,4.721,3.827,8.548,8.546,8.548c4.721,0,8.548-3.826,8.548-8.548c0-3.152-1.711-5.9-4.251-7.383
				C334.371,209.896,333.843,209.604,333.843,208.966L333.843,208.966z M333.843,208.966"/>
		</g>
		<polygon id="XMLID_176_" class="st4" points="336.913,216.061 331.227,216.061 331.227,151.96 336.913,148.341 		"/>
		<circle id="XMLID_202_" class="st4" cx="334.587" cy="214.252" r="6.979"/>
	</g>
</g>
</svg>
