<?xml version="1.0" encoding="utf-8"?>
<!-- Generator: Adobe Illustrator 19.0.0, SVG Export Plug-In . SVG Version: 6.00 Build 0)  -->
<svg version="1.1" id="Capa_1" xmlns="http://www.w3.org/2000/svg" xmlns:xlink="http://www.w3.org/1999/xlink" x="0px" y="0px"
	 viewBox="0 0 280 280" style="enable-background:new 0 0 280 280;" xml:space="preserve">
<style type="text/css">
	.st0{fill:#FF9811;}
	.st1{fill:#FFFFFF;}
	.st2{fill:none;}
</style>
<circle id="XMLID_106_" class="st0" cx="140" cy="140" r="138.569"/>
<g id="XMLID_1_">
	<path id="XMLID_416_" class="st1" d="M149.789,175.101c-3.343,2.076-7.627,3.221-12.058,3.221c-4.433,0-8.717-1.145-12.06-3.221
		l-54.595-33.887c0,0-4.928-3.058-4.928,3.868v33.841c0,17.827,32.049,37.043,71.58,37.043s71.58-19.216,71.58-37.043v-35.749
		c0-5.56-3.505-2.841-3.505-2.841L149.789,175.101z M149.789,175.101"/>
	<path id="XMLID_415_" class="st1" d="M227.927,115.173c4.194-2.587,4.194-6.821,0-9.409l-83.169-41.82
		c-4.194-2.587-11.058-2.587-15.254,0l-83.167,41.82c-4.194,2.588-4.194,6.821,0,9.409l83.167,51.291
		c4.196,2.587,11.06,2.587,15.254,0"/>
	<rect id="XMLID_414_" x="48.489" y="64.359" class="st2" width="188.319" height="153.636"/>
	<polygon id="XMLID_176_" class="st1" points="228.615,199.158 222.14,199.158 222.14,126.166 228.615,122.046 	"/>
	<circle id="XMLID_202_" class="st1" cx="225.966" cy="197.098" r="7.947"/>
</g>
</svg>
