<?xml version="1.0" encoding="utf-8"?>
<!-- Generator: Adobe Illustrator 19.0.0, SVG Export Plug-In . SVG Version: 6.00 Build 0)  -->
<svg version="1.1" id="Capa_1" xmlns="http://www.w3.org/2000/svg" xmlns:xlink="http://www.w3.org/1999/xlink" x="0px" y="0px"
	 viewBox="0 0 512 404" style="enable-background:new 0 0 512 404;" xml:space="preserve">
<style type="text/css">
	.st0{clip-path:url(#XMLID_2_);fill:#FF9811;}
	.st1{clip-path:url(#XMLID_2_);fill:#F78E11;}
	.st2{clip-path:url(#XMLID_2_);}
	.st3{fill:#5B5B5B;}
	.st4{fill:#FFFFFF;}
	.st5{clip-path:url(#XMLID_3_);}
	.st6{fill:#F3F3F3;}
</style>
<g id="XMLID_843_">
	<defs>
		<rect id="XMLID_345_" width="512" height="404"/>
	</defs>
	<clipPath id="XMLID_2_">
		<use xlink:href="#XMLID_345_"  style="overflow:visible;"/>
	</clipPath>
	<circle id="XMLID_247_" class="st0" cx="256" cy="173.569" r="138.569"/>
	<path id="XMLID_244_" class="st1" d="M257.431,35v277.102c75.869-0.769,137.138-62.5,137.138-138.551S333.3,35.769,257.431,35z"/>
	<g id="XMLID_759_" class="st2">
		<path id="XMLID_760_" class="st3" d="M164.213,333.445h8.066c3.789,0,6.53,0.566,8.223,1.699s2.539,2.923,2.539,5.371
			c0,1.692-0.472,3.089-1.416,4.189s-2.321,1.813-4.131,2.139v0.195c4.336,0.742,6.504,3.021,6.504,6.836
			c0,2.552-0.862,4.544-2.588,5.977S177.272,362,174.174,362h-9.961V333.445z M167.533,345.672h5.469
			c2.344,0,4.03-0.368,5.059-1.104s1.543-1.976,1.543-3.721c0-1.602-0.573-2.757-1.719-3.467s-2.969-1.064-5.469-1.064h-4.883
			V345.672z M167.533,348.484v10.684h5.957c2.305,0,4.04-0.446,5.205-1.338s1.748-2.288,1.748-4.189
			c0-1.771-0.596-3.073-1.787-3.906s-3.005-1.25-5.439-1.25H167.533z"/>
		<path id="XMLID_764_" class="st3" d="M198.685,362.391c-3.164,0-5.661-0.964-7.49-2.891s-2.744-4.603-2.744-8.027
			c0-3.45,0.85-6.191,2.549-8.223s3.981-3.047,6.846-3.047c2.683,0,4.805,0.882,6.367,2.646s2.344,4.092,2.344,6.982v2.051H191.81
			c0.065,2.513,0.7,4.421,1.904,5.723s2.9,1.953,5.088,1.953c2.305,0,4.583-0.481,6.836-1.445v2.891
			c-1.146,0.495-2.229,0.85-3.252,1.064S200.131,362.391,198.685,362.391z M197.807,342.918c-1.719,0-3.089,0.56-4.111,1.68
			s-1.624,2.669-1.807,4.648h11.191c0-2.044-0.456-3.61-1.367-4.697S199.499,342.918,197.807,342.918z"/>
		<path id="XMLID_767_" class="st3" d="M226.732,362v-13.848c0-1.745-0.397-3.047-1.191-3.906s-2.038-1.289-3.73-1.289
			c-2.239,0-3.88,0.605-4.922,1.816s-1.563,3.21-1.563,5.996V362h-3.242v-21.406h2.637l0.527,2.93h0.156
			c0.664-1.055,1.595-1.872,2.793-2.451s2.532-0.869,4.004-0.869c2.578,0,4.519,0.622,5.82,1.865s1.953,3.232,1.953,5.967V362
			H226.732z"/>
		<path id="XMLID_769_" class="st3" d="M245.678,362.391c-3.164,0-5.661-0.964-7.49-2.891s-2.744-4.603-2.744-8.027
			c0-3.45,0.85-6.191,2.549-8.223s3.981-3.047,6.846-3.047c2.683,0,4.805,0.882,6.367,2.646s2.344,4.092,2.344,6.982v2.051h-14.746
			c0.065,2.513,0.7,4.421,1.904,5.723s2.9,1.953,5.088,1.953c2.305,0,4.583-0.481,6.836-1.445v2.891
			c-1.146,0.495-2.229,0.85-3.252,1.064S247.123,362.391,245.678,362.391z M244.799,342.918c-1.719,0-3.089,0.56-4.111,1.68
			s-1.624,2.669-1.807,4.648h11.191c0-2.044-0.456-3.61-1.367-4.697S246.491,342.918,244.799,342.918z"/>
		<path id="XMLID_772_" class="st3" d="M268.725,343.113h-5.449V362h-3.242v-18.887h-3.828v-1.465l3.828-1.172v-1.191
			c0-5.261,2.298-7.891,6.895-7.891c1.133,0,2.461,0.228,3.984,0.684l-0.84,2.598c-1.25-0.403-2.317-0.605-3.203-0.605
			c-1.224,0-2.129,0.407-2.715,1.221s-0.879,2.119-0.879,3.916v1.387h5.449V343.113z M272.357,334.793
			c0-0.742,0.183-1.286,0.547-1.631s0.82-0.518,1.367-0.518c0.521,0,0.97,0.176,1.348,0.527s0.566,0.892,0.566,1.621
			s-0.188,1.272-0.566,1.631s-0.827,0.537-1.348,0.537c-0.547,0-1.003-0.179-1.367-0.537S272.357,335.522,272.357,334.793z
			 M275.873,362h-3.242v-21.406h3.242V362z"/>
		<path id="XMLID_776_" class="st3" d="M291.303,362.391c-3.099,0-5.498-0.954-7.197-2.861s-2.549-4.606-2.549-8.096
			c0-3.581,0.862-6.348,2.588-8.301s4.183-2.93,7.373-2.93c1.028,0,2.058,0.11,3.086,0.332s1.836,0.481,2.422,0.781l-0.996,2.754
			c-0.716-0.286-1.497-0.524-2.344-0.713s-1.595-0.283-2.246-0.283c-4.349,0-6.523,2.773-6.523,8.32c0,2.63,0.53,4.648,1.592,6.055
			s2.634,2.109,4.717,2.109c1.784,0,3.613-0.384,5.488-1.152v2.871C295.28,362.02,293.477,362.391,291.303,362.391z"/>
		<path id="XMLID_778_" class="st3" d="M301.517,334.793c0-0.742,0.183-1.286,0.547-1.631s0.82-0.518,1.367-0.518
			c0.521,0,0.97,0.176,1.348,0.527s0.566,0.892,0.566,1.621s-0.188,1.272-0.566,1.631s-0.827,0.537-1.348,0.537
			c-0.547,0-1.003-0.179-1.367-0.537S301.517,335.522,301.517,334.793z M305.033,362h-3.242v-21.406h3.242V362z"/>
		<path id="XMLID_781_" class="st3" d="M330.385,351.277c0,3.489-0.879,6.214-2.637,8.174s-4.187,2.939-7.285,2.939
			c-1.914,0-3.613-0.449-5.098-1.348s-2.63-2.188-3.438-3.867s-1.211-3.646-1.211-5.898c0-3.489,0.872-6.208,2.617-8.154
			s4.167-2.92,7.266-2.92c2.995,0,5.374,0.996,7.139,2.988S330.385,347.879,330.385,351.277z M314.076,351.277
			c0,2.734,0.547,4.817,1.641,6.25s2.702,2.148,4.824,2.148s3.733-0.713,4.834-2.139s1.65-3.513,1.65-6.26
			c0-2.722-0.55-4.788-1.65-6.201s-2.725-2.119-4.873-2.119c-2.122,0-3.724,0.696-4.805,2.09S314.076,348.517,314.076,351.277z"/>
		<path id="XMLID_784_" class="st3" d="M349.877,356.16c0,1.992-0.742,3.528-2.227,4.609s-3.567,1.621-6.25,1.621
			c-2.839,0-5.052-0.449-6.641-1.348v-3.008c1.028,0.521,2.132,0.931,3.311,1.23s2.314,0.449,3.408,0.449
			c1.692,0,2.995-0.271,3.906-0.811s1.367-1.364,1.367-2.471c0-0.833-0.361-1.546-1.084-2.139s-2.132-1.292-4.229-2.1
			c-1.992-0.742-3.408-1.39-4.248-1.943s-1.465-1.182-1.875-1.885s-0.615-1.543-0.615-2.52c0-1.745,0.71-3.122,2.129-4.131
			s3.366-1.514,5.84-1.514c2.305,0,4.558,0.469,6.758,1.406l-1.152,2.637c-2.148-0.886-4.095-1.328-5.84-1.328
			c-1.536,0-2.695,0.241-3.477,0.723s-1.172,1.146-1.172,1.992c0,0.573,0.146,1.062,0.439,1.465s0.765,0.788,1.416,1.152
			s1.901,0.892,3.75,1.582c2.539,0.925,4.255,1.855,5.146,2.793S349.877,354.741,349.877,356.16z"/>
	</g>
	<g id="XMLID_306_" class="st2">
		<g id="XMLID_152_">
			<rect id="XMLID_156_" x="188.388" y="159.061" class="st4" width="42.132" height="59.249"/>
			<rect id="XMLID_155_" x="234.47" y="143.261" class="st4" width="42.132" height="75.048"/>
			<polygon id="XMLID_154_" class="st4" points="279.894,218.309 322.027,218.309 322.027,128.12 337.826,128.12 300.961,80.721 
				264.095,128.12 279.894,128.12 			"/>
			<polygon id="XMLID_153_" class="st4" points="177.197,221.601 177.197,242.667 256.195,242.667 335.193,242.667 335.193,221.601 
				256.195,221.601 			"/>
		</g>
		<g id="XMLID_174_">
			<defs>
				<rect id="XMLID_157_" x="166.781" y="78.054" width="91.01" height="186.56"/>
			</defs>
			<clipPath id="XMLID_3_">
				<use xlink:href="#XMLID_157_"  style="overflow:visible;"/>
			</clipPath>
			<g id="XMLID_56_" class="st5">
				<rect id="XMLID_57_" x="188.482" y="159.093" class="st6" width="42.132" height="59.249"/>
				<rect id="XMLID_129_" x="234.564" y="143.293" class="st6" width="42.132" height="75.048"/>
				<polygon id="XMLID_130_" class="st6" points="279.988,218.342 322.121,218.342 322.121,128.152 337.92,128.152 301.055,80.753 
					264.189,128.152 279.988,128.152 				"/>
				<polygon id="XMLID_131_" class="st6" points="177.291,221.633 177.291,242.699 256.289,242.699 335.287,242.699 
					335.287,221.633 256.289,221.633 				"/>
			</g>
		</g>
	</g>
</g>
</svg>
