<?xml version="1.0" encoding="utf-8"?>
<!-- Generator: Adobe Illustrator 19.0.0, SVG Export Plug-In . SVG Version: 6.00 Build 0)  -->
<svg version="1.1" id="Capa_1" xmlns="http://www.w3.org/2000/svg" xmlns:xlink="http://www.w3.org/1999/xlink" x="0px" y="0px"
	 viewBox="0 0 280 280" style="enable-background:new 0 0 280 280;" xml:space="preserve">
<style type="text/css">
	.st0{fill:#6BC0DD;}
	.st1{fill:#FFFFFF;}
</style>
<circle id="XMLID_106_" class="st0" cx="140" cy="140" r="138.569"/>
<g id="XMLID_171_">
	<path id="XMLID_178_" class="st1" d="M88,59.752v154.802h48.255c-0.196-1.234-0.3-2.497-0.3-3.786
		c0-13.242,10.735-23.977,23.977-23.977c13.242,0,23.977,10.735,23.977,23.977c0,1.289-0.105,2.552-0.3,3.786h9.555V59.752H88z
		 M99.778,74.055h30.287v5.048H99.778V74.055z M181.386,175.854H99.778v-5.048h81.607V175.854z M181.386,163.234H99.778v-5.048
		h81.607V163.234z M182.227,137.153H100.62v-5.048h81.607V137.153z M182.227,124.534H100.62v-5.048h81.607V124.534z
		 M182.227,106.025H100.62v-5.048h81.607V106.025z M182.227,93.405H100.62v-5.048h81.607V93.405z"/>
	<path id="XMLID_173_" class="st1" d="M159.932,190.997c-10.919,0-19.771,8.852-19.771,19.771c0,5.508,2.255,10.489,5.889,14.074
		V244l14.197-9.259L174.445,244v-19.81c3.262-3.526,5.258-8.24,5.258-13.422C179.703,199.849,170.851,190.997,159.932,190.997z"/>
</g>
</svg>
