<?xml version="1.0" encoding="utf-8"?>
<!-- Generator: Adobe Illustrator 19.0.0, SVG Export Plug-In . SVG Version: 6.00 Build 0)  -->
<svg version="1.1" id="Capa_1" xmlns="http://www.w3.org/2000/svg" xmlns:xlink="http://www.w3.org/1999/xlink" x="0px" y="0px"
	 viewBox="0 0 512 404" style="enable-background:new 0 0 512 404;" xml:space="preserve">
<style type="text/css">
	.st0{clip-path:url(#XMLID_2_);}
	.st1{fill:#6BC0DD;}
	.st2{fill:#6AB9CE;}
	.st3{fill:#5B5B5B;}
	.st4{fill:#FFFFFF;}
	.st5{clip-path:url(#XMLID_3_);}
	.st6{fill:#F3F3F3;}
</style>
<g id="XMLID_346_">
	<defs>
		<rect id="XMLID_838_" width="512" height="404"/>
	</defs>
	<clipPath id="XMLID_2_">
		<use xlink:href="#XMLID_838_"  style="overflow:visible;"/>
	</clipPath>
	<g id="XMLID_115_" class="st0">
		<circle id="XMLID_118_" class="st1" cx="256" cy="173.569" r="138.569"/>
		<path id="XMLID_116_" class="st2" d="M257.431,35v277.102c75.869-0.769,137.138-62.5,137.138-138.551S333.3,35.769,257.431,35z"/>
	</g>
	<g id="XMLID_786_" class="st0">
		<path id="XMLID_787_" class="st3" d="M161.674,336.004c-3.138,0-5.615,1.045-7.432,3.135s-2.725,4.951-2.725,8.584
			c0,3.737,0.876,6.624,2.627,8.662s4.248,3.057,7.49,3.057c1.992,0,4.265-0.358,6.816-1.074v2.91
			c-1.979,0.742-4.421,1.113-7.324,1.113c-4.206,0-7.451-1.276-9.736-3.828s-3.428-6.179-3.428-10.879
			c0-2.942,0.55-5.521,1.65-7.734s2.688-3.919,4.766-5.117s4.521-1.797,7.334-1.797c2.995,0,5.612,0.547,7.852,1.641l-1.406,2.852
			C165.997,336.512,163.835,336.004,161.674,336.004z"/>
		<path id="XMLID_789_" class="st3" d="M183.236,362.391c-3.164,0-5.661-0.964-7.49-2.891s-2.744-4.603-2.744-8.027
			c0-3.45,0.85-6.191,2.549-8.223s3.981-3.047,6.846-3.047c2.683,0,4.805,0.882,6.367,2.646s2.344,4.092,2.344,6.982v2.051h-14.746
			c0.065,2.513,0.7,4.421,1.904,5.723s2.9,1.953,5.088,1.953c2.305,0,4.583-0.481,6.836-1.445v2.891
			c-1.146,0.495-2.229,0.85-3.252,1.064S184.682,362.391,183.236,362.391z M182.357,342.918c-1.719,0-3.089,0.56-4.111,1.68
			s-1.624,2.669-1.807,4.648h11.191c0-2.044-0.456-3.61-1.367-4.697S184.05,342.918,182.357,342.918z"/>
		<path id="XMLID_792_" class="st3" d="M206.4,340.203c0.95,0,1.804,0.078,2.559,0.234l-0.449,3.008
			c-0.886-0.195-1.667-0.293-2.344-0.293c-1.731,0-3.213,0.703-4.443,2.109s-1.846,3.157-1.846,5.254V362h-3.242v-21.406h2.676
			l0.371,3.965h0.156c0.794-1.394,1.751-2.468,2.871-3.223S205.06,340.203,206.4,340.203z"/>
		<path id="XMLID_794_" class="st3" d="M219.877,359.715c0.573,0,1.126-0.042,1.66-0.127s0.957-0.173,1.27-0.264v2.48
			c-0.352,0.169-0.869,0.31-1.553,0.42s-1.299,0.166-1.846,0.166c-4.141,0-6.211-2.181-6.211-6.543v-12.734h-3.066v-1.563
			l3.066-1.348l1.367-4.57h1.875v4.961h6.211v2.52h-6.211v12.598c0,1.289,0.306,2.278,0.918,2.969S218.81,359.715,219.877,359.715z"
			/>
		<path id="XMLID_796_" class="st3" d="M226.811,334.793c0-0.742,0.183-1.286,0.547-1.631s0.82-0.518,1.367-0.518
			c0.521,0,0.97,0.176,1.348,0.527s0.566,0.892,0.566,1.621s-0.188,1.272-0.566,1.631s-0.827,0.537-1.348,0.537
			c-0.547,0-1.003-0.179-1.367-0.537S226.811,335.522,226.811,334.793z M230.326,362h-3.242v-21.406h3.242V362z"/>
		<path id="XMLID_799_" class="st3" d="M246.85,343.113H241.4V362h-3.242v-18.887h-3.828v-1.465l3.828-1.172v-1.191
			c0-5.261,2.298-7.891,6.895-7.891c1.133,0,2.461,0.228,3.984,0.684l-0.84,2.598c-1.25-0.403-2.317-0.605-3.203-0.605
			c-1.224,0-2.129,0.407-2.715,1.221s-0.879,2.119-0.879,3.916v1.387h5.449V343.113z M250.482,334.793
			c0-0.742,0.183-1.286,0.547-1.631s0.82-0.518,1.367-0.518c0.521,0,0.97,0.176,1.348,0.527s0.566,0.892,0.566,1.621
			s-0.188,1.272-0.566,1.631s-0.827,0.537-1.348,0.537c-0.547,0-1.003-0.179-1.367-0.537S250.482,335.522,250.482,334.793z
			 M253.998,362h-3.242v-21.406h3.242V362z"/>
		<path id="XMLID_803_" class="st3" d="M269.428,362.391c-3.099,0-5.498-0.954-7.197-2.861s-2.549-4.606-2.549-8.096
			c0-3.581,0.862-6.348,2.588-8.301s4.183-2.93,7.373-2.93c1.028,0,2.058,0.11,3.086,0.332s1.836,0.481,2.422,0.781l-0.996,2.754
			c-0.716-0.286-1.497-0.524-2.344-0.713s-1.595-0.283-2.246-0.283c-4.349,0-6.523,2.773-6.523,8.32c0,2.63,0.53,4.648,1.592,6.055
			s2.634,2.109,4.717,2.109c1.784,0,3.613-0.384,5.488-1.152v2.871C273.405,362.02,271.603,362.391,269.428,362.391z"/>
		<path id="XMLID_806_" class="st3" d="M293.08,362l-0.645-3.047h-0.156c-1.067,1.341-2.132,2.249-3.193,2.725
			s-2.386,0.713-3.975,0.713c-2.122,0-3.786-0.547-4.99-1.641s-1.807-2.649-1.807-4.668c0-4.323,3.457-6.589,10.371-6.797
			l3.633-0.117v-1.328c0-1.68-0.361-2.92-1.084-3.721s-1.878-1.201-3.467-1.201c-1.784,0-3.802,0.547-6.055,1.641l-0.996-2.48
			c1.055-0.573,2.21-1.022,3.467-1.348s2.517-0.488,3.779-0.488c2.552,0,4.443,0.566,5.674,1.699s1.846,2.949,1.846,5.449V362
			H293.08z M285.756,359.715c2.019,0,3.604-0.554,4.756-1.66s1.729-2.656,1.729-4.648v-1.934l-3.242,0.137
			c-2.578,0.091-4.437,0.491-5.576,1.201s-1.709,1.813-1.709,3.311c0,1.172,0.354,2.063,1.064,2.676
			S284.479,359.715,285.756,359.715z"/>
		<path id="XMLID_809_" class="st3" d="M316.732,359.129h-0.176c-1.497,2.175-3.737,3.262-6.719,3.262
			c-2.8,0-4.978-0.957-6.533-2.871s-2.334-4.636-2.334-8.164s0.781-6.27,2.344-8.223s3.737-2.93,6.523-2.93
			c2.903,0,5.13,1.055,6.68,3.164h0.254l-0.137-1.543l-0.078-1.504v-8.711h3.242V362h-2.637L316.732,359.129z M310.248,359.676
			c2.214,0,3.818-0.603,4.814-1.807s1.494-3.147,1.494-5.83v-0.684c0-3.034-0.505-5.198-1.514-6.494s-2.62-1.943-4.834-1.943
			c-1.901,0-3.356,0.739-4.365,2.217s-1.514,3.564-1.514,6.26c0,2.734,0.501,4.798,1.504,6.191S308.308,359.676,310.248,359.676z"/>
		<path id="XMLID_812_" class="st3" d="M345.15,351.277c0,3.489-0.879,6.214-2.637,8.174s-4.187,2.939-7.285,2.939
			c-1.914,0-3.613-0.449-5.098-1.348s-2.63-2.188-3.438-3.867s-1.211-3.646-1.211-5.898c0-3.489,0.872-6.208,2.617-8.154
			s4.167-2.92,7.266-2.92c2.995,0,5.374,0.996,7.139,2.988S345.15,347.879,345.15,351.277z M328.842,351.277
			c0,2.734,0.547,4.817,1.641,6.25s2.702,2.148,4.824,2.148s3.733-0.713,4.834-2.139s1.65-3.513,1.65-6.26
			c0-2.722-0.55-4.788-1.65-6.201s-2.725-2.119-4.873-2.119c-2.122,0-3.724,0.696-4.805,2.09S328.842,348.517,328.842,351.277z"/>
		<path id="XMLID_815_" class="st3" d="M364.643,356.16c0,1.992-0.742,3.528-2.227,4.609s-3.567,1.621-6.25,1.621
			c-2.839,0-5.052-0.449-6.641-1.348v-3.008c1.028,0.521,2.132,0.931,3.311,1.23s2.314,0.449,3.408,0.449
			c1.692,0,2.995-0.271,3.906-0.811s1.367-1.364,1.367-2.471c0-0.833-0.361-1.546-1.084-2.139s-2.132-1.292-4.229-2.1
			c-1.992-0.742-3.408-1.39-4.248-1.943s-1.465-1.182-1.875-1.885s-0.615-1.543-0.615-2.52c0-1.745,0.71-3.122,2.129-4.131
			s3.366-1.514,5.84-1.514c2.305,0,4.558,0.469,6.758,1.406l-1.152,2.637c-2.148-0.886-4.095-1.328-5.84-1.328
			c-1.536,0-2.695,0.241-3.477,0.723s-1.172,1.146-1.172,1.992c0,0.573,0.146,1.062,0.439,1.465s0.765,0.788,1.416,1.152
			s1.901,0.892,3.75,1.582c2.539,0.925,4.255,1.855,5.146,2.793S364.643,354.741,364.643,356.16z"/>
	</g>
	<g id="XMLID_171_" class="st0">
		<path id="XMLID_178_" class="st4" d="M215.586,109.523v125.362h39.078c-0.159-0.999-0.243-2.022-0.243-3.066
			c0-10.724,8.693-19.417,19.417-19.417s19.417,8.693,19.417,19.417c0,1.044-0.085,2.067-0.243,3.066h7.738V109.523H215.586z
			 M225.124,121.105h24.527v4.088h-24.527V121.105z M291.212,203.544h-66.087v-4.088h66.087V203.544z M291.212,193.324h-66.087
			v-4.088h66.087V193.324z M291.893,172.203h-66.087v-4.088h66.087V172.203z M291.893,161.984h-66.087v-4.088h66.087V161.984z
			 M291.893,146.995h-66.087v-4.088h66.087V146.995z M291.893,136.775h-66.087v-4.088h66.087V136.775z"/>
		<path id="XMLID_173_" class="st4" d="M273.838,215.807c-8.843,0-16.011,7.168-16.011,16.011c0,4.461,1.826,8.494,4.769,11.397
			v15.514l11.497-7.498l11.497,7.498v-16.043c2.642-2.855,4.258-6.673,4.258-10.869
			C289.849,222.976,282.681,215.807,273.838,215.807z"/>
	</g>
	<g id="XMLID_201_" class="st0">
		<defs>
			<path id="XMLID_200_" d="M245.996,262.145h-41.743c-6.6,0-12-5.4-12-12V111.319c0-6.6,5.4-12,12-12h41.743c6.6,0,12,5.4,12,12
				v138.826C257.996,256.745,252.596,262.145,245.996,262.145z"/>
		</defs>
		<clipPath id="XMLID_3_">
			<use xlink:href="#XMLID_200_"  style="overflow:visible;"/>
		</clipPath>
		<g id="XMLID_175_" class="st5">
			<path id="XMLID_184_" class="st6" d="M215.758,109.539V234.9h39.078c-0.159-0.999-0.243-2.022-0.243-3.066
				c0-10.724,8.693-19.417,19.417-19.417s19.417,8.693,19.417,19.417c0,1.044-0.085,2.067-0.243,3.066h7.738V109.539H215.758z
				 M225.297,121.121h24.527v4.088h-24.527V121.121z M291.384,203.56h-66.087v-4.088h66.087V203.56z M291.384,193.34h-66.087v-4.088
				h66.087V193.34z M292.065,172.22h-66.087v-4.088h66.087V172.22z M292.065,162h-66.087v-4.088h66.087V162z M292.065,147.011
				h-66.087v-4.088h66.087V147.011z M292.065,136.791h-66.087v-4.088h66.087V136.791z"/>
			<path id="XMLID_199_" class="st6" d="M274.01,215.824c-8.843,0-16.011,7.168-16.011,16.011c0,4.461,1.826,8.494,4.769,11.397
				v15.514l11.497-7.498l11.497,7.498v-16.043c2.642-2.855,4.258-6.673,4.258-10.869
				C290.021,222.992,282.853,215.824,274.01,215.824z"/>
		</g>
	</g>
</g>
</svg>
