<?xml version="1.0" encoding="utf-8"?>
<!-- Generator: Adobe Illustrator 19.0.0, SVG Export Plug-In . SVG Version: 6.00 Build 0)  -->
<svg version="1.1" id="Capa_1" xmlns="http://www.w3.org/2000/svg" xmlns:xlink="http://www.w3.org/1999/xlink" x="0px" y="0px"
	 viewBox="0 0 35 35" style="enable-background:new 0 0 35 35;" xml:space="preserve">
<style type="text/css">
	.st0{fill:#61BC31;}
	.st1{fill:#5DB22B;}
	.st2{fill:#FFFFFF;}
	.st3{clip-path:url(#XMLID_709_);}
	.st4{fill:#F3F3F3;}
	.st5{fill:#6BC0DD;}
	.st6{fill:#6AB9CE;}
	.st7{clip-path:url(#XMLID_710_);}
	.st8{fill:#FF9811;}
	.st9{fill:#F78E11;}
	.st10{clip-path:url(#XMLID_711_);}
	.st11{fill:#3DB39E;}
	.st12{fill:#3EAD98;}
	.st13{fill:none;}
	.st14{clip-path:url(#XMLID_712_);}
	.st15{clip-path:url(#XMLID_713_);fill:#F3F3F3;}
	.st16{clip-path:url(#XMLID_712_);fill:#FFFFFF;}
	.st17{fill:#B55C04;}
	.st18{fill:#AD5505;}
	.st19{clip-path:url(#XMLID_714_);}
	.st20{fill:#F2C40F;}
	.st21{fill:#E8B513;}
	.st22{clip-path:url(#XMLID_715_);}
	.st23{fill:#EF1136;}
	.st24{fill:#E51340;}
	.st25{clip-path:url(#XMLID_716_);}
	.st26{fill:#5831A3;}
	.st27{fill:#4A3293;}
	.st28{clip-path:url(#XMLID_717_);}
	.st29{fill:#5B5B5B;}
	.st30{fill:#ED54AF;}
	.st31{fill:#DD50AB;}
	.st32{clip-path:url(#XMLID_718_);}
	.st33{fill:#006633;}
	.st34{fill:#03592C;}
	.st35{clip-path:url(#XMLID_719_);}
	.st36{clip-path:url(#XMLID_720_);}
</style>
<g id="XMLID_3_">
	<circle id="XMLID_106_" class="st0" cx="-5712.88" cy="-10.931" r="138.569"/>
	<path id="XMLID_45_" class="st1" d="M-5711.449-149.5v277.102c75.869-0.769,137.138-62.5,137.138-138.551
		S-5635.58-148.731-5711.449-149.5z"/>
</g>
<g id="XMLID_2_">
	<g id="XMLID_8_">
		<path id="XMLID_9_" class="st2" d="M-5667.087-30.177c-10.868,0-19.676,5.562-19.676,12.426v4.305
			c3.645,1.341,7.319,2.662,10.222,4.832c0.625,0.468,1.184,0.946,1.689,1.432c0.702,0.448,1.289,1.076,1.658,1.891
			c1.828,2.543,2.29,5.253,1.808,7.936c1.384,0.198,2.82,0.31,4.299,0.31c10.857,0,19.663-5.56,19.663-12.426v-8.28
			C-5647.424-24.614-5656.23-30.177-5667.087-30.177z"/>
		<path id="XMLID_24_" class="st2" d="M-5667.087,27.979c-1.975,0-3.878-0.187-5.676-0.528v8.293
			c1.798,0.342,3.702,0.529,5.676,0.529c10.857,0,19.663-5.562,19.663-12.426v-8.28
			C-5647.424,22.419-5656.23,27.979-5667.087,27.979z"/>
		<path id="XMLID_25_" class="st2" d="M-5667.087,16.699c-1.975,0-3.878-0.187-5.676-0.528v8.28
			c1.798,0.341,3.702,0.528,5.676,0.528c10.857,0,19.663-5.56,19.663-12.413V4.272C-5647.424,11.139-5656.23,16.699-5667.087,16.699
			z"/>
		<path id="XMLID_26_" class="st2" d="M-5667.087,5.698c-1.697,0-3.337-0.145-4.908-0.401c-0.107,0.747-0.376,1.463-0.769,2.1v6.053
			c1.798,0.341,3.702,0.528,5.676,0.528c10.857,0,19.663-5.56,19.663-12.426v-8.28C-5647.424,0.138-5656.23,5.698-5667.087,5.698z"
			/>
		<path id="XMLID_27_" class="st2" d="M-5685.764-8.058c-3.137-1.338-6.917-2.119-10.985-2.119
			c-10.868,0-19.676,5.562-19.676,12.426v8.28c0,6.867,8.808,12.426,19.676,12.426c4.068,0,7.848-0.781,10.985-2.118
			c0.022-0.009,0.042-0.02,0.063-0.029c0.25-0.107,0.483-0.228,0.724-0.342c1.839-0.871,3.433-1.935,4.692-3.154
			c0.589-0.57,1.107-1.171,1.544-1.801c1.058-1.526,1.655-3.209,1.655-4.982V8.027V5.285V2.25
			C-5677.085-2.043-5680.528-5.825-5685.764-8.058z"/>
		<path id="XMLID_28_" class="st2" d="M-5696.749,47.979c-10.868,0-19.676-5.56-19.676-12.413v8.28
			c0,6.864,8.808,12.426,19.676,12.426c10.858,0,19.664-5.562,19.664-12.426V38.6v-3.034c0,0.961-0.19,1.892-0.518,2.79
			C-5679.611,43.865-5687.413,47.979-5696.749,47.979z"/>
		<path id="XMLID_29_" class="st2" d="M-5678.877,29.435c-1.17,1.615-2.868,3.042-4.959,4.195
			c-3.456,1.906-7.964,3.069-12.912,3.069c-10.868,0-19.676-5.56-19.676-12.426v8.293c0,6.854,8.808,12.413,19.676,12.413
			c7.939,0,14.763-2.978,17.868-7.255c1.142-1.573,1.795-3.316,1.795-5.159v-2.257v-3v-3.036c0,0.962-0.189,1.894-0.517,2.792
			C-5677.901,27.89-5678.332,28.682-5678.877,29.435z"/>
		<path id="XMLID_30_" class="st2" d="M-5678.729,18.239c-1.145,1.656-2.85,3.117-4.956,4.303c-0.442,0.249-0.902,0.485-1.379,0.708
			c-0.233,0.109-0.458,0.227-0.699,0.33c-3.137,1.337-6.917,2.118-10.985,2.118c-10.868,0-19.676-5.56-19.676-12.426v8.28
			c0,6.867,8.808,12.426,19.676,12.426c4.381,0,8.414-0.916,11.683-2.447c1.8-0.843,3.378-1.865,4.632-3.041
			c0.66-0.619,1.227-1.279,1.704-1.97c1.052-1.522,1.645-3.2,1.645-4.968v-2.524v-2.721v-3.035c0,0.961-0.189,1.893-0.516,2.792
			C-5677.875,16.817-5678.249,17.545-5678.729,18.239z"/>
	</g>
	<g id="XMLID_7_">
		<path id="XMLID_20_" class="st2" d="M-5722.879-4.196c-3.255,2.251-7.979,4.294-10.15-0.818c-0.707-0.08-3.962-3.549-4.63-3.781
			c-0.251-0.08-0.515-0.15-0.779-0.192c-1.83-0.324-3.681,0.515-4.944,1.892l-7.635,8.393c4.924,6.287,12.561,10.341,21.165,10.341
			c2.143,0,4.216-0.264,6.207-0.738V-0.787C-5723.646-1.971-5723.368-3.111-5722.879-4.196z"/>
		<path id="XMLID_32_" class="st2" d="M-5718.626-9.059c0.083-0.059,0.167-0.117,0.251-0.174
			C-5718.46-9.175-5718.543-9.117-5718.626-9.059z"/>
		<path id="XMLID_53_" class="st2" d="M-5762.986-73.259V42.699h40.898v-5.522c-0.999-1.487-1.559-3.118-1.559-4.831h-16.612
			c0.031-0.344,0.052-0.688,0.052-1.043c0-6.287-5.096-11.383-11.396-11.383c-0.342,0-0.686,0.021-1.03,0.052v-20.95
			c0.05,0.08,0.107,0.156,0.158,0.235c-2.709-4.193-4.305-9.176-4.305-14.543c0-5.33,1.581-10.284,4.263-14.468
			c-0.038,0.059-0.08,0.114-0.117,0.173v-20.95c0.344,0.031,0.688,0.052,1.03,0.052c6.3,0,11.396-5.107,11.396-11.396
			c0-0.342-0.021-0.686-0.052-1.03h20.808c-0.029,0.344-0.049,0.688-0.049,1.03c0,6.29,5.096,11.396,11.383,11.396
			c0.354,0,0.699-0.021,1.043-0.052v20.95c-4.773-7.573-13.174-12.618-22.779-12.618c-8.601,0-16.236,4.052-21.16,10.335
			l7.704,8.461c1.04,1.141,2.485,1.931,4.032,1.91c0.515-0.01,1.041-0.091,1.538-0.264c1.02-0.352,2.446-3.882,5.813-3.882
			c2.679,0,5.125,1.033,6.957,2.71c0.595-1.677,5.772-3.225,7.542-2.71c0,0,4.173,8.138-0.172,15.902
			c3.537-2.148,8.333-3.475,13.628-3.475c2.557,0,5.003,0.324,7.25,0.88v-60.926H-5762.986z M-5751.603,26.126
			c2.863,0,5.176,2.327,5.176,5.177c0,2.863-2.313,5.177-5.176,5.177c-2.85,0-5.177-2.314-5.177-5.177
			C-5756.779,28.453-5754.452,26.126-5751.603,26.126z M-5751.603-56.699c-2.85,0-5.177-2.314-5.177-5.177
			c0-2.85,2.327-5.176,5.177-5.176c2.863,0,5.176,2.327,5.176,5.176C-5746.426-59.013-5748.74-56.699-5751.603-56.699z
			 M-5708.117-56.699c-2.85,0-5.177-2.314-5.177-5.177c0-2.85,2.327-5.176,5.177-5.176c2.862,0,5.176,2.327,5.176,5.176
			C-5702.94-59.013-5705.254-56.699-5708.117-56.699z"/>
		<path id="XMLID_40_" class="st2" d="M-5722.468-4.99c0.001-0.002,0.003-0.005,0.004-0.007
			C-5722.465-4.995-5722.467-4.992-5722.468-4.99z"/>
		<path id="XMLID_41_" class="st2" d="M-5720.708-7.298c-0.054,0.056-0.108,0.112-0.162,0.168
			C-5720.816-7.186-5720.762-7.242-5720.708-7.298z"/>
	</g>
	<path id="XMLID_6_" class="st2" d="M-5669.087-38.696v-35.234h-6.22v36.083C-5673.366-38.331-5671.272-38.624-5669.087-38.696"/>
	<path id="XMLID_5_" class="st2" d="M-5678.307-37.847v-36.083h-6.207v38.581C-5682.726-36.411-5680.621-37.27-5678.307-37.847"/>
	<path id="XMLID_4_" class="st2" d="M-5687.514-35.35v-38.581h-6.207v47.63C-5693.721-29.878-5691.327-33.085-5687.514-35.35"/>
</g>
<g id="XMLID_60_">
	<defs>
		<rect id="XMLID_59_" x="-5806.453" y="-103.358" width="95" height="173"/>
	</defs>
	<clipPath id="XMLID_709_">
		<use xlink:href="#XMLID_59_"  style="overflow:visible;"/>
	</clipPath>
	<g id="XMLID_15_" class="st3">
		<g id="XMLID_38_">
			<path id="XMLID_49_" class="st4" d="M-5667.091-30.173c-10.868,0-19.676,5.562-19.676,12.426v4.305
				c3.646,1.341,7.32,2.662,10.222,4.832c0.625,0.468,1.184,0.946,1.69,1.432c0.701,0.448,1.288,1.076,1.658,1.891
				c1.828,2.543,2.29,5.253,1.808,7.936c1.384,0.198,2.819,0.31,4.299,0.31c10.858,0,19.663-5.56,19.663-12.426v-8.28
				C-5647.428-24.611-5656.233-30.173-5667.091-30.173z"/>
			<path id="XMLID_48_" class="st4" d="M-5667.091,27.982c-1.974,0-3.878-0.187-5.676-0.528v8.293
				c1.798,0.342,3.702,0.529,5.676,0.529c10.858,0,19.663-5.562,19.663-12.426v-8.28
				C-5647.428,22.422-5656.233,27.982-5667.091,27.982z"/>
			<path id="XMLID_47_" class="st4" d="M-5667.091,16.702c-1.974,0-3.878-0.187-5.676-0.528v8.28
				c1.798,0.341,3.702,0.528,5.676,0.528c10.858,0,19.663-5.56,19.663-12.413V4.276
				C-5647.428,11.142-5656.233,16.702-5667.091,16.702z"/>
			<path id="XMLID_46_" class="st4" d="M-5667.091,5.701c-1.697,0-3.337-0.145-4.907-0.401c-0.107,0.747-0.376,1.463-0.769,2.1
				v6.053c1.798,0.341,3.702,0.528,5.676,0.528c10.858,0,19.663-5.56,19.663-12.426v-8.28
				C-5647.428,0.142-5656.233,5.701-5667.091,5.701z"/>
			<path id="XMLID_44_" class="st4" d="M-5685.767-8.055c-3.137-1.338-6.917-2.119-10.984-2.119
				c-10.868,0-19.676,5.562-19.676,12.426v8.28c0,6.867,8.808,12.426,19.676,12.426c4.068,0,7.848-0.781,10.984-2.118
				c0.022-0.009,0.042-0.02,0.064-0.029c0.25-0.107,0.483-0.228,0.724-0.342c1.839-0.871,3.432-1.935,4.692-3.154
				c0.589-0.57,1.107-1.171,1.544-1.801c1.058-1.526,1.655-3.209,1.655-4.982V8.03V5.288V2.253
				C-5677.088-2.039-5680.532-5.822-5685.767-8.055z"/>
			<path id="XMLID_43_" class="st4" d="M-5696.751,47.982c-10.868,0-19.676-5.56-19.676-12.413v8.28
				c0,6.864,8.808,12.426,19.676,12.426c10.858,0,19.663-5.562,19.663-12.426v-5.246v-3.034c0,0.961-0.19,1.892-0.517,2.79
				C-5679.614,43.868-5687.416,47.982-5696.751,47.982z"/>
			<path id="XMLID_42_" class="st4" d="M-5678.881,29.438c-1.17,1.615-2.867,3.042-4.959,4.195
				c-3.457,1.906-7.965,3.069-12.912,3.069c-10.868,0-19.676-5.56-19.676-12.426v8.293c0,6.854,8.808,12.413,19.676,12.413
				c7.938,0,14.763-2.978,17.868-7.255c1.142-1.573,1.795-3.316,1.795-5.159v-2.257v-3v-3.036c0,0.962-0.189,1.894-0.516,2.792
				C-5677.905,27.893-5678.335,28.685-5678.881,29.438z"/>
			<path id="XMLID_39_" class="st4" d="M-5678.732,18.242c-1.145,1.656-2.851,3.117-4.957,4.303
				c-0.442,0.249-0.902,0.485-1.379,0.708c-0.234,0.109-0.458,0.227-0.7,0.33c-3.137,1.337-6.917,2.118-10.984,2.118
				c-10.868,0-19.676-5.56-19.676-12.426v8.28c0,6.867,8.808,12.426,19.676,12.426c4.381,0,8.414-0.916,11.683-2.447
				c1.8-0.843,3.377-1.865,4.632-3.041c0.66-0.619,1.226-1.279,1.704-1.97c1.052-1.522,1.644-3.2,1.644-4.968v-2.524V16.31v-3.035
				c0,0.961-0.189,1.893-0.516,2.792C-5677.878,16.82-5678.252,17.548-5678.732,18.242z"/>
		</g>
		<g id="XMLID_19_">
			<path id="XMLID_37_" class="st4" d="M-5722.882-4.192c-3.256,2.251-7.979,4.294-10.15-0.818c-0.707-0.08-3.963-3.549-4.63-3.781
				c-0.251-0.08-0.515-0.15-0.779-0.192c-1.83-0.324-3.681,0.515-4.943,1.892l-7.636,8.393c4.924,6.287,12.561,10.341,21.165,10.341
				c2.143,0,4.216-0.264,6.207-0.738V-0.784C-5723.65-1.967-5723.371-3.108-5722.882-4.192z"/>
			<path id="XMLID_36_" class="st4" d="M-5718.629-9.055c0.083-0.059,0.166-0.117,0.25-0.174
				C-5718.463-9.172-5718.546-9.114-5718.629-9.055z"/>
			<path id="XMLID_23_" class="st4" d="M-5762.989-73.255V42.702h40.898v-5.522c-0.999-1.487-1.559-3.118-1.559-4.831h-16.611
				c0.031-0.344,0.052-0.688,0.052-1.043c0-6.287-5.096-11.383-11.396-11.383c-0.341,0-0.686,0.021-1.03,0.052v-20.95
				c0.05,0.08,0.107,0.156,0.158,0.235c-2.709-4.193-4.305-9.176-4.305-14.543c0-5.33,1.58-10.284,4.263-14.468
				c-0.038,0.059-0.08,0.114-0.117,0.173v-20.95c0.344,0.031,0.688,0.052,1.03,0.052c6.3,0,11.396-5.107,11.396-11.396
				c0-0.342-0.021-0.686-0.052-1.03h20.807c-0.028,0.344-0.049,0.688-0.049,1.03c0,6.29,5.097,11.396,11.383,11.396
				c0.354,0,0.699-0.021,1.043-0.052v20.95c-4.772-7.573-13.174-12.618-22.779-12.618c-8.601,0-16.236,4.052-21.16,10.335
				l7.704,8.461c1.041,1.141,2.485,1.931,4.033,1.91c0.515-0.01,1.041-0.091,1.537-0.264c1.02-0.352,2.446-3.882,5.813-3.882
				c2.679,0,5.125,1.033,6.958,2.71c0.595-1.677,5.772-3.225,7.542-2.71c0,0,4.173,8.138-0.172,15.902
				c3.537-2.148,8.333-3.475,13.628-3.475c2.557,0,5.003,0.324,7.25,0.88v-60.926H-5762.989z M-5751.606,26.129
				c2.863,0,5.177,2.327,5.177,5.177c0,2.863-2.314,5.177-5.177,5.177c-2.85,0-5.176-2.314-5.176-5.177
				C-5756.782,28.456-5754.456,26.129-5751.606,26.129z M-5751.606-56.696c-2.85,0-5.176-2.314-5.176-5.177
				c0-2.85,2.327-5.176,5.176-5.176c2.863,0,5.177,2.327,5.177,5.176C-5746.429-59.01-5748.743-56.696-5751.606-56.696z
				 M-5708.12-56.696c-2.85,0-5.176-2.314-5.176-5.177c0-2.85,2.327-5.176,5.176-5.176c2.863,0,5.177,2.327,5.177,5.176
				C-5702.943-59.01-5705.257-56.696-5708.12-56.696z"/>
			<path id="XMLID_22_" class="st4" d="M-5722.471-4.987c0.001-0.002,0.002-0.005,0.004-0.007
				C-5722.468-4.991-5722.47-4.989-5722.471-4.987z"/>
			<path id="XMLID_21_" class="st4" d="M-5720.71-7.294c-0.055,0.056-0.109,0.112-0.162,0.168
				C-5720.819-7.183-5720.765-7.238-5720.71-7.294z"/>
		</g>
		<path id="XMLID_18_" class="st4" d="M-5669.091-38.693v-35.234h-6.22v36.083C-5673.369-38.328-5671.275-38.621-5669.091-38.693"/>
		<path id="XMLID_17_" class="st4" d="M-5678.311-37.844v-36.083h-6.207v38.581C-5682.729-36.408-5680.624-37.267-5678.311-37.844"
			/>
		<path id="XMLID_16_" class="st4" d="M-5687.517-35.346v-38.581h-6.207v47.63C-5693.724-29.875-5691.33-33.082-5687.517-35.346"/>
	</g>
</g>
<text id="XMLID_804_" transform="matrix(1 0 0 1 -5768.6221 177.5002)" class="st29" style="font-family:'OpenSans'; font-size:40px;">Pagos</text>
<g id="XMLID_115_">
	<circle id="XMLID_118_" class="st5" cx="-5158.88" cy="-10.931" r="138.569"/>
	<path id="XMLID_116_" class="st6" d="M-5157.449-149.5v277.102c75.869-0.769,137.138-62.5,137.138-138.551
		S-5081.58-148.731-5157.449-149.5z"/>
</g>
<text id="XMLID_61_" transform="matrix(1 0 0 1 -5269.3584 177.5002)" class="st29" style="font-family:'OpenSans'; font-size:40px;">Certificados</text>
<g id="XMLID_171_">
	<path id="XMLID_178_" class="st2" d="M-5199.294-74.977V50.384h39.078c-0.158-0.999-0.243-2.022-0.243-3.066
		c0-10.724,8.693-19.417,19.417-19.417s19.417,8.693,19.417,19.417c0,1.044-0.084,2.067-0.243,3.066h7.738V-74.977H-5199.294z
		 M-5189.756-63.395h24.527v4.088h-24.527V-63.395z M-5123.668,19.044h-66.087v-4.088h66.087V19.044z M-5123.668,8.824h-66.087
		V4.736h66.087V8.824z M-5122.987-12.297h-66.087v-4.088h66.087V-12.297z M-5122.987-22.516h-66.087v-4.088h66.087V-22.516z
		 M-5122.987-37.505h-66.087v-4.088h66.087V-37.505z M-5122.987-47.725h-66.087v-4.088h66.087V-47.725z"/>
	<path id="XMLID_173_" class="st2" d="M-5141.042,31.307c-8.843,0-16.011,7.168-16.011,16.011c0,4.461,1.826,8.494,4.769,11.397
		V74.23l11.497-7.498l11.498,7.498V58.187c2.642-2.855,4.258-6.673,4.258-10.869C-5125.031,38.476-5132.199,31.307-5141.042,31.307z
		"/>
</g>
<g id="XMLID_201_">
	<defs>
		<path id="XMLID_200_" d="M-5168.884,77.645h-41.743c-6.6,0-12-5.4-12-12V-73.181c0-6.6,5.4-12,12-12h41.743c6.6,0,12,5.4,12,12
			V65.645C-5156.884,72.245-5162.285,77.645-5168.884,77.645z"/>
	</defs>
	<clipPath id="XMLID_710_">
		<use xlink:href="#XMLID_200_"  style="overflow:visible;"/>
	</clipPath>
	<g id="XMLID_175_" class="st7">
		<path id="XMLID_184_" class="st4" d="M-5199.122-74.961V50.4h39.078c-0.158-0.999-0.243-2.022-0.243-3.066
			c0-10.724,8.693-19.417,19.417-19.417s19.417,8.693,19.417,19.417c0,1.044-0.084,2.067-0.243,3.066h7.738V-74.961H-5199.122z
			 M-5189.583-63.379h24.527v4.088h-24.527V-63.379z M-5123.496,19.06h-66.087v-4.088h66.087V19.06z M-5123.496,8.84h-66.087V4.752
			h66.087V8.84z M-5122.815-12.28h-66.087v-4.088h66.087V-12.28z M-5122.815-22.5h-66.087v-4.088h66.087V-22.5z M-5122.815-37.489
			h-66.087v-4.088h66.087V-37.489z M-5122.815-47.709h-66.087v-4.088h66.087V-47.709z"/>
		<path id="XMLID_199_" class="st4" d="M-5140.87,31.324c-8.843,0-16.011,7.168-16.011,16.011c0,4.461,1.826,8.494,4.769,11.397
			v15.514l11.497-7.498l11.497,7.498V58.204c2.642-2.855,4.258-6.673,4.258-10.869C-5124.859,38.492-5132.027,31.324-5140.87,31.324
			z"/>
	</g>
</g>
<circle id="XMLID_247_" class="st8" cx="-4583.449" cy="-10.931" r="138.569"/>
<path id="XMLID_244_" class="st9" d="M-4582.019-149.5v277.102c75.87-0.769,137.139-62.5,137.139-138.551
	S-4506.149-148.731-4582.019-149.5z"/>
<text id="XMLID_242_" transform="matrix(1 0 0 1 -4679.1621 177.5002)" class="st29" style="font-family:'OpenSans'; font-size:40px;">Beneficios</text>
<g id="XMLID_306_">
	<g id="XMLID_152_">
		<rect id="XMLID_156_" x="-4651.061" y="-25.439" class="st2" width="42.132" height="59.249"/>
		<rect id="XMLID_155_" x="-4604.979" y="-41.239" class="st2" width="42.132" height="75.048"/>
		<polygon id="XMLID_154_" class="st2" points="-4559.555,33.809 -4517.423,33.809 -4517.423,-56.38 -4501.623,-56.38 
			-4538.489,-103.779 -4575.354,-56.38 -4559.555,-56.38 		"/>
		<polygon id="XMLID_153_" class="st2" points="-4662.252,37.101 -4662.252,58.167 -4583.254,58.167 -4504.256,58.167 
			-4504.256,37.101 -4583.254,37.101 		"/>
	</g>
	<g id="XMLID_174_">
		<defs>
			<rect id="XMLID_157_" x="-4672.668" y="-106.446" width="91.01" height="186.56"/>
		</defs>
		<clipPath id="XMLID_711_">
			<use xlink:href="#XMLID_157_"  style="overflow:visible;"/>
		</clipPath>
		<g id="XMLID_56_" class="st10">
			<rect id="XMLID_57_" x="-4650.967" y="-25.407" class="st4" width="42.132" height="59.249"/>
			<rect id="XMLID_129_" x="-4604.885" y="-41.207" class="st4" width="42.132" height="75.048"/>
			<polygon id="XMLID_130_" class="st4" points="-4559.461,33.841 -4517.329,33.841 -4517.329,-56.348 -4501.529,-56.348 
				-4538.395,-103.747 -4575.261,-56.348 -4559.461,-56.348 			"/>
			<polygon id="XMLID_131_" class="st4" points="-4662.159,37.133 -4662.159,58.199 -4583.161,58.199 -4504.162,58.199 
				-4504.162,37.133 -4583.161,37.133 			"/>
		</g>
	</g>
</g>
<circle id="XMLID_323_" class="st11" cx="-4011.311" cy="-10.931" r="138.569"/>
<path id="XMLID_322_" class="st12" d="M-4009.88-149.5v277.102c75.869-0.769,137.138-62.5,137.138-138.551
	S-3934.011-148.731-4009.88-149.5z"/>
<text id="XMLID_321_" transform="matrix(1 0 0 1 -4065.676 177.5002)" class="st29" style="font-family:'OpenSans'; font-size:40px;">Becas</text>
<g id="XMLID_203_">
	<path id="XMLID_416_" class="st2" d="M-3999.622,10.434c-2.936,1.823-6.698,2.828-10.589,2.828c-3.893,0-7.656-1.006-10.591-2.828
		l-47.945-29.76c0,0-4.327-2.686-4.327,3.397V13.79c0,15.655,28.146,32.531,62.862,32.531c34.716,0,62.862-16.876,62.862-32.531
		v-31.395c0-4.883-3.078-2.495-3.078-2.495L-3999.622,10.434z M-3999.622,10.434"/>
	<path id="XMLID_415_" class="st2" d="M-3931.001-42.194c3.683-2.272,3.683-5.99,0-8.263l-73.039-36.727
		c-3.683-2.272-9.711-2.272-13.396,0l-73.037,36.727c-3.683,2.273-3.683,5.99,0,8.263l73.037,45.044
		c3.685,2.272,9.713,2.272,13.396,0"/>
	<rect id="XMLID_414_" x="-4088.583" y="-86.819" class="st13" width="165.382" height="134.923"/>
	<g id="XMLID_170_">
		<defs>
			<rect id="XMLID_411_" x="-4112.88" y="-92.5" width="102.873" height="188.163"/>
		</defs>
		<clipPath id="XMLID_712_">
			<use xlink:href="#XMLID_411_"  style="overflow:visible;"/>
		</clipPath>
		<g id="XMLID_392_" class="st14">
			<defs>
				<rect id="XMLID_393_" x="-4092.681" y="-88.364" width="165.382" height="134.923"/>
			</defs>
			<clipPath id="XMLID_713_">
				<use xlink:href="#XMLID_393_"  style="overflow:visible;"/>
			</clipPath>
			<path id="XMLID_395_" class="st15" d="M-3999.592,10.863c-2.936,1.801-6.698,2.795-10.589,2.795
				c-3.893,0-7.656-0.994-10.591-2.795l-47.945-29.403c0,0-4.327-2.654-4.327,3.356v29.363c0,15.468,28.146,32.142,62.862,32.142
				s62.862-16.674,62.862-32.142V-16.84c0-4.824-3.078-2.465-3.078-2.465L-3999.592,10.863z M-3999.592,10.863"/>
			<path id="XMLID_394_" class="st15" d="M-3930.447-41.93c3.683-2.26,3.683-5.957,0-8.217l-73.039-36.523
				c-3.683-2.26-9.711-2.26-13.396,0l-73.037,36.523c-3.683,2.26-3.683,5.957,0,8.217l73.037,44.795c3.685,2.26,9.713,2.26,13.396,0
				"/>
		</g>
		<path id="XMLID_389_" class="st16" d="M-3933.468,24.466v-49.472c0,0,0.035-2.344-1.357-1.569
			c-1.115,0.62-3.849,2.145-4.812,2.983c-1.113,0.965-0.86,3.136-0.86,3.136v44.922c0,0.638-0.549,0.943-0.81,1.096
			c-2.526,1.484-4.222,4.224-4.222,7.364c0,4.721,3.827,8.548,8.546,8.548c4.721,0,8.548-3.826,8.548-8.548
			c0-3.152-1.711-5.9-4.251-7.383C-3932.94,25.396-3933.468,25.103-3933.468,24.466L-3933.468,24.466z M-3933.468,24.466"/>
	</g>
	<polygon id="XMLID_176_" class="st2" points="-3930.398,31.561 -3936.084,31.561 -3936.084,-32.54 -3930.398,-36.159 	"/>
	<circle id="XMLID_202_" class="st2" cx="-3932.724" cy="29.752" r="6.979"/>
</g>
<circle id="XMLID_430_" class="st17" cx="-3407.311" cy="-10.931" r="138.569"/>
<path id="XMLID_429_" class="st18" d="M-3405.88-149.5v277.102c75.869-0.769,137.138-62.5,137.138-138.551
	S-3330.011-148.731-3405.88-149.5z"/>
<text id="XMLID_428_" transform="matrix(1 0 0 1 -3496.3538 177.5002)" class="st29" style="font-family:'OpenSans'; font-size:40px;">Subsidios</text>
<g id="XMLID_121_">
	<g id="XMLID_491_">
		<path id="XMLID_412_" class="st2" d="M-3384.792-58.349c0,7.367-5.989,13.356-13.356,13.356c-7.374,0-13.329-5.989-13.329-13.356
			c0-7.347,5.955-13.329,13.329-13.329C-3390.781-71.678-3384.792-65.696-3384.792-58.349L-3384.792-58.349z M-3384.792-58.349"/>
		<path id="XMLID_223_" class="st2" d="M-3406.853-78.296c0,5.52-4.47,9.963-9.983,9.963c-5.514,0-9.983-4.443-9.983-9.963
			c0-5.514,4.47-9.983,9.983-9.983C-3411.323-88.279-3406.853-83.809-3406.853-78.296L-3406.853-78.296z M-3406.853-78.296"/>
		<path id="XMLID_220_" class="st2" d="M-3372.065-72.622c0,3.841-3.111,6.979-6.979,6.979c-3.841,0-6.952-3.138-6.952-6.979
			c0-3.841,3.112-6.952,6.952-6.952C-3375.176-79.574-3372.065-76.462-3372.065-72.622L-3372.065-72.622z M-3372.065-72.622"/>
		<path id="XMLID_218_" class="st2" d="M-3323.681-25.979c-1.332-3.058-4.182-5.065-7.448-5.279
			c-2.121-0.154-4.209,0.395-6.089,1.285c-1.051-0.836-2.248-1.546-3.633-1.987c-3.245-1.07-10.352-0.134-13.49,3.185
			c-6.531-8.913-16.26-16.099-27.809-20.749c-2.141,3.5-5.386,6.216-9.281,7.682c0.756,0.629,1.177,1.07,1.231,1.124
			c0.964,1.124,0.836,2.824-0.261,3.794c-0.522,0.442-1.124,0.649-1.753,0.649c-0.756,0-1.492-0.314-2.041-0.91
			c-0.127-0.161-4.282-4.55-15.183-4.55c-10.873,0-15.029,4.389-15.216,4.57c-0.99,1.078-2.663,1.178-3.76,0.214
			c-1.097-0.997-1.204-2.643-0.261-3.74c0.234-0.261,5.092-5.514,16.675-6.243c-2.041-2.302-3.526-5.099-4.236-8.183
			c-7.608,0.368-14.895,1.726-21.613,3.975c-6.51-8.444-23.707-16.206-32.62-18.093c0,18.455,8.103,22.583,7.789,32.546
			c-6.798,6.323-11.763,13.904-14.299,22.268l-9.622-1.412c-2.897-0.421-4.804,1.593-4.229,4.47l3.841,19.184
			c0.575,2.904,3.446,5.253,6.403,5.253h4.309c3.399,9.488,10.017,17.852,18.796,24.363V66.26c14.587,0,26.424,0.421,26.424-11.027
			v-5.701c6.042,1.412,12.392,2.228,19.03,2.228c8.598,0,16.809-1.365,24.363-3.714v7.16c0,11.475,11.837,11.054,26.424,11.054
			V33.018c10.037-9.388,16.126-21.512,16.126-34.788c0-8.939-2.771-17.33-7.608-24.731c1.807-2.77,8.418-3.787,11.034-2.924
			c0.729,0.234,1.412,0.575,1.987,0.964c-2.382,1.807-4.108,4.209-4.523,6.457c-0.314,1.566-0.395,5.44,5.226,7.24
			c0.703,0.208,1.385,0.341,2.014,0.341c2.034,0,3.58-1.151,4.262-3.239c0.883-2.723,0.02-6.979-2.509-10.251
			c1.278-0.495,2.61-0.756,3.941-0.676c2.697,0.181,4.423,2.007,5.152,3.68c0.81,1.887,0.602,3.821-0.549,5.233
			c-0.468,0.575-0.395,1.412,0.181,1.88c0.549,0.468,1.412,0.395,1.88-0.181C-3322.844-20.151-3322.476-23.209-3323.681-25.979
			L-3323.681-25.979z M-3453.089-13.172c-2.823,0-5.119-2.268-5.119-5.119c0-2.824,2.295-5.125,5.119-5.125
			c2.851,0,5.153,2.302,5.153,5.125C-3447.937-15.44-3450.239-13.172-3453.089-13.172L-3453.089-13.172z M-3335.257-18.498
			c-0.261,0.81-0.863,1.827-2.931,1.171c-2.61-0.863-3.76-2.248-3.426-4.209c0.341-1.747,1.887-3.707,3.975-5.119
			C-3335.39-24.018-3334.634-20.412-3335.257-18.498L-3335.257-18.498z M-3335.257-18.498"/>
	</g>
	<g id="XMLID_495_">
		<defs>
			<rect id="XMLID_494_" x="-3495.192" y="-106.5" width="89.08" height="180.185"/>
		</defs>
		<clipPath id="XMLID_714_">
			<use xlink:href="#XMLID_494_"  style="overflow:visible;"/>
		</clipPath>
		<g id="XMLID_493_" class="st19">
			<path id="XMLID_475_" class="st4" d="M-3384.792-58.363c0,7.367-5.989,13.356-13.356,13.356c-7.374,0-13.329-5.989-13.329-13.356
				c0-7.347,5.955-13.329,13.329-13.329C-3390.781-71.692-3384.792-65.709-3384.792-58.363L-3384.792-58.363z M-3384.792-58.363"/>
			<path id="XMLID_472_" class="st4" d="M-3406.853-78.296c0,5.52-4.47,9.963-9.983,9.963c-5.514,0-9.983-4.443-9.983-9.963
				c0-5.514,4.47-9.983,9.983-9.983C-3411.323-88.279-3406.853-83.809-3406.853-78.296L-3406.853-78.296z M-3406.853-78.296"/>
			<path id="XMLID_469_" class="st4" d="M-3372.065-72.622c0,3.841-3.111,6.979-6.979,6.979c-3.841,0-6.952-3.138-6.952-6.979
				c0-3.841,3.112-6.952,6.952-6.952C-3375.176-79.574-3372.065-76.462-3372.065-72.622L-3372.065-72.622z M-3372.065-72.622"/>
			<path id="XMLID_464_" class="st4" d="M-3323.681-25.955c-1.332-3.058-4.182-5.065-7.448-5.279
				c-2.121-0.154-4.209,0.395-6.089,1.285c-1.051-0.836-2.248-1.546-3.633-1.987c-3.245-1.07-10.352-0.134-13.49,3.185
				c-6.531-8.913-16.26-16.099-27.809-20.749c-2.141,3.5-5.386,6.216-9.281,7.682c0.756,0.629,1.177,1.07,1.231,1.124
				c0.964,1.124,0.836,2.824-0.261,3.794c-0.522,0.442-1.124,0.649-1.753,0.649c-0.756,0-1.492-0.314-2.041-0.91
				c-0.127-0.161-4.282-4.55-15.183-4.55c-10.873,0-15.029,4.389-15.216,4.57c-0.99,1.078-2.663,1.178-3.76,0.214
				c-1.097-0.997-1.204-2.643-0.261-3.74c0.234-0.261,5.092-5.514,16.675-6.243c-2.041-2.302-3.526-5.099-4.236-8.183
				c-7.608,0.368-14.895,1.726-21.613,3.975c-6.51-8.444-23.707-16.206-32.62-18.093c0,18.455,8.103,22.583,7.789,32.546
				c-6.798,6.323-11.763,13.904-14.299,22.268l-9.622-1.412c-2.897-0.421-4.804,1.593-4.229,4.47l3.841,19.184
				c0.575,2.904,3.446,5.253,6.403,5.253h4.309c3.399,9.488,10.017,17.852,18.796,24.363v28.826
				c14.587,0,26.424,0.421,26.424-11.027v-5.701c6.042,1.412,12.392,2.228,19.03,2.228c8.598,0,16.809-1.365,24.363-3.714v7.16
				c0,11.475,11.837,11.054,26.424,11.054V33.041c10.037-9.388,16.126-21.512,16.126-34.788c0-8.939-2.771-17.33-7.608-24.731
				c1.807-2.77,8.418-3.787,11.034-2.924c0.729,0.234,1.412,0.575,1.987,0.964c-2.382,1.807-4.108,4.209-4.523,6.457
				c-0.314,1.566-0.395,5.44,5.226,7.24c0.703,0.208,1.385,0.341,2.014,0.341c2.034,0,3.58-1.151,4.262-3.239
				c0.883-2.723,0.02-6.979-2.509-10.251c1.278-0.495,2.61-0.756,3.941-0.676c2.697,0.181,4.423,2.007,5.152,3.68
				c0.81,1.887,0.602,3.821-0.549,5.233c-0.468,0.575-0.395,1.412,0.181,1.88c0.549,0.468,1.412,0.395,1.88-0.181
				C-3322.844-20.128-3322.476-23.186-3323.681-25.955L-3323.681-25.955z M-3453.089-13.149c-2.823,0-5.119-2.268-5.119-5.119
				c0-2.824,2.295-5.125,5.119-5.125c2.851,0,5.153,2.302,5.153,5.125C-3447.937-15.417-3450.239-13.149-3453.089-13.149
				L-3453.089-13.149z M-3335.257-18.475c-0.261,0.81-0.863,1.827-2.931,1.171c-2.61-0.863-3.76-2.248-3.426-4.209
				c0.341-1.747,1.887-3.707,3.975-5.119C-3335.39-23.995-3334.634-20.388-3335.257-18.475L-3335.257-18.475z M-3335.257-18.475"/>
		</g>
	</g>
</g>
<circle id="XMLID_236_" class="st20" cx="-2844.311" cy="-10.931" r="138.569"/>
<path id="XMLID_235_" class="st21" d="M-2842.88-149.5v277.102c75.869-0.769,137.138-62.5,137.138-138.551
	S-2767.011-148.731-2842.88-149.5z"/>
<text id="XMLID_234_" transform="matrix(1 0 0 1 -2914.6526 177.5002)" class="st29" style="font-family:'OpenSans'; font-size:40px;">Empleo</text>
<g id="XMLID_180_">
	<path id="XMLID_278_" class="st2" d="M-2811.202,30.21l-1.817-1.817c-9.009,5.336-19.381,8.214-30.018,8.214
		c-13.361,0-26.08-4.428-36.414-12.606c-2.802,1.93-5.678,4.089-8.48,6.397c-2.233,1.817-3.521,4.58-3.521,7.458v13.665h97.096
		v-4.505l-14.271-14.271L-2811.202,30.21z M-2811.202,30.21"/>
	<path id="XMLID_271_" class="st2" d="M-2840.727-53.259h-4.316c-9.918,0-17.98,8.062-17.98,17.98v19.949
		c0,3.142,1.589,5.869,4.012,7.495V9.199c4.883,2.499,10.334,3.861,16.012,3.861c5.754,0,11.28-1.362,16.2-3.937v-16.92
		c2.423-1.628,4.013-4.355,4.013-7.495V-35.24C-2822.746-45.234-2830.81-53.259-2840.727-53.259L-2840.727-53.259z
		 M-2840.727-53.259"/>
	<path id="XMLID_268_" class="st2" d="M-2753.438,16.922c-10.371-8.517-21.538-14.156-23.808-15.293
		c-0.266-0.113-0.418-0.379-0.418-0.68v-16.127c2.044-1.362,3.369-3.671,3.369-6.285v-16.731c0-8.327-6.737-15.066-15.066-15.066
		h-3.482c5.299,8.593,8.366,18.435,8.744,28.694c0.453,11.432-2.423,22.636-8.177,32.327l26.952,26.952h14.838V23.243
		C-2750.485,20.783-2751.582,18.475-2753.438,16.922L-2753.438,16.922z M-2753.438,16.922"/>
	<path id="XMLID_233_" class="st2" d="M-2763.43,47.205l-29.791-29.791l-2.575-2.573l-0.871-0.871l-0.756-0.758l-2.007,2.007
		l-4.314-4.316c17.108-20.176,16.162-50.459-2.915-69.538c-10.032-10.031-23.206-15.066-36.34-15.066
		c-13.136,0-26.309,5.035-36.34,15.066c-20.061,20.061-20.061,52.616,0,72.679c10.031,10.031,23.204,15.066,36.34,15.066
		c11.811,0,23.62-4.051,33.198-12.151l4.314,4.314l-2.005,2.007l1.628,1.626l2.573,2.575l29.791,29.791
		c1.401,1.401,3.218,2.081,5.034,2.081c1.817,0,3.634-0.68,5.035-2.081C-2760.667,54.511-2760.667,50.007-2763.43,47.205
		C-2763.43,47.244-2763.43,47.205-2763.43,47.205L-2763.43,47.205z M-2812.715,8.026c-8.366,8.365-19.345,12.53-30.283,12.53
		c-10.977,0-21.917-4.164-30.283-12.53c-16.731-16.731-16.731-43.835,0-60.566c8.366-8.366,19.343-12.53,30.283-12.53
		c10.977,0,21.917,4.164,30.283,12.53C-2795.985-35.846-2795.985-8.705-2812.715,8.026L-2812.715,8.026z M-2812.715,8.026"/>
	<path id="XMLID_183_" class="st2" d="M-2893.079-53.259h-3.294c-8.328,0-15.066,6.739-15.066,15.066v16.731
		c0,2.614,1.325,4.922,3.369,6.285V0.949c0,0.301-0.151,0.529-0.417,0.68c-2.27,1.098-13.438,6.776-23.81,15.293
		c-1.854,1.552-2.952,3.861-2.952,6.284v11.469h36.795c0.756-3.898,2.8-7.419,5.903-9.955c2.499-2.044,5.035-3.974,7.534-5.754
		C-2904.359-0.719-2907.046-30.698-2893.079-53.259L-2893.079-53.259z M-2893.079-53.259"/>
</g>
<g id="XMLID_282_">
	<defs>
		<rect id="XMLID_281_" x="-2935.276" y="-86.428" width="92.741" height="158.512"/>
	</defs>
	<clipPath id="XMLID_715_">
		<use xlink:href="#XMLID_281_"  style="overflow:visible;"/>
	</clipPath>
	<g id="XMLID_124_" class="st22">
		<path id="XMLID_142_" class="st4" d="M-2811.239,30.21l-1.817-1.817c-9.009,5.336-19.382,8.214-30.019,8.214
			c-13.361,0-26.08-4.428-36.414-12.606c-2.802,1.93-5.678,4.089-8.48,6.397c-2.233,1.817-3.521,4.58-3.521,7.458v13.665h97.096
			v-4.505l-14.271-14.271L-2811.239,30.21z M-2811.239,30.21"/>
		<path id="XMLID_139_" class="st4" d="M-2840.764-53.259h-4.316c-9.918,0-17.98,8.062-17.98,17.98v19.949
			c0,3.142,1.589,5.869,4.012,7.495V9.199c4.883,2.499,10.334,3.861,16.012,3.861c5.754,0,11.28-1.362,16.2-3.937v-16.92
			c2.423-1.628,4.013-4.355,4.013-7.495V-35.24C-2822.784-45.234-2830.848-53.259-2840.764-53.259L-2840.764-53.259z
			 M-2840.764-53.259"/>
		<path id="XMLID_135_" class="st4" d="M-2753.476,16.922c-10.371-8.517-21.538-14.156-23.808-15.293
			c-0.266-0.113-0.418-0.379-0.418-0.68v-16.127c2.044-1.362,3.369-3.671,3.369-6.285v-16.731c0-8.327-6.737-15.066-15.066-15.066
			h-3.482c5.299,8.593,8.366,18.435,8.744,28.694c0.453,11.432-2.423,22.636-8.177,32.327l26.952,26.952h14.838V23.243
			C-2750.522,20.783-2751.62,18.475-2753.476,16.922L-2753.476,16.922z M-2753.476,16.922"/>
		<path id="XMLID_128_" class="st4" d="M-2763.468,47.205l-29.791-29.791l-2.574-2.573l-0.871-0.871l-0.756-0.758l-2.007,2.007
			l-4.314-4.316c17.108-20.176,16.162-50.459-2.915-69.538c-10.032-10.031-23.206-15.066-36.34-15.066
			c-13.136,0-26.309,5.035-36.34,15.066c-20.062,20.061-20.062,52.616,0,72.679c10.031,10.031,23.204,15.066,36.34,15.066
			c11.811,0,23.62-4.051,33.198-12.151l4.314,4.314l-2.005,2.007l1.628,1.626l2.573,2.575l29.791,29.791
			c1.401,1.401,3.218,2.081,5.035,2.081c1.817,0,3.634-0.68,5.035-2.081C-2760.704,54.511-2760.704,50.007-2763.468,47.205
			C-2763.468,47.244-2763.468,47.205-2763.468,47.205L-2763.468,47.205z M-2812.753,8.026c-8.366,8.365-19.345,12.53-30.283,12.53
			c-10.977,0-21.917-4.164-30.283-12.53c-16.731-16.731-16.731-43.835,0-60.566c8.366-8.366,19.343-12.53,30.283-12.53
			c10.977,0,21.917,4.164,30.283,12.53C-2796.022-35.846-2796.022-8.705-2812.753,8.026L-2812.753,8.026z M-2812.753,8.026"/>
		<path id="XMLID_125_" class="st4" d="M-2893.116-53.259h-3.294c-8.328,0-15.066,6.739-15.066,15.066v16.731
			c0,2.614,1.325,4.922,3.37,6.285V0.949c0,0.301-0.152,0.529-0.417,0.68c-2.27,1.098-13.438,6.776-23.81,15.293
			c-1.854,1.552-2.952,3.861-2.952,6.284v11.469h36.795c0.756-3.898,2.8-7.419,5.903-9.955c2.499-2.044,5.035-3.974,7.534-5.754
			C-2904.397-0.719-2907.084-30.698-2893.116-53.259L-2893.116-53.259z M-2893.116-53.259"/>
	</g>
</g>
<circle id="XMLID_342_" class="st23" cx="-2293.915" cy="-10.931" r="138.569"/>
<path id="XMLID_339_" class="st24" d="M-2292.485-149.5v277.102c75.87-0.769,137.139-62.5,137.139-138.551
	S-2216.615-148.731-2292.485-149.5z"/>
<text id="XMLID_338_" transform="matrix(1 0 0 1 -2407.4507 177.5002)" class="st29" style="font-family:'OpenSans'; font-size:40px;">Información</text>
<g id="XMLID_204_">
	<path id="XMLID_205_" class="st2" d="M-2291.172-79.068c-37.121,0-67.221,30.1-67.221,67.221c0,37.128,30.1,67.257,67.221,67.257
		c37.128,0,67.257-30.128,67.257-67.257C-2223.915-48.968-2254.044-79.068-2291.172-79.068L-2291.172-79.068z M-2277.164,25.147
		c-3.472,1.359-6.225,2.39-8.281,3.109c-2.056,0.726-4.447,1.088-7.171,1.088c-4.197,0-7.47-1.031-9.782-3.087
		c-2.333-2.028-3.471-4.638-3.471-7.783c0-1.224,0.085-2.469,0.249-3.749c0.171-1.28,0.448-2.696,0.832-4.311l4.34-15.31
		c0.384-1.473,0.718-2.86,0.968-4.14c0.256-1.337,0.391-2.526,0.391-3.614c0-1.942-0.413-3.308-1.224-4.083
		c-0.804-0.775-2.333-1.138-4.61-1.138c-1.11,0-2.277,0.164-3.45,0.498c-1.167,0.363-2.163,0.697-2.995,1.003l1.138-4.695
		c2.831-1.167,5.556-2.141,8.139-2.973c2.589-0.84,5.03-1.252,7.342-1.252c4.162,0,7.363,1.025,9.611,3.031
		c2.248,1.999,3.394,4.61,3.394,7.833c0,0.669-0.085,1.835-0.228,3.5c-0.163,1.7-0.441,3.223-0.861,4.617l-4.304,15.253
		c-0.363,1.224-0.669,2.639-0.975,4.197c-0.278,1.558-0.413,2.753-0.413,3.557c0,2.028,0.47,3.422,1.359,4.14
		c0.918,0.754,2.476,1.11,4.724,1.11c1.053,0,2.227-0.192,3.557-0.555c1.309-0.356,2.276-0.69,2.888-0.967L-2277.164,25.147z
		 M-2277.911-36.767c-2.028,1.857-4.446,2.803-7.285,2.803c-2.803,0-5.25-0.946-7.278-2.803c-1.999-1.864-3.031-4.14-3.031-6.808
		c0-2.646,1.032-4.923,3.031-6.815c2.028-1.857,4.475-2.803,7.278-2.803c2.839,0,5.257,0.946,7.285,2.803
		c1.999,1.892,3.002,4.169,3.002,6.815C-2274.909-40.908-2275.912-38.631-2277.911-36.767L-2277.911-36.767z M-2277.911-36.767"/>
</g>
<g id="XMLID_327_">
	<defs>
		<rect id="XMLID_326_" x="-2409.614" y="-95.469" width="114.251" height="194.99"/>
	</defs>
	<clipPath id="XMLID_716_">
		<use xlink:href="#XMLID_326_"  style="overflow:visible;"/>
	</clipPath>
	<g id="XMLID_303_" class="st25">
		<path id="XMLID_304_" class="st4" d="M-2291.172-79.068c-37.121,0-67.221,30.1-67.221,67.221c0,37.128,30.1,67.257,67.221,67.257
			c37.128,0,67.257-30.128,67.257-67.257C-2223.915-48.968-2254.044-79.068-2291.172-79.068L-2291.172-79.068z M-2277.164,25.147
			c-3.472,1.359-6.225,2.39-8.281,3.109c-2.056,0.726-4.447,1.088-7.171,1.088c-4.197,0-7.47-1.031-9.782-3.087
			c-2.333-2.028-3.471-4.638-3.471-7.783c0-1.224,0.085-2.469,0.249-3.749c0.171-1.28,0.448-2.696,0.832-4.311l4.34-15.31
			c0.384-1.473,0.718-2.86,0.968-4.14c0.256-1.337,0.391-2.526,0.391-3.614c0-1.942-0.413-3.308-1.224-4.083
			c-0.804-0.775-2.333-1.138-4.61-1.138c-1.11,0-2.277,0.164-3.45,0.498c-1.167,0.363-2.163,0.697-2.995,1.003l1.138-4.695
			c2.831-1.167,5.556-2.141,8.139-2.973c2.589-0.84,5.03-1.252,7.342-1.252c4.162,0,7.363,1.025,9.611,3.031
			c2.248,1.999,3.394,4.61,3.394,7.833c0,0.669-0.085,1.835-0.228,3.5c-0.163,1.7-0.441,3.223-0.861,4.617l-4.304,15.253
			c-0.363,1.224-0.669,2.639-0.975,4.197c-0.278,1.558-0.413,2.753-0.413,3.557c0,2.028,0.47,3.422,1.359,4.14
			c0.918,0.754,2.476,1.11,4.724,1.11c1.053,0,2.227-0.192,3.557-0.555c1.309-0.356,2.276-0.69,2.888-0.967L-2277.164,25.147z
			 M-2277.911-36.767c-2.028,1.857-4.446,2.803-7.285,2.803c-2.803,0-5.25-0.946-7.278-2.803c-1.999-1.864-3.031-4.14-3.031-6.808
			c0-2.646,1.032-4.923,3.031-6.815c2.028-1.857,4.475-2.803,7.278-2.803c2.839,0,5.257,0.946,7.285,2.803
			c1.999,1.892,3.002,4.169,3.002,6.815C-2274.909-40.908-2275.912-38.631-2277.911-36.767L-2277.911-36.767z M-2277.911-36.767"/>
	</g>
</g>
<circle id="XMLID_403_" class="st26" cx="-1714.857" cy="-10.931" r="138.569"/>
<path id="XMLID_400_" class="st27" d="M-1713.427-149.5v277.102c75.87-0.769,137.139-62.5,137.139-138.551
	S-1637.557-148.731-1713.427-149.5z"/>
<text id="XMLID_399_" transform="matrix(1 0 0 1 -1816.6545 177.5002)" class="st29" style="font-family:'OpenSans'; font-size:40px;">Programas</text>
<g id="XMLID_580_">
	<rect id="XMLID_614_" x="-1713.589" y="-7.929" class="st2" width="5.648" height="50.905"/>
	<path id="XMLID_611_" class="st2" d="M-1661.87-72.131l4.005,3.991l-42.415,42.415l-4.005-3.991L-1661.87-72.131z M-1661.87-72.131
		"/>
	<path id="XMLID_608_" class="st2" d="M-1718.424-15.578l4.005,4.005l-56.554,56.54l-4.005-3.991L-1718.424-15.578z
		 M-1718.424-15.578"/>
	<path id="XMLID_605_" class="st2" d="M-1751.186-63.652l31.108,31.108l-4.005,4.001l-31.094-31.105L-1751.186-63.652z
		 M-1751.186-63.652"/>
	<path id="XMLID_602_" class="st2" d="M-1703.112-15.578l42.416,42.415l-4.001,3.991l-42.415-42.415L-1703.112-15.578z
		 M-1703.112-15.578"/>
	<path id="XMLID_599_" class="st2" d="M-1640.083-72.959c0,7.815-6.323,14.138-14.138,14.138c-7.801,0-14.139-6.323-14.139-14.138
		c0-7.815,6.338-14.138,14.139-14.138C-1646.406-87.097-1640.083-80.774-1640.083-72.959L-1640.083-72.959z M-1640.083-72.959"/>
	<path id="XMLID_596_" class="st2" d="M-1696.637,48.625c0,7.815-6.324,14.138-14.139,14.138c-7.801,0-14.139-6.323-14.139-14.138
		c0-7.801,6.338-14.138,14.139-14.138C-1702.96,34.487-1696.637,40.824-1696.637,48.625L-1696.637,48.625z M-1696.637,48.625"/>
	<path id="XMLID_593_" class="st2" d="M-1761.667,42.98c0,7.801-6.323,14.139-14.139,14.139c-7.815,0-14.138-6.338-14.138-14.139
		c0-7.815,6.323-14.138,14.138-14.138C-1767.99,28.842-1761.667,35.165-1761.667,42.98L-1761.667,42.98z M-1761.667,42.98"/>
	<path id="XMLID_590_" class="st2" d="M-1747.528-64.483c0,4.698-3.796,8.494-8.476,8.494c-4.698,0-8.494-3.796-8.494-8.494
		c0-4.68,3.796-8.476,8.494-8.476C-1751.324-72.959-1747.528-69.162-1747.528-64.483L-1747.528-64.483z M-1747.528-64.483"/>
	<path id="XMLID_586_" class="st2" d="M-1657.035,26.011c0,4.68-3.8,8.476-8.494,8.476c-4.68,0-8.476-3.796-8.476-8.476
		c0-4.68,3.796-8.476,8.476-8.476C-1660.835,17.535-1657.035,21.331-1657.035,26.011L-1657.035,26.011z M-1657.035,26.011"/>
	<path id="XMLID_582_" class="st2" d="M-1690.974-19.236c0,10.936-8.865,19.801-19.801,19.801c-10.919,0-19.783-8.865-19.783-19.801
		c0-10.936,8.865-19.783,19.783-19.783C-1699.839-39.019-1690.974-30.172-1690.974-19.236L-1690.974-19.236z M-1690.974-19.236"/>
</g>
<g id="XMLID_642_">
	<defs>
		<rect id="XMLID_641_" x="-1830.583" y="-104.249" width="116.994" height="237.888"/>
	</defs>
	<clipPath id="XMLID_717_">
		<use xlink:href="#XMLID_641_"  style="overflow:visible;"/>
	</clipPath>
	<g id="XMLID_514_" class="st28">
		<rect id="XMLID_512_" x="-1712.995" y="-7.929" class="st4" width="5.648" height="50.905"/>
		<path id="XMLID_587_" class="st4" d="M-1661.276-72.131l4.005,3.991l-42.415,42.415l-4.005-3.991L-1661.276-72.131z
			 M-1661.276-72.131"/>
		<path id="XMLID_584_" class="st4" d="M-1717.83-15.578l4.005,4.005l-56.554,56.54l-4.005-3.991L-1717.83-15.578z M-1717.83-15.578
			"/>
		<path id="XMLID_581_" class="st4" d="M-1750.593-63.652l31.108,31.108l-4.005,4.001l-31.094-31.105L-1750.593-63.652z
			 M-1750.593-63.652"/>
		<path id="XMLID_578_" class="st4" d="M-1702.518-15.578l42.416,42.415l-4.001,3.991l-42.415-42.415L-1702.518-15.578z
			 M-1702.518-15.578"/>
		<path id="XMLID_575_" class="st4" d="M-1639.489-72.959c0,7.815-6.323,14.138-14.138,14.138c-7.801,0-14.139-6.323-14.139-14.138
			c0-7.815,6.338-14.138,14.139-14.138C-1645.812-87.097-1639.489-80.774-1639.489-72.959L-1639.489-72.959z M-1639.489-72.959"/>
		<path id="XMLID_572_" class="st4" d="M-1696.043,48.625c0,7.815-6.324,14.138-14.139,14.138c-7.801,0-14.139-6.323-14.139-14.138
			c0-7.801,6.338-14.138,14.139-14.138C-1702.366,34.487-1696.043,40.824-1696.043,48.625L-1696.043,48.625z M-1696.043,48.625"/>
		<path id="XMLID_569_" class="st4" d="M-1761.073,42.98c0,7.801-6.323,14.139-14.139,14.139c-7.815,0-14.138-6.338-14.138-14.139
			c0-7.815,6.323-14.138,14.138-14.138C-1767.396,28.842-1761.073,35.165-1761.073,42.98L-1761.073,42.98z M-1761.073,42.98"/>
		<path id="XMLID_566_" class="st4" d="M-1746.934-64.483c0,4.698-3.796,8.494-8.476,8.494c-4.698,0-8.494-3.796-8.494-8.494
			c0-4.68,3.796-8.476,8.494-8.476C-1750.73-72.959-1746.934-69.162-1746.934-64.483L-1746.934-64.483z M-1746.934-64.483"/>
		<path id="XMLID_518_" class="st4" d="M-1656.441,26.011c0,4.68-3.8,8.476-8.494,8.476c-4.68,0-8.476-3.796-8.476-8.476
			c0-4.68,3.796-8.476,8.476-8.476C-1660.241,17.535-1656.441,21.331-1656.441,26.011L-1656.441,26.011z M-1656.441,26.011"/>
		<path id="XMLID_515_" class="st4" d="M-1690.38-19.236c0,10.936-8.865,19.801-19.801,19.801c-10.919,0-19.783-8.865-19.783-19.801
			c0-10.936,8.865-19.783,19.783-19.783C-1699.245-39.019-1690.38-30.172-1690.38-19.236L-1690.38-19.236z M-1690.38-19.236"/>
	</g>
</g>
<g id="XMLID_312_">
	<path id="XMLID_313_" class="st29" d="M-712.958,151.504c-3.138,0-5.615,1.045-7.432,3.135s-2.725,4.951-2.725,8.584
		c0,3.737,0.876,6.624,2.627,8.662c1.752,2.038,4.248,3.057,7.49,3.057c1.992,0,4.265-0.358,6.816-1.074v2.91
		c-1.979,0.742-4.42,1.113-7.324,1.113c-4.205,0-7.451-1.276-9.736-3.828s-3.428-6.179-3.428-10.879c0-2.942,0.551-5.521,1.65-7.734
		c1.101-2.214,2.689-3.919,4.766-5.117c2.077-1.198,4.521-1.797,7.334-1.797c2.995,0,5.612,0.547,7.852,1.641l-1.406,2.852
		C-708.635,152.012-710.796,151.504-712.958,151.504z"/>
	<path id="XMLID_315_" class="st29" d="M-697.392,156.094v13.887c0,1.745,0.397,3.047,1.191,3.906
		c0.795,0.859,2.038,1.289,3.73,1.289c2.24,0,3.877-0.612,4.912-1.836s1.553-3.223,1.553-5.996v-11.25h3.242V177.5h-2.676
		l-0.469-2.871h-0.176c-0.664,1.055-1.585,1.862-2.764,2.422c-1.178,0.56-2.522,0.84-4.033,0.84c-2.604,0-4.554-0.618-5.85-1.855
		c-1.295-1.237-1.943-3.216-1.943-5.938v-14.004H-697.392z"/>
	<path id="XMLID_478_" class="st29" d="M-666.122,155.703c0.951,0,1.804,0.078,2.559,0.234l-0.449,3.008
		c-0.885-0.195-1.666-0.293-2.344-0.293c-1.731,0-3.213,0.703-4.443,2.109s-1.846,3.157-1.846,5.254V177.5h-3.242v-21.406h2.676
		l0.371,3.965h0.156c0.795-1.394,1.752-2.468,2.871-3.223C-668.694,156.081-667.463,155.703-666.122,155.703z"/>
	<path id="XMLID_480_" class="st29" d="M-645.751,171.66c0,1.992-0.742,3.528-2.227,4.609s-3.567,1.621-6.25,1.621
		c-2.838,0-5.052-0.449-6.641-1.348v-3.008c1.029,0.521,2.133,0.931,3.311,1.23c1.179,0.3,2.314,0.449,3.408,0.449
		c1.693,0,2.995-0.271,3.906-0.811c0.912-0.54,1.367-1.364,1.367-2.471c0-0.833-0.361-1.546-1.084-2.139s-2.132-1.292-4.229-2.1
		c-1.992-0.742-3.408-1.39-4.248-1.943s-1.465-1.182-1.875-1.885s-0.615-1.543-0.615-2.52c0-1.745,0.71-3.122,2.129-4.131
		c1.42-1.009,3.366-1.514,5.84-1.514c2.305,0,4.558,0.469,6.758,1.406l-1.152,2.637c-2.148-0.886-4.095-1.328-5.84-1.328
		c-1.536,0-2.695,0.241-3.477,0.723s-1.172,1.146-1.172,1.992c0,0.573,0.146,1.062,0.439,1.465s0.766,0.788,1.416,1.152
		c0.651,0.364,1.901,0.892,3.75,1.582c2.539,0.925,4.255,1.855,5.146,2.793C-646.197,169.063-645.751,170.241-645.751,171.66z"/>
	<path id="XMLID_482_" class="st29" d="M-622.001,166.777c0,3.489-0.879,6.214-2.637,8.174s-4.186,2.939-7.285,2.939
		c-1.914,0-3.613-0.449-5.098-1.348s-2.63-2.188-3.438-3.867c-0.807-1.68-1.211-3.646-1.211-5.898c0-3.489,0.873-6.208,2.617-8.154
		c1.745-1.946,4.167-2.92,7.266-2.92c2.995,0,5.375,0.996,7.139,2.988C-622.883,160.684-622.001,163.379-622.001,166.777z
		 M-638.31,166.777c0,2.734,0.547,4.817,1.641,6.25s2.702,2.148,4.824,2.148c2.123,0,3.734-0.713,4.834-2.139
		c1.101-1.426,1.65-3.513,1.65-6.26c0-2.722-0.55-4.788-1.65-6.201c-1.1-1.413-2.725-2.119-4.873-2.119
		c-2.122,0-3.724,0.696-4.805,2.09C-637.769,161.94-638.31,164.017-638.31,166.777z"/>
	<path id="XMLID_485_" class="st29" d="M-602.509,171.66c0,1.992-0.742,3.528-2.227,4.609s-3.567,1.621-6.25,1.621
		c-2.838,0-5.052-0.449-6.641-1.348v-3.008c1.029,0.521,2.133,0.931,3.311,1.23c1.179,0.3,2.314,0.449,3.408,0.449
		c1.693,0,2.995-0.271,3.906-0.811c0.912-0.54,1.367-1.364,1.367-2.471c0-0.833-0.361-1.546-1.084-2.139s-2.132-1.292-4.229-2.1
		c-1.992-0.742-3.408-1.39-4.248-1.943s-1.465-1.182-1.875-1.885s-0.615-1.543-0.615-2.52c0-1.745,0.71-3.122,2.129-4.131
		c1.42-1.009,3.366-1.514,5.84-1.514c2.305,0,4.558,0.469,6.758,1.406l-1.152,2.637c-2.148-0.886-4.095-1.328-5.84-1.328
		c-1.536,0-2.695,0.241-3.477,0.723s-1.172,1.146-1.172,1.992c0,0.573,0.146,1.062,0.439,1.465s0.766,0.788,1.416,1.152
		c0.651,0.364,1.901,0.892,3.75,1.582c2.539,0.925,4.255,1.855,5.146,2.793C-602.954,169.063-602.509,170.241-602.509,171.66z"/>
	<path id="XMLID_488_" class="st29" d="M-590.243,156.094h3.477l4.688,12.207c1.029,2.786,1.667,4.798,1.914,6.035h0.156
		c0.17-0.664,0.524-1.8,1.064-3.408c0.541-1.608,2.309-6.553,5.303-14.834h3.477l-9.199,24.375
		c-0.911,2.409-1.976,4.118-3.193,5.127c-1.217,1.009-2.711,1.514-4.482,1.514c-0.989,0-1.966-0.11-2.93-0.332v-2.598
		c0.717,0.156,1.518,0.234,2.402,0.234c2.227,0,3.815-1.25,4.766-3.75l1.191-3.047L-590.243,156.094z"/>
	<path id="XMLID_520_" class="st29" d="M-547.021,177.5h-3.32v-25.605h-9.043v-2.949h21.406v2.949h-9.043V177.5z"/>
	<path id="XMLID_524_" class="st29" d="M-521.005,177.5l-0.645-3.047h-0.156c-1.067,1.341-2.132,2.249-3.193,2.725
		c-1.061,0.476-2.386,0.713-3.975,0.713c-2.122,0-3.785-0.547-4.99-1.641c-1.204-1.094-1.807-2.649-1.807-4.668
		c0-4.323,3.457-6.589,10.371-6.797l3.633-0.117v-1.328c0-1.68-0.361-2.92-1.084-3.721s-1.878-1.201-3.467-1.201
		c-1.783,0-3.802,0.547-6.055,1.641l-0.996-2.48c1.055-0.573,2.211-1.022,3.467-1.348c1.257-0.325,2.517-0.488,3.779-0.488
		c2.553,0,4.443,0.566,5.674,1.699s1.846,2.949,1.846,5.449V177.5H-521.005z M-528.329,175.215c2.019,0,3.604-0.554,4.756-1.66
		s1.729-2.656,1.729-4.648v-1.934l-3.242,0.137c-2.578,0.091-4.437,0.491-5.576,1.201c-1.139,0.71-1.709,1.813-1.709,3.311
		c0,1.172,0.355,2.063,1.064,2.676C-530.598,174.909-529.605,175.215-528.329,175.215z"/>
	<path id="XMLID_530_" class="st29" d="M-508.681,177.5h-3.242v-30.391h3.242V177.5z"/>
	<path id="XMLID_532_" class="st29" d="M-498.564,177.5h-3.242v-30.391h3.242V177.5z"/>
	<path id="XMLID_534_" class="st29" d="M-482.646,177.891c-3.164,0-5.66-0.964-7.49-2.891c-1.829-1.927-2.744-4.603-2.744-8.027
		c0-3.45,0.85-6.191,2.549-8.223s3.981-3.047,6.846-3.047c2.683,0,4.805,0.882,6.367,2.646s2.344,4.092,2.344,6.982v2.051h-14.746
		c0.065,2.513,0.7,4.421,1.904,5.723c1.205,1.302,2.9,1.953,5.088,1.953c2.305,0,4.584-0.481,6.836-1.445v2.891
		c-1.146,0.495-2.229,0.85-3.252,1.064C-479.966,177.783-481.2,177.891-482.646,177.891z M-483.525,158.418
		c-1.719,0-3.089,0.56-4.111,1.68c-1.021,1.12-1.624,2.669-1.807,4.648h11.191c0-2.044-0.455-3.61-1.367-4.697
		C-480.53,158.962-481.831,158.418-483.525,158.418z"/>
	<path id="XMLID_537_" class="st29" d="M-459.482,155.703c0.951,0,1.804,0.078,2.559,0.234l-0.449,3.008
		c-0.885-0.195-1.666-0.293-2.344-0.293c-1.731,0-3.213,0.703-4.443,2.109s-1.846,3.157-1.846,5.254V177.5h-3.242v-21.406h2.676
		l0.371,3.965h0.156c0.795-1.394,1.752-2.468,2.871-3.223C-462.053,156.081-460.822,155.703-459.482,155.703z"/>
	<path id="XMLID_561_" class="st29" d="M-443.876,177.891c-3.164,0-5.66-0.964-7.49-2.891c-1.829-1.927-2.744-4.603-2.744-8.027
		c0-3.45,0.85-6.191,2.549-8.223s3.981-3.047,6.846-3.047c2.683,0,4.805,0.882,6.367,2.646s2.344,4.092,2.344,6.982v2.051h-14.746
		c0.065,2.513,0.7,4.421,1.904,5.723c1.205,1.302,2.9,1.953,5.088,1.953c2.305,0,4.584-0.481,6.836-1.445v2.891
		c-1.146,0.495-2.229,0.85-3.252,1.064C-441.197,177.783-442.431,177.891-443.876,177.891z M-444.755,158.418
		c-1.719,0-3.089,0.56-4.111,1.68c-1.021,1.12-1.624,2.669-1.807,4.648h11.191c0-2.044-0.455-3.61-1.367-4.697
		C-441.76,158.962-443.062,158.418-444.755,158.418z"/>
	<path id="XMLID_564_" class="st29" d="M-416.669,171.66c0,1.992-0.742,3.528-2.227,4.609s-3.567,1.621-6.25,1.621
		c-2.838,0-5.052-0.449-6.641-1.348v-3.008c1.029,0.521,2.133,0.931,3.311,1.23c1.179,0.3,2.314,0.449,3.408,0.449
		c1.693,0,2.995-0.271,3.906-0.811c0.912-0.54,1.367-1.364,1.367-2.471c0-0.833-0.361-1.546-1.084-2.139s-2.132-1.292-4.229-2.1
		c-1.992-0.742-3.408-1.39-4.248-1.943s-1.465-1.182-1.875-1.885s-0.615-1.543-0.615-2.52c0-1.745,0.71-3.122,2.129-4.131
		c1.42-1.009,3.366-1.514,5.84-1.514c2.305,0,4.558,0.469,6.758,1.406l-1.152,2.637c-2.148-0.886-4.095-1.328-5.84-1.328
		c-1.536,0-2.695,0.241-3.477,0.723s-1.172,1.146-1.172,1.992c0,0.573,0.146,1.062,0.439,1.465s0.766,0.788,1.416,1.152
		c0.651,0.364,1.901,0.892,3.75,1.582c2.539,0.925,4.255,1.855,5.146,2.793C-417.114,169.063-416.669,170.241-416.669,171.66z"/>
</g>
<g id="XMLID_212_">
	<circle id="XMLID_83_" class="st30" cx="-571.955" cy="-10.853" r="138.569"/>
	<path id="XMLID_82_" class="st31" d="M-570.54-149.5v277.102c75.869-0.769,137.138-62.5,137.138-138.551
		S-494.67-148.731-570.54-149.5z"/>
	<g id="XMLID_351_">
		<path id="XMLID_387_" class="st2" d="M-570.458-21.417l-5.163-3.625v13.576c0,1.101-0.9,2.002-2.007,2.002h-53.145
			c-1.101,0-2.006-0.9-2.006-2.002v-47.633c0-1.107,0.904-2.006,2.006-2.006h53.145c1.107,0,2.007,0.899,2.007,2.006v27.928
			l6.013,4.225v-32.153c0-4.428-3.598-8.026-8.02-8.026h-53.145c-4.422,0-8.02,3.598-8.02,8.026v47.627
			c0,4.422,3.598,8.02,8.02,8.02h21.324l-17.763,41.995c-0.741,1.745,0.077,3.752,1.816,4.488c0.435,0.186,0.888,0.272,1.336,0.272
			c1.336,0,2.606-0.784,3.156-2.088l15.409-36.412l15.404,36.412c0.736,1.739,2.747,2.557,4.492,1.816
			c1.739-0.736,2.553-2.748,1.816-4.488l-17.763-41.995h23.919c4.422,0,8.02-3.598,8.02-8.02v-5.223
			C-570.42-18.096-570.753-19.758-570.458-21.417L-570.458-21.417z M-570.458-21.417"/>
		<path id="XMLID_384_" class="st2" d="M-513.54-53.87c0,7.846-6.357,14.21-14.203,14.21c-7.846,0-14.21-6.364-14.21-14.21
			s6.364-14.204,14.21-14.204C-519.897-68.074-513.54-61.716-513.54-53.87L-513.54-53.87z M-513.54-53.87"/>
		<path id="XMLID_377_" class="st2" d="M-518.294-36.204c-0.24-0.147-0.49-0.255-0.747-0.359c-1.581-1.052-3.353-1.833-5.163-2.274
			l-3.538,3.559l-3.435-3.604c-0.011,0.006-0.022,0.006-0.034,0.006c-1.854,0.448-3.67,1.244-5.283,2.328
			c-0.523,0.223-1.025,0.508-1.478,0.906c-1.531,1.353-2.933,2.649-4.285,3.904c-8.353,7.758-11.368,10.043-19.045,6.45
			c-2.302-1.075-4.957-0.426-6.527,1.417l-23.68-16.613l-1.15,1.641l23.821,16.711c-0.938,2.645,0.268,5.622,2.863,6.838
			c4.045,1.886,7.606,2.683,10.812,2.683c4.994,0,9.127-1.93,12.879-4.619V4.864c0,1.484,0.289,2.868,0.79,4.144
			c-0.038,0.283-0.06,0.572-0.06,0.867v52.818c0,3.598,2.923,6.51,6.521,6.51s6.516-2.912,6.516-6.516l-0.006-45.321
			c0.262,0.011,0.518,0.033,0.78,0.033c0.049,0,0.098-0.006,0.152-0.006l-0.006,45.293c0,3.604,2.917,6.516,6.516,6.516h0.006
			c3.598,0,6.516-2.912,6.516-6.516v-52.49c0.856-1.581,1.353-3.37,1.353-5.333v-17.72c1.287,4.668,1.805,10.9,1.133,19.476
			c-0.24,3.037,2.034,5.692,5.071,5.932c0.147,0.011,0.289,0.017,0.436,0.017c2.848,0,5.262-2.197,5.491-5.088
			C-498.905-20.299-508.066-29.933-518.294-36.204L-518.294-36.204z M-527.711-7.164h-0.071l-3.424-4.689l3.424-22.896h0.071
			l3.424,22.896L-527.711-7.164z M-527.711-7.164"/>
		<rect id="XMLID_357_" x="-595.261" y="-56.056" class="st2" width="17.705" height="1.831"/>
		<rect id="XMLID_356_" x="-589.842" y="-53.003" class="st2" width="12.285" height="1.831"/>
		<rect id="XMLID_355_" x="-593.81" y="-50.026" class="st2" width="16.255" height="1.831"/>
		<path id="XMLID_367_" class="st2" d="M-611.309-27.415l2.585-2.235h6.047v-15.977h-11.309v-2.137h3.234
			c2.12,0,3.839-1.717,3.839-3.839c0-2.12-1.718-3.844-3.839-3.844h-7.683c-2.122,0-3.839,1.724-3.839,3.844
			c0,2.122,1.717,3.839,3.839,3.839h3.233v5.497h-7.786v4.781h7.786v4.379h-2.677l-3.287,2.846l3.287,2.846h2.677v6.211h-2.649
			c-1.713,0-3.103,1.385-3.103,3.102c0,1.713,1.39,3.103,3.103,3.103h6.516c1.711,0,3.103-1.39,3.103-3.103
			c0-1.717-1.392-3.102-3.103-3.102h-2.645v-6.211H-611.309z M-613.92-37.485h8.943v-4.781h-8.943v-2.138h10.022v13.534h-4.825
			l-2.579-2.236h-2.617V-37.485z M-613.92-37.485"/>
	</g>
	<g id="XMLID_439_">
		<defs>
			<rect id="XMLID_10_" x="-686.529" y="-112.519" width="115.977" height="233.752"/>
		</defs>
		<clipPath id="XMLID_718_">
			<use xlink:href="#XMLID_10_"  style="overflow:visible;"/>
		</clipPath>
		<g id="XMLID_407_" class="st32">
			<path id="XMLID_436_" class="st4" d="M-570.464-21.406l-5.163-3.625v13.576c0,1.101-0.9,2.002-2.007,2.002h-53.145
				c-1.101,0-2.006-0.9-2.006-2.002v-47.633c0-1.107,0.905-2.006,2.006-2.006h53.145c1.107,0,2.007,0.899,2.007,2.006v27.928
				l6.013,4.225v-32.153c0-4.428-3.599-8.026-8.021-8.026h-53.145c-4.422,0-8.02,3.598-8.02,8.026v47.627
				c0,4.422,3.599,8.02,8.02,8.02h21.324l-17.763,41.995c-0.741,1.745,0.077,3.752,1.816,4.488c0.435,0.186,0.888,0.272,1.336,0.272
				c1.336,0,2.606-0.784,3.156-2.088l15.409-36.412l15.404,36.412c0.736,1.739,2.747,2.557,4.492,1.816
				c1.739-0.736,2.553-2.748,1.816-4.488L-601.553-3.44h23.919c4.422,0,8.021-3.598,8.021-8.02v-5.223
				C-570.426-18.086-570.759-19.748-570.464-21.406L-570.464-21.406z M-570.464-21.406"/>
			<path id="XMLID_433_" class="st4" d="M-513.546-53.859c0,7.846-6.357,14.21-14.203,14.21c-7.846,0-14.21-6.364-14.21-14.21
				s6.364-14.204,14.21-14.204C-519.903-68.063-513.546-61.705-513.546-53.859L-513.546-53.859z M-513.546-53.859"/>
			<path id="XMLID_425_" class="st4" d="M-518.3-36.194c-0.24-0.147-0.49-0.255-0.747-0.359c-1.581-1.052-3.353-1.833-5.163-2.274
				l-3.538,3.559l-3.435-3.604c-0.011,0.006-0.022,0.006-0.034,0.006c-1.854,0.448-3.67,1.244-5.283,2.328
				c-0.523,0.223-1.025,0.508-1.478,0.906c-1.531,1.353-2.933,2.649-4.285,3.904c-8.353,7.758-11.368,10.043-19.045,6.45
				c-2.302-1.075-4.957-0.426-6.527,1.417l-23.68-16.613l-1.15,1.641l23.821,16.711c-0.938,2.645,0.268,5.622,2.863,6.838
				c4.045,1.886,7.606,2.683,10.812,2.683c4.994,0,9.127-1.93,12.879-4.619V4.874c0,1.484,0.289,2.868,0.79,4.144
				c-0.038,0.283-0.06,0.572-0.06,0.867v52.818c0,3.598,2.923,6.51,6.521,6.51c3.599,0,6.516-2.912,6.516-6.516l-0.006-45.321
				c0.262,0.011,0.518,0.033,0.78,0.033c0.049,0,0.098-0.006,0.152-0.006l-0.006,45.293c0,3.604,2.917,6.516,6.516,6.516h0.006
				c3.598,0,6.516-2.912,6.516-6.516v-52.49c0.856-1.581,1.353-3.37,1.353-5.333v-17.72c1.287,4.668,1.805,10.9,1.133,19.476
				c-0.24,3.037,2.034,5.692,5.071,5.932c0.147,0.011,0.289,0.017,0.436,0.017c2.848,0,5.262-2.197,5.491-5.088
				C-498.911-20.288-508.072-29.922-518.3-36.194L-518.3-36.194z M-527.717-7.153h-0.071l-3.424-4.689l3.424-22.896h0.071
				l3.424,22.896L-527.717-7.153z M-527.717-7.153"/>
			<rect id="XMLID_424_" x="-595.267" y="-56.045" class="st4" width="17.705" height="1.831"/>
			<rect id="XMLID_423_" x="-589.848" y="-52.993" class="st4" width="12.285" height="1.831"/>
			<rect id="XMLID_422_" x="-593.816" y="-50.015" class="st4" width="16.255" height="1.831"/>
			<path id="XMLID_408_" class="st4" d="M-611.315-27.404l2.585-2.235h6.047v-15.977h-11.309v-2.137h3.234
				c2.12,0,3.839-1.717,3.839-3.839c0-2.12-1.718-3.844-3.839-3.844h-7.683c-2.122,0-3.839,1.724-3.839,3.844
				c0,2.122,1.717,3.839,3.839,3.839h3.233v5.497h-7.786v4.781h7.786v4.379h-2.677l-3.287,2.846l3.287,2.846h2.677v6.211h-2.649
				c-1.713,0-3.103,1.385-3.103,3.102c0,1.713,1.39,3.103,3.103,3.103h6.516c1.711,0,3.103-1.39,3.103-3.103
				c0-1.717-1.392-3.102-3.103-3.102h-2.645v-6.211H-611.315z M-613.926-37.475h8.943v-4.781h-8.943v-2.138h10.022v13.534h-4.825
				l-2.58-2.236h-2.617V-37.475z M-613.926-37.475"/>
		</g>
	</g>
</g>
<g id="XMLID_618_">
	<path id="XMLID_619_" class="st29" d="M-183.302,177.5v-28.555h3.32V177.5H-183.302z"/>
	<path id="XMLID_621_" class="st29" d="M-157.989,177.5v-13.848c0-1.745-0.396-3.047-1.191-3.906
		c-0.794-0.859-2.037-1.289-3.73-1.289c-2.239,0-3.88,0.605-4.922,1.816c-1.041,1.211-1.563,3.21-1.563,5.996v11.23h-3.242v-21.406
		h2.637l0.527,2.93h0.156c0.664-1.055,1.596-1.872,2.793-2.451c1.198-0.579,2.533-0.869,4.004-0.869c2.578,0,4.519,0.622,5.82,1.865
		c1.303,1.243,1.953,3.232,1.953,5.967V177.5H-157.989z"/>
	<path id="XMLID_623_" class="st29" d="M-134.279,171.66c0,1.992-0.742,3.528-2.227,4.609s-3.567,1.621-6.25,1.621
		c-2.838,0-5.052-0.449-6.641-1.348v-3.008c1.029,0.521,2.133,0.931,3.311,1.23c1.179,0.3,2.314,0.449,3.408,0.449
		c1.693,0,2.995-0.271,3.906-0.811c0.912-0.54,1.367-1.364,1.367-2.471c0-0.833-0.361-1.546-1.084-2.139s-2.132-1.292-4.229-2.1
		c-1.992-0.742-3.408-1.39-4.248-1.943s-1.465-1.182-1.875-1.885s-0.615-1.543-0.615-2.52c0-1.745,0.71-3.122,2.129-4.131
		c1.42-1.009,3.366-1.514,5.84-1.514c2.305,0,4.558,0.469,6.758,1.406l-1.152,2.637c-2.148-0.886-4.095-1.328-5.84-1.328
		c-1.536,0-2.695,0.241-3.477,0.723s-1.172,1.146-1.172,1.992c0,0.573,0.146,1.062,0.439,1.465s0.766,0.788,1.416,1.152
		c0.651,0.364,1.901,0.892,3.75,1.582c2.539,0.925,4.255,1.855,5.146,2.793C-134.724,169.063-134.279,170.241-134.279,171.66z"/>
	<path id="XMLID_625_" class="st29" d="M-122.091,175.215c0.573,0,1.127-0.042,1.66-0.127c0.534-0.085,0.957-0.173,1.27-0.264v2.48
		c-0.352,0.169-0.869,0.31-1.553,0.42s-1.299,0.166-1.846,0.166c-4.141,0-6.211-2.181-6.211-6.543v-12.734h-3.066v-1.563
		l3.066-1.348l1.367-4.57h1.875v4.961h6.211v2.52h-6.211v12.598c0,1.289,0.307,2.278,0.918,2.969
		C-123.998,174.87-123.158,175.215-122.091,175.215z"/>
	<path id="XMLID_627_" class="st29" d="M-115.157,150.293c0-0.742,0.183-1.286,0.547-1.631c0.365-0.345,0.82-0.518,1.367-0.518
		c0.521,0,0.971,0.176,1.348,0.527c0.378,0.352,0.566,0.892,0.566,1.621s-0.188,1.272-0.566,1.631
		c-0.377,0.358-0.826,0.537-1.348,0.537c-0.547,0-1.002-0.179-1.367-0.537C-114.975,151.565-115.157,151.022-115.157,150.293z
		 M-111.642,177.5h-3.242v-21.406h3.242V177.5z"/>
	<path id="XMLID_630_" class="st29" d="M-97.853,175.215c0.573,0,1.127-0.042,1.66-0.127c0.534-0.085,0.957-0.173,1.27-0.264v2.48
		c-0.352,0.169-0.869,0.31-1.553,0.42s-1.299,0.166-1.846,0.166c-4.141,0-6.211-2.181-6.211-6.543v-12.734h-3.066v-1.563
		l3.066-1.348l1.367-4.57h1.875v4.961h6.211v2.52h-6.211v12.598c0,1.289,0.307,2.278,0.918,2.969
		C-99.76,174.87-98.92,175.215-97.853,175.215z"/>
	<path id="XMLID_632_" class="st29" d="M-87.599,156.094v13.887c0,1.745,0.397,3.047,1.191,3.906
		c0.795,0.859,2.038,1.289,3.73,1.289c2.24,0,3.877-0.612,4.912-1.836s1.553-3.223,1.553-5.996v-11.25h3.242V177.5h-2.676
		l-0.469-2.871h-0.176c-0.664,1.055-1.585,1.862-2.764,2.422c-1.178,0.56-2.522,0.84-4.033,0.84c-2.604,0-4.554-0.618-5.85-1.855
		c-1.295-1.237-1.943-3.216-1.943-5.938v-14.004H-87.599z"/>
	<path id="XMLID_634_" class="st29" d="M-57.54,177.891c-3.099,0-5.498-0.954-7.197-2.861s-2.549-4.606-2.549-8.096
		c0-3.581,0.863-6.348,2.588-8.301c1.726-1.953,4.184-2.93,7.373-2.93c1.029,0,2.058,0.11,3.086,0.332
		c1.029,0.222,1.836,0.481,2.422,0.781l-0.996,2.754c-0.716-0.286-1.497-0.524-2.344-0.713c-0.846-0.188-1.595-0.283-2.246-0.283
		c-4.349,0-6.523,2.773-6.523,8.32c0,2.63,0.531,4.648,1.592,6.055c1.062,1.406,2.634,2.109,4.717,2.109
		c1.784,0,3.613-0.384,5.488-1.152v2.871C-53.562,177.52-55.365,177.891-57.54,177.891z"/>
	<path id="XMLID_636_" class="st29" d="M-47.325,150.293c0-0.742,0.183-1.286,0.547-1.631c0.365-0.345,0.82-0.518,1.367-0.518
		c0.521,0,0.971,0.176,1.348,0.527c0.378,0.352,0.566,0.892,0.566,1.621s-0.188,1.272-0.566,1.631
		c-0.377,0.358-0.826,0.537-1.348,0.537c-0.547,0-1.002-0.179-1.367-0.537C-47.143,151.565-47.325,151.022-47.325,150.293z
		 M-43.81,177.5h-3.242v-21.406h3.242V177.5z"/>
	<path id="XMLID_639_" class="st29" d="M-18.458,166.777c0,3.489-0.879,6.214-2.637,8.174s-4.186,2.939-7.285,2.939
		c-1.914,0-3.613-0.449-5.098-1.348c-1.484-0.898-2.63-2.188-3.438-3.867c-0.807-1.68-1.211-3.646-1.211-5.898
		c0-3.489,0.873-6.208,2.617-8.154c1.745-1.946,4.167-2.92,7.266-2.92c2.995,0,5.375,0.996,7.139,2.988
		C-19.34,160.684-18.458,163.379-18.458,166.777z M-34.767,166.777c0,2.734,0.547,4.817,1.641,6.25s2.702,2.148,4.824,2.148
		c2.123,0,3.734-0.713,4.834-2.139c1.101-1.426,1.65-3.513,1.65-6.26c0-2.722-0.55-4.788-1.65-6.201
		c-1.1-1.413-2.725-2.119-4.873-2.119c-2.122,0-3.724,0.696-4.805,2.09C-34.226,161.94-34.767,164.017-34.767,166.777z"/>
	<path id="XMLID_644_" class="st29" d="M1.874,177.5v-13.848c0-1.745-0.396-3.047-1.191-3.906c-0.794-0.859-2.037-1.289-3.73-1.289
		c-2.239,0-3.88,0.605-4.922,1.816c-1.041,1.211-1.562,3.21-1.562,5.996v11.23h-3.242v-21.406h2.637l0.527,2.93h0.156
		c0.664-1.055,1.596-1.872,2.793-2.451c1.198-0.579,2.533-0.869,4.004-0.869c2.578,0,4.519,0.622,5.82,1.865
		c1.303,1.243,1.953,3.232,1.953,5.967V177.5H1.874z"/>
	<path id="XMLID_646_" class="st29" d="M20.819,177.891c-3.164,0-5.66-0.964-7.49-2.891c-1.829-1.927-2.744-4.603-2.744-8.027
		c0-3.45,0.85-6.191,2.549-8.223s3.981-3.047,6.846-3.047c2.683,0,4.805,0.882,6.367,2.646s2.344,4.092,2.344,6.982v2.051H13.944
		c0.065,2.513,0.7,4.421,1.904,5.723c1.205,1.302,2.9,1.953,5.088,1.953c2.305,0,4.584-0.481,6.836-1.445v2.891
		c-1.146,0.495-2.229,0.85-3.252,1.064C23.499,177.783,22.264,177.891,20.819,177.891z M19.94,158.418
		c-1.719,0-3.089,0.56-4.111,1.68c-1.021,1.12-1.624,2.669-1.807,4.648h11.191c0-2.044-0.455-3.61-1.367-4.697
		C22.935,158.962,21.634,158.418,19.94,158.418z"/>
	<path id="XMLID_649_" class="st29" d="M48.026,171.66c0,1.992-0.742,3.528-2.227,4.609s-3.567,1.621-6.25,1.621
		c-2.838,0-5.052-0.449-6.641-1.348v-3.008c1.029,0.521,2.133,0.931,3.311,1.23c1.179,0.3,2.314,0.449,3.408,0.449
		c1.693,0,2.995-0.271,3.906-0.811c0.912-0.54,1.367-1.364,1.367-2.471c0-0.833-0.361-1.546-1.084-2.139s-2.132-1.292-4.229-2.1
		c-1.992-0.742-3.408-1.39-4.248-1.943s-1.465-1.182-1.875-1.885s-0.615-1.543-0.615-2.52c0-1.745,0.71-3.122,2.129-4.131
		c1.42-1.009,3.366-1.514,5.84-1.514c2.305,0,4.558,0.469,6.758,1.406l-1.152,2.637c-2.148-0.886-4.095-1.328-5.84-1.328
		c-1.536,0-2.695,0.241-3.477,0.723s-1.172,1.146-1.172,1.992c0,0.573,0.146,1.062,0.439,1.465s0.766,0.788,1.416,1.152
		c0.651,0.364,1.901,0.892,3.75,1.582c2.539,0.925,4.255,1.855,5.146,2.793C47.581,169.063,48.026,170.241,48.026,171.66z"/>
	<path id="XMLID_651_" class="st29" d="M80.096,177.5H64.178v-28.555h15.918v2.949H67.499v9.199h11.836v2.93H67.499v10.508h12.598
		V177.5z"/>
	<path id="XMLID_653_" class="st29" d="M91.093,166.543l-7.441-10.449h3.691l5.645,8.203l5.625-8.203h3.652l-7.441,10.449
		l7.832,10.957h-3.672l-5.996-8.672l-6.055,8.672h-3.672L91.093,166.543z"/>
	<path id="XMLID_655_" class="st29" d="M113.807,175.215c0.573,0,1.127-0.042,1.66-0.127c0.534-0.085,0.957-0.173,1.27-0.264v2.48
		c-0.352,0.169-0.869,0.31-1.553,0.42s-1.299,0.166-1.846,0.166c-4.141,0-6.211-2.181-6.211-6.543v-12.734h-3.066v-1.563
		l3.066-1.348l1.367-4.57h1.875v4.961h6.211v2.52h-6.211v12.598c0,1.289,0.307,2.278,0.918,2.969
		C111.9,174.87,112.74,175.215,113.807,175.215z"/>
	<path id="XMLID_657_" class="st29" d="M130.057,177.891c-3.164,0-5.66-0.964-7.49-2.891c-1.829-1.927-2.744-4.603-2.744-8.027
		c0-3.45,0.85-6.191,2.549-8.223s3.981-3.047,6.846-3.047c2.683,0,4.805,0.882,6.367,2.646s2.344,4.092,2.344,6.982v2.051h-14.746
		c0.065,2.513,0.7,4.421,1.904,5.723c1.205,1.302,2.9,1.953,5.088,1.953c2.305,0,4.584-0.481,6.836-1.445v2.891
		c-1.146,0.495-2.229,0.85-3.252,1.064C132.737,177.783,131.503,177.891,130.057,177.891z M129.178,158.418
		c-1.719,0-3.089,0.56-4.111,1.68c-1.021,1.12-1.624,2.669-1.807,4.648h11.191c0-2.044-0.455-3.61-1.367-4.697
		C132.174,158.962,130.872,158.418,129.178,158.418z"/>
	<path id="XMLID_660_" class="st29" d="M153.221,155.703c0.951,0,1.804,0.078,2.559,0.234l-0.449,3.008
		c-0.885-0.195-1.666-0.293-2.344-0.293c-1.731,0-3.213,0.703-4.443,2.109s-1.846,3.157-1.846,5.254V177.5h-3.242v-21.406h2.676
		l0.371,3.965h0.156c0.795-1.394,1.752-2.468,2.871-3.223C150.65,156.081,151.881,155.703,153.221,155.703z"/>
	<path id="XMLID_662_" class="st29" d="M174.432,177.5v-13.848c0-1.745-0.396-3.047-1.191-3.906
		c-0.794-0.859-2.037-1.289-3.73-1.289c-2.239,0-3.88,0.605-4.922,1.816c-1.041,1.211-1.563,3.21-1.563,5.996v11.23h-3.242v-21.406
		h2.637l0.527,2.93h0.156c0.664-1.055,1.596-1.872,2.793-2.451c1.198-0.579,2.533-0.869,4.004-0.869c2.578,0,4.519,0.622,5.82,1.865
		c1.303,1.243,1.953,3.232,1.953,5.967V177.5H174.432z"/>
	<path id="XMLID_664_" class="st29" d="M197.499,177.5l-0.645-3.047h-0.156c-1.067,1.341-2.132,2.249-3.193,2.725
		c-1.061,0.476-2.386,0.713-3.975,0.713c-2.122,0-3.785-0.547-4.99-1.641c-1.204-1.094-1.807-2.649-1.807-4.668
		c0-4.323,3.457-6.589,10.371-6.797l3.633-0.117v-1.328c0-1.68-0.361-2.92-1.084-3.721s-1.878-1.201-3.467-1.201
		c-1.783,0-3.802,0.547-6.055,1.641l-0.996-2.48c1.055-0.573,2.211-1.022,3.467-1.348c1.257-0.325,2.517-0.488,3.779-0.488
		c2.553,0,4.443,0.566,5.674,1.699s1.846,2.949,1.846,5.449V177.5H197.499z M190.175,175.215c2.019,0,3.604-0.554,4.756-1.66
		s1.729-2.656,1.729-4.648v-1.934l-3.242,0.137c-2.578,0.091-4.437,0.491-5.576,1.201c-1.139,0.71-1.709,1.813-1.709,3.311
		c0,1.172,0.355,2.063,1.064,2.676C187.906,174.909,188.899,175.215,190.175,175.215z"/>
	<path id="XMLID_667_" class="st29" d="M220.389,171.66c0,1.992-0.742,3.528-2.227,4.609s-3.567,1.621-6.25,1.621
		c-2.838,0-5.052-0.449-6.641-1.348v-3.008c1.029,0.521,2.133,0.931,3.311,1.23c1.179,0.3,2.314,0.449,3.408,0.449
		c1.693,0,2.995-0.271,3.906-0.811c0.912-0.54,1.367-1.364,1.367-2.471c0-0.833-0.361-1.546-1.084-2.139s-2.132-1.292-4.229-2.1
		c-1.992-0.742-3.408-1.39-4.248-1.943s-1.465-1.182-1.875-1.885s-0.615-1.543-0.615-2.52c0-1.745,0.71-3.122,2.129-4.131
		c1.42-1.009,3.366-1.514,5.84-1.514c2.305,0,4.558,0.469,6.758,1.406l-1.152,2.637c-2.148-0.886-4.095-1.328-5.84-1.328
		c-1.536,0-2.695,0.241-3.477,0.723s-1.172,1.146-1.172,1.992c0,0.573,0.146,1.062,0.439,1.465s0.766,0.788,1.416,1.152
		c0.651,0.364,1.901,0.892,3.75,1.582c2.539,0.925,4.255,1.855,5.146,2.793C219.944,169.063,220.389,170.241,220.389,171.66z"/>
</g>
<g id="XMLID_241_">
	<circle id="XMLID_168_" class="st33" cx="70" cy="15.471" r="17.5"/>
	<path id="XMLID_167_" class="st34" d="M70.181-2.029v34.995C79.762,32.869,87.5,25.073,87.5,15.468S79.762-1.932,70.181-2.029z"/>
	<g id="XMLID_539_">
		<polygon id="XMLID_540_" class="st2" points="62.685,8.497 76.761,8.497 76.761,19.098 77.474,19.098 77.474,7.784 61.972,7.784 
			61.972,19.098 62.685,19.098 		"/>
		<rect id="XMLID_542_" x="63.398" y="12.149" class="st2" width="1.247" height="3.385"/>
		<rect id="XMLID_543_" x="65.714" y="12.149" class="st2" width="1.247" height="3.385"/>
		<rect id="XMLID_544_" x="68.209" y="12.149" class="st2" width="1.247" height="3.385"/>
		<rect id="XMLID_545_" x="70.525" y="12.149" class="st2" width="1.247" height="3.385"/>
		<rect id="XMLID_546_" x="72.663" y="12.149" class="st2" width="1.247" height="3.385"/>
		<rect id="XMLID_547_" x="74.98" y="12.149" class="st2" width="1.247" height="3.385"/>
		<polygon id="XMLID_548_" class="st2" points="78.721,21.504 78.721,19.722 76.851,19.722 76.227,19.722 76.227,21.504 
			76.227,22.907 73.198,22.907 73.198,21.504 75.069,21.504 75.069,19.722 73.198,19.722 72.574,19.722 72.574,21.504 
			72.574,22.907 69.545,22.907 69.545,21.504 71.416,21.504 71.416,19.722 69.545,19.722 68.921,19.722 68.921,21.504 
			68.921,22.907 65.714,22.907 65.714,21.504 67.585,21.504 67.585,19.722 65.714,19.722 65.091,19.722 65.091,21.504 
			65.091,22.907 62.151,22.907 62.151,21.504 64.021,21.504 64.021,19.722 62.151,19.722 61.527,19.722 61.527,21.504 
			61.527,22.907 60.012,22.907 60.012,23.397 78.721,23.397 78.721,22.907 76.851,22.907 76.851,21.504 		"/>
	</g>
	<g id="XMLID_165_">
		<defs>
			<rect id="XMLID_164_" x="57.642" y="6.562" width="12.539" height="16.936"/>
		</defs>
		<clipPath id="XMLID_719_">
			<use xlink:href="#XMLID_164_"  style="overflow:visible;"/>
		</clipPath>
		<g id="XMLID_111_" class="st35">
			<polygon id="XMLID_123_" class="st4" points="62.685,8.497 76.761,8.497 76.761,19.098 77.474,19.098 77.474,7.784 61.972,7.784 
				61.972,19.098 62.685,19.098 			"/>
			<rect id="XMLID_122_" x="63.398" y="12.149" class="st4" width="1.247" height="3.385"/>
			<rect id="XMLID_120_" x="65.714" y="12.149" class="st4" width="1.247" height="3.385"/>
			<rect id="XMLID_119_" x="68.209" y="12.149" class="st4" width="1.247" height="3.385"/>
			<rect id="XMLID_117_" x="70.525" y="12.149" class="st4" width="1.247" height="3.385"/>
			<rect id="XMLID_114_" x="72.663" y="12.149" class="st4" width="1.247" height="3.385"/>
			<rect id="XMLID_113_" x="74.98" y="12.149" class="st4" width="1.247" height="3.385"/>
			<polygon id="XMLID_112_" class="st4" points="78.721,21.504 78.721,19.722 76.851,19.722 76.227,19.722 76.227,21.504 
				76.227,22.907 73.198,22.907 73.198,21.504 75.069,21.504 75.069,19.722 73.198,19.722 72.574,19.722 72.574,21.504 
				72.574,22.907 69.545,22.907 69.545,21.504 71.416,21.504 71.416,19.722 69.545,19.722 68.921,19.722 68.921,21.504 
				68.921,22.907 65.714,22.907 65.714,21.504 67.585,21.504 67.585,19.722 65.714,19.722 65.091,19.722 65.091,21.504 
				65.091,22.907 62.151,22.907 62.151,21.504 64.021,21.504 64.021,19.722 62.151,19.722 61.527,19.722 61.527,21.504 
				61.527,22.907 60.012,22.907 60.012,23.397 78.721,23.397 78.721,22.907 76.851,22.907 76.851,21.504 			"/>
		</g>
	</g>
</g>
<g id="XMLID_383_">
	<circle id="XMLID_707_" class="st30" cx="17.5" cy="17.505" r="17.5"/>
	<path id="XMLID_706_" class="st31" d="M17.679,0v34.986c9.582-0.097,17.319-7.891,17.319-17.493S27.26,0.097,17.679,0z"/>
	<g id="XMLID_688_">
		<path id="XMLID_703_" class="st2" d="M17.689,16.171l-0.652-0.458v1.714c0,0.139-0.114,0.253-0.253,0.253h-6.712
			c-0.139,0-0.253-0.114-0.253-0.253v-6.014c0-0.14,0.114-0.253,0.253-0.253h6.712c0.14,0,0.253,0.113,0.253,0.253v3.526
			l0.759,0.533v-4.059c0-0.559-0.454-1.013-1.013-1.013h-6.712c-0.558,0-1.013,0.454-1.013,1.013v6.013
			c0,0.558,0.454,1.013,1.013,1.013h2.693l-2.243,5.302c-0.094,0.22,0.01,0.474,0.229,0.567c0.055,0.023,0.112,0.034,0.169,0.034
			c0.169,0,0.329-0.099,0.399-0.264l1.946-4.597l1.945,4.597c0.093,0.22,0.347,0.323,0.567,0.229
			c0.22-0.093,0.322-0.347,0.229-0.567l-2.243-5.302h3.021c0.558,0,1.013-0.454,1.013-1.013v-0.659
			C17.694,16.59,17.652,16.381,17.689,16.171L17.689,16.171z M17.689,16.171"/>
		<path id="XMLID_700_" class="st2" d="M24.877,12.074c0,0.991-0.803,1.794-1.794,1.794c-0.991,0-1.795-0.803-1.795-1.794
			s0.804-1.793,1.795-1.793C24.074,10.28,24.877,11.083,24.877,12.074L24.877,12.074z M24.877,12.074"/>
		<path id="XMLID_696_" class="st2" d="M24.277,14.304c-0.03-0.019-0.062-0.032-0.094-0.045c-0.2-0.133-0.423-0.231-0.652-0.287
			l-0.447,0.449l-0.434-0.455c-0.001,0.001-0.003,0.001-0.004,0.001c-0.234,0.057-0.463,0.157-0.667,0.294
			c-0.066,0.028-0.129,0.064-0.187,0.114c-0.193,0.171-0.37,0.334-0.541,0.493c-1.055,0.979-1.436,1.268-2.405,0.814
			c-0.291-0.136-0.626-0.054-0.824,0.179l-2.991-2.098l-0.145,0.207l3.008,2.11c-0.118,0.334,0.034,0.71,0.362,0.863
			c0.511,0.238,0.961,0.339,1.365,0.339c0.631,0,1.153-0.244,1.627-0.583v2.789c0,0.187,0.036,0.362,0.1,0.523
			c-0.005,0.036-0.008,0.072-0.008,0.109v6.669c0,0.454,0.369,0.822,0.824,0.822c0.454,0,0.823-0.368,0.823-0.823l-0.001-5.722
			c0.033,0.001,0.065,0.004,0.099,0.004c0.006,0,0.012-0.001,0.019-0.001l-0.001,5.719c0,0.455,0.368,0.823,0.823,0.823h0.001
			c0.454,0,0.823-0.368,0.823-0.823v-6.627c0.108-0.2,0.171-0.425,0.171-0.673v-2.237c0.163,0.589,0.228,1.376,0.143,2.459
			c-0.03,0.383,0.257,0.719,0.64,0.749c0.019,0.001,0.036,0.002,0.055,0.002c0.36,0,0.665-0.277,0.693-0.642
			C26.726,16.312,25.569,15.096,24.277,14.304L24.277,14.304z M23.088,17.971h-0.009l-0.432-0.592l0.432-2.891h0.009l0.432,2.891
			L23.088,17.971z M23.088,17.971"/>
		<rect id="XMLID_695_" x="14.557" y="11.798" class="st2" width="2.236" height="0.231"/>
		<rect id="XMLID_694_" x="15.241" y="12.183" class="st2" width="1.551" height="0.231"/>
		<rect id="XMLID_693_" x="14.74" y="12.559" class="st2" width="2.053" height="0.231"/>
		<path id="XMLID_689_" class="st2" d="M12.53,15.414l0.326-0.282h0.764v-2.017h-1.428v-0.27H12.6c0.268,0,0.485-0.217,0.485-0.485
			c0-0.268-0.217-0.485-0.485-0.485h-0.97c-0.268,0-0.485,0.218-0.485,0.485c0,0.268,0.217,0.485,0.485,0.485h0.408v0.694h-0.983
			v0.604h0.983v0.553H11.7l-0.415,0.359l0.415,0.359h0.338v0.784h-0.335c-0.216,0-0.392,0.175-0.392,0.392
			c0,0.216,0.176,0.392,0.392,0.392h0.823c0.216,0,0.392-0.176,0.392-0.392c0-0.217-0.176-0.392-0.392-0.392h-0.334v-0.784H12.53z
			 M12.2,14.142h1.129v-0.604H12.2v-0.27h1.266v1.709h-0.609l-0.326-0.282H12.2V14.142z M12.2,14.142"/>
	</g>
	<g id="XMLID_385_">
		<defs>
			<rect id="XMLID_386_" x="3.03" y="4.669" width="14.647" height="29.512"/>
		</defs>
		<clipPath id="XMLID_720_">
			<use xlink:href="#XMLID_386_"  style="overflow:visible;"/>
		</clipPath>
		<g id="XMLID_669_" class="st36">
			<path id="XMLID_685_" class="st4" d="M17.688,16.172l-0.652-0.458v1.714c0,0.139-0.114,0.253-0.253,0.253h-6.712
				c-0.139,0-0.253-0.114-0.253-0.253v-6.014c0-0.14,0.114-0.253,0.253-0.253h6.712c0.14,0,0.253,0.113,0.253,0.253v3.526
				l0.759,0.533v-4.059c0-0.559-0.454-1.013-1.013-1.013h-6.712c-0.558,0-1.013,0.454-1.013,1.013v6.013
				c0,0.558,0.454,1.013,1.013,1.013h2.693l-2.243,5.302c-0.094,0.22,0.01,0.474,0.229,0.567c0.055,0.023,0.112,0.034,0.169,0.034
				c0.169,0,0.329-0.099,0.399-0.264l1.946-4.597l1.945,4.597c0.093,0.22,0.347,0.323,0.567,0.229
				c0.22-0.093,0.322-0.347,0.229-0.567l-2.243-5.302h3.021c0.558,0,1.013-0.454,1.013-1.013v-0.659
				C17.693,16.592,17.651,16.382,17.688,16.172L17.688,16.172z M17.688,16.172"/>
			<path id="XMLID_682_" class="st4" d="M24.876,12.075c0,0.991-0.803,1.794-1.794,1.794c-0.991,0-1.795-0.803-1.795-1.794
				s0.804-1.793,1.795-1.793C24.074,10.282,24.876,11.085,24.876,12.075L24.876,12.075z M24.876,12.075"/>
			<path id="XMLID_678_" class="st4" d="M24.276,14.305c-0.03-0.019-0.062-0.032-0.094-0.045c-0.2-0.133-0.423-0.231-0.652-0.287
				l-0.447,0.449l-0.434-0.455c-0.001,0.001-0.003,0.001-0.004,0.001c-0.234,0.057-0.463,0.157-0.667,0.294
				c-0.066,0.028-0.129,0.064-0.187,0.114c-0.193,0.171-0.37,0.334-0.541,0.493c-1.055,0.979-1.436,1.268-2.405,0.814
				c-0.291-0.136-0.626-0.054-0.824,0.179l-2.991-2.098l-0.145,0.207l3.008,2.11c-0.118,0.334,0.034,0.71,0.362,0.863
				c0.511,0.238,0.961,0.339,1.365,0.339c0.631,0,1.153-0.244,1.627-0.583v2.789c0,0.187,0.036,0.362,0.1,0.523
				c-0.005,0.036-0.008,0.072-0.008,0.109v6.669c0,0.454,0.369,0.822,0.824,0.822c0.454,0,0.823-0.368,0.823-0.823l-0.001-5.722
				c0.033,0.001,0.065,0.004,0.099,0.004c0.006,0,0.012-0.001,0.019-0.001l-0.001,5.719c0,0.455,0.368,0.823,0.823,0.823h0.001
				c0.454,0,0.823-0.368,0.823-0.823v-6.627c0.108-0.2,0.171-0.425,0.171-0.673v-2.237c0.163,0.589,0.228,1.376,0.143,2.459
				c-0.03,0.383,0.257,0.719,0.64,0.749c0.019,0.001,0.036,0.002,0.055,0.002c0.36,0,0.665-0.277,0.693-0.642
				C26.725,16.314,25.568,15.097,24.276,14.305L24.276,14.305z M23.087,17.972h-0.009l-0.432-0.592l0.432-2.891h0.009l0.432,2.891
				L23.087,17.972z M23.087,17.972"/>
			<rect id="XMLID_677_" x="14.556" y="11.799" class="st4" width="2.236" height="0.231"/>
			<rect id="XMLID_675_" x="15.24" y="12.185" class="st4" width="1.551" height="0.231"/>
			<rect id="XMLID_674_" x="14.739" y="12.56" class="st4" width="2.053" height="0.231"/>
			<path id="XMLID_670_" class="st4" d="M12.529,15.415l0.326-0.282h0.764v-2.017h-1.428v-0.27H12.6
				c0.268,0,0.485-0.217,0.485-0.485c0-0.268-0.217-0.485-0.485-0.485h-0.97c-0.268,0-0.485,0.218-0.485,0.485
				c0,0.268,0.217,0.485,0.485,0.485h0.408v0.694h-0.983v0.604h0.983v0.553h-0.338l-0.415,0.359l0.415,0.359h0.338v0.784h-0.335
				c-0.216,0-0.392,0.175-0.392,0.392c0,0.216,0.176,0.392,0.392,0.392h0.823c0.216,0,0.392-0.176,0.392-0.392
				c0-0.217-0.176-0.392-0.392-0.392h-0.334v-0.784H12.529z M12.199,14.144h1.129V13.54h-1.129v-0.27h1.266v1.709h-0.609
				l-0.326-0.282h-0.331V14.144z M12.199,14.144"/>
		</g>
	</g>
</g>
</svg>
