<?xml version="1.0" encoding="utf-8"?>
<!-- Generator: Adobe Illustrator 19.0.0, SVG Export Plug-In . SVG Version: 6.00 Build 0)  -->
<svg version="1.1" id="Capa_1" xmlns="http://www.w3.org/2000/svg" xmlns:xlink="http://www.w3.org/1999/xlink" x="0px" y="0px"
	 viewBox="0 0 512 404" style="enable-background:new 0 0 512 404;" xml:space="preserve">
<style type="text/css">
	.st0{fill:#61BC31;}
	.st1{fill:#5DB22B;}
	.st2{fill:#FFFFFF;}
	.st3{clip-path:url(#XMLID_13_);}
	.st4{fill:#F3F3F3;}
	.st5{fill:#6BC0DD;}
	.st6{fill:#6AB9CE;}
	.st7{clip-path:url(#XMLID_14_);}
	.st8{fill:#FF9811;}
	.st9{fill:#F78E11;}
	.st10{clip-path:url(#XMLID_50_);}
	.st11{fill:#3DB39E;}
	.st12{fill:#3EAD98;}
	.st13{fill:none;}
	.st14{clip-path:url(#XMLID_62_);}
	.st15{clip-path:url(#XMLID_63_);fill:#F3F3F3;}
	.st16{clip-path:url(#XMLID_62_);fill:#FFFFFF;}
	.st17{fill:#B55C04;}
	.st18{fill:#AD5505;}
	.st19{clip-path:url(#XMLID_64_);}
	.st20{fill:#F2C40F;}
	.st21{fill:#E8B513;}
	.st22{clip-path:url(#XMLID_65_);}
	.st23{fill:#EF1136;}
	.st24{fill:#E51340;}
	.st25{clip-path:url(#XMLID_66_);}
	.st26{fill:#5831A3;}
	.st27{fill:#4A3293;}
	.st28{clip-path:url(#XMLID_67_);}
	.st29{clip-path:url(#XMLID_68_);fill:#ED54AF;}
	.st30{clip-path:url(#XMLID_68_);fill:#DD50AB;}
	.st31{clip-path:url(#XMLID_68_);}
	.st32{fill:#5B5B5B;}
	.st33{clip-path:url(#XMLID_69_);}
	.st34{clip-path:url(#XMLID_70_);fill:#006633;}
	.st35{clip-path:url(#XMLID_70_);fill:#03592C;}
	.st36{clip-path:url(#XMLID_70_);}
	.st37{clip-path:url(#XMLID_334_);}
</style>
<g id="XMLID_3_">
	<circle id="XMLID_106_" class="st0" cx="-4884.91" cy="173.569" r="138.569"/>
	<path id="XMLID_45_" class="st1" d="M-4883.479,35v277.102c75.87-0.769,137.139-62.5,137.139-138.551S-4807.609,35.769-4883.479,35
		z"/>
</g>
<g id="XMLID_2_">
	<g id="XMLID_8_">
		<path id="XMLID_9_" class="st2" d="M-4839.117,154.323c-10.868,0-19.676,5.562-19.676,12.426v4.305
			c3.645,1.341,7.319,2.662,10.222,4.832c0.625,0.468,1.184,0.946,1.689,1.432c0.701,0.448,1.288,1.076,1.658,1.891
			c1.828,2.543,2.29,5.253,1.808,7.936c1.384,0.198,2.82,0.31,4.299,0.31c10.858,0,19.663-5.56,19.663-12.426v-8.28
			C-4819.454,159.886-4828.259,154.323-4839.117,154.323z"/>
		<path id="XMLID_24_" class="st2" d="M-4839.117,212.479c-1.974,0-3.878-0.187-5.676-0.528v8.293
			c1.798,0.342,3.702,0.529,5.676,0.529c10.858,0,19.663-5.562,19.663-12.426v-8.28
			C-4819.454,206.919-4828.259,212.479-4839.117,212.479z"/>
		<path id="XMLID_25_" class="st2" d="M-4839.117,201.199c-1.974,0-3.878-0.187-5.676-0.528v8.28
			c1.798,0.341,3.702,0.528,5.676,0.528c10.858,0,19.663-5.56,19.663-12.413v-8.293
			C-4819.454,195.639-4828.259,201.199-4839.117,201.199z"/>
		<path id="XMLID_26_" class="st2" d="M-4839.117,190.198c-1.697,0-3.337-0.145-4.907-0.401c-0.107,0.747-0.376,1.463-0.769,2.1
			v6.053c1.798,0.341,3.702,0.528,5.676,0.528c10.858,0,19.663-5.56,19.663-12.426v-8.28
			C-4819.454,184.638-4828.259,190.198-4839.117,190.198z"/>
		<path id="XMLID_27_" class="st2" d="M-4857.793,176.442c-3.137-1.338-6.917-2.119-10.985-2.119
			c-10.868,0-19.676,5.562-19.676,12.426v8.28c0,6.867,8.808,12.426,19.676,12.426c4.068,0,7.848-0.781,10.985-2.118
			c0.021-0.009,0.042-0.02,0.063-0.029c0.25-0.107,0.483-0.228,0.724-0.342c1.839-0.871,3.432-1.935,4.692-3.154
			c0.589-0.57,1.107-1.171,1.543-1.801c1.058-1.526,1.655-3.209,1.655-4.982v-2.503v-2.742v-3.035
			C-4849.115,182.457-4852.558,178.675-4857.793,176.442z"/>
		<path id="XMLID_28_" class="st2" d="M-4868.778,232.479c-10.868,0-19.676-5.56-19.676-12.413v8.28
			c0,6.864,8.808,12.426,19.676,12.426c10.858,0,19.663-5.562,19.663-12.426V223.1v-3.034c0,0.961-0.189,1.892-0.517,2.79
			C-4851.641,228.365-4859.442,232.479-4868.778,232.479z"/>
		<path id="XMLID_29_" class="st2" d="M-4850.907,213.935c-1.17,1.615-2.868,3.042-4.959,4.195
			c-3.457,1.906-7.965,3.069-12.912,3.069c-10.868,0-19.676-5.56-19.676-12.426v8.293c0,6.854,8.808,12.413,19.676,12.413
			c7.938,0,14.763-2.978,17.868-7.255c1.142-1.573,1.795-3.316,1.795-5.159v-2.257v-3v-3.036c0,0.962-0.189,1.894-0.516,2.792
			C-4849.931,212.39-4850.361,213.182-4850.907,213.935z"/>
		<path id="XMLID_30_" class="st2" d="M-4850.758,202.739c-1.145,1.656-2.851,3.117-4.956,4.303
			c-0.443,0.249-0.902,0.485-1.379,0.708c-0.234,0.109-0.458,0.227-0.699,0.33c-3.137,1.337-6.917,2.118-10.985,2.118
			c-10.868,0-19.676-5.56-19.676-12.426v8.28c0,6.867,8.808,12.426,19.676,12.426c4.381,0,8.414-0.916,11.683-2.447
			c1.8-0.843,3.378-1.865,4.632-3.041c0.66-0.619,1.226-1.279,1.704-1.97c1.052-1.522,1.644-3.2,1.644-4.968v-2.524v-2.721v-3.035
			c0,0.961-0.189,1.893-0.516,2.792C-4849.904,201.317-4850.279,202.045-4850.758,202.739z"/>
	</g>
	<g id="XMLID_7_">
		<path id="XMLID_20_" class="st2" d="M-4894.908,180.304c-3.256,2.251-7.979,4.294-10.15-0.818c-0.707-0.08-3.962-3.549-4.63-3.781
			c-0.251-0.08-0.515-0.15-0.779-0.192c-1.83-0.324-3.68,0.515-4.943,1.892l-7.636,8.393c4.924,6.287,12.561,10.341,21.165,10.341
			c2.143,0,4.216-0.264,6.207-0.738v-11.689C-4895.676,182.529-4895.397,181.389-4894.908,180.304z"/>
		<path id="XMLID_32_" class="st2" d="M-4890.655,175.441c0.083-0.059,0.166-0.117,0.251-0.174
			C-4890.489,175.325-4890.572,175.383-4890.655,175.441z"/>
		<path id="XMLID_53_" class="st2" d="M-4935.015,111.241v115.958h40.898v-5.522c-0.998-1.487-1.559-3.118-1.559-4.831h-16.612
			c0.031-0.344,0.052-0.688,0.052-1.043c0-6.287-5.096-11.383-11.396-11.383c-0.341,0-0.686,0.021-1.03,0.052v-20.95
			c0.05,0.08,0.107,0.156,0.158,0.235c-2.709-4.193-4.305-9.176-4.305-14.543c0-5.33,1.58-10.284,4.263-14.468
			c-0.038,0.059-0.08,0.114-0.117,0.173v-20.95c0.344,0.031,0.688,0.052,1.03,0.052c6.3,0,11.396-5.107,11.396-11.396
			c0-0.342-0.021-0.686-0.052-1.03h20.807c-0.028,0.344-0.049,0.688-0.049,1.03c0,6.29,5.097,11.396,11.383,11.396
			c0.355,0,0.699-0.021,1.043-0.052v20.95c-4.773-7.573-13.175-12.618-22.78-12.618c-8.601,0-16.236,4.052-21.16,10.335l7.704,8.461
			c1.041,1.141,2.485,1.931,4.033,1.91c0.515-0.01,1.041-0.091,1.537-0.264c1.02-0.352,2.446-3.882,5.813-3.882
			c2.679,0,5.125,1.033,6.958,2.71c0.595-1.677,5.772-3.225,7.542-2.71c0,0,4.174,8.138-0.171,15.902
			c3.537-2.148,8.333-3.475,13.628-3.475c2.558,0,5.003,0.324,7.25,0.88v-60.926H-4935.015z M-4923.632,210.626
			c2.863,0,5.177,2.327,5.177,5.177c0,2.863-2.314,5.177-5.177,5.177c-2.85,0-5.176-2.314-5.176-5.177
			C-4928.809,212.953-4926.482,210.626-4923.632,210.626z M-4923.632,127.801c-2.85,0-5.176-2.314-5.176-5.177
			c0-2.85,2.327-5.176,5.176-5.176c2.863,0,5.177,2.327,5.177,5.176C-4918.456,125.487-4920.77,127.801-4923.632,127.801z
			 M-4880.146,127.801c-2.85,0-5.176-2.314-5.176-5.177c0-2.85,2.327-5.176,5.176-5.176c2.863,0,5.177,2.327,5.177,5.176
			C-4874.97,125.487-4877.284,127.801-4880.146,127.801z"/>
		<path id="XMLID_40_" class="st2" d="M-4894.498,179.51c0.001-0.002,0.003-0.005,0.004-0.007
			C-4894.495,179.505-4894.496,179.508-4894.498,179.51z"/>
		<path id="XMLID_41_" class="st2" d="M-4892.737,177.202c-0.055,0.056-0.108,0.112-0.162,0.168
			C-4892.845,177.314-4892.792,177.258-4892.737,177.202z"/>
	</g>
	<path id="XMLID_6_" class="st2" d="M-4841.117,145.804v-35.234h-6.22v36.083C-4845.396,146.169-4843.301,145.876-4841.117,145.804"
		/>
	<path id="XMLID_5_" class="st2" d="M-4850.337,146.653v-36.083h-6.207v38.581C-4854.755,148.089-4852.65,147.23-4850.337,146.653"
		/>
	<path id="XMLID_4_" class="st2" d="M-4859.543,149.15v-38.581h-6.207v47.63C-4865.75,154.622-4863.356,151.415-4859.543,149.15"/>
</g>
<g id="XMLID_60_">
	<defs>
		<rect id="XMLID_59_" x="-4978.482" y="81.142" width="95" height="173"/>
	</defs>
	<clipPath id="XMLID_13_">
		<use xlink:href="#XMLID_59_"  style="overflow:visible;"/>
	</clipPath>
	<g id="XMLID_15_" class="st3">
		<g id="XMLID_38_">
			<path id="XMLID_49_" class="st4" d="M-4839.12,154.327c-10.868,0-19.676,5.562-19.676,12.426v4.305
				c3.645,1.341,7.319,2.662,10.222,4.832c0.625,0.468,1.184,0.946,1.689,1.432c0.702,0.448,1.289,1.076,1.658,1.891
				c1.828,2.543,2.29,5.253,1.808,7.936c1.385,0.198,2.82,0.31,4.299,0.31c10.858,0,19.663-5.56,19.663-12.426v-8.28
				C-4819.457,159.889-4828.262,154.327-4839.12,154.327z"/>
			<path id="XMLID_48_" class="st4" d="M-4839.12,212.482c-1.975,0-3.878-0.187-5.676-0.528v8.293
				c1.798,0.342,3.702,0.529,5.676,0.529c10.858,0,19.663-5.562,19.663-12.426v-8.28
				C-4819.457,206.922-4828.262,212.482-4839.12,212.482z"/>
			<path id="XMLID_47_" class="st4" d="M-4839.12,201.202c-1.975,0-3.878-0.187-5.676-0.528v8.28
				c1.798,0.341,3.702,0.528,5.676,0.528c10.858,0,19.663-5.56,19.663-12.413v-8.293
				C-4819.457,195.643-4828.262,201.202-4839.12,201.202z"/>
			<path id="XMLID_46_" class="st4" d="M-4839.12,190.201c-1.697,0-3.337-0.145-4.907-0.401c-0.107,0.747-0.376,1.463-0.769,2.1
				v6.053c1.798,0.341,3.702,0.528,5.676,0.528c10.858,0,19.663-5.56,19.663-12.426v-8.28
				C-4819.457,184.642-4828.262,190.201-4839.12,190.201z"/>
			<path id="XMLID_44_" class="st4" d="M-4857.796,176.445c-3.137-1.338-6.917-2.119-10.984-2.119
				c-10.868,0-19.676,5.562-19.676,12.426v8.28c0,6.867,8.808,12.426,19.676,12.426c4.068,0,7.848-0.781,10.984-2.118
				c0.022-0.009,0.042-0.02,0.063-0.029c0.25-0.107,0.483-0.228,0.724-0.342c1.839-0.871,3.433-1.935,4.692-3.154
				c0.589-0.57,1.107-1.171,1.544-1.801c1.058-1.526,1.655-3.209,1.655-4.982v-2.503v-2.742v-3.035
				C-4849.118,182.461-4852.561,178.678-4857.796,176.445z"/>
			<path id="XMLID_43_" class="st4" d="M-4868.781,232.482c-10.868,0-19.676-5.56-19.676-12.413v8.28
				c0,6.864,8.808,12.426,19.676,12.426c10.857,0,19.663-5.562,19.663-12.426v-5.246v-3.034c0,0.961-0.19,1.892-0.518,2.79
				C-4851.644,228.368-4859.445,232.482-4868.781,232.482z"/>
			<path id="XMLID_42_" class="st4" d="M-4850.91,213.938c-1.17,1.615-2.868,3.042-4.959,4.195
				c-3.456,1.906-7.964,3.069-12.911,3.069c-10.868,0-19.676-5.56-19.676-12.426v8.293c0,6.854,8.808,12.413,19.676,12.413
				c7.938,0,14.763-2.978,17.868-7.255c1.142-1.573,1.795-3.316,1.795-5.159v-2.257v-3v-3.036c0,0.962-0.189,1.894-0.516,2.792
				C-4849.934,212.393-4850.364,213.185-4850.91,213.938z"/>
			<path id="XMLID_39_" class="st4" d="M-4850.762,202.742c-1.145,1.656-2.85,3.117-4.956,4.303
				c-0.442,0.249-0.902,0.485-1.379,0.708c-0.234,0.109-0.458,0.227-0.7,0.33c-3.137,1.337-6.917,2.118-10.984,2.118
				c-10.868,0-19.676-5.56-19.676-12.426v8.28c0,6.867,8.808,12.426,19.676,12.426c4.38,0,8.414-0.916,11.683-2.447
				c1.8-0.843,3.377-1.865,4.632-3.041c0.66-0.619,1.227-1.279,1.704-1.97c1.052-1.522,1.645-3.2,1.645-4.968v-2.524v-2.721v-3.035
				c0,0.961-0.189,1.893-0.516,2.792C-4849.908,201.32-4850.282,202.048-4850.762,202.742z"/>
		</g>
		<g id="XMLID_19_">
			<path id="XMLID_37_" class="st4" d="M-4894.912,180.308c-3.255,2.251-7.979,4.294-10.15-0.818
				c-0.707-0.08-3.963-3.549-4.63-3.781c-0.251-0.08-0.515-0.15-0.779-0.192c-1.83-0.324-3.681,0.515-4.944,1.892l-7.635,8.393
				c4.924,6.287,12.561,10.341,21.165,10.341c2.143,0,4.216-0.264,6.207-0.738v-11.689
				C-4895.679,182.533-4895.401,181.392-4894.912,180.308z"/>
			<path id="XMLID_36_" class="st4" d="M-4890.659,175.445c0.083-0.059,0.167-0.117,0.251-0.174
				C-4890.492,175.328-4890.576,175.386-4890.659,175.445z"/>
			<path id="XMLID_23_" class="st4" d="M-4935.019,111.245v115.958h40.898v-5.522c-0.999-1.487-1.559-3.118-1.559-4.831h-16.611
				c0.031-0.344,0.051-0.688,0.051-1.043c0-6.287-5.096-11.383-11.396-11.383c-0.342,0-0.686,0.021-1.03,0.052v-20.95
				c0.05,0.08,0.107,0.156,0.158,0.235c-2.709-4.193-4.305-9.176-4.305-14.543c0-5.33,1.581-10.284,4.263-14.468
				c-0.038,0.059-0.08,0.114-0.117,0.173v-20.95c0.344,0.031,0.688,0.052,1.03,0.052c6.3,0,11.396-5.107,11.396-11.396
				c0-0.342-0.021-0.686-0.051-1.03h20.807c-0.029,0.344-0.049,0.688-0.049,1.03c0,6.29,5.096,11.396,11.383,11.396
				c0.354,0,0.699-0.021,1.043-0.052v20.95c-4.773-7.573-13.174-12.618-22.779-12.618c-8.601,0-16.236,4.052-21.16,10.335
				l7.704,8.461c1.041,1.141,2.485,1.931,4.032,1.91c0.515-0.01,1.041-0.091,1.538-0.264c1.02-0.352,2.446-3.882,5.813-3.882
				c2.679,0,5.125,1.033,6.957,2.71c0.596-1.677,5.772-3.225,7.542-2.71c0,0,4.173,8.138-0.172,15.902
				c3.537-2.148,8.333-3.475,13.628-3.475c2.557,0,5.003,0.324,7.25,0.88v-60.926H-4935.019z M-4923.635,210.63
				c2.863,0,5.177,2.327,5.177,5.177c0,2.863-2.314,5.177-5.177,5.177c-2.85,0-5.177-2.314-5.177-5.177
				C-4928.812,212.956-4926.485,210.63-4923.635,210.63z M-4923.635,127.804c-2.85,0-5.177-2.314-5.177-5.177
				c0-2.85,2.327-5.176,5.177-5.176c2.863,0,5.177,2.327,5.177,5.176C-4918.458,125.49-4920.772,127.804-4923.635,127.804z
				 M-4880.149,127.804c-2.85,0-5.177-2.314-5.177-5.177c0-2.85,2.327-5.176,5.177-5.176c2.863,0,5.176,2.327,5.176,5.176
				C-4874.973,125.49-4877.287,127.804-4880.149,127.804z"/>
			<path id="XMLID_22_" class="st4" d="M-4894.501,179.513c0.001-0.002,0.003-0.005,0.004-0.007
				C-4894.498,179.509-4894.5,179.511-4894.501,179.513z"/>
			<path id="XMLID_21_" class="st4" d="M-4892.74,177.206c-0.054,0.056-0.108,0.112-0.161,0.168
				C-4892.849,177.317-4892.794,177.262-4892.74,177.206z"/>
		</g>
		<path id="XMLID_18_" class="st4" d="M-4841.12,145.807v-35.234h-6.22v36.083C-4845.398,146.172-4843.305,145.879-4841.12,145.807"
			/>
		<path id="XMLID_17_" class="st4" d="M-4850.34,146.656v-36.083h-6.207v38.581C-4854.758,148.092-4852.654,147.233-4850.34,146.656
			"/>
		<path id="XMLID_16_" class="st4" d="M-4859.546,149.154v-38.581h-6.207v47.63
			C-4865.753,154.625-4863.359,151.418-4859.546,149.154"/>
	</g>
</g>
<text id="XMLID_804_" transform="matrix(1 0 0 1 -4940.6514 362.0002)" class="st32" style="font-family:'OpenSans'; font-size:40px;">Pagos</text>
<g id="XMLID_115_">
	<circle id="XMLID_118_" class="st5" cx="-4330.91" cy="173.569" r="138.569"/>
	<path id="XMLID_116_" class="st6" d="M-4329.479,35v277.102c75.87-0.769,137.139-62.5,137.139-138.551
		S-4253.609,35.769-4329.479,35z"/>
</g>
<text id="XMLID_61_" transform="matrix(1 0 0 1 -4441.3882 362.0002)" class="st32" style="font-family:'OpenSans'; font-size:40px;">Certificados</text>
<g id="XMLID_171_">
	<path id="XMLID_178_" class="st2" d="M-4371.324,109.523v125.362h39.078c-0.159-0.999-0.243-2.022-0.243-3.066
		c0-10.724,8.693-19.417,19.417-19.417c10.724,0,19.417,8.693,19.417,19.417c0,1.044-0.085,2.067-0.243,3.066h7.737V109.523
		H-4371.324z M-4361.785,121.105h24.527v4.088h-24.527V121.105z M-4295.698,203.544h-66.087v-4.088h66.087V203.544z
		 M-4295.698,193.324h-66.087v-4.088h66.087V193.324z M-4295.017,172.203h-66.087v-4.088h66.087V172.203z M-4295.017,161.984
		h-66.087v-4.088h66.087V161.984z M-4295.017,146.995h-66.087v-4.088h66.087V146.995z M-4295.017,136.775h-66.087v-4.088h66.087
		V136.775z"/>
	<path id="XMLID_173_" class="st2" d="M-4313.071,215.807c-8.843,0-16.011,7.168-16.011,16.011c0,4.461,1.826,8.494,4.769,11.397
		v15.514l11.497-7.498l11.497,7.498v-16.043c2.642-2.855,4.258-6.673,4.258-10.869
		C-4297.061,222.976-4304.229,215.807-4313.071,215.807z"/>
</g>
<g id="XMLID_201_">
	<defs>
		<path id="XMLID_200_" d="M-4340.914,262.145h-41.743c-6.6,0-12-5.4-12-12V111.319c0-6.6,5.4-12,12-12h41.743c6.6,0,12,5.4,12,12
			v138.826C-4328.914,256.745-4334.314,262.145-4340.914,262.145z"/>
	</defs>
	<clipPath id="XMLID_14_">
		<use xlink:href="#XMLID_200_"  style="overflow:visible;"/>
	</clipPath>
	<g id="XMLID_175_" class="st7">
		<path id="XMLID_184_" class="st4" d="M-4371.151,109.539V234.9h39.078c-0.159-0.999-0.243-2.022-0.243-3.066
			c0-10.724,8.693-19.417,19.417-19.417c10.724,0,19.417,8.693,19.417,19.417c0,1.044-0.085,2.067-0.243,3.066h7.737V109.539
			H-4371.151z M-4361.613,121.121h24.527v4.088h-24.527V121.121z M-4295.525,203.56h-66.087v-4.088h66.087V203.56z
			 M-4295.525,193.34h-66.087v-4.088h66.087V193.34z M-4294.844,172.22h-66.087v-4.088h66.087V172.22z M-4294.844,162h-66.087
			v-4.088h66.087V162z M-4294.844,147.011h-66.087v-4.088h66.087V147.011z M-4294.844,136.791h-66.087v-4.088h66.087V136.791z"/>
		<path id="XMLID_199_" class="st4" d="M-4312.899,215.824c-8.843,0-16.011,7.168-16.011,16.011c0,4.461,1.826,8.494,4.77,11.397
			v15.514l11.497-7.498l11.497,7.498v-16.043c2.642-2.855,4.258-6.673,4.258-10.869
			C-4296.888,222.992-4304.057,215.824-4312.899,215.824z"/>
	</g>
</g>
<circle id="XMLID_247_" class="st8" cx="-3755.479" cy="173.569" r="138.569"/>
<path id="XMLID_244_" class="st9" d="M-3754.048,35v277.102c75.869-0.769,137.138-62.5,137.138-138.551
	S-3678.179,35.769-3754.048,35z"/>
<text id="XMLID_242_" transform="matrix(1 0 0 1 -3851.1917 362.0002)" class="st32" style="font-family:'OpenSans'; font-size:40px;">Beneficios</text>
<g id="XMLID_306_">
	<g id="XMLID_152_">
		<rect id="XMLID_156_" x="-3823.091" y="159.061" class="st2" width="42.132" height="59.249"/>
		<rect id="XMLID_155_" x="-3777.008" y="143.261" class="st2" width="42.132" height="75.048"/>
		<polygon id="XMLID_154_" class="st2" points="-3731.584,218.309 -3689.452,218.309 -3689.452,128.12 -3673.653,128.12 
			-3710.518,80.721 -3747.384,128.12 -3731.584,128.12 		"/>
		<polygon id="XMLID_153_" class="st2" points="-3834.282,221.601 -3834.282,242.667 -3755.284,242.667 -3676.286,242.667 
			-3676.286,221.601 -3755.284,221.601 		"/>
	</g>
	<g id="XMLID_174_">
		<defs>
			<rect id="XMLID_157_" x="-3844.698" y="78.054" width="91.01" height="186.56"/>
		</defs>
		<clipPath id="XMLID_50_">
			<use xlink:href="#XMLID_157_"  style="overflow:visible;"/>
		</clipPath>
		<g id="XMLID_56_" class="st10">
			<rect id="XMLID_57_" x="-3822.997" y="159.093" class="st4" width="42.132" height="59.249"/>
			<rect id="XMLID_129_" x="-3776.914" y="143.293" class="st4" width="42.132" height="75.048"/>
			<polygon id="XMLID_130_" class="st4" points="-3731.49,218.342 -3689.358,218.342 -3689.358,128.152 -3673.559,128.152 
				-3710.424,80.753 -3747.29,128.152 -3731.49,128.152 			"/>
			<polygon id="XMLID_131_" class="st4" points="-3834.188,221.633 -3834.188,242.699 -3755.19,242.699 -3676.192,242.699 
				-3676.192,221.633 -3755.19,221.633 			"/>
		</g>
	</g>
</g>
<circle id="XMLID_323_" class="st11" cx="-3183.34" cy="173.569" r="138.569"/>
<path id="XMLID_322_" class="st12" d="M-3181.91,35v277.102c75.87-0.769,137.139-62.5,137.139-138.551S-3106.04,35.769-3181.91,35z"
	/>
<text id="XMLID_321_" transform="matrix(1 0 0 1 -3237.7056 362.0002)" class="st32" style="font-family:'OpenSans'; font-size:40px;">Becas</text>
<g id="XMLID_203_">
	<path id="XMLID_416_" class="st2" d="M-3171.652,194.934c-2.936,1.823-6.698,2.828-10.589,2.828c-3.893,0-7.656-1.006-10.591-2.828
		l-47.945-29.76c0,0-4.327-2.686-4.327,3.397v29.719c0,15.655,28.146,32.531,62.862,32.531c34.716,0,62.862-16.876,62.862-32.531
		v-31.395c0-4.883-3.078-2.495-3.078-2.495L-3171.652,194.934z M-3171.652,194.934"/>
	<path id="XMLID_415_" class="st2" d="M-3103.031,142.306c3.683-2.272,3.683-5.99,0-8.263l-73.039-36.727
		c-3.683-2.272-9.711-2.272-13.396,0l-73.037,36.727c-3.683,2.273-3.683,5.99,0,8.263l73.037,45.044
		c3.685,2.272,9.713,2.272,13.396,0"/>
	<rect id="XMLID_414_" x="-3260.613" y="97.681" class="st13" width="165.382" height="134.923"/>
	<g id="XMLID_170_">
		<defs>
			<rect id="XMLID_411_" x="-3284.91" y="92" width="102.873" height="188.163"/>
		</defs>
		<clipPath id="XMLID_62_">
			<use xlink:href="#XMLID_411_"  style="overflow:visible;"/>
		</clipPath>
		<g id="XMLID_392_" class="st14">
			<defs>
				<rect id="XMLID_393_" x="-3264.711" y="96.136" width="165.382" height="134.923"/>
			</defs>
			<clipPath id="XMLID_63_">
				<use xlink:href="#XMLID_393_"  style="overflow:visible;"/>
			</clipPath>
			<path id="XMLID_395_" class="st15" d="M-3171.622,195.363c-2.936,1.801-6.698,2.795-10.589,2.795
				c-3.893,0-7.656-0.994-10.591-2.795l-47.945-29.403c0,0-4.327-2.654-4.327,3.356v29.363c0,15.468,28.146,32.142,62.862,32.142
				c34.716,0,62.862-16.674,62.862-32.142V167.66c0-4.824-3.078-2.465-3.078-2.465L-3171.622,195.363z M-3171.622,195.363"/>
			<path id="XMLID_394_" class="st15" d="M-3102.476,142.57c3.683-2.26,3.683-5.957,0-8.217l-73.039-36.523
				c-3.683-2.26-9.711-2.26-13.396,0l-73.037,36.523c-3.683,2.26-3.683,5.957,0,8.217l73.037,44.795c3.685,2.26,9.713,2.26,13.396,0
				"/>
		</g>
		<path id="XMLID_389_" class="st16" d="M-3105.497,208.966v-49.472c0,0,0.035-2.344-1.357-1.569
			c-1.115,0.62-3.849,2.145-4.812,2.983c-1.113,0.965-0.86,3.136-0.86,3.136v44.922c0,0.638-0.55,0.943-0.81,1.096
			c-2.526,1.484-4.222,4.224-4.222,7.364c0,4.721,3.827,8.548,8.546,8.548c4.721,0,8.548-3.826,8.548-8.548
			c0-3.152-1.71-5.9-4.251-7.383C-3104.97,209.896-3105.497,209.604-3105.497,208.966L-3105.497,208.966z M-3105.497,208.966"/>
	</g>
	<polygon id="XMLID_176_" class="st2" points="-3102.427,216.061 -3108.114,216.061 -3108.114,151.96 -3102.427,148.341 	"/>
	<circle id="XMLID_202_" class="st2" cx="-3104.753" cy="214.252" r="6.979"/>
</g>
<circle id="XMLID_430_" class="st17" cx="-2579.34" cy="173.569" r="138.569"/>
<path id="XMLID_429_" class="st18" d="M-2577.91,35v277.102c75.87-0.769,137.139-62.5,137.139-138.551S-2502.04,35.769-2577.91,35z"
	/>
<text id="XMLID_428_" transform="matrix(1 0 0 1 -2668.3833 362.0002)" class="st32" style="font-family:'OpenSans'; font-size:40px;">Subsidios</text>
<g id="XMLID_121_">
	<g id="XMLID_491_">
		<path id="XMLID_412_" class="st2" d="M-2556.821,126.151c0,7.367-5.989,13.356-13.356,13.356c-7.374,0-13.329-5.989-13.329-13.356
			c0-7.347,5.955-13.329,13.329-13.329C-2562.81,112.822-2556.821,118.804-2556.821,126.151L-2556.821,126.151z M-2556.821,126.151"
			/>
		<path id="XMLID_223_" class="st2" d="M-2578.882,106.204c0,5.52-4.47,9.963-9.983,9.963c-5.514,0-9.983-4.443-9.983-9.963
			c0-5.514,4.47-9.983,9.983-9.983C-2583.352,96.221-2578.882,100.691-2578.882,106.204L-2578.882,106.204z M-2578.882,106.204"/>
		<path id="XMLID_220_" class="st2" d="M-2544.094,111.878c0,3.841-3.111,6.979-6.979,6.979c-3.841,0-6.952-3.138-6.952-6.979
			c0-3.841,3.111-6.952,6.952-6.952C-2547.206,104.926-2544.094,108.038-2544.094,111.878L-2544.094,111.878z M-2544.094,111.878"/>
		<path id="XMLID_218_" class="st2" d="M-2495.71,158.521c-1.332-3.058-4.182-5.065-7.448-5.279
			c-2.121-0.154-4.209,0.395-6.089,1.285c-1.051-0.836-2.248-1.546-3.633-1.987c-3.245-1.07-10.352-0.134-13.49,3.185
			c-6.531-8.913-16.26-16.099-27.809-20.749c-2.141,3.5-5.386,6.216-9.281,7.682c0.756,0.629,1.177,1.07,1.231,1.124
			c0.964,1.124,0.836,2.824-0.261,3.794c-0.522,0.442-1.124,0.649-1.753,0.649c-0.756,0-1.492-0.314-2.041-0.91
			c-0.127-0.161-4.282-4.55-15.183-4.55c-10.873,0-15.028,4.389-15.216,4.57c-0.99,1.078-2.663,1.178-3.761,0.214
			c-1.097-0.997-1.204-2.643-0.261-3.74c0.234-0.261,5.092-5.514,16.675-6.243c-2.041-2.302-3.526-5.099-4.236-8.183
			c-7.608,0.368-14.895,1.726-21.613,3.975c-6.51-8.444-23.707-16.206-32.62-18.093c0,18.455,8.103,22.583,7.789,32.546
			c-6.798,6.323-11.763,13.904-14.299,22.268l-9.622-1.412c-2.897-0.421-4.804,1.593-4.229,4.47l3.841,19.184
			c0.575,2.904,3.446,5.253,6.403,5.253h4.309c3.399,9.488,10.017,17.852,18.796,24.363v28.826c14.587,0,26.424,0.421,26.424-11.027
			v-5.701c6.042,1.412,12.392,2.228,19.03,2.228c8.598,0,16.809-1.365,24.363-3.714v7.16c0,11.475,11.837,11.054,26.423,11.054
			v-33.242c10.037-9.388,16.126-21.512,16.126-34.788c0-8.939-2.771-17.33-7.608-24.731c1.807-2.77,8.418-3.787,11.034-2.924
			c0.729,0.234,1.412,0.575,1.987,0.964c-2.382,1.807-4.108,4.209-4.523,6.457c-0.314,1.566-0.395,5.44,5.226,7.24
			c0.703,0.208,1.385,0.341,2.014,0.341c2.034,0,3.58-1.151,4.262-3.239c0.883-2.723,0.02-6.979-2.509-10.251
			c1.278-0.495,2.61-0.756,3.941-0.676c2.697,0.181,4.423,2.007,5.152,3.68c0.81,1.887,0.602,3.821-0.549,5.233
			c-0.469,0.575-0.395,1.412,0.18,1.88c0.549,0.468,1.412,0.395,1.88-0.181C-2494.874,164.349-2494.506,161.291-2495.71,158.521
			L-2495.71,158.521z M-2625.119,171.328c-2.824,0-5.119-2.268-5.119-5.119c0-2.824,2.295-5.125,5.119-5.125
			c2.851,0,5.152,2.302,5.152,5.125C-2619.966,169.06-2622.268,171.328-2625.119,171.328L-2625.119,171.328z M-2507.286,166.002
			c-0.261,0.81-0.863,1.827-2.931,1.171c-2.61-0.863-3.761-2.248-3.426-4.209c0.341-1.747,1.887-3.707,3.975-5.119
			C-2507.42,160.482-2506.664,164.088-2507.286,166.002L-2507.286,166.002z M-2507.286,166.002"/>
	</g>
	<g id="XMLID_495_">
		<defs>
			<rect id="XMLID_494_" x="-2667.221" y="78" width="89.08" height="180.185"/>
		</defs>
		<clipPath id="XMLID_64_">
			<use xlink:href="#XMLID_494_"  style="overflow:visible;"/>
		</clipPath>
		<g id="XMLID_493_" class="st19">
			<path id="XMLID_475_" class="st4" d="M-2556.821,126.137c0,7.367-5.989,13.356-13.356,13.356
				c-7.374,0-13.329-5.989-13.329-13.356c0-7.347,5.955-13.329,13.329-13.329C-2562.81,112.808-2556.821,118.791-2556.821,126.137
				L-2556.821,126.137z M-2556.821,126.137"/>
			<path id="XMLID_472_" class="st4" d="M-2578.882,106.204c0,5.52-4.47,9.963-9.983,9.963c-5.514,0-9.983-4.443-9.983-9.963
				c0-5.514,4.47-9.983,9.983-9.983C-2583.352,96.221-2578.882,100.691-2578.882,106.204L-2578.882,106.204z M-2578.882,106.204"/>
			<path id="XMLID_469_" class="st4" d="M-2544.094,111.878c0,3.841-3.111,6.979-6.979,6.979c-3.841,0-6.952-3.138-6.952-6.979
				c0-3.841,3.111-6.952,6.952-6.952C-2547.206,104.926-2544.094,108.038-2544.094,111.878L-2544.094,111.878z M-2544.094,111.878"
				/>
			<path id="XMLID_464_" class="st4" d="M-2495.71,158.545c-1.332-3.058-4.182-5.065-7.448-5.279
				c-2.121-0.154-4.209,0.395-6.089,1.285c-1.051-0.836-2.248-1.546-3.633-1.987c-3.245-1.07-10.352-0.134-13.49,3.185
				c-6.531-8.913-16.26-16.099-27.809-20.749c-2.141,3.5-5.386,6.216-9.281,7.682c0.756,0.629,1.177,1.07,1.231,1.124
				c0.964,1.124,0.836,2.824-0.261,3.794c-0.522,0.442-1.124,0.649-1.753,0.649c-0.756,0-1.492-0.314-2.041-0.91
				c-0.127-0.161-4.282-4.55-15.183-4.55c-10.873,0-15.028,4.389-15.216,4.57c-0.99,1.078-2.663,1.178-3.761,0.214
				c-1.097-0.997-1.204-2.643-0.261-3.74c0.234-0.261,5.092-5.514,16.675-6.243c-2.041-2.302-3.526-5.099-4.236-8.183
				c-7.608,0.368-14.895,1.726-21.613,3.975c-6.51-8.444-23.707-16.206-32.62-18.093c0,18.455,8.103,22.583,7.789,32.546
				c-6.798,6.323-11.763,13.904-14.299,22.268l-9.622-1.412c-2.897-0.421-4.804,1.593-4.229,4.47l3.841,19.184
				c0.575,2.904,3.446,5.253,6.403,5.253h4.309c3.399,9.488,10.017,17.852,18.796,24.363v28.826
				c14.587,0,26.424,0.421,26.424-11.027v-5.701c6.042,1.412,12.392,2.228,19.03,2.228c8.598,0,16.809-1.365,24.363-3.714v7.16
				c0,11.475,11.837,11.054,26.423,11.054v-33.242c10.037-9.388,16.126-21.512,16.126-34.788c0-8.939-2.771-17.33-7.608-24.731
				c1.807-2.77,8.418-3.787,11.034-2.924c0.729,0.234,1.412,0.575,1.987,0.964c-2.382,1.807-4.108,4.209-4.523,6.457
				c-0.314,1.566-0.395,5.44,5.226,7.24c0.703,0.208,1.385,0.341,2.014,0.341c2.034,0,3.58-1.151,4.262-3.239
				c0.883-2.723,0.02-6.979-2.509-10.251c1.278-0.495,2.61-0.756,3.941-0.676c2.697,0.181,4.423,2.007,5.152,3.68
				c0.81,1.887,0.602,3.821-0.549,5.233c-0.469,0.575-0.395,1.412,0.18,1.88c0.549,0.468,1.412,0.395,1.88-0.181
				C-2494.874,164.372-2494.506,161.314-2495.71,158.545L-2495.71,158.545z M-2625.119,171.351c-2.824,0-5.119-2.268-5.119-5.119
				c0-2.824,2.295-5.125,5.119-5.125c2.851,0,5.152,2.302,5.152,5.125C-2619.966,169.083-2622.268,171.351-2625.119,171.351
				L-2625.119,171.351z M-2507.286,166.025c-0.261,0.81-0.863,1.827-2.931,1.171c-2.61-0.863-3.761-2.248-3.426-4.209
				c0.341-1.747,1.887-3.707,3.975-5.119C-2507.42,160.505-2506.664,164.112-2507.286,166.025L-2507.286,166.025z
				 M-2507.286,166.025"/>
		</g>
	</g>
</g>
<circle id="XMLID_236_" class="st20" cx="-2016.34" cy="173.569" r="138.569"/>
<path id="XMLID_235_" class="st21" d="M-2014.91,35v277.102c75.869-0.769,137.138-62.5,137.138-138.551S-1939.04,35.769-2014.91,35z
	"/>
<text id="XMLID_234_" transform="matrix(1 0 0 1 -2086.6821 362.0002)" class="st32" style="font-family:'OpenSans'; font-size:40px;">Empleo</text>
<g id="XMLID_180_">
	<path id="XMLID_278_" class="st2" d="M-1983.231,214.71l-1.817-1.817c-9.009,5.336-19.381,8.214-30.018,8.214
		c-13.361,0-26.08-4.428-36.414-12.606c-2.802,1.93-5.678,4.089-8.48,6.397c-2.233,1.817-3.521,4.58-3.521,7.458v13.665h97.096
		v-4.505l-14.271-14.271L-1983.231,214.71z M-1983.231,214.71"/>
	<path id="XMLID_271_" class="st2" d="M-2012.756,131.241h-4.316c-9.918,0-17.98,8.062-17.98,17.98v19.949
		c0,3.142,1.589,5.869,4.012,7.495v17.034c4.883,2.499,10.334,3.861,16.012,3.861c5.754,0,11.28-1.362,16.2-3.937v-16.92
		c2.423-1.628,4.013-4.355,4.013-7.495V149.26C-1994.776,139.266-2002.84,131.241-2012.756,131.241L-2012.756,131.241z
		 M-2012.756,131.241"/>
	<path id="XMLID_268_" class="st2" d="M-1925.468,201.422c-10.371-8.517-21.538-14.156-23.808-15.293
		c-0.266-0.113-0.418-0.379-0.418-0.68v-16.127c2.044-1.362,3.369-3.671,3.369-6.285v-16.731c0-8.327-6.737-15.066-15.066-15.066
		h-3.482c5.299,8.593,8.366,18.435,8.744,28.694c0.453,11.432-2.423,22.636-8.177,32.327l26.952,26.952h14.838v-11.471
		C-1922.514,205.283-1923.612,202.975-1925.468,201.422L-1925.468,201.422z M-1925.468,201.422"/>
	<path id="XMLID_233_" class="st2" d="M-1935.459,231.705l-29.791-29.791l-2.575-2.573l-0.871-0.871l-0.756-0.758l-2.007,2.007
		l-4.314-4.316c17.108-20.176,16.162-50.459-2.915-69.538c-10.033-10.031-23.206-15.066-36.34-15.066
		c-13.136,0-26.309,5.035-36.34,15.066c-20.062,20.061-20.062,52.616,0,72.679c10.031,10.031,23.204,15.066,36.34,15.066
		c11.811,0,23.62-4.051,33.198-12.151l4.314,4.314l-2.005,2.007l1.628,1.626l2.573,2.575l29.791,29.791
		c1.401,1.401,3.218,2.081,5.035,2.081c1.817,0,3.634-0.68,5.035-2.081C-1932.696,239.011-1932.696,234.507-1935.459,231.705
		C-1935.459,231.744-1935.459,231.705-1935.459,231.705L-1935.459,231.705z M-1984.745,192.526
		c-8.366,8.365-19.345,12.53-30.283,12.53c-10.977,0-21.917-4.164-30.283-12.53c-16.731-16.731-16.731-43.835,0-60.566
		c8.366-8.366,19.343-12.53,30.283-12.53c10.977,0,21.917,4.164,30.283,12.53C-1968.014,148.654-1968.014,175.795-1984.745,192.526
		L-1984.745,192.526z M-1984.745,192.526"/>
	<path id="XMLID_183_" class="st2" d="M-2065.108,131.241h-3.294c-8.328,0-15.066,6.739-15.066,15.066v16.731
		c0,2.614,1.325,4.922,3.37,6.285v16.127c0,0.301-0.151,0.529-0.417,0.68c-2.27,1.098-13.438,6.776-23.81,15.293
		c-1.854,1.552-2.952,3.861-2.952,6.284v11.469h36.795c0.756-3.898,2.8-7.419,5.903-9.955c2.499-2.044,5.035-3.974,7.534-5.754
		C-2076.388,183.781-2079.076,153.802-2065.108,131.241L-2065.108,131.241z M-2065.108,131.241"/>
</g>
<g id="XMLID_282_">
	<defs>
		<rect id="XMLID_281_" x="-2107.305" y="98.072" width="92.741" height="158.512"/>
	</defs>
	<clipPath id="XMLID_65_">
		<use xlink:href="#XMLID_281_"  style="overflow:visible;"/>
	</clipPath>
	<g id="XMLID_124_" class="st22">
		<path id="XMLID_142_" class="st4" d="M-1983.269,214.71l-1.817-1.817c-9.009,5.336-19.382,8.214-30.018,8.214
			c-13.361,0-26.08-4.428-36.414-12.606c-2.802,1.93-5.678,4.089-8.48,6.397c-2.233,1.817-3.521,4.58-3.521,7.458v13.665h97.096
			v-4.505l-14.271-14.271L-1983.269,214.71z M-1983.269,214.71"/>
		<path id="XMLID_139_" class="st4" d="M-2012.794,131.241h-4.316c-9.918,0-17.98,8.062-17.98,17.98v19.949
			c0,3.142,1.589,5.869,4.013,7.495v17.034c4.883,2.499,10.334,3.861,16.012,3.861c5.754,0,11.28-1.362,16.2-3.937v-16.92
			c2.423-1.628,4.013-4.355,4.013-7.495V149.26C-1994.813,139.266-2002.877,131.241-2012.794,131.241L-2012.794,131.241z
			 M-2012.794,131.241"/>
		<path id="XMLID_135_" class="st4" d="M-1925.505,201.422c-10.371-8.517-21.538-14.156-23.808-15.293
			c-0.266-0.113-0.418-0.379-0.418-0.68v-16.127c2.044-1.362,3.37-3.671,3.37-6.285v-16.731c0-8.327-6.737-15.066-15.066-15.066
			h-3.482c5.299,8.593,8.366,18.435,8.744,28.694c0.453,11.432-2.423,22.636-8.177,32.327l26.952,26.952h14.838v-11.471
			C-1922.552,205.283-1923.649,202.975-1925.505,201.422L-1925.505,201.422z M-1925.505,201.422"/>
		<path id="XMLID_128_" class="st4" d="M-1935.497,231.705l-29.791-29.791l-2.574-2.573l-0.871-0.871l-0.756-0.758l-2.007,2.007
			l-4.314-4.316c17.108-20.176,16.162-50.459-2.915-69.538c-10.033-10.031-23.206-15.066-36.34-15.066
			c-13.136,0-26.309,5.035-36.34,15.066c-20.062,20.061-20.062,52.616,0,72.679c10.031,10.031,23.204,15.066,36.34,15.066
			c11.811,0,23.62-4.051,33.198-12.151l4.314,4.314l-2.005,2.007l1.628,1.626l2.573,2.575l29.791,29.791
			c1.401,1.401,3.218,2.081,5.035,2.081c1.817,0,3.634-0.68,5.035-2.081C-1932.734,239.011-1932.734,234.507-1935.497,231.705
			C-1935.497,231.744-1935.497,231.705-1935.497,231.705L-1935.497,231.705z M-1984.782,192.526
			c-8.366,8.365-19.345,12.53-30.283,12.53c-10.977,0-21.917-4.164-30.283-12.53c-16.731-16.731-16.731-43.835,0-60.566
			c8.366-8.366,19.343-12.53,30.283-12.53c10.977,0,21.917,4.164,30.283,12.53C-1968.052,148.654-1968.052,175.795-1984.782,192.526
			L-1984.782,192.526z M-1984.782,192.526"/>
		<path id="XMLID_125_" class="st4" d="M-2065.146,131.241h-3.294c-8.328,0-15.066,6.739-15.066,15.066v16.731
			c0,2.614,1.325,4.922,3.369,6.285v16.127c0,0.301-0.151,0.529-0.417,0.68c-2.27,1.098-13.438,6.776-23.811,15.293
			c-1.854,1.552-2.952,3.861-2.952,6.284v11.469h36.795c0.756-3.898,2.8-7.419,5.903-9.955c2.499-2.044,5.035-3.974,7.534-5.754
			C-2076.426,183.781-2079.113,153.802-2065.146,131.241L-2065.146,131.241z M-2065.146,131.241"/>
	</g>
</g>
<circle id="XMLID_342_" class="st23" cx="-1465.945" cy="173.569" r="138.569"/>
<path id="XMLID_339_" class="st24" d="M-1464.514,35v277.102c75.87-0.769,137.139-62.5,137.139-138.551
	S-1388.645,35.769-1464.514,35z"/>
<text id="XMLID_338_" transform="matrix(1 0 0 1 -1579.4801 362.0002)" class="st32" style="font-family:'OpenSans'; font-size:40px;">Información</text>
<g id="XMLID_204_">
	<path id="XMLID_205_" class="st2" d="M-1463.202,105.432c-37.121,0-67.221,30.1-67.221,67.221c0,37.128,30.1,67.257,67.221,67.257
		c37.128,0,67.257-30.128,67.257-67.257C-1395.945,135.532-1426.073,105.432-1463.202,105.432L-1463.202,105.432z
		 M-1449.194,209.647c-3.472,1.359-6.225,2.39-8.281,3.109c-2.056,0.726-4.447,1.088-7.171,1.088c-4.197,0-7.47-1.031-9.782-3.087
		c-2.333-2.028-3.472-4.638-3.472-7.783c0-1.224,0.085-2.469,0.249-3.749c0.171-1.28,0.448-2.696,0.832-4.311l4.34-15.31
		c0.384-1.473,0.718-2.86,0.968-4.14c0.256-1.337,0.391-2.526,0.391-3.614c0-1.942-0.412-3.308-1.224-4.083
		c-0.804-0.776-2.333-1.139-4.61-1.139c-1.11,0-2.277,0.164-3.45,0.498c-1.167,0.363-2.163,0.697-2.995,1.003l1.138-4.695
		c2.831-1.167,5.556-2.141,8.139-2.973c2.589-0.84,5.03-1.252,7.342-1.252c4.162,0,7.363,1.025,9.611,3.031
		c2.248,1.999,3.394,4.61,3.394,7.833c0,0.669-0.086,1.835-0.228,3.5c-0.163,1.7-0.441,3.223-0.861,4.617l-4.304,15.253
		c-0.363,1.224-0.669,2.639-0.975,4.197c-0.278,1.558-0.413,2.753-0.413,3.557c0,2.028,0.47,3.422,1.359,4.14
		c0.918,0.754,2.476,1.11,4.724,1.11c1.053,0,2.227-0.192,3.557-0.555c1.309-0.356,2.276-0.69,2.888-0.967L-1449.194,209.647z
		 M-1449.941,147.733c-2.028,1.857-4.446,2.803-7.285,2.803c-2.803,0-5.25-0.946-7.278-2.803c-1.999-1.864-3.031-4.14-3.031-6.808
		c0-2.646,1.032-4.923,3.031-6.815c2.027-1.857,4.475-2.803,7.278-2.803c2.839,0,5.257,0.946,7.285,2.803
		c1.999,1.892,3.002,4.169,3.002,6.815C-1446.939,143.592-1447.942,145.869-1449.941,147.733L-1449.941,147.733z M-1449.941,147.733
		"/>
</g>
<g id="XMLID_327_">
	<defs>
		<rect id="XMLID_326_" x="-1581.643" y="89.031" width="114.251" height="194.99"/>
	</defs>
	<clipPath id="XMLID_66_">
		<use xlink:href="#XMLID_326_"  style="overflow:visible;"/>
	</clipPath>
	<g id="XMLID_303_" class="st25">
		<path id="XMLID_304_" class="st4" d="M-1463.202,105.432c-37.121,0-67.221,30.1-67.221,67.221c0,37.128,30.1,67.257,67.221,67.257
			c37.128,0,67.257-30.128,67.257-67.257C-1395.945,135.532-1426.073,105.432-1463.202,105.432L-1463.202,105.432z
			 M-1449.194,209.647c-3.472,1.359-6.225,2.39-8.281,3.109c-2.056,0.726-4.446,1.088-7.171,1.088c-4.197,0-7.47-1.031-9.782-3.087
			c-2.333-2.028-3.472-4.638-3.472-7.783c0-1.224,0.085-2.469,0.249-3.749c0.171-1.28,0.448-2.696,0.832-4.311l4.34-15.31
			c0.384-1.473,0.718-2.86,0.968-4.14c0.256-1.337,0.391-2.526,0.391-3.614c0-1.942-0.412-3.308-1.224-4.083
			c-0.804-0.775-2.333-1.138-4.61-1.138c-1.11,0-2.277,0.164-3.45,0.498c-1.167,0.363-2.163,0.697-2.995,1.003l1.138-4.695
			c2.831-1.167,5.556-2.141,8.139-2.973c2.589-0.84,5.03-1.252,7.342-1.252c4.162,0,7.363,1.025,9.611,3.031
			c2.248,1.999,3.394,4.61,3.394,7.833c0,0.669-0.086,1.835-0.228,3.5c-0.163,1.7-0.441,3.223-0.861,4.617l-4.304,15.253
			c-0.363,1.224-0.669,2.639-0.975,4.197c-0.278,1.558-0.413,2.753-0.413,3.557c0,2.028,0.47,3.422,1.359,4.14
			c0.918,0.754,2.476,1.11,4.724,1.11c1.053,0,2.227-0.192,3.557-0.555c1.309-0.356,2.276-0.69,2.888-0.967L-1449.194,209.647z
			 M-1449.941,147.733c-2.028,1.857-4.446,2.803-7.285,2.803c-2.803,0-5.25-0.946-7.278-2.803c-1.999-1.864-3.031-4.14-3.031-6.808
			c0-2.646,1.032-4.923,3.031-6.815c2.027-1.857,4.475-2.803,7.278-2.803c2.839,0,5.257,0.946,7.285,2.803
			c1.999,1.892,3.002,4.169,3.002,6.815C-1446.939,143.592-1447.942,145.869-1449.941,147.733L-1449.941,147.733z
			 M-1449.941,147.733"/>
	</g>
</g>
<circle id="XMLID_403_" class="st26" cx="-886.887" cy="173.569" r="138.569"/>
<path id="XMLID_400_" class="st27" d="M-885.456,35v277.102c75.869-0.769,137.138-62.5,137.138-138.551S-809.587,35.769-885.456,35z
	"/>
<text id="XMLID_399_" transform="matrix(1 0 0 1 -988.684 362.0002)" class="st32" style="font-family:'OpenSans'; font-size:40px;">Programas</text>
<g id="XMLID_580_">
	<rect id="XMLID_614_" x="-885.618" y="176.571" class="st2" width="5.648" height="50.905"/>
	<path id="XMLID_611_" class="st2" d="M-833.9,112.369l4.005,3.991l-42.415,42.415l-4.005-3.991L-833.9,112.369z M-833.9,112.369"/>
	<path id="XMLID_608_" class="st2" d="M-890.454,168.922l4.005,4.005l-56.554,56.54l-4.005-3.991L-890.454,168.922z
		 M-890.454,168.922"/>
	<path id="XMLID_605_" class="st2" d="M-923.216,120.848l31.108,31.108l-4.005,4.001l-31.094-31.105L-923.216,120.848z
		 M-923.216,120.848"/>
	<path id="XMLID_602_" class="st2" d="M-875.142,168.922l42.415,42.415l-4.001,3.991l-42.415-42.415L-875.142,168.922z
		 M-875.142,168.922"/>
	<path id="XMLID_599_" class="st2" d="M-812.112,111.541c0,7.815-6.323,14.138-14.138,14.138c-7.801,0-14.139-6.323-14.139-14.138
		c0-7.815,6.338-14.138,14.139-14.138C-818.436,97.403-812.112,103.726-812.112,111.541L-812.112,111.541z M-812.112,111.541"/>
	<path id="XMLID_596_" class="st2" d="M-868.666,233.125c0,7.815-6.324,14.138-14.139,14.138c-7.801,0-14.138-6.323-14.138-14.138
		c0-7.801,6.338-14.138,14.138-14.138C-874.99,218.987-868.666,225.324-868.666,233.125L-868.666,233.125z M-868.666,233.125"/>
	<path id="XMLID_593_" class="st2" d="M-933.696,227.48c0,7.801-6.323,14.139-14.139,14.139c-7.815,0-14.138-6.338-14.138-14.139
		c0-7.815,6.323-14.138,14.138-14.138C-940.019,213.342-933.696,219.665-933.696,227.48L-933.696,227.48z M-933.696,227.48"/>
	<path id="XMLID_590_" class="st2" d="M-919.558,120.017c0,4.698-3.796,8.494-8.476,8.494c-4.698,0-8.494-3.796-8.494-8.494
		c0-4.68,3.796-8.476,8.494-8.476C-923.354,111.541-919.558,115.338-919.558,120.017L-919.558,120.017z M-919.558,120.017"/>
	<path id="XMLID_586_" class="st2" d="M-829.064,210.511c0,4.68-3.8,8.476-8.494,8.476c-4.68,0-8.476-3.796-8.476-8.476
		c0-4.68,3.796-8.476,8.476-8.476C-832.864,202.035-829.064,205.831-829.064,210.511L-829.064,210.511z M-829.064,210.511"/>
	<path id="XMLID_582_" class="st2" d="M-863.004,165.264c0,10.936-8.865,19.801-19.801,19.801c-10.919,0-19.783-8.865-19.783-19.801
		c0-10.936,8.865-19.783,19.783-19.783C-871.868,145.481-863.004,154.328-863.004,165.264L-863.004,165.264z M-863.004,165.264"/>
</g>
<g id="XMLID_642_">
	<defs>
		<rect id="XMLID_641_" x="-1002.612" y="80.251" width="116.994" height="237.888"/>
	</defs>
	<clipPath id="XMLID_67_">
		<use xlink:href="#XMLID_641_"  style="overflow:visible;"/>
	</clipPath>
	<g id="XMLID_514_" class="st28">
		<rect id="XMLID_512_" x="-885.024" y="176.571" class="st4" width="5.648" height="50.905"/>
		<path id="XMLID_587_" class="st4" d="M-833.306,112.369l4.005,3.991l-42.415,42.415l-4.005-3.991L-833.306,112.369z
			 M-833.306,112.369"/>
		<path id="XMLID_584_" class="st4" d="M-889.86,168.922l4.005,4.005l-56.554,56.54l-4.005-3.991L-889.86,168.922z M-889.86,168.922
			"/>
		<path id="XMLID_581_" class="st4" d="M-922.622,120.848l31.108,31.108l-4.005,4.001l-31.094-31.105L-922.622,120.848z
			 M-922.622,120.848"/>
		<path id="XMLID_578_" class="st4" d="M-874.548,168.922l42.415,42.415l-4.001,3.991l-42.415-42.415L-874.548,168.922z
			 M-874.548,168.922"/>
		<path id="XMLID_575_" class="st4" d="M-811.518,111.541c0,7.815-6.323,14.138-14.138,14.138c-7.801,0-14.139-6.323-14.139-14.138
			c0-7.815,6.338-14.138,14.139-14.138C-817.842,97.403-811.518,103.726-811.518,111.541L-811.518,111.541z M-811.518,111.541"/>
		<path id="XMLID_572_" class="st4" d="M-868.072,233.125c0,7.815-6.324,14.138-14.139,14.138c-7.801,0-14.138-6.323-14.138-14.138
			c0-7.801,6.338-14.138,14.138-14.138C-874.396,218.987-868.072,225.324-868.072,233.125L-868.072,233.125z M-868.072,233.125"/>
		<path id="XMLID_569_" class="st4" d="M-933.102,227.48c0,7.801-6.323,14.139-14.139,14.139c-7.815,0-14.138-6.338-14.138-14.139
			c0-7.815,6.323-14.138,14.138-14.138C-939.426,213.342-933.102,219.665-933.102,227.48L-933.102,227.48z M-933.102,227.48"/>
		<path id="XMLID_566_" class="st4" d="M-918.964,120.017c0,4.698-3.796,8.494-8.476,8.494c-4.698,0-8.494-3.796-8.494-8.494
			c0-4.68,3.796-8.476,8.494-8.476C-922.76,111.541-918.964,115.338-918.964,120.017L-918.964,120.017z M-918.964,120.017"/>
		<path id="XMLID_518_" class="st4" d="M-828.47,210.511c0,4.68-3.8,8.476-8.494,8.476c-4.68,0-8.476-3.796-8.476-8.476
			c0-4.68,3.796-8.476,8.476-8.476C-832.27,202.035-828.47,205.831-828.47,210.511L-828.47,210.511z M-828.47,210.511"/>
		<path id="XMLID_515_" class="st4" d="M-862.41,165.264c0,10.936-8.865,19.801-19.801,19.801c-10.918,0-19.783-8.865-19.783-19.801
			c0-10.936,8.865-19.783,19.783-19.783C-871.275,145.481-862.41,154.328-862.41,165.264L-862.41,165.264z M-862.41,165.264"/>
	</g>
</g>
<g id="XMLID_310_">
	<defs>
		<rect id="XMLID_212_" width="511.474" height="404"/>
	</defs>
	<clipPath id="XMLID_68_">
		<use xlink:href="#XMLID_212_"  style="overflow:visible;"/>
	</clipPath>
	<circle id="XMLID_83_" class="st29" cx="256.016" cy="173.647" r="138.569"/>
	<path id="XMLID_82_" class="st30" d="M257.431,35v277.102c75.869-0.769,137.138-62.5,137.138-138.551S333.3,35.769,257.431,35z"/>
	<g id="XMLID_312_" class="st31">
		<path id="XMLID_313_" class="st32" d="M115.012,336.004c-3.138,0-5.615,1.045-7.432,3.135s-2.725,4.951-2.725,8.584
			c0,3.737,0.876,6.624,2.627,8.662c1.752,2.038,4.248,3.057,7.49,3.057c1.992,0,4.265-0.358,6.816-1.074v2.91
			c-1.979,0.742-4.42,1.113-7.324,1.113c-4.205,0-7.451-1.276-9.736-3.828s-3.428-6.179-3.428-10.879
			c0-2.942,0.551-5.521,1.65-7.734c1.101-2.214,2.689-3.919,4.766-5.117c2.077-1.198,4.521-1.797,7.334-1.797
			c2.995,0,5.612,0.547,7.852,1.641l-1.406,2.852C119.336,336.512,117.174,336.004,115.012,336.004z"/>
		<path id="XMLID_315_" class="st32" d="M130.579,340.594v13.887c0,1.745,0.397,3.047,1.191,3.906
			c0.795,0.859,2.038,1.289,3.73,1.289c2.24,0,3.877-0.612,4.912-1.836s1.553-3.223,1.553-5.996v-11.25h3.242V362h-2.676
			l-0.469-2.871h-0.176c-0.664,1.055-1.585,1.862-2.764,2.422c-1.178,0.56-2.522,0.84-4.033,0.84c-2.604,0-4.554-0.618-5.85-1.855
			c-1.295-1.237-1.943-3.216-1.943-5.938v-14.004H130.579z"/>
		<path id="XMLID_478_" class="st32" d="M161.848,340.203c0.951,0,1.804,0.078,2.559,0.234l-0.449,3.008
			c-0.885-0.195-1.666-0.293-2.344-0.293c-1.731,0-3.213,0.703-4.443,2.109s-1.846,3.157-1.846,5.254V362h-3.242v-21.406h2.676
			l0.371,3.965h0.156c0.795-1.394,1.752-2.468,2.871-3.223C159.277,340.581,160.507,340.203,161.848,340.203z"/>
		<path id="XMLID_480_" class="st32" d="M182.219,356.16c0,1.992-0.742,3.528-2.227,4.609s-3.567,1.621-6.25,1.621
			c-2.838,0-5.052-0.449-6.641-1.348v-3.008c1.029,0.521,2.133,0.931,3.311,1.23c1.179,0.3,2.314,0.449,3.408,0.449
			c1.693,0,2.995-0.271,3.906-0.811c0.912-0.54,1.367-1.364,1.367-2.471c0-0.833-0.361-1.546-1.084-2.139s-2.132-1.292-4.229-2.1
			c-1.992-0.742-3.408-1.39-4.248-1.943s-1.465-1.182-1.875-1.885s-0.615-1.543-0.615-2.52c0-1.745,0.71-3.122,2.129-4.131
			c1.42-1.009,3.366-1.514,5.84-1.514c2.305,0,4.558,0.469,6.758,1.406l-1.152,2.637c-2.148-0.886-4.095-1.328-5.84-1.328
			c-1.536,0-2.695,0.241-3.477,0.723s-1.172,1.146-1.172,1.992c0,0.573,0.146,1.062,0.439,1.465s0.766,0.788,1.416,1.152
			c0.651,0.364,1.901,0.892,3.75,1.582c2.539,0.925,4.255,1.855,5.146,2.793C181.774,353.563,182.219,354.741,182.219,356.16z"/>
		<path id="XMLID_482_" class="st32" d="M205.969,351.277c0,3.489-0.879,6.214-2.637,8.174s-4.186,2.939-7.285,2.939
			c-1.914,0-3.613-0.449-5.098-1.348s-2.63-2.188-3.438-3.867c-0.807-1.68-1.211-3.646-1.211-5.898c0-3.489,0.873-6.208,2.617-8.154
			c1.745-1.946,4.167-2.92,7.266-2.92c2.995,0,5.375,0.996,7.139,2.988C205.087,345.184,205.969,347.879,205.969,351.277z
			 M189.661,351.277c0,2.734,0.547,4.817,1.641,6.25s2.702,2.148,4.824,2.148c2.123,0,3.734-0.713,4.834-2.139
			c1.101-1.426,1.65-3.513,1.65-6.26c0-2.722-0.55-4.788-1.65-6.201c-1.1-1.413-2.725-2.119-4.873-2.119
			c-2.122,0-3.724,0.696-4.805,2.09C190.202,346.44,189.661,348.517,189.661,351.277z"/>
		<path id="XMLID_485_" class="st32" d="M225.462,356.16c0,1.992-0.742,3.528-2.227,4.609s-3.567,1.621-6.25,1.621
			c-2.838,0-5.052-0.449-6.641-1.348v-3.008c1.029,0.521,2.133,0.931,3.311,1.23c1.179,0.3,2.314,0.449,3.408,0.449
			c1.693,0,2.995-0.271,3.906-0.811c0.912-0.54,1.367-1.364,1.367-2.471c0-0.833-0.361-1.546-1.084-2.139s-2.132-1.292-4.229-2.1
			c-1.992-0.742-3.408-1.39-4.248-1.943s-1.465-1.182-1.875-1.885s-0.615-1.543-0.615-2.52c0-1.745,0.71-3.122,2.129-4.131
			c1.42-1.009,3.366-1.514,5.84-1.514c2.305,0,4.558,0.469,6.758,1.406l-1.152,2.637c-2.148-0.886-4.095-1.328-5.84-1.328
			c-1.536,0-2.695,0.241-3.477,0.723s-1.172,1.146-1.172,1.992c0,0.573,0.146,1.062,0.439,1.465s0.766,0.788,1.416,1.152
			c0.651,0.364,1.901,0.892,3.75,1.582c2.539,0.925,4.255,1.855,5.146,2.793C225.016,353.563,225.462,354.741,225.462,356.16z"/>
		<path id="XMLID_488_" class="st32" d="M237.727,340.594h3.477l4.688,12.207c1.029,2.786,1.667,4.798,1.914,6.035h0.156
			c0.17-0.664,0.524-1.8,1.064-3.408c0.541-1.608,2.309-6.553,5.303-14.834h3.477l-9.199,24.375
			c-0.911,2.409-1.976,4.118-3.193,5.127c-1.217,1.009-2.711,1.514-4.482,1.514c-0.989,0-1.966-0.11-2.93-0.332v-2.598
			c0.717,0.156,1.518,0.234,2.402,0.234c2.227,0,3.815-1.25,4.766-3.75l1.191-3.047L237.727,340.594z"/>
		<path id="XMLID_520_" class="st32" d="M280.95,362h-3.32v-25.605h-9.043v-2.949h21.406v2.949h-9.043V362z"/>
		<path id="XMLID_524_" class="st32" d="M306.965,362l-0.645-3.047h-0.156c-1.067,1.341-2.132,2.249-3.193,2.725
			c-1.061,0.476-2.386,0.713-3.975,0.713c-2.122,0-3.785-0.547-4.99-1.641c-1.204-1.094-1.807-2.649-1.807-4.668
			c0-4.323,3.457-6.589,10.371-6.797l3.633-0.117v-1.328c0-1.68-0.361-2.92-1.084-3.721s-1.878-1.201-3.467-1.201
			c-1.783,0-3.802,0.547-6.055,1.641l-0.996-2.48c1.055-0.573,2.211-1.022,3.467-1.348c1.257-0.325,2.517-0.488,3.779-0.488
			c2.553,0,4.443,0.566,5.674,1.699s1.846,2.949,1.846,5.449V362H306.965z M299.641,359.715c2.019,0,3.604-0.554,4.756-1.66
			s1.729-2.656,1.729-4.648v-1.934l-3.242,0.137c-2.578,0.091-4.437,0.491-5.576,1.201c-1.139,0.71-1.709,1.813-1.709,3.311
			c0,1.172,0.355,2.063,1.064,2.676C297.373,359.409,298.366,359.715,299.641,359.715z"/>
		<path id="XMLID_530_" class="st32" d="M319.29,362h-3.242v-30.391h3.242V362z"/>
		<path id="XMLID_532_" class="st32" d="M329.407,362h-3.242v-30.391h3.242V362z"/>
		<path id="XMLID_534_" class="st32" d="M345.325,362.391c-3.164,0-5.66-0.964-7.49-2.891c-1.829-1.927-2.744-4.603-2.744-8.027
			c0-3.45,0.85-6.191,2.549-8.223s3.981-3.047,6.846-3.047c2.683,0,4.805,0.882,6.367,2.646s2.344,4.092,2.344,6.982v2.051H338.45
			c0.065,2.513,0.7,4.421,1.904,5.723c1.205,1.302,2.9,1.953,5.088,1.953c2.305,0,4.584-0.481,6.836-1.445v2.891
			c-1.146,0.495-2.229,0.85-3.252,1.064C348.004,362.283,346.77,362.391,345.325,362.391z M344.446,342.918
			c-1.719,0-3.089,0.56-4.111,1.68c-1.021,1.12-1.624,2.669-1.807,4.648h11.191c0-2.044-0.455-3.61-1.367-4.697
			C347.441,343.462,346.139,342.918,344.446,342.918z"/>
		<path id="XMLID_537_" class="st32" d="M368.489,340.203c0.951,0,1.804,0.078,2.559,0.234l-0.449,3.008
			c-0.885-0.195-1.666-0.293-2.344-0.293c-1.731,0-3.213,0.703-4.443,2.109s-1.846,3.157-1.846,5.254V362h-3.242v-21.406h2.676
			l0.371,3.965h0.156c0.795-1.394,1.752-2.468,2.871-3.223C365.918,340.581,367.148,340.203,368.489,340.203z"/>
		<path id="XMLID_561_" class="st32" d="M384.094,362.391c-3.164,0-5.66-0.964-7.49-2.891c-1.829-1.927-2.744-4.603-2.744-8.027
			c0-3.45,0.85-6.191,2.549-8.223s3.981-3.047,6.846-3.047c2.683,0,4.805,0.882,6.367,2.646s2.344,4.092,2.344,6.982v2.051h-14.746
			c0.065,2.513,0.7,4.421,1.904,5.723c1.205,1.302,2.9,1.953,5.088,1.953c2.305,0,4.584-0.481,6.836-1.445v2.891
			c-1.146,0.495-2.229,0.85-3.252,1.064C386.774,362.283,385.54,362.391,384.094,362.391z M383.215,342.918
			c-1.719,0-3.089,0.56-4.111,1.68c-1.021,1.12-1.624,2.669-1.807,4.648h11.191c0-2.044-0.455-3.61-1.367-4.697
			C386.211,343.462,384.909,342.918,383.215,342.918z"/>
		<path id="XMLID_564_" class="st32" d="M411.301,356.16c0,1.992-0.742,3.528-2.227,4.609s-3.567,1.621-6.25,1.621
			c-2.838,0-5.052-0.449-6.641-1.348v-3.008c1.029,0.521,2.133,0.931,3.311,1.23c1.179,0.3,2.314,0.449,3.408,0.449
			c1.693,0,2.995-0.271,3.906-0.811c0.912-0.54,1.367-1.364,1.367-2.471c0-0.833-0.361-1.546-1.084-2.139s-2.132-1.292-4.229-2.1
			c-1.992-0.742-3.408-1.39-4.248-1.943s-1.465-1.182-1.875-1.885s-0.615-1.543-0.615-2.52c0-1.745,0.71-3.122,2.129-4.131
			c1.42-1.009,3.366-1.514,5.84-1.514c2.305,0,4.558,0.469,6.758,1.406l-1.152,2.637c-2.148-0.886-4.095-1.328-5.84-1.328
			c-1.536,0-2.695,0.241-3.477,0.723s-1.172,1.146-1.172,1.992c0,0.573,0.146,1.062,0.439,1.465s0.766,0.788,1.416,1.152
			c0.651,0.364,1.901,0.892,3.75,1.582c2.539,0.925,4.255,1.855,5.146,2.793C410.856,353.563,411.301,354.741,411.301,356.16z"/>
	</g>
	<g id="XMLID_351_" class="st31">
		<path id="XMLID_387_" class="st2" d="M257.512,163.083l-5.163-3.625v13.576c0,1.101-0.9,2.002-2.007,2.002h-53.145
			c-1.101,0-2.006-0.9-2.006-2.002v-47.633c0-1.107,0.905-2.006,2.006-2.006h53.145c1.107,0,2.007,0.899,2.007,2.006v27.928
			l6.013,4.225v-32.153c0-4.428-3.598-8.026-8.02-8.026h-53.145c-4.422,0-8.02,3.598-8.02,8.026v47.627
			c0,4.422,3.598,8.02,8.02,8.02h21.324l-17.763,41.995c-0.741,1.745,0.077,3.752,1.816,4.488c0.435,0.186,0.888,0.272,1.336,0.272
			c1.336,0,2.606-0.784,3.156-2.088l15.409-36.412l15.404,36.412c0.736,1.739,2.747,2.557,4.492,1.816
			c1.739-0.736,2.553-2.748,1.816-4.488l-17.763-41.995h23.919c4.422,0,8.02-3.598,8.02-8.02v-5.223
			C257.55,166.404,257.218,164.742,257.512,163.083L257.512,163.083z M257.512,163.083"/>
		<path id="XMLID_384_" class="st2" d="M314.43,130.63c0,7.846-6.357,14.21-14.203,14.21c-7.846,0-14.21-6.364-14.21-14.21
			c0-7.846,6.364-14.204,14.21-14.204C308.074,116.426,314.43,122.784,314.43,130.63L314.43,130.63z M314.43,130.63"/>
		<path id="XMLID_377_" class="st2" d="M309.676,148.296c-0.24-0.147-0.49-0.255-0.747-0.359c-1.581-1.052-3.353-1.833-5.163-2.274
			l-3.538,3.559l-3.435-3.604c-0.011,0.006-0.022,0.006-0.034,0.006c-1.854,0.448-3.67,1.244-5.283,2.328
			c-0.523,0.223-1.025,0.508-1.478,0.906c-1.531,1.353-2.933,2.649-4.285,3.904c-8.353,7.758-11.368,10.043-19.045,6.45
			c-2.302-1.075-4.957-0.426-6.527,1.417l-23.68-16.613l-1.15,1.641l23.821,16.711c-0.938,2.645,0.268,5.622,2.863,6.838
			c4.045,1.886,7.606,2.683,10.812,2.683c4.994,0,9.127-1.93,12.879-4.619v22.093c0,1.484,0.289,2.868,0.79,4.144
			c-0.038,0.283-0.06,0.572-0.06,0.867v52.818c0,3.598,2.923,6.51,6.521,6.51c3.598,0,6.516-2.912,6.516-6.516l-0.006-45.321
			c0.262,0.011,0.518,0.033,0.78,0.033c0.049,0,0.098-0.006,0.152-0.006l-0.006,45.293c0,3.604,2.917,6.516,6.516,6.516h0.006
			c3.598,0,6.516-2.912,6.516-6.516v-52.49c0.856-1.581,1.353-3.369,1.353-5.333v-17.72c1.287,4.668,1.805,10.9,1.133,19.476
			c-0.24,3.037,2.034,5.692,5.071,5.932c0.147,0.011,0.289,0.017,0.436,0.017c2.848,0,5.262-2.197,5.491-5.088
			C329.066,164.201,319.905,154.567,309.676,148.296L309.676,148.296z M300.26,177.336h-0.071l-3.424-4.689l3.424-22.896h0.071
			l3.424,22.896L300.26,177.336z M300.26,177.336"/>
		<rect id="XMLID_357_" x="232.71" y="128.444" class="st2" width="17.705" height="1.831"/>
		<rect id="XMLID_356_" x="238.128" y="131.497" class="st2" width="12.285" height="1.831"/>
		<rect id="XMLID_355_" x="234.16" y="134.474" class="st2" width="16.255" height="1.831"/>
		<path id="XMLID_367_" class="st2" d="M216.662,157.085l2.585-2.235h6.047v-15.977h-11.309v-2.137h3.234
			c2.12,0,3.839-1.717,3.839-3.839c0-2.12-1.718-3.844-3.839-3.844h-7.683c-2.122,0-3.839,1.724-3.839,3.844
			c0,2.122,1.717,3.839,3.839,3.839h3.233v5.497h-7.786v4.781h7.786v4.379h-2.677l-3.287,2.846l3.287,2.846h2.677v6.211h-2.649
			c-1.713,0-3.103,1.385-3.103,3.102c0,1.713,1.39,3.103,3.103,3.103h6.516c1.711,0,3.103-1.39,3.103-3.103
			c0-1.717-1.392-3.102-3.103-3.102h-2.645v-6.211H216.662z M214.05,147.015h8.943v-4.781h-8.943v-2.138h10.022v13.534h-4.825
			l-2.579-2.236h-2.617V147.015z M214.05,147.015"/>
	</g>
	<g id="XMLID_439_" class="st31">
		<defs>
			<rect id="XMLID_10_" x="141.441" y="71.981" width="115.977" height="233.752"/>
		</defs>
		<clipPath id="XMLID_69_">
			<use xlink:href="#XMLID_10_"  style="overflow:visible;"/>
		</clipPath>
		<g id="XMLID_407_" class="st33">
			<path id="XMLID_436_" class="st4" d="M257.506,163.094l-5.163-3.625v13.576c0,1.101-0.9,2.002-2.007,2.002h-53.145
				c-1.101,0-2.006-0.9-2.006-2.002v-47.633c0-1.107,0.905-2.006,2.006-2.006h53.145c1.107,0,2.007,0.899,2.007,2.006v27.928
				l6.013,4.225v-32.153c0-4.428-3.599-8.026-8.02-8.026h-53.145c-4.422,0-8.02,3.598-8.02,8.026v47.627
				c0,4.422,3.598,8.02,8.02,8.02h21.324l-17.763,41.995c-0.741,1.745,0.077,3.752,1.816,4.488c0.435,0.186,0.888,0.272,1.336,0.272
				c1.336,0,2.606-0.784,3.156-2.088l15.409-36.412l15.404,36.412c0.736,1.739,2.747,2.557,4.492,1.816
				c1.739-0.736,2.553-2.748,1.816-4.488l-17.763-41.995h23.919c4.422,0,8.02-3.598,8.02-8.02v-5.223
				C257.544,166.414,257.212,164.752,257.506,163.094L257.506,163.094z M257.506,163.094"/>
			<path id="XMLID_433_" class="st4" d="M314.424,130.641c0,7.846-6.357,14.21-14.203,14.21s-14.21-6.364-14.21-14.21
				s6.364-14.204,14.21-14.204S314.424,122.795,314.424,130.641L314.424,130.641z M314.424,130.641"/>
			<path id="XMLID_425_" class="st4" d="M309.67,148.306c-0.24-0.147-0.49-0.255-0.747-0.359c-1.581-1.052-3.353-1.833-5.163-2.274
				l-3.538,3.559l-3.435-3.604c-0.011,0.006-0.022,0.006-0.034,0.006c-1.854,0.448-3.67,1.244-5.283,2.328
				c-0.523,0.223-1.025,0.508-1.478,0.906c-1.531,1.353-2.933,2.649-4.285,3.904c-8.353,7.758-11.368,10.043-19.045,6.45
				c-2.302-1.075-4.957-0.426-6.527,1.417l-23.68-16.613l-1.15,1.641l23.821,16.711c-0.938,2.645,0.268,5.622,2.863,6.838
				c4.045,1.886,7.606,2.683,10.812,2.683c4.994,0,9.127-1.93,12.879-4.619v22.093c0,1.484,0.289,2.868,0.79,4.144
				c-0.038,0.283-0.06,0.572-0.06,0.867v52.818c0,3.598,2.923,6.51,6.521,6.51s6.516-2.912,6.516-6.516l-0.006-45.321
				c0.262,0.011,0.518,0.033,0.78,0.033c0.049,0,0.098-0.006,0.152-0.006l-0.006,45.293c0,3.604,2.917,6.516,6.516,6.516h0.006
				c3.598,0,6.516-2.912,6.516-6.516v-52.49c0.856-1.581,1.353-3.369,1.353-5.333v-17.72c1.287,4.668,1.805,10.9,1.133,19.476
				c-0.24,3.037,2.034,5.692,5.071,5.932c0.147,0.011,0.289,0.017,0.436,0.017c2.847,0,5.262-2.197,5.491-5.088
				C329.06,164.212,319.899,154.578,309.67,148.306L309.67,148.306z M300.254,177.347h-0.071l-3.424-4.689l3.424-22.896h0.071
				l3.424,22.896L300.254,177.347z M300.254,177.347"/>
			<rect id="XMLID_424_" x="232.704" y="128.455" class="st4" width="17.705" height="1.831"/>
			<rect id="XMLID_423_" x="238.123" y="131.507" class="st4" width="12.285" height="1.831"/>
			<rect id="XMLID_422_" x="234.154" y="134.485" class="st4" width="16.255" height="1.831"/>
			<path id="XMLID_408_" class="st4" d="M216.656,157.096l2.585-2.235h6.047v-15.977h-11.309v-2.137h3.234
				c2.12,0,3.838-1.717,3.838-3.839c0-2.12-1.718-3.844-3.838-3.844h-7.683c-2.122,0-3.839,1.724-3.839,3.844
				c0,2.122,1.717,3.839,3.839,3.839h3.233v5.497h-7.786v4.781h7.786v4.379h-2.677l-3.287,2.846l3.287,2.846h2.677v6.211h-2.649
				c-1.713,0-3.103,1.385-3.103,3.102c0,1.713,1.39,3.103,3.103,3.103h6.516c1.711,0,3.103-1.39,3.103-3.103
				c0-1.717-1.392-3.102-3.103-3.102h-2.645v-6.211H216.656z M214.044,147.025h8.943v-4.781h-8.943v-2.138h10.022v13.534h-4.825
				l-2.579-2.236h-2.617V147.025z M214.044,147.025"/>
		</g>
	</g>
</g>
<g id="XMLID_311_">
	<defs>
		<rect id="XMLID_241_" x="589.471" width="512" height="404"/>
	</defs>
	<clipPath id="XMLID_70_">
		<use xlink:href="#XMLID_241_"  style="overflow:visible;"/>
	</clipPath>
	<circle id="XMLID_168_" class="st34" cx="845.471" cy="173.569" r="138.569"/>
	<path id="XMLID_167_" class="st35" d="M846.901,35v277.102c75.869-0.769,137.138-62.5,137.138-138.551S922.771,35.769,846.901,35z"
		/>
	<g id="XMLID_618_" class="st36">
		<path id="XMLID_619_" class="st32" d="M644.669,362v-28.555h3.32V362H644.669z"/>
		<path id="XMLID_621_" class="st32" d="M669.981,362v-13.848c0-1.745-0.396-3.047-1.191-3.906c-0.794-0.859-2.037-1.289-3.73-1.289
			c-2.239,0-3.88,0.605-4.922,1.816c-1.041,1.211-1.563,3.21-1.563,5.996V362h-3.242v-21.406h2.637l0.527,2.93h0.156
			c0.664-1.055,1.596-1.872,2.793-2.451c1.198-0.579,2.533-0.869,4.004-0.869c2.578,0,4.519,0.622,5.82,1.865
			c1.303,1.243,1.953,3.232,1.953,5.967V362H669.981z"/>
		<path id="XMLID_623_" class="st32" d="M693.692,356.16c0,1.992-0.742,3.528-2.227,4.609s-3.567,1.621-6.25,1.621
			c-2.838,0-5.052-0.449-6.641-1.348v-3.008c1.029,0.521,2.133,0.931,3.311,1.23c1.179,0.3,2.314,0.449,3.408,0.449
			c1.693,0,2.995-0.271,3.906-0.811c0.912-0.54,1.367-1.364,1.367-2.471c0-0.833-0.361-1.546-1.084-2.139s-2.132-1.292-4.229-2.1
			c-1.992-0.742-3.408-1.39-4.248-1.943s-1.465-1.182-1.875-1.885s-0.615-1.543-0.615-2.52c0-1.745,0.71-3.122,2.129-4.131
			c1.42-1.009,3.366-1.514,5.84-1.514c2.305,0,4.558,0.469,6.758,1.406l-1.152,2.637c-2.148-0.886-4.095-1.328-5.84-1.328
			c-1.536,0-2.695,0.241-3.477,0.723s-1.172,1.146-1.172,1.992c0,0.573,0.146,1.062,0.439,1.465s0.766,0.788,1.416,1.152
			c0.651,0.364,1.901,0.892,3.75,1.582c2.539,0.925,4.255,1.855,5.146,2.793C693.247,353.563,693.692,354.741,693.692,356.16z"/>
		<path id="XMLID_625_" class="st32" d="M705.879,359.715c0.573,0,1.127-0.042,1.66-0.127c0.534-0.085,0.957-0.173,1.27-0.264v2.48
			c-0.352,0.169-0.869,0.31-1.553,0.42s-1.299,0.166-1.846,0.166c-4.141,0-6.211-2.181-6.211-6.543v-12.734h-3.066v-1.563
			l3.066-1.348l1.367-4.57h1.875v4.961h6.211v2.52h-6.211v12.598c0,1.289,0.307,2.278,0.918,2.969
			C703.972,359.37,704.812,359.715,705.879,359.715z"/>
		<path id="XMLID_627_" class="st32" d="M712.813,334.793c0-0.742,0.183-1.286,0.547-1.631c0.365-0.345,0.82-0.518,1.367-0.518
			c0.521,0,0.971,0.176,1.348,0.527c0.378,0.352,0.566,0.892,0.566,1.621s-0.188,1.272-0.566,1.631
			c-0.377,0.358-0.826,0.537-1.348,0.537c-0.547,0-1.002-0.179-1.367-0.537C712.996,336.065,712.813,335.522,712.813,334.793z
			 M716.329,362h-3.242v-21.406h3.242V362z"/>
		<path id="XMLID_630_" class="st32" d="M730.118,359.715c0.573,0,1.127-0.042,1.66-0.127c0.534-0.085,0.957-0.173,1.27-0.264v2.48
			c-0.352,0.169-0.869,0.31-1.553,0.42s-1.299,0.166-1.846,0.166c-4.141,0-6.211-2.181-6.211-6.543v-12.734h-3.066v-1.563
			l3.066-1.348l1.367-4.57h1.875v4.961h6.211v2.52h-6.211v12.598c0,1.289,0.307,2.278,0.918,2.969
			C728.211,359.37,729.05,359.715,730.118,359.715z"/>
		<path id="XMLID_632_" class="st32" d="M740.372,340.594v13.887c0,1.745,0.397,3.047,1.191,3.906
			c0.795,0.859,2.038,1.289,3.73,1.289c2.24,0,3.877-0.612,4.912-1.836s1.553-3.223,1.553-5.996v-11.25h3.242V362h-2.676
			l-0.469-2.871h-0.176c-0.664,1.055-1.585,1.862-2.764,2.422c-1.178,0.56-2.522,0.84-4.033,0.84c-2.604,0-4.554-0.618-5.85-1.855
			c-1.295-1.237-1.943-3.216-1.943-5.938v-14.004H740.372z"/>
		<path id="XMLID_634_" class="st32" d="M770.43,362.391c-3.099,0-5.498-0.954-7.197-2.861s-2.549-4.606-2.549-8.096
			c0-3.581,0.863-6.348,2.588-8.301c1.726-1.953,4.184-2.93,7.373-2.93c1.029,0,2.058,0.11,3.086,0.332
			c1.029,0.222,1.836,0.481,2.422,0.781l-0.996,2.754c-0.716-0.286-1.497-0.524-2.344-0.713c-0.846-0.188-1.595-0.283-2.246-0.283
			c-4.349,0-6.523,2.773-6.523,8.32c0,2.63,0.531,4.648,1.592,6.055c1.062,1.406,2.634,2.109,4.717,2.109
			c1.784,0,3.613-0.384,5.488-1.152v2.871C774.409,362.02,772.605,362.391,770.43,362.391z"/>
		<path id="XMLID_636_" class="st32" d="M780.645,334.793c0-0.742,0.183-1.286,0.547-1.631c0.365-0.345,0.82-0.518,1.367-0.518
			c0.521,0,0.971,0.176,1.348,0.527c0.378,0.352,0.566,0.892,0.566,1.621s-0.188,1.272-0.566,1.631
			c-0.377,0.358-0.826,0.537-1.348,0.537c-0.547,0-1.002-0.179-1.367-0.537C780.828,336.065,780.645,335.522,780.645,334.793z
			 M784.161,362h-3.242v-21.406h3.242V362z"/>
		<path id="XMLID_639_" class="st32" d="M809.512,351.277c0,3.489-0.879,6.214-2.637,8.174s-4.186,2.939-7.285,2.939
			c-1.914,0-3.613-0.449-5.098-1.348s-2.63-2.188-3.438-3.867c-0.807-1.68-1.211-3.646-1.211-5.898c0-3.489,0.873-6.208,2.617-8.154
			c1.745-1.946,4.167-2.92,7.266-2.92c2.995,0,5.375,0.996,7.139,2.988C808.63,345.184,809.512,347.879,809.512,351.277z
			 M793.204,351.277c0,2.734,0.547,4.817,1.641,6.25s2.702,2.148,4.824,2.148c2.123,0,3.734-0.713,4.834-2.139
			c1.101-1.426,1.65-3.513,1.65-6.26c0-2.722-0.55-4.788-1.65-6.201c-1.1-1.413-2.725-2.119-4.873-2.119
			c-2.122,0-3.724,0.696-4.805,2.09C793.745,346.44,793.204,348.517,793.204,351.277z"/>
		<path id="XMLID_644_" class="st32" d="M829.844,362v-13.848c0-1.745-0.396-3.047-1.191-3.906c-0.794-0.859-2.037-1.289-3.73-1.289
			c-2.239,0-3.88,0.605-4.922,1.816c-1.041,1.211-1.563,3.21-1.563,5.996V362h-3.242v-21.406h2.637l0.527,2.93h0.156
			c0.664-1.055,1.596-1.872,2.793-2.451c1.198-0.579,2.533-0.869,4.004-0.869c2.578,0,4.519,0.622,5.82,1.865
			c1.303,1.243,1.953,3.232,1.953,5.967V362H829.844z"/>
		<path id="XMLID_646_" class="st32" d="M848.79,362.391c-3.164,0-5.66-0.964-7.49-2.891c-1.829-1.927-2.744-4.603-2.744-8.027
			c0-3.45,0.85-6.191,2.549-8.223s3.981-3.047,6.846-3.047c2.683,0,4.805,0.882,6.367,2.646s2.344,4.092,2.344,6.982v2.051h-14.746
			c0.065,2.513,0.7,4.421,1.904,5.723c1.205,1.302,2.9,1.953,5.088,1.953c2.305,0,4.584-0.481,6.836-1.445v2.891
			c-1.146,0.495-2.229,0.85-3.252,1.064C851.469,362.283,850.235,362.391,848.79,362.391z M847.911,342.918
			c-1.719,0-3.089,0.56-4.111,1.68c-1.021,1.12-1.624,2.669-1.807,4.648h11.191c0-2.044-0.455-3.61-1.367-4.697
			C850.906,343.462,849.604,342.918,847.911,342.918z"/>
		<path id="XMLID_649_" class="st32" d="M875.997,356.16c0,1.992-0.742,3.528-2.227,4.609s-3.567,1.621-6.25,1.621
			c-2.838,0-5.052-0.449-6.641-1.348v-3.008c1.029,0.521,2.133,0.931,3.311,1.23c1.179,0.3,2.314,0.449,3.408,0.449
			c1.693,0,2.995-0.271,3.906-0.811c0.912-0.54,1.367-1.364,1.367-2.471c0-0.833-0.361-1.546-1.084-2.139s-2.132-1.292-4.229-2.1
			c-1.992-0.742-3.408-1.39-4.248-1.943s-1.465-1.182-1.875-1.885s-0.615-1.543-0.615-2.52c0-1.745,0.71-3.122,2.129-4.131
			c1.42-1.009,3.366-1.514,5.84-1.514c2.305,0,4.558,0.469,6.758,1.406l-1.152,2.637c-2.148-0.886-4.095-1.328-5.84-1.328
			c-1.536,0-2.695,0.241-3.477,0.723s-1.172,1.146-1.172,1.992c0,0.573,0.146,1.062,0.439,1.465s0.766,0.788,1.416,1.152
			c0.651,0.364,1.901,0.892,3.75,1.582c2.539,0.925,4.255,1.855,5.146,2.793C875.551,353.563,875.997,354.741,875.997,356.16z"/>
		<path id="XMLID_651_" class="st32" d="M908.067,362h-15.918v-28.555h15.918v2.949h-12.598v9.199h11.836v2.93h-11.836v10.508
			h12.598V362z"/>
		<path id="XMLID_653_" class="st32" d="M919.063,351.043l-7.441-10.449h3.691l5.645,8.203l5.625-8.203h3.652l-7.441,10.449
			L930.626,362h-3.672l-5.996-8.672L914.903,362h-3.672L919.063,351.043z"/>
		<path id="XMLID_655_" class="st32" d="M941.778,359.715c0.573,0,1.127-0.042,1.66-0.127c0.534-0.085,0.957-0.173,1.27-0.264v2.48
			c-0.352,0.169-0.869,0.31-1.553,0.42s-1.299,0.166-1.846,0.166c-4.141,0-6.211-2.181-6.211-6.543v-12.734h-3.066v-1.563
			l3.066-1.348l1.367-4.57h1.875v4.961h6.211v2.52h-6.211v12.598c0,1.289,0.307,2.278,0.918,2.969
			C939.871,359.37,940.711,359.715,941.778,359.715z"/>
		<path id="XMLID_657_" class="st32" d="M958.028,362.391c-3.164,0-5.66-0.964-7.49-2.891c-1.829-1.927-2.744-4.603-2.744-8.027
			c0-3.45,0.85-6.191,2.549-8.223s3.981-3.047,6.846-3.047c2.683,0,4.805,0.882,6.367,2.646s2.344,4.092,2.344,6.982v2.051h-14.746
			c0.065,2.513,0.7,4.421,1.904,5.723c1.205,1.302,2.9,1.953,5.088,1.953c2.305,0,4.584-0.481,6.836-1.445v2.891
			c-1.146,0.495-2.229,0.85-3.252,1.064C960.708,362.283,959.473,362.391,958.028,362.391z M957.149,342.918
			c-1.719,0-3.089,0.56-4.111,1.68c-1.021,1.12-1.624,2.669-1.807,4.648h11.191c0-2.044-0.455-3.61-1.367-4.697
			C960.144,343.462,958.842,342.918,957.149,342.918z"/>
		<path id="XMLID_660_" class="st32" d="M981.192,340.203c0.951,0,1.804,0.078,2.559,0.234l-0.449,3.008
			c-0.885-0.195-1.666-0.293-2.344-0.293c-1.731,0-3.213,0.703-4.443,2.109s-1.846,3.157-1.846,5.254V362h-3.242v-21.406h2.676
			l0.371,3.965h0.156c0.795-1.394,1.752-2.468,2.871-3.223C978.621,340.581,979.851,340.203,981.192,340.203z"/>
		<path id="XMLID_662_" class="st32" d="M1002.403,362v-13.848c0-1.745-0.396-3.047-1.191-3.906
			c-0.794-0.859-2.037-1.289-3.73-1.289c-2.239,0-3.88,0.605-4.922,1.816c-1.041,1.211-1.563,3.21-1.563,5.996V362h-3.242v-21.406
			h2.637l0.527,2.93h0.156c0.664-1.055,1.596-1.872,2.793-2.451c1.198-0.579,2.533-0.869,4.004-0.869
			c2.578,0,4.519,0.622,5.82,1.865c1.303,1.243,1.953,3.232,1.953,5.967V362H1002.403z"/>
		<path id="XMLID_664_" class="st32" d="M1025.469,362l-0.645-3.047h-0.156c-1.067,1.341-2.132,2.249-3.193,2.725
			c-1.061,0.476-2.386,0.713-3.975,0.713c-2.122,0-3.785-0.547-4.99-1.641c-1.204-1.094-1.807-2.649-1.807-4.668
			c0-4.323,3.457-6.589,10.371-6.797l3.633-0.117v-1.328c0-1.68-0.361-2.92-1.084-3.721c-0.723-0.801-1.878-1.201-3.467-1.201
			c-1.783,0-3.802,0.547-6.055,1.641l-0.996-2.48c1.055-0.573,2.211-1.022,3.467-1.348c1.257-0.325,2.517-0.488,3.779-0.488
			c2.553,0,4.443,0.566,5.674,1.699s1.846,2.949,1.846,5.449V362H1025.469z M1018.145,359.715c2.019,0,3.604-0.554,4.756-1.66
			c1.152-1.106,1.729-2.656,1.729-4.648v-1.934l-3.242,0.137c-2.578,0.091-4.437,0.491-5.576,1.201
			c-1.139,0.71-1.709,1.813-1.709,3.311c0,1.172,0.355,2.063,1.064,2.676C1015.877,359.409,1016.87,359.715,1018.145,359.715z"/>
		<path id="XMLID_667_" class="st32" d="M1048.36,356.16c0,1.992-0.742,3.528-2.227,4.609s-3.567,1.621-6.25,1.621
			c-2.838,0-5.052-0.449-6.641-1.348v-3.008c1.029,0.521,2.133,0.931,3.311,1.23c1.179,0.3,2.314,0.449,3.408,0.449
			c1.693,0,2.995-0.271,3.906-0.811c0.912-0.54,1.367-1.364,1.367-2.471c0-0.833-0.361-1.546-1.084-2.139s-2.132-1.292-4.229-2.1
			c-1.992-0.742-3.408-1.39-4.248-1.943s-1.465-1.182-1.875-1.885s-0.615-1.543-0.615-2.52c0-1.745,0.71-3.122,2.129-4.131
			c1.42-1.009,3.366-1.514,5.84-1.514c2.305,0,4.558,0.469,6.758,1.406l-1.152,2.637c-2.148-0.886-4.095-1.328-5.84-1.328
			c-1.536,0-2.695,0.241-3.477,0.723s-1.172,1.146-1.172,1.992c0,0.573,0.146,1.062,0.439,1.465s0.766,0.788,1.416,1.152
			c0.651,0.364,1.901,0.892,3.75,1.582c2.539,0.925,4.255,1.855,5.146,2.793C1047.915,353.563,1048.36,354.741,1048.36,356.16z"/>
	</g>
	<g id="XMLID_539_" class="st36">
		<polygon id="XMLID_540_" class="st2" points="787.549,118.348 899.009,118.348 899.009,202.296 904.653,202.296 904.653,112.704 
			781.906,112.704 781.906,202.296 787.549,202.296 		"/>
		<rect id="XMLID_542_" x="793.193" y="147.271" class="st2" width="9.876" height="26.807"/>
		<rect id="XMLID_543_" x="811.534" y="147.271" class="st2" width="9.876" height="26.807"/>
		<rect id="XMLID_544_" x="831.287" y="147.271" class="st2" width="9.876" height="26.807"/>
		<rect id="XMLID_545_" x="849.628" y="147.271" class="st2" width="9.876" height="26.807"/>
		<rect id="XMLID_546_" x="866.559" y="147.271" class="st2" width="9.876" height="26.807"/>
		<rect id="XMLID_547_" x="884.9" y="147.271" class="st2" width="9.876" height="26.807"/>
		<polygon id="XMLID_548_" class="st2" points="914.529,221.343 914.529,207.234 899.715,207.234 894.777,207.234 894.777,221.343 
			894.777,232.453 870.792,232.453 870.792,221.343 885.606,221.343 885.606,207.234 870.792,207.234 865.853,207.234 
			865.853,221.343 865.853,232.453 841.869,232.453 841.869,221.343 856.683,221.343 856.683,207.234 841.869,207.234 
			836.931,207.234 836.931,221.343 836.931,232.453 811.534,232.453 811.534,221.343 826.349,221.343 826.349,207.234 
			811.534,207.234 806.596,207.234 806.596,221.343 806.596,232.453 783.317,232.453 783.317,221.343 798.131,221.343 
			798.131,207.234 783.317,207.234 778.378,207.234 778.378,221.343 778.378,232.453 766.386,232.453 766.386,236.333 
			914.529,236.333 914.529,232.453 899.715,232.453 899.715,221.343 		"/>
	</g>
	<g id="XMLID_165_" class="st36">
		<defs>
			<rect id="XMLID_164_" x="747.614" y="103.028" width="99.287" height="134.1"/>
		</defs>
		<clipPath id="XMLID_334_">
			<use xlink:href="#XMLID_164_"  style="overflow:visible;"/>
		</clipPath>
		<g id="XMLID_111_" class="st37">
			<polygon id="XMLID_123_" class="st4" points="787.549,118.348 899.009,118.348 899.009,202.296 904.653,202.296 904.653,112.704 
				781.906,112.704 781.906,202.296 787.549,202.296 			"/>
			<rect id="XMLID_122_" x="793.193" y="147.271" class="st4" width="9.876" height="26.807"/>
			<rect id="XMLID_120_" x="811.534" y="147.271" class="st4" width="9.876" height="26.807"/>
			<rect id="XMLID_119_" x="831.287" y="147.271" class="st4" width="9.876" height="26.807"/>
			<rect id="XMLID_117_" x="849.628" y="147.271" class="st4" width="9.876" height="26.807"/>
			<rect id="XMLID_114_" x="866.559" y="147.271" class="st4" width="9.876" height="26.807"/>
			<rect id="XMLID_113_" x="884.9" y="147.271" class="st4" width="9.876" height="26.807"/>
			<polygon id="XMLID_112_" class="st4" points="914.529,221.343 914.529,207.234 899.715,207.234 894.777,207.234 894.777,221.343 
				894.777,232.453 870.792,232.453 870.792,221.343 885.606,221.343 885.606,207.234 870.792,207.234 865.853,207.234 
				865.853,221.343 865.853,232.453 841.869,232.453 841.869,221.343 856.683,221.343 856.683,207.234 841.869,207.234 
				836.931,207.234 836.931,221.343 836.931,232.453 811.534,232.453 811.534,221.343 826.349,221.343 826.349,207.234 
				811.534,207.234 806.596,207.234 806.596,221.343 806.596,232.453 783.317,232.453 783.317,221.343 798.131,221.343 
				798.131,207.234 783.317,207.234 778.378,207.234 778.378,221.343 778.378,232.453 766.386,232.453 766.386,236.333 
				914.529,236.333 914.529,232.453 899.715,232.453 899.715,221.343 			"/>
		</g>
	</g>
</g>
</svg>
