<?xml version="1.0" encoding="utf-8"?>
<!-- Generator: Adobe Illustrator 19.0.0, SVG Export Plug-In . SVG Version: 6.00 Build 0)  -->
<svg version="1.1" id="Capa_1" xmlns="http://www.w3.org/2000/svg" xmlns:xlink="http://www.w3.org/1999/xlink" x="0px" y="0px"
	 viewBox="0 0 512 404" style="enable-background:new 0 0 512 404;" xml:space="preserve">
<style type="text/css">
	.st0{clip-path:url(#XMLID_2_);fill:#F2C40F;}
	.st1{clip-path:url(#XMLID_2_);fill:#E8B513;}
	.st2{clip-path:url(#XMLID_2_);}
	.st3{fill:#5B5B5B;}
	.st4{fill:#FFFFFF;}
	.st5{clip-path:url(#XMLID_3_);}
	.st6{fill:#F3F3F3;}
</style>
<g id="XMLID_50_">
	<defs>
		<rect id="XMLID_872_" width="512" height="404"/>
	</defs>
	<clipPath id="XMLID_2_">
		<use xlink:href="#XMLID_872_"  style="overflow:visible;"/>
	</clipPath>
	<circle id="XMLID_236_" class="st0" cx="256" cy="173.569" r="138.569"/>
	<path id="XMLID_235_" class="st1" d="M257.431,35v277.102c75.869-0.769,137.138-62.5,137.138-138.551S333.3,35.769,257.431,35z"/>
	<g id="XMLID_691_" class="st2">
		<path id="XMLID_692_" class="st3" d="M205.502,362h-15.918v-28.555h15.918v2.949h-12.598v9.199h11.836v2.93h-11.836v10.508h12.598
			V362z"/>
		<path id="XMLID_694_" class="st3" d="M238.627,362v-13.926c0-1.706-0.364-2.985-1.094-3.838s-1.862-1.279-3.398-1.279
			c-2.019,0-3.509,0.579-4.473,1.738s-1.445,2.942-1.445,5.352V362h-3.242v-13.926c0-1.706-0.364-2.985-1.094-3.838
			s-1.868-1.279-3.418-1.279c-2.031,0-3.519,0.608-4.463,1.826s-1.416,3.213-1.416,5.986V362h-3.242v-21.406h2.637l0.527,2.93h0.156
			c0.612-1.042,1.475-1.855,2.588-2.441s2.36-0.879,3.74-0.879c3.347,0,5.534,1.211,6.563,3.633h0.156
			c0.638-1.12,1.563-2.005,2.773-2.656s2.591-0.977,4.141-0.977c2.422,0,4.235,0.622,5.439,1.865s1.807,3.232,1.807,5.967V362
			H238.627z"/>
		<path id="XMLID_709_" class="st3" d="M258.51,362.391c-1.394,0-2.666-0.257-3.818-0.771s-2.119-1.306-2.9-2.373h-0.234
			c0.156,1.25,0.234,2.435,0.234,3.555v8.809h-3.242v-31.016h2.637l0.449,2.93h0.156c0.833-1.172,1.804-2.019,2.91-2.539
			s2.376-0.781,3.809-0.781c2.839,0,5.029,0.97,6.572,2.91s2.314,4.661,2.314,8.164c0,3.516-0.784,6.247-2.354,8.193
			S261.296,362.391,258.51,362.391z M258.041,342.957c-2.188,0-3.77,0.605-4.746,1.816s-1.478,3.138-1.504,5.781v0.723
			c0,3.008,0.501,5.159,1.504,6.455s2.61,1.943,4.824,1.943c1.849,0,3.298-0.749,4.346-2.246s1.572-3.562,1.572-6.191
			c0-2.669-0.524-4.717-1.572-6.143S259.943,342.957,258.041,342.957z"/>
		<path id="XMLID_712_" class="st3" d="M276.303,362h-3.242v-30.391h3.242V362z"/>
		<path id="XMLID_714_" class="st3" d="M292.221,362.391c-3.164,0-5.661-0.964-7.49-2.891s-2.744-4.603-2.744-8.027
			c0-3.45,0.85-6.191,2.549-8.223s3.981-3.047,6.846-3.047c2.683,0,4.805,0.882,6.367,2.646s2.344,4.092,2.344,6.982v2.051h-14.746
			c0.065,2.513,0.7,4.421,1.904,5.723s2.9,1.953,5.088,1.953c2.305,0,4.583-0.481,6.836-1.445v2.891
			c-1.146,0.495-2.229,0.85-3.252,1.064S293.666,362.391,292.221,362.391z M291.342,342.918c-1.719,0-3.089,0.56-4.111,1.68
			s-1.624,2.669-1.807,4.648h11.191c0-2.044-0.456-3.61-1.367-4.697S293.034,342.918,291.342,342.918z"/>
		<path id="XMLID_717_" class="st3" d="M324.096,351.277c0,3.489-0.879,6.214-2.637,8.174s-4.187,2.939-7.285,2.939
			c-1.914,0-3.613-0.449-5.098-1.348s-2.63-2.188-3.438-3.867s-1.211-3.646-1.211-5.898c0-3.489,0.872-6.208,2.617-8.154
			s4.167-2.92,7.266-2.92c2.995,0,5.374,0.996,7.139,2.988S324.096,347.879,324.096,351.277z M307.787,351.277
			c0,2.734,0.547,4.817,1.641,6.25s2.702,2.148,4.824,2.148s3.733-0.713,4.834-2.139s1.65-3.513,1.65-6.26
			c0-2.722-0.55-4.788-1.65-6.201s-2.725-2.119-4.873-2.119c-2.122,0-3.724,0.696-4.805,2.09S307.787,348.517,307.787,351.277z"/>
	</g>
	<g id="XMLID_180_" class="st2">
		<path id="XMLID_278_" class="st4" d="M289.109,214.71l-1.817-1.817c-9.009,5.336-19.382,8.214-30.018,8.214
			c-13.361,0-26.08-4.428-36.414-12.606c-2.802,1.93-5.678,4.089-8.48,6.397c-2.233,1.817-3.521,4.58-3.521,7.458v13.665h97.096
			v-4.505l-14.271-14.271L289.109,214.71z M289.109,214.71"/>
		<path id="XMLID_271_" class="st4" d="M259.584,131.241h-4.316c-9.918,0-17.98,8.062-17.98,17.98v19.949
			c0,3.142,1.589,5.869,4.012,7.495v17.034c4.883,2.499,10.334,3.861,16.012,3.861c5.754,0,11.28-1.362,16.2-3.937v-16.92
			c2.423-1.628,4.013-4.355,4.013-7.495V149.26C277.565,139.266,269.5,131.241,259.584,131.241L259.584,131.241z M259.584,131.241"
			/>
		<path id="XMLID_268_" class="st4" d="M346.873,201.422c-10.371-8.517-21.538-14.156-23.808-15.293
			c-0.266-0.113-0.418-0.379-0.418-0.68v-16.127c2.044-1.362,3.369-3.671,3.369-6.285v-16.731c0-8.327-6.737-15.066-15.066-15.066
			h-3.482c5.299,8.593,8.366,18.435,8.744,28.694c0.453,11.432-2.423,22.636-8.177,32.327l26.952,26.952h14.838v-11.471
			C349.826,205.283,348.729,202.975,346.873,201.422L346.873,201.422z M346.873,201.422"/>
		<path id="XMLID_233_" class="st4" d="M336.881,231.705l-29.791-29.791l-2.575-2.573l-0.871-0.871l-0.756-0.758l-2.007,2.007
			l-4.314-4.316c17.108-20.176,16.162-50.459-2.915-69.538c-10.033-10.031-23.206-15.066-36.34-15.066
			c-13.136,0-26.309,5.035-36.34,15.066c-20.061,20.061-20.061,52.616,0,72.679c10.031,10.031,23.204,15.066,36.34,15.066
			c11.811,0,23.62-4.051,33.198-12.151l4.314,4.314l-2.005,2.007l1.628,1.626l2.573,2.575l29.791,29.791
			c1.401,1.401,3.218,2.081,5.035,2.081c1.817,0,3.634-0.68,5.035-2.081C339.644,239.011,339.644,234.507,336.881,231.705
			C336.881,231.744,336.881,231.705,336.881,231.705L336.881,231.705z M287.595,192.526c-8.366,8.365-19.345,12.53-30.283,12.53
			c-10.977,0-21.917-4.164-30.283-12.53c-16.731-16.731-16.731-43.835,0-60.566c8.366-8.366,19.343-12.53,30.283-12.53
			c10.977,0,21.917,4.164,30.283,12.53C304.326,148.654,304.326,175.795,287.595,192.526L287.595,192.526z M287.595,192.526"/>
		<path id="XMLID_183_" class="st4" d="M207.232,131.241h-3.294c-8.328,0-15.066,6.739-15.066,15.066v16.731
			c0,2.614,1.325,4.922,3.369,6.285v16.127c0,0.301-0.151,0.529-0.417,0.68c-2.27,1.098-13.438,6.776-23.81,15.293
			c-1.854,1.552-2.952,3.861-2.952,6.284v11.469h36.795c0.756-3.898,2.8-7.419,5.903-9.955c2.499-2.044,5.035-3.974,7.534-5.754
			C195.952,183.781,193.265,153.802,207.232,131.241L207.232,131.241z M207.232,131.241"/>
	</g>
	<g id="XMLID_282_" class="st2">
		<defs>
			<rect id="XMLID_281_" x="165.035" y="98.072" width="92.741" height="158.512"/>
		</defs>
		<clipPath id="XMLID_3_">
			<use xlink:href="#XMLID_281_"  style="overflow:visible;"/>
		</clipPath>
		<g id="XMLID_124_" class="st5">
			<path id="XMLID_142_" class="st6" d="M289.072,214.71l-1.817-1.817c-9.009,5.336-19.382,8.214-30.018,8.214
				c-13.361,0-26.08-4.428-36.414-12.606c-2.802,1.93-5.678,4.089-8.48,6.397c-2.233,1.817-3.521,4.58-3.521,7.458v13.665h97.096
				v-4.505l-14.271-14.271L289.072,214.71z M289.072,214.71"/>
			<path id="XMLID_139_" class="st6" d="M259.547,131.241h-4.316c-9.918,0-17.98,8.062-17.98,17.98v19.949
				c0,3.142,1.589,5.869,4.012,7.495v17.034c4.883,2.499,10.334,3.861,16.012,3.861c5.754,0,11.28-1.362,16.2-3.937v-16.92
				c2.423-1.628,4.013-4.355,4.013-7.495V149.26C277.527,139.266,269.463,131.241,259.547,131.241L259.547,131.241z
				 M259.547,131.241"/>
			<path id="XMLID_135_" class="st6" d="M346.835,201.422c-10.371-8.517-21.538-14.156-23.808-15.293
				c-0.266-0.113-0.418-0.379-0.418-0.68v-16.127c2.044-1.362,3.369-3.671,3.369-6.285v-16.731c0-8.327-6.737-15.066-15.066-15.066
				h-3.482c5.299,8.593,8.366,18.435,8.744,28.694c0.453,11.432-2.423,22.636-8.177,32.327l26.952,26.952h14.838v-11.471
				C349.789,205.283,348.691,202.975,346.835,201.422L346.835,201.422z M346.835,201.422"/>
			<path id="XMLID_128_" class="st6" d="M336.843,231.705l-29.791-29.791l-2.575-2.573l-0.871-0.871l-0.756-0.758l-2.007,2.007
				l-4.314-4.316c17.108-20.176,16.162-50.459-2.915-69.538c-10.033-10.031-23.206-15.066-36.34-15.066
				c-13.136,0-26.309,5.035-36.34,15.066c-20.061,20.061-20.061,52.616,0,72.679c10.031,10.031,23.204,15.066,36.34,15.066
				c11.811,0,23.62-4.051,33.198-12.151l4.314,4.314l-2.005,2.007l1.628,1.626l2.573,2.575l29.791,29.791
				c1.401,1.401,3.218,2.081,5.035,2.081c1.817,0,3.634-0.68,5.035-2.081C339.607,239.011,339.607,234.507,336.843,231.705
				C336.843,231.744,336.843,231.705,336.843,231.705L336.843,231.705z M287.558,192.526c-8.366,8.365-19.345,12.53-30.283,12.53
				c-10.977,0-21.917-4.164-30.283-12.53c-16.731-16.731-16.731-43.835,0-60.566c8.366-8.366,19.343-12.53,30.283-12.53
				c10.977,0,21.917,4.164,30.283,12.53C304.289,148.654,304.289,175.795,287.558,192.526L287.558,192.526z M287.558,192.526"/>
			<path id="XMLID_125_" class="st6" d="M207.195,131.241h-3.294c-8.328,0-15.066,6.739-15.066,15.066v16.731
				c0,2.614,1.325,4.922,3.369,6.285v16.127c0,0.301-0.151,0.529-0.417,0.68c-2.27,1.098-13.438,6.776-23.81,15.293
				c-1.854,1.552-2.952,3.861-2.952,6.284v11.469h36.795c0.756-3.898,2.8-7.419,5.903-9.955c2.499-2.044,5.035-3.974,7.534-5.754
				C195.914,183.781,193.227,153.802,207.195,131.241L207.195,131.241z M207.195,131.241"/>
		</g>
	</g>
</g>
</svg>
