<?xml version="1.0" encoding="utf-8"?>
<!-- Generator: Adobe Illustrator 19.0.0, SVG Export Plug-In . SVG Version: 6.00 Build 0)  -->
<svg version="1.1" id="Capa_1" xmlns="http://www.w3.org/2000/svg" xmlns:xlink="http://www.w3.org/1999/xlink" x="0px" y="0px"
	 viewBox="0 0 280 280" style="enable-background:new 0 0 280 280;" xml:space="preserve">
<style type="text/css">
	.st0{fill:#F2C40F;}
	.st1{fill:#FFFFFF;}
</style>
<circle id="XMLID_106_" class="st0" cx="140" cy="140" r="138.569"/>
<g id="XMLID_180_">
	<path id="XMLID_278_" class="st1" d="M174.996,181.315l-2.008-2.008c-9.957,5.897-21.421,9.078-33.177,9.078
		c-14.767,0-28.824-4.894-40.245-13.932c-3.097,2.133-6.275,4.519-9.372,7.07c-2.468,2.008-3.891,5.062-3.891,8.243v15.102h107.312
		v-4.979l-15.772-15.772L174.996,181.315z M174.996,181.315"/>
	<path id="XMLID_271_" class="st1" d="M142.365,89.064h-4.77c-10.962,0-19.872,8.911-19.872,19.872v22.048
		c0,3.473,1.757,6.486,4.435,8.284v18.826c5.397,2.762,11.421,4.267,17.697,4.267c6.359,0,12.467-1.506,17.905-4.351v-18.7
		c2.678-1.799,4.435-4.813,4.435-8.284v-22.048C162.237,97.934,153.324,89.064,142.365,89.064L142.365,89.064z M142.365,89.064"/>
	<path id="XMLID_268_" class="st1" d="M238.838,166.629c-11.462-9.413-23.804-15.646-26.313-16.902
		c-0.294-0.124-0.462-0.419-0.462-0.751v-17.823c2.259-1.506,3.724-4.057,3.724-6.946v-18.491c0-9.203-7.446-16.651-16.651-16.651
		h-3.848c5.857,9.497,9.246,20.375,9.664,31.713c0.5,12.635-2.678,25.018-9.037,35.728l29.788,29.788h16.399v-12.678
		C242.102,170.897,240.889,168.345,238.838,166.629L238.838,166.629z M238.838,166.629"/>
	<path id="XMLID_233_" class="st1" d="M227.795,200.098l-32.926-32.926l-2.845-2.844l-0.962-0.962l-0.836-0.837l-2.218,2.218
		l-4.768-4.77c18.908-22.299,17.862-55.769-3.221-76.854c-11.088-11.086-25.647-16.651-40.164-16.651
		c-14.518,0-29.077,5.565-40.164,16.651c-22.172,22.172-22.172,58.152,0,80.327c11.086,11.087,25.645,16.651,40.164,16.651
		c13.054,0,26.105-4.478,36.691-13.429l4.768,4.768l-2.216,2.218l1.799,1.797l2.844,2.846l32.926,32.926
		c1.548,1.548,3.557,2.3,5.564,2.3c2.008,0,4.016-0.751,5.565-2.3C230.849,208.173,230.849,203.195,227.795,200.098
		C227.795,200.141,227.795,200.098,227.795,200.098L227.795,200.098z M173.323,156.797c-9.246,9.245-21.38,13.848-33.469,13.848
		c-12.132,0-24.223-4.603-33.469-13.848c-18.491-18.492-18.491-48.447,0-66.939c9.246-9.246,21.378-13.848,33.469-13.848
		c12.132,0,24.223,4.603,33.469,13.848C191.815,108.309,191.815,138.305,173.323,156.797L173.323,156.797z M173.323,156.797"/>
	<path id="XMLID_183_" class="st1" d="M84.504,89.064h-3.64c-9.205,0-16.651,7.448-16.651,16.651v18.491
		c0,2.889,1.465,5.44,3.724,6.946v17.823c0,0.333-0.167,0.584-0.461,0.751c-2.509,1.214-14.851,7.489-26.316,16.902
		c-2.049,1.716-3.262,4.267-3.262,6.945v12.675h40.666c0.835-4.308,3.095-8.2,6.524-11.003c2.762-2.259,5.565-4.392,8.327-6.359
		C72.037,147.132,69.067,113.998,84.504,89.064L84.504,89.064z M84.504,89.064"/>
</g>
</svg>
