<?xml version="1.0" encoding="utf-8"?>
<!-- Generator: Adobe Illustrator 19.0.0, SVG Export Plug-In . SVG Version: 6.00 Build 0)  -->
<svg version="1.1" id="Capa_1" xmlns="http://www.w3.org/2000/svg" xmlns:xlink="http://www.w3.org/1999/xlink" x="0px" y="0px"
	 viewBox="0 0 280 280" style="enable-background:new 0 0 280 280;" xml:space="preserve">
<style type="text/css">
	.st0{fill:#EF1136;}
	.st1{fill:#FFFFFF;}
</style>
<circle id="XMLID_106_" class="st0" cx="140" cy="140" r="138.569"/>
<g id="XMLID_204_">
	<path id="XMLID_205_" class="st1" d="M139.978,57.261c-45.679,0-82.717,37.038-82.717,82.717c0,45.687,37.038,82.761,82.717,82.761
		c45.687,0,82.761-37.074,82.761-82.761C222.739,94.299,185.665,57.261,139.978,57.261L139.978,57.261z M157.215,185.499
		c-4.272,1.672-7.66,2.941-10.19,3.826c-2.53,0.893-5.472,1.339-8.824,1.339c-5.165,0-9.192-1.269-12.037-3.799
		c-2.871-2.495-4.272-5.708-4.272-9.577c0-1.506,0.105-3.038,0.306-4.613c0.21-1.576,0.551-3.318,1.024-5.305l5.34-18.839
		c0.473-1.812,0.884-3.519,1.191-5.095c0.315-1.646,0.481-3.108,0.481-4.447c0-2.39-0.508-4.071-1.506-5.025
		c-0.989-0.954-2.871-1.401-5.672-1.401c-1.366,0-2.801,0.201-4.246,0.613c-1.436,0.446-2.661,0.858-3.685,1.234l1.401-5.778
		c3.484-1.436,6.837-2.635,10.015-3.659c3.186-1.033,6.189-1.541,9.034-1.541c5.121,0,9.06,1.261,11.827,3.729
		c2.767,2.46,4.176,5.672,4.176,9.638c0,0.823-0.105,2.259-0.28,4.307c-0.201,2.092-0.543,3.966-1.059,5.681l-5.296,18.769
		c-0.447,1.506-0.823,3.248-1.199,5.165c-0.342,1.917-0.508,3.388-0.508,4.377c0,2.495,0.578,4.211,1.672,5.095
		c1.13,0.928,3.047,1.365,5.813,1.365c1.296,0,2.74-0.236,4.377-0.683c1.611-0.438,2.801-0.849,3.554-1.19L157.215,185.499z
		 M156.296,109.312c-2.495,2.285-5.471,3.449-8.964,3.449c-3.449,0-6.46-1.164-8.955-3.449c-2.46-2.294-3.729-5.095-3.729-8.378
		c0-3.256,1.27-6.058,3.729-8.386c2.495-2.285,5.506-3.449,8.955-3.449c3.493,0,6.469,1.164,8.964,3.449
		c2.46,2.328,3.694,5.13,3.694,8.386C159.99,104.218,158.755,107.019,156.296,109.312L156.296,109.312z M156.296,109.312"/>
</g>
</svg>
