<?xml version="1.0" encoding="utf-8"?>
<!-- Generator: Adobe Illustrator 19.0.0, SVG Export Plug-In . SVG Version: 6.00 Build 0)  -->
<svg version="1.1" id="Capa_1" xmlns="http://www.w3.org/2000/svg" xmlns:xlink="http://www.w3.org/1999/xlink" x="0px" y="0px"
	 viewBox="0 0 512 404" style="enable-background:new 0 0 512 404;" xml:space="preserve">
<style type="text/css">
	.st0{clip-path:url(#XMLID_2_);fill:#EF1136;}
	.st1{clip-path:url(#XMLID_2_);fill:#E51340;}
	.st2{clip-path:url(#XMLID_2_);}
	.st3{fill:#5B5B5B;}
	.st4{fill:#FFFFFF;}
	.st5{clip-path:url(#XMLID_3_);}
	.st6{fill:#F3F3F3;}
</style>
<g id="XMLID_211_">
	<defs>
		<rect id="XMLID_900_" width="512" height="404"/>
	</defs>
	<clipPath id="XMLID_2_">
		<use xlink:href="#XMLID_900_"  style="overflow:visible;"/>
	</clipPath>
	<circle id="XMLID_342_" class="st0" cx="256" cy="173.569" r="138.569"/>
	<path id="XMLID_339_" class="st1" d="M257.431,35v277.102c75.869-0.769,137.138-62.5,137.138-138.551S333.3,35.769,257.431,35z"/>
	<g id="XMLID_119_" class="st2">
		<path id="XMLID_120_" class="st3" d="M146.391,362v-28.555h3.32V362H146.391z"/>
		<path id="XMLID_145_" class="st3" d="M171.703,362v-13.848c0-1.745-0.397-3.047-1.191-3.906c-0.795-0.859-2.038-1.289-3.73-1.289
			c-2.24,0-3.881,0.605-4.922,1.816c-1.042,1.211-1.563,3.21-1.563,5.996V362h-3.242v-21.406h2.637l0.527,2.93h0.156
			c0.664-1.055,1.595-1.872,2.793-2.451c1.197-0.579,2.532-0.869,4.004-0.869c2.578,0,4.518,0.622,5.82,1.865
			c1.302,1.243,1.953,3.232,1.953,5.967V362H171.703z"/>
		<path id="XMLID_147_" class="st3" d="M191.254,343.113h-5.449V362h-3.242v-18.887h-3.828v-1.465l3.828-1.172v-1.191
			c0-5.261,2.298-7.891,6.895-7.891c1.133,0,2.461,0.228,3.984,0.684l-0.84,2.598c-1.25-0.403-2.318-0.605-3.203-0.605
			c-1.225,0-2.129,0.407-2.715,1.221s-0.879,2.119-0.879,3.916v1.387h5.449V343.113z"/>
		<path id="XMLID_149_" class="st3" d="M213.637,351.277c0,3.489-0.879,6.214-2.637,8.174s-4.187,2.939-7.285,2.939
			c-1.914,0-3.613-0.449-5.098-1.348s-2.631-2.188-3.438-3.867c-0.808-1.68-1.211-3.646-1.211-5.898
			c0-3.489,0.872-6.208,2.617-8.154c1.744-1.946,4.166-2.92,7.266-2.92c2.994,0,5.374,0.996,7.139,2.988
			C212.754,345.184,213.637,347.879,213.637,351.277z M197.328,351.277c0,2.734,0.547,4.817,1.641,6.25s2.701,2.148,4.824,2.148
			c2.122,0,3.733-0.713,4.834-2.139c1.1-1.426,1.65-3.513,1.65-6.26c0-2.722-0.551-4.788-1.65-6.201
			c-1.101-1.413-2.725-2.119-4.873-2.119c-2.123,0-3.725,0.696-4.805,2.09C197.868,346.44,197.328,348.517,197.328,351.277z"/>
		<path id="XMLID_226_" class="st3" d="M229.086,340.203c0.95,0,1.803,0.078,2.559,0.234l-0.449,3.008
			c-0.886-0.195-1.667-0.293-2.344-0.293c-1.732,0-3.213,0.703-4.443,2.109s-1.846,3.157-1.846,5.254V362h-3.242v-21.406h2.676
			l0.371,3.965h0.156c0.794-1.394,1.751-2.468,2.871-3.223C226.514,340.581,227.744,340.203,229.086,340.203z"/>
		<path id="XMLID_228_" class="st3" d="M262.934,362v-13.926c0-1.706-0.365-2.985-1.094-3.838c-0.729-0.853-1.862-1.279-3.398-1.279
			c-2.019,0-3.51,0.579-4.473,1.738c-0.964,1.159-1.445,2.942-1.445,5.352V362h-3.242v-13.926c0-1.706-0.365-2.985-1.094-3.838
			c-0.729-0.853-1.869-1.279-3.418-1.279c-2.031,0-3.52,0.608-4.463,1.826c-0.944,1.218-1.416,3.213-1.416,5.986V362h-3.242v-21.406
			h2.637l0.527,2.93h0.156c0.611-1.042,1.475-1.855,2.588-2.441s2.359-0.879,3.74-0.879c3.346,0,5.533,1.211,6.563,3.633h0.156
			c0.638-1.12,1.563-2.005,2.773-2.656c1.211-0.651,2.591-0.977,4.141-0.977c2.422,0,4.234,0.622,5.439,1.865
			c1.204,1.243,1.807,3.232,1.807,5.967V362H262.934z"/>
		<path id="XMLID_230_" class="st3" d="M286.02,362l-0.645-3.047h-0.156c-1.068,1.341-2.133,2.249-3.193,2.725
			c-1.062,0.476-2.387,0.713-3.975,0.713c-2.123,0-3.786-0.547-4.99-1.641c-1.205-1.094-1.807-2.649-1.807-4.668
			c0-4.323,3.457-6.589,10.371-6.797l3.633-0.117v-1.328c0-1.68-0.361-2.92-1.084-3.721s-1.879-1.201-3.467-1.201
			c-1.784,0-3.803,0.547-6.055,1.641l-0.996-2.48c1.055-0.573,2.21-1.022,3.467-1.348c1.256-0.325,2.516-0.488,3.779-0.488
			c2.552,0,4.443,0.566,5.674,1.699s1.846,2.949,1.846,5.449V362H286.02z M278.695,359.715c2.018,0,3.604-0.554,4.756-1.66
			s1.729-2.656,1.729-4.648v-1.934l-3.242,0.137c-2.578,0.091-4.438,0.491-5.576,1.201c-1.14,0.71-1.709,1.813-1.709,3.311
			c0,1.172,0.354,2.063,1.064,2.676C276.426,359.409,277.419,359.715,278.695,359.715z"/>
		<path id="XMLID_680_" class="st3" d="M303.656,362.391c-3.1,0-5.498-0.954-7.197-2.861s-2.549-4.606-2.549-8.096
			c0-3.581,0.862-6.348,2.588-8.301c1.725-1.953,4.183-2.93,7.373-2.93c1.028,0,2.057,0.11,3.086,0.332
			c1.028,0.222,1.836,0.481,2.422,0.781l-0.996,2.754c-0.717-0.286-1.498-0.524-2.344-0.713c-0.847-0.188-1.596-0.283-2.246-0.283
			c-4.35,0-6.523,2.773-6.523,8.32c0,2.63,0.53,4.648,1.592,6.055c1.061,1.406,2.633,2.109,4.717,2.109
			c1.783,0,3.613-0.384,5.488-1.152v2.871C307.634,362.02,305.83,362.391,303.656,362.391z"/>
		<path id="XMLID_682_" class="st3" d="M313.871,334.793c0-0.742,0.182-1.286,0.547-1.631c0.364-0.345,0.82-0.518,1.367-0.518
			c0.521,0,0.97,0.176,1.348,0.527c0.377,0.352,0.566,0.892,0.566,1.621s-0.189,1.272-0.566,1.631
			c-0.378,0.358-0.827,0.537-1.348,0.537c-0.547,0-1.003-0.179-1.367-0.537C314.053,336.065,313.871,335.522,313.871,334.793z
			 M317.387,362h-3.242v-21.406h3.242V362z"/>
		<path id="XMLID_685_" class="st3" d="M342.738,351.277c0,3.489-0.879,6.214-2.637,8.174s-4.187,2.939-7.285,2.939
			c-1.914,0-3.613-0.449-5.098-1.348s-2.631-2.188-3.438-3.867c-0.808-1.68-1.211-3.646-1.211-5.898
			c0-3.489,0.872-6.208,2.617-8.154c1.744-1.946,4.166-2.92,7.266-2.92c2.994,0,5.374,0.996,7.139,2.988
			C341.855,345.184,342.738,347.879,342.738,351.277z M326.43,351.277c0,2.734,0.547,4.817,1.641,6.25s2.701,2.148,4.824,2.148
			c2.122,0,3.733-0.713,4.834-2.139c1.1-1.426,1.65-3.513,1.65-6.26c0-2.722-0.551-4.788-1.65-6.201
			c-1.101-1.413-2.725-2.119-4.873-2.119c-2.123,0-3.725,0.696-4.805,2.09C326.97,346.44,326.43,348.517,326.43,351.277z
			 M330.18,337.273c0.625-0.808,1.299-1.784,2.021-2.93s1.292-2.142,1.709-2.988h3.945v0.41c-0.573,0.847-1.426,1.888-2.559,3.125
			s-2.116,2.194-2.949,2.871h-2.168V337.273z"/>
		<path id="XMLID_689_" class="st3" d="M363.07,362v-13.848c0-1.745-0.397-3.047-1.191-3.906c-0.795-0.859-2.038-1.289-3.73-1.289
			c-2.24,0-3.881,0.605-4.922,1.816c-1.042,1.211-1.563,3.21-1.563,5.996V362h-3.242v-21.406h2.637l0.527,2.93h0.156
			c0.664-1.055,1.595-1.872,2.793-2.451c1.197-0.579,2.532-0.869,4.004-0.869c2.578,0,4.518,0.622,5.82,1.865
			c1.302,1.243,1.953,3.232,1.953,5.967V362H363.07z"/>
	</g>
	<g id="XMLID_204_" class="st2">
		<path id="XMLID_205_" class="st4" d="M258.743,105.432c-37.121,0-67.221,30.1-67.221,67.221c0,37.128,30.1,67.257,67.221,67.257
			c37.128,0,67.257-30.128,67.257-67.257C326,135.532,295.872,105.432,258.743,105.432L258.743,105.432z M272.751,209.647
			c-3.472,1.359-6.225,2.39-8.281,3.109c-2.056,0.726-4.447,1.088-7.171,1.088c-4.197,0-7.47-1.031-9.782-3.087
			c-2.333-2.028-3.472-4.638-3.472-7.783c0-1.224,0.085-2.469,0.249-3.749c0.171-1.28,0.448-2.696,0.832-4.311l4.34-15.31
			c0.384-1.473,0.718-2.86,0.968-4.14c0.256-1.337,0.391-2.526,0.391-3.614c0-1.942-0.413-3.308-1.224-4.083
			c-0.804-0.775-2.333-1.138-4.61-1.138c-1.11,0-2.277,0.164-3.45,0.498c-1.167,0.363-2.163,0.697-2.995,1.003l1.138-4.695
			c2.831-1.167,5.556-2.141,8.139-2.973c2.589-0.84,5.029-1.252,7.342-1.252c4.162,0,7.363,1.025,9.611,3.031
			c2.248,1.999,3.394,4.61,3.394,7.833c0,0.669-0.086,1.835-0.228,3.5c-0.163,1.7-0.441,3.223-0.861,4.617l-4.304,15.253
			c-0.363,1.224-0.669,2.639-0.975,4.197c-0.278,1.558-0.413,2.753-0.413,3.557c0,2.028,0.47,3.422,1.359,4.14
			c0.918,0.754,2.476,1.11,4.724,1.11c1.053,0,2.227-0.192,3.557-0.555c1.309-0.356,2.276-0.69,2.888-0.967L272.751,209.647z
			 M272.004,147.733c-2.028,1.857-4.446,2.803-7.285,2.803c-2.803,0-5.25-0.946-7.278-2.803c-1.999-1.864-3.031-4.14-3.031-6.808
			c0-2.646,1.032-4.923,3.031-6.815c2.028-1.857,4.475-2.803,7.278-2.803c2.839,0,5.257,0.946,7.285,2.803
			c1.999,1.892,3.002,4.169,3.002,6.815C275.006,143.592,274.003,145.869,272.004,147.733L272.004,147.733z M272.004,147.733"/>
	</g>
	<g id="XMLID_327_" class="st2">
		<defs>
			<rect id="XMLID_326_" x="140.302" y="89.031" width="114.251" height="194.99"/>
		</defs>
		<clipPath id="XMLID_3_">
			<use xlink:href="#XMLID_326_"  style="overflow:visible;"/>
		</clipPath>
		<g id="XMLID_303_" class="st5">
			<path id="XMLID_304_" class="st6" d="M258.743,105.432c-37.121,0-67.221,30.1-67.221,67.221c0,37.128,30.1,67.257,67.221,67.257
				c37.128,0,67.257-30.128,67.257-67.257C326,135.532,295.872,105.432,258.743,105.432L258.743,105.432z M272.751,209.647
				c-3.472,1.359-6.225,2.39-8.281,3.109c-2.056,0.726-4.447,1.088-7.171,1.088c-4.197,0-7.47-1.031-9.782-3.087
				c-2.333-2.028-3.472-4.638-3.472-7.783c0-1.224,0.085-2.469,0.249-3.749c0.171-1.28,0.448-2.696,0.832-4.311l4.34-15.31
				c0.384-1.473,0.718-2.86,0.968-4.14c0.256-1.337,0.391-2.526,0.391-3.614c0-1.942-0.413-3.308-1.224-4.083
				c-0.804-0.775-2.333-1.139-4.61-1.139c-1.11,0-2.277,0.164-3.45,0.498c-1.167,0.363-2.163,0.697-2.995,1.003l1.138-4.695
				c2.831-1.167,5.556-2.141,8.139-2.973c2.589-0.84,5.029-1.252,7.342-1.252c4.162,0,7.363,1.025,9.611,3.031
				c2.248,1.999,3.394,4.61,3.394,7.833c0,0.669-0.086,1.835-0.228,3.5c-0.163,1.7-0.441,3.223-0.861,4.617l-4.304,15.253
				c-0.363,1.224-0.669,2.639-0.975,4.197c-0.278,1.558-0.413,2.753-0.413,3.557c0,2.028,0.47,3.422,1.359,4.14
				c0.918,0.754,2.476,1.11,4.724,1.11c1.053,0,2.227-0.192,3.557-0.555c1.309-0.356,2.276-0.69,2.888-0.967L272.751,209.647z
				 M272.004,147.733c-2.028,1.857-4.446,2.803-7.285,2.803c-2.803,0-5.25-0.946-7.278-2.803c-1.999-1.864-3.031-4.14-3.031-6.808
				c0-2.646,1.032-4.923,3.031-6.815c2.028-1.857,4.475-2.803,7.278-2.803c2.839,0,5.257,0.946,7.285,2.803
				c1.999,1.892,3.002,4.169,3.002,6.815C275.006,143.592,274.003,145.869,272.004,147.733L272.004,147.733z M272.004,147.733"/>
		</g>
	</g>
</g>
</svg>
