<?xml version="1.0" encoding="utf-8"?>
<!-- Generator: Adobe Illustrator 19.0.0, SVG Export Plug-In . SVG Version: 6.00 Build 0)  -->
<svg version="1.1" id="Capa_1" xmlns="http://www.w3.org/2000/svg" xmlns:xlink="http://www.w3.org/1999/xlink" x="0px" y="0px"
	 viewBox="0 0 280 280" style="enable-background:new 0 0 280 280;" xml:space="preserve">
<style type="text/css">
	.st0{fill:#ED54AF;}
	.st1{fill:#FFFFFF;}
</style>
<circle id="XMLID_106_" class="st0" cx="140" cy="140" r="138.569"/>
<path id="XMLID_253_" class="st1" d="M220.103,121.875h-16.481V72.738c0-9.291-7.617-16.907-16.907-16.907H64.572
	c-9.281,0-16.907,7.617-16.907,16.907v71.422c0,9.321,7.626,16.907,16.907,16.907h15.629v49.176c0,7.656,6.269,13.926,13.896,13.926
	h30.942c7.666,0,13.935-6.27,13.935-13.926v-49.176h11.182v24.603c0,6.735,5.487,12.232,12.262,12.232h57.684
	c6.735,0,12.232-5.497,12.232-12.232v-51.573C232.335,127.362,226.838,121.875,220.103,121.875z M216.508,128.57
	c2.09,0,3.793,1.694,3.793,3.784s-1.704,3.793-3.793,3.793c-2.09,0-3.794-1.704-3.794-3.793S214.418,128.57,216.508,128.57z
	 M205.672,128.6c2.09,0,3.794,1.664,3.794,3.754s-1.704,3.793-3.794,3.793c-2.089,0-3.754-1.704-3.754-3.793
	S203.583,128.6,205.672,128.6z M182.922,64.458c2.714,0,4.952,2.209,4.952,4.952c0,2.704-2.238,4.953-4.952,4.953
	c-2.744,0-4.952-2.249-4.952-4.953C177.969,66.667,180.178,64.458,182.922,64.458z M168.768,64.458c2.704,0,4.912,2.209,4.912,4.952
	c0,2.704-2.208,4.913-4.912,4.913c-2.754,0-4.952-2.209-4.952-4.913C163.816,66.667,166.014,64.458,168.768,64.458z
	 M128.446,212.214H90.73v-66.707h37.716V212.214z M109.37,134.721c0-2.09,1.704-3.754,3.793-3.754s3.754,1.664,3.754,3.754
	c0,2.09-1.664,3.784-3.754,3.784S109.37,136.811,109.37,134.721z M120.206,134.721c0-2.09,1.703-3.754,3.793-3.754
	c2.09,0,3.754,1.664,3.754,3.754c0,2.09-1.664,3.784-3.754,3.784C121.909,138.505,120.206,136.811,120.206,134.721z
	 M150.157,134.097v12.46h-11.182v-9.013c0-7.666-6.269-13.926-13.935-13.926H94.097c-7.627,0-13.896,6.26-13.896,13.926v9.013
	h-19.73V82.682h130.344v39.192h-28.396C155.644,121.875,150.157,127.362,150.157,134.097z M223.045,187.413h-63.607v-45.541h63.607
	V187.413z"/>
</svg>
