<?xml version="1.0" encoding="utf-8"?>
<!-- Generator: Adobe Illustrator 19.0.0, SVG Export Plug-In . SVG Version: 6.00 Build 0)  -->
<svg version="1.1" id="Capa_1" xmlns="http://www.w3.org/2000/svg" xmlns:xlink="http://www.w3.org/1999/xlink" x="0px" y="0px"
	 viewBox="0 0 280 280" style="enable-background:new 0 0 280 280;" xml:space="preserve">
<style type="text/css">
	.st0{fill:#61BC31;}
	.st1{fill:#FFFFFF;}
</style>
<circle id="XMLID_106_" class="st0" cx="140" cy="140" r="138.569"/>
<g id="XMLID_2_">
	<path id="XMLID_3_" class="st1" d="M132.809,226.824v-21.363c-12.268-0.212-24.958-4.019-32.361-9.306l5.076-14.171
		c7.614,5.076,18.613,9.094,30.457,9.094c15.018,0,25.17-8.672,25.17-20.727c0-11.633-8.249-18.825-23.901-25.17
		c-21.574-8.461-34.899-18.19-34.899-36.591c0-17.555,12.479-30.88,31.938-34.053V53.176h13.114v20.516
		c12.691,0.423,21.362,3.807,27.496,7.403l-5.287,13.96c-4.441-2.538-13.113-7.192-26.65-7.192c-16.287,0-22.42,9.73-22.42,18.19
		c0,10.998,7.826,16.497,26.227,24.111c21.785,8.884,32.784,19.883,32.784,38.706c0,16.71-11.633,32.361-33.418,35.957v21.997
		H132.809z"/>
</g>
</svg>
