<?xml version="1.0" encoding="utf-8"?>
<!-- Generator: Adobe Illustrator 19.0.0, SVG Export Plug-In . SVG Version: 6.00 Build 0)  -->
<svg version="1.1" id="Capa_1" xmlns="http://www.w3.org/2000/svg" xmlns:xlink="http://www.w3.org/1999/xlink" x="0px" y="0px"
	 viewBox="0 0 512 404" style="enable-background:new 0 0 512 404;" xml:space="preserve">
<style type="text/css">
	.st0{clip-path:url(#XMLID_10_);}
	.st1{fill:#61BC31;}
	.st2{fill:#5DB22B;}
	.st3{fill:#FFFFFF;}
	.st4{clip-path:url(#XMLID_11_);}
	.st5{fill:#F3F3F3;}
	.st6{fill:#5B5B5B;}
</style>
<g id="XMLID_284_">
	<defs>
		<rect id="XMLID_61_" width="512" height="404"/>
	</defs>
	<clipPath id="XMLID_10_">
		<use xlink:href="#XMLID_61_"  style="overflow:visible;"/>
	</clipPath>
	<g id="XMLID_3_" class="st0">
		<circle id="XMLID_106_" class="st1" cx="256" cy="173.569" r="138.569"/>
		<path id="XMLID_45_" class="st2" d="M257.431,35v277.102c75.869-0.769,137.138-62.5,137.138-138.551S333.3,35.769,257.431,35z"/>
	</g>
	<g id="XMLID_2_" class="st0">
		<g id="XMLID_8_">
			<path id="XMLID_9_" class="st3" d="M301.793,154.323c-10.868,0-19.676,5.562-19.676,12.426v4.305
				c3.645,1.341,7.319,2.662,10.222,4.832c0.625,0.468,1.184,0.946,1.69,1.432c0.702,0.448,1.288,1.076,1.658,1.891
				c1.828,2.543,2.289,5.253,1.808,7.936c1.384,0.198,2.82,0.31,4.299,0.31c10.858,0,19.663-5.56,19.663-12.426v-8.28
				C321.456,159.886,312.65,154.323,301.793,154.323z"/>
			<path id="XMLID_24_" class="st3" d="M301.793,212.479c-1.974,0-3.878-0.187-5.676-0.528v8.293
				c1.798,0.342,3.702,0.529,5.676,0.529c10.858,0,19.663-5.562,19.663-12.426v-8.28
				C321.456,206.919,312.65,212.479,301.793,212.479z"/>
			<path id="XMLID_25_" class="st3" d="M301.793,201.199c-1.974,0-3.878-0.187-5.676-0.528v8.28
				c1.798,0.341,3.702,0.528,5.676,0.528c10.858,0,19.663-5.56,19.663-12.413v-8.293
				C321.456,195.639,312.65,201.199,301.793,201.199z"/>
			<path id="XMLID_26_" class="st3" d="M301.793,190.198c-1.697,0-3.337-0.145-4.907-0.401c-0.107,0.747-0.376,1.463-0.769,2.1
				v6.053c1.798,0.341,3.702,0.528,5.676,0.528c10.858,0,19.663-5.56,19.663-12.426v-8.28
				C321.456,184.638,312.65,190.198,301.793,190.198z"/>
			<path id="XMLID_27_" class="st3" d="M283.116,176.442c-3.137-1.338-6.917-2.119-10.985-2.119
				c-10.868,0-19.676,5.562-19.676,12.426v8.28c0,6.867,8.808,12.426,19.676,12.426c4.068,0,7.848-0.781,10.985-2.118
				c0.022-0.009,0.042-0.02,0.064-0.029c0.25-0.107,0.483-0.228,0.724-0.342c1.839-0.871,3.432-1.935,4.692-3.154
				c0.589-0.57,1.107-1.171,1.544-1.801c1.058-1.526,1.655-3.209,1.655-4.982v-2.503v-2.742v-3.035
				C291.795,182.457,288.352,178.675,283.116,176.442z"/>
			<path id="XMLID_28_" class="st3" d="M272.132,232.479c-10.868,0-19.676-5.56-19.676-12.413v8.28
				c0,6.864,8.808,12.426,19.676,12.426c10.858,0,19.663-5.562,19.663-12.426V223.1v-3.034c0,0.961-0.19,1.892-0.517,2.79
				C289.269,228.365,281.467,232.479,272.132,232.479z"/>
			<path id="XMLID_29_" class="st3" d="M290.003,213.935c-1.17,1.615-2.868,3.042-4.959,4.195
				c-3.456,1.906-7.964,3.069-12.911,3.069c-10.868,0-19.676-5.56-19.676-12.426v8.293c0,6.854,8.808,12.413,19.676,12.413
				c7.939,0,14.763-2.978,17.868-7.255c1.142-1.573,1.795-3.316,1.795-5.159v-2.257v-3v-3.036c0,0.962-0.189,1.894-0.516,2.792
				C290.979,212.39,290.548,213.182,290.003,213.935z"/>
			<path id="XMLID_30_" class="st3" d="M290.151,202.739c-1.145,1.656-2.85,3.117-4.956,4.303c-0.443,0.249-0.902,0.485-1.379,0.708
				c-0.234,0.109-0.458,0.227-0.699,0.33c-3.137,1.337-6.917,2.118-10.985,2.118c-10.868,0-19.676-5.56-19.676-12.426v8.28
				c0,6.867,8.808,12.426,19.676,12.426c4.381,0,8.414-0.916,11.683-2.447c1.8-0.843,3.378-1.865,4.632-3.041
				c0.66-0.619,1.226-1.279,1.704-1.97c1.052-1.522,1.644-3.2,1.644-4.968v-2.524v-2.721v-3.035c0,0.961-0.189,1.893-0.516,2.792
				C291.005,201.317,290.631,202.045,290.151,202.739z"/>
		</g>
		<g id="XMLID_7_">
			<path id="XMLID_20_" class="st3" d="M246.001,180.304c-3.256,2.251-7.979,4.294-10.15-0.818c-0.707-0.08-3.963-3.549-4.63-3.781
				c-0.251-0.08-0.515-0.15-0.779-0.192c-1.83-0.324-3.681,0.515-4.944,1.892l-7.635,8.393c4.924,6.287,12.561,10.341,21.164,10.341
				c2.143,0,4.216-0.264,6.207-0.738v-11.689C245.234,182.529,245.512,181.389,246.001,180.304z"/>
			<path id="XMLID_32_" class="st3" d="M250.254,175.441c0.083-0.059,0.166-0.117,0.251-0.174
				C250.42,175.325,250.337,175.383,250.254,175.441z"/>
			<path id="XMLID_53_" class="st3" d="M205.894,111.241v115.958h40.898v-5.522c-0.998-1.487-1.559-3.118-1.559-4.831h-16.612
				c0.031-0.344,0.052-0.688,0.052-1.043c0-6.287-5.096-11.383-11.396-11.383c-0.342,0-0.686,0.021-1.03,0.052v-20.95
				c0.05,0.08,0.107,0.156,0.158,0.235c-2.709-4.193-4.305-9.176-4.305-14.543c0-5.33,1.58-10.284,4.263-14.468
				c-0.038,0.059-0.08,0.114-0.117,0.173v-20.95c0.344,0.031,0.689,0.052,1.03,0.052c6.3,0,11.396-5.107,11.396-11.396
				c0-0.342-0.021-0.686-0.052-1.03h20.807c-0.029,0.344-0.049,0.688-0.049,1.03c0,6.29,5.096,11.396,11.383,11.396
				c0.355,0,0.699-0.021,1.043-0.052v20.95c-4.773-7.573-13.174-12.618-22.779-12.618c-8.601,0-16.236,4.052-21.16,10.335
				l7.704,8.461c1.04,1.141,2.485,1.931,4.032,1.91c0.515-0.01,1.041-0.091,1.537-0.264c1.02-0.352,2.446-3.882,5.813-3.882
				c2.679,0,5.125,1.033,6.957,2.71c0.595-1.677,5.772-3.225,7.542-2.71c0,0,4.173,8.138-0.172,15.902
				c3.537-2.148,8.333-3.475,13.628-3.475c2.557,0,5.003,0.324,7.25,0.88v-60.926H205.894z M217.277,210.626
				c2.863,0,5.177,2.327,5.177,5.177c0,2.863-2.314,5.177-5.177,5.177c-2.85,0-5.177-2.314-5.177-5.177
				C212.101,212.953,214.428,210.626,217.277,210.626z M217.277,127.801c-2.85,0-5.177-2.314-5.177-5.177
				c0-2.85,2.327-5.176,5.177-5.176c2.863,0,5.177,2.327,5.177,5.176C222.454,125.487,220.14,127.801,217.277,127.801z
				 M260.763,127.801c-2.85,0-5.177-2.314-5.177-5.177c0-2.85,2.327-5.176,5.177-5.176c2.863,0,5.177,2.327,5.177,5.176
				C265.94,125.487,263.626,127.801,260.763,127.801z"/>
			<path id="XMLID_40_" class="st3" d="M246.412,179.51c0.001-0.002,0.003-0.005,0.004-0.007
				C246.415,179.505,246.413,179.508,246.412,179.51z"/>
			<path id="XMLID_41_" class="st3" d="M248.173,177.202c-0.054,0.056-0.109,0.112-0.161,0.168
				C248.064,177.314,248.118,177.258,248.173,177.202z"/>
		</g>
		<path id="XMLID_6_" class="st3" d="M299.793,145.804v-35.234h-6.22v36.083C295.514,146.169,297.608,145.876,299.793,145.804"/>
		<path id="XMLID_5_" class="st3" d="M290.573,146.653v-36.083h-6.207v38.581C286.155,148.089,288.259,147.23,290.573,146.653"/>
		<path id="XMLID_4_" class="st3" d="M281.366,149.15v-38.581h-6.207v47.63C275.16,154.622,277.554,151.415,281.366,149.15"/>
	</g>
	<g id="XMLID_60_" class="st0">
		<defs>
			<rect id="XMLID_59_" x="162.428" y="81.142" width="95" height="173"/>
		</defs>
		<clipPath id="XMLID_11_">
			<use xlink:href="#XMLID_59_"  style="overflow:visible;"/>
		</clipPath>
		<g id="XMLID_15_" class="st4">
			<g id="XMLID_38_">
				<path id="XMLID_49_" class="st5" d="M301.789,154.327c-10.868,0-19.676,5.562-19.676,12.426v4.305
					c3.645,1.341,7.319,2.662,10.222,4.832c0.625,0.468,1.184,0.946,1.69,1.432c0.702,0.448,1.288,1.076,1.658,1.891
					c1.828,2.543,2.289,5.253,1.808,7.936c1.384,0.198,2.82,0.31,4.299,0.31c10.858,0,19.663-5.56,19.663-12.426v-8.28
					C321.453,159.889,312.647,154.327,301.789,154.327z"/>
				<path id="XMLID_48_" class="st5" d="M301.789,212.482c-1.974,0-3.878-0.187-5.676-0.528v8.293
					c1.798,0.342,3.702,0.529,5.676,0.529c10.858,0,19.663-5.562,19.663-12.426v-8.28
					C321.453,206.922,312.647,212.482,301.789,212.482z"/>
				<path id="XMLID_47_" class="st5" d="M301.789,201.202c-1.974,0-3.878-0.187-5.676-0.528v8.28
					c1.798,0.341,3.702,0.528,5.676,0.528c10.858,0,19.663-5.56,19.663-12.413v-8.293
					C321.453,195.643,312.647,201.202,301.789,201.202z"/>
				<path id="XMLID_46_" class="st5" d="M301.789,190.201c-1.697,0-3.337-0.145-4.907-0.401c-0.107,0.747-0.376,1.463-0.769,2.1
					v6.053c1.798,0.341,3.702,0.528,5.676,0.528c10.858,0,19.663-5.56,19.663-12.426v-8.28
					C321.453,184.642,312.647,190.201,301.789,190.201z"/>
				<path id="XMLID_44_" class="st5" d="M283.113,176.445c-3.137-1.338-6.917-2.119-10.985-2.119
					c-10.868,0-19.676,5.562-19.676,12.426v8.28c0,6.867,8.808,12.426,19.676,12.426c4.068,0,7.848-0.781,10.985-2.118
					c0.022-0.009,0.042-0.02,0.064-0.029c0.25-0.107,0.483-0.228,0.724-0.342c1.839-0.871,3.432-1.935,4.692-3.154
					c0.589-0.57,1.107-1.171,1.544-1.801c1.058-1.526,1.655-3.209,1.655-4.982v-2.503v-2.742v-3.035
					C291.792,182.461,288.348,178.678,283.113,176.445z"/>
				<path id="XMLID_43_" class="st5" d="M272.129,232.482c-10.868,0-19.676-5.56-19.676-12.413v8.28
					c0,6.864,8.808,12.426,19.676,12.426c10.858,0,19.663-5.562,19.663-12.426v-5.246v-3.034c0,0.961-0.19,1.892-0.517,2.79
					C289.266,228.368,281.464,232.482,272.129,232.482z"/>
				<path id="XMLID_42_" class="st5" d="M289.999,213.938c-1.17,1.615-2.868,3.042-4.959,4.195
					c-3.456,1.906-7.964,3.069-12.911,3.069c-10.868,0-19.676-5.56-19.676-12.426v8.293c0,6.854,8.808,12.413,19.676,12.413
					c7.939,0,14.763-2.978,17.868-7.255c1.142-1.573,1.795-3.316,1.795-5.159v-2.257v-3v-3.036c0,0.962-0.189,1.894-0.516,2.792
					C290.975,212.393,290.545,213.185,289.999,213.938z"/>
				<path id="XMLID_39_" class="st5" d="M290.148,202.742c-1.145,1.656-2.85,3.117-4.956,4.303
					c-0.443,0.249-0.902,0.485-1.379,0.708c-0.234,0.109-0.458,0.227-0.699,0.33c-3.137,1.337-6.917,2.118-10.985,2.118
					c-10.868,0-19.676-5.56-19.676-12.426v8.28c0,6.867,8.808,12.426,19.676,12.426c4.381,0,8.414-0.916,11.683-2.447
					c1.8-0.843,3.378-1.865,4.632-3.041c0.66-0.619,1.226-1.279,1.704-1.97c1.052-1.522,1.644-3.2,1.644-4.968v-2.524v-2.721v-3.035
					c0,0.961-0.189,1.893-0.516,2.792C291.002,201.32,290.628,202.048,290.148,202.742z"/>
			</g>
			<g id="XMLID_19_">
				<path id="XMLID_37_" class="st5" d="M245.998,180.308c-3.256,2.251-7.979,4.294-10.15-0.818c-0.707-0.08-3.963-3.549-4.63-3.781
					c-0.251-0.08-0.515-0.15-0.779-0.192c-1.83-0.324-3.681,0.515-4.944,1.892l-7.635,8.393
					c4.924,6.287,12.561,10.341,21.164,10.341c2.143,0,4.216-0.264,6.207-0.738v-11.689
					C245.23,182.533,245.509,181.392,245.998,180.308z"/>
				<path id="XMLID_36_" class="st5" d="M250.251,175.445c0.083-0.059,0.166-0.117,0.251-0.174
					C250.417,175.328,250.334,175.386,250.251,175.445z"/>
				<path id="XMLID_23_" class="st5" d="M205.891,111.245v115.958h40.898v-5.522c-0.998-1.487-1.559-3.118-1.559-4.831h-16.612
					c0.031-0.344,0.052-0.688,0.052-1.043c0-6.287-5.096-11.383-11.396-11.383c-0.342,0-0.686,0.021-1.03,0.052v-20.95
					c0.05,0.08,0.107,0.156,0.158,0.235c-2.709-4.193-4.305-9.176-4.305-14.543c0-5.33,1.58-10.284,4.263-14.468
					c-0.038,0.059-0.08,0.114-0.117,0.173v-20.95c0.344,0.031,0.689,0.052,1.03,0.052c6.3,0,11.396-5.107,11.396-11.396
					c0-0.342-0.021-0.686-0.052-1.03h20.807c-0.029,0.344-0.049,0.688-0.049,1.03c0,6.29,5.096,11.396,11.383,11.396
					c0.355,0,0.699-0.021,1.043-0.052v20.95c-4.773-7.573-13.174-12.618-22.779-12.618c-8.601,0-16.236,4.052-21.16,10.335
					l7.704,8.461c1.04,1.141,2.485,1.931,4.032,1.91c0.515-0.01,1.041-0.091,1.537-0.264c1.02-0.352,2.446-3.882,5.813-3.882
					c2.679,0,5.125,1.033,6.957,2.71c0.595-1.677,5.772-3.225,7.542-2.71c0,0,4.173,8.138-0.172,15.902
					c3.537-2.148,8.333-3.475,13.628-3.475c2.557,0,5.003,0.324,7.25,0.88v-60.926H205.891z M217.274,210.63
					c2.863,0,5.177,2.327,5.177,5.177c0,2.863-2.314,5.177-5.177,5.177c-2.85,0-5.177-2.314-5.177-5.177
					C212.098,212.956,214.425,210.63,217.274,210.63z M217.274,127.804c-2.85,0-5.177-2.314-5.177-5.177
					c0-2.85,2.327-5.176,5.177-5.176c2.863,0,5.177,2.327,5.177,5.176C222.451,125.49,220.137,127.804,217.274,127.804z
					 M260.76,127.804c-2.85,0-5.177-2.314-5.177-5.177c0-2.85,2.327-5.176,5.177-5.176c2.863,0,5.177,2.327,5.177,5.176
					C265.937,125.49,263.623,127.804,260.76,127.804z"/>
				<path id="XMLID_22_" class="st5" d="M246.409,179.513c0.001-0.002,0.003-0.005,0.004-0.007
					C246.412,179.509,246.41,179.511,246.409,179.513z"/>
				<path id="XMLID_21_" class="st5" d="M248.17,177.206c-0.054,0.056-0.109,0.112-0.161,0.168
					C248.061,177.317,248.115,177.262,248.17,177.206z"/>
			</g>
			<path id="XMLID_18_" class="st5" d="M299.789,145.807v-35.234h-6.22v36.083C295.511,146.172,297.605,145.879,299.789,145.807"/>
			<path id="XMLID_17_" class="st5" d="M290.57,146.656v-36.083h-6.207v38.581C286.152,148.092,288.256,147.233,290.57,146.656"/>
			<path id="XMLID_16_" class="st5" d="M281.363,149.154v-38.581h-6.207v47.63C275.156,154.625,277.55,151.418,281.363,149.154"/>
		</g>
	</g>
	<g id="XMLID_817_" class="st0">
		<path id="XMLID_818_" class="st6" d="M222.289,341.766c0,2.891-0.986,5.114-2.959,6.67s-4.795,2.334-8.467,2.334h-3.359V362h-3.32
			v-28.555h7.402C218.722,333.445,222.289,336.219,222.289,341.766z M207.504,347.918h2.988c2.942,0,5.071-0.476,6.387-1.426
			s1.973-2.474,1.973-4.57c0-1.888-0.618-3.294-1.855-4.219s-3.164-1.387-5.781-1.387h-3.711V347.918z"/>
		<path id="XMLID_821_" class="st6" d="M240.941,362l-0.645-3.047h-0.156c-1.067,1.341-2.132,2.249-3.193,2.725
			s-2.386,0.713-3.975,0.713c-2.122,0-3.786-0.547-4.99-1.641s-1.807-2.649-1.807-4.668c0-4.323,3.457-6.589,10.371-6.797
			l3.633-0.117v-1.328c0-1.68-0.361-2.92-1.084-3.721s-1.878-1.201-3.467-1.201c-1.784,0-3.802,0.547-6.055,1.641l-0.996-2.48
			c1.055-0.573,2.21-1.022,3.467-1.348s2.517-0.488,3.779-0.488c2.552,0,4.443,0.566,5.674,1.699s1.846,2.949,1.846,5.449V362
			H240.941z M233.617,359.715c2.019,0,3.604-0.554,4.756-1.66s1.729-2.656,1.729-4.648v-1.934l-3.242,0.137
			c-2.578,0.091-4.437,0.491-5.576,1.201s-1.709,1.813-1.709,3.311c0,1.172,0.354,2.063,1.064,2.676
			S232.341,359.715,233.617,359.715z"/>
		<path id="XMLID_824_" class="st6" d="M267.543,340.594v2.051l-3.965,0.469c0.364,0.456,0.69,1.052,0.977,1.787
			s0.43,1.565,0.43,2.49c0,2.097-0.716,3.77-2.148,5.02s-3.398,1.875-5.898,1.875c-0.638,0-1.237-0.052-1.797-0.156
			c-1.38,0.729-2.07,1.647-2.07,2.754c0,0.586,0.241,1.019,0.723,1.299s1.309,0.42,2.48,0.42h3.789c2.317,0,4.099,0.488,5.342,1.465
			s1.865,2.396,1.865,4.258c0,2.37-0.95,4.177-2.852,5.42s-4.675,1.865-8.32,1.865c-2.8,0-4.958-0.521-6.475-1.563
			s-2.275-2.513-2.275-4.414c0-1.302,0.417-2.429,1.25-3.379s2.005-1.595,3.516-1.934c-0.547-0.247-1.006-0.632-1.377-1.152
			s-0.557-1.126-0.557-1.816c0-0.781,0.208-1.465,0.625-2.051s1.074-1.152,1.973-1.699c-1.106-0.456-2.009-1.23-2.705-2.324
			s-1.045-2.344-1.045-3.75c0-2.344,0.703-4.15,2.109-5.42s3.398-1.904,5.977-1.904c1.12,0,2.129,0.13,3.027,0.391H267.543z
			 M250.473,365.594c0,1.159,0.488,2.038,1.465,2.637s2.376,0.898,4.199,0.898c2.722,0,4.736-0.407,6.045-1.221
			s1.963-1.917,1.963-3.311c0-1.159-0.358-1.963-1.074-2.412s-2.063-0.674-4.043-0.674h-3.887c-1.472,0-2.617,0.352-3.438,1.055
			S250.473,364.278,250.473,365.594z M252.23,347.449c0,1.497,0.423,2.63,1.27,3.398s2.024,1.152,3.535,1.152
			c3.164,0,4.746-1.536,4.746-4.609c0-3.216-1.602-4.824-4.805-4.824c-1.523,0-2.695,0.41-3.516,1.23S252.23,345.835,252.23,347.449
			z"/>
		<path id="XMLID_828_" class="st6" d="M290.414,351.277c0,3.489-0.879,6.214-2.637,8.174s-4.187,2.939-7.285,2.939
			c-1.914,0-3.613-0.449-5.098-1.348s-2.63-2.188-3.438-3.867s-1.211-3.646-1.211-5.898c0-3.489,0.872-6.208,2.617-8.154
			s4.167-2.92,7.266-2.92c2.995,0,5.374,0.996,7.139,2.988S290.414,347.879,290.414,351.277z M274.105,351.277
			c0,2.734,0.547,4.817,1.641,6.25s2.702,2.148,4.824,2.148s3.733-0.713,4.834-2.139s1.65-3.513,1.65-6.26
			c0-2.722-0.55-4.788-1.65-6.201s-2.725-2.119-4.873-2.119c-2.122,0-3.724,0.696-4.805,2.09S274.105,348.517,274.105,351.277z"/>
		<path id="XMLID_831_" class="st6" d="M309.906,356.16c0,1.992-0.742,3.528-2.227,4.609s-3.567,1.621-6.25,1.621
			c-2.839,0-5.052-0.449-6.641-1.348v-3.008c1.028,0.521,2.132,0.931,3.311,1.23s2.314,0.449,3.408,0.449
			c1.692,0,2.995-0.271,3.906-0.811s1.367-1.364,1.367-2.471c0-0.833-0.361-1.546-1.084-2.139s-2.132-1.292-4.229-2.1
			c-1.992-0.742-3.408-1.39-4.248-1.943s-1.465-1.182-1.875-1.885s-0.615-1.543-0.615-2.52c0-1.745,0.71-3.122,2.129-4.131
			s3.366-1.514,5.84-1.514c2.305,0,4.558,0.469,6.758,1.406l-1.152,2.637c-2.148-0.886-4.095-1.328-5.84-1.328
			c-1.536,0-2.695,0.241-3.477,0.723s-1.172,1.146-1.172,1.992c0,0.573,0.146,1.062,0.439,1.465s0.765,0.788,1.416,1.152
			s1.901,0.892,3.75,1.582c2.539,0.925,4.255,1.855,5.146,2.793S309.906,354.741,309.906,356.16z"/>
	</g>
</g>
</svg>
