<?xml version="1.0" encoding="utf-8"?>
<!-- Generator: Adobe Illustrator 19.0.0, SVG Export Plug-In . SVG Version: 6.00 Build 0)  -->
<svg version="1.1" id="Capa_1" xmlns="http://www.w3.org/2000/svg" xmlns:xlink="http://www.w3.org/1999/xlink" x="0px" y="0px"
	 viewBox="0 0 512 404" style="enable-background:new 0 0 512 404;" xml:space="preserve">
<style type="text/css">
	.st0{clip-path:url(#XMLID_2_);fill:#5831A3;}
	.st1{clip-path:url(#XMLID_2_);fill:#4A3293;}
	.st2{clip-path:url(#XMLID_2_);}
	.st3{fill:#5B5B5B;}
	.st4{fill:#FFFFFF;}
	.st5{clip-path:url(#XMLID_3_);}
	.st6{fill:#F3F3F3;}
</style>
<g id="XMLID_360_">
	<defs>
		<rect id="XMLID_212_" width="512" height="404"/>
	</defs>
	<clipPath id="XMLID_2_">
		<use xlink:href="#XMLID_212_"  style="overflow:visible;"/>
	</clipPath>
	<circle id="XMLID_403_" class="st0" cx="256" cy="173.569" r="138.569"/>
	<path id="XMLID_400_" class="st1" d="M257.431,35v277.102c75.869-0.769,137.138-62.5,137.138-138.551S333.3,35.769,257.431,35z"/>
	<g id="XMLID_90_" class="st2">
		<path id="XMLID_91_" class="st3" d="M176.234,341.766c0,2.891-0.986,5.114-2.959,6.67s-4.795,2.334-8.467,2.334h-3.359V362h-3.32
			v-28.555h7.402C172.667,333.445,176.234,336.219,176.234,341.766z M161.449,347.918h2.988c2.942,0,5.071-0.476,6.387-1.426
			s1.973-2.474,1.973-4.57c0-1.888-0.618-3.294-1.855-4.219s-3.164-1.387-5.781-1.387h-3.711V347.918z"/>
		<path id="XMLID_94_" class="st3" d="M191.488,340.203c0.95,0,1.804,0.078,2.559,0.234l-0.449,3.008
			c-0.886-0.195-1.667-0.293-2.344-0.293c-1.731,0-3.213,0.703-4.443,2.109s-1.846,3.157-1.846,5.254V362h-3.242v-21.406h2.676
			l0.371,3.965h0.156c0.794-1.394,1.751-2.468,2.871-3.223S190.147,340.203,191.488,340.203z"/>
		<path id="XMLID_96_" class="st3" d="M216.527,351.277c0,3.489-0.879,6.214-2.637,8.174s-4.187,2.939-7.285,2.939
			c-1.914,0-3.613-0.449-5.098-1.348s-2.63-2.188-3.438-3.867s-1.211-3.646-1.211-5.898c0-3.489,0.872-6.208,2.617-8.154
			s4.167-2.92,7.266-2.92c2.995,0,5.374,0.996,7.139,2.988S216.527,347.879,216.527,351.277z M200.218,351.277
			c0,2.734,0.547,4.817,1.641,6.25s2.702,2.148,4.824,2.148s3.733-0.713,4.834-2.139s1.65-3.513,1.65-6.26
			c0-2.722-0.55-4.788-1.65-6.201s-2.725-2.119-4.873-2.119c-2.122,0-3.724,0.696-4.805,2.09S200.218,348.517,200.218,351.277z"/>
		<path id="XMLID_99_" class="st3" d="M239.73,340.594v2.051l-3.965,0.469c0.364,0.456,0.69,1.052,0.977,1.787s0.43,1.565,0.43,2.49
			c0,2.097-0.716,3.77-2.148,5.02s-3.398,1.875-5.898,1.875c-0.638,0-1.237-0.052-1.797-0.156c-1.38,0.729-2.07,1.647-2.07,2.754
			c0,0.586,0.241,1.019,0.723,1.299s1.309,0.42,2.48,0.42h3.789c2.317,0,4.099,0.488,5.342,1.465s1.865,2.396,1.865,4.258
			c0,2.37-0.95,4.177-2.852,5.42s-4.675,1.865-8.32,1.865c-2.8,0-4.958-0.521-6.475-1.563s-2.275-2.513-2.275-4.414
			c0-1.302,0.417-2.429,1.25-3.379s2.005-1.595,3.516-1.934c-0.547-0.247-1.006-0.632-1.377-1.152s-0.557-1.126-0.557-1.816
			c0-0.781,0.208-1.465,0.625-2.051s1.074-1.152,1.973-1.699c-1.106-0.456-2.009-1.23-2.705-2.324s-1.045-2.344-1.045-3.75
			c0-2.344,0.703-4.15,2.109-5.42s3.398-1.904,5.977-1.904c1.12,0,2.129,0.13,3.027,0.391H239.73z M222.66,365.594
			c0,1.159,0.488,2.038,1.465,2.637s2.376,0.898,4.199,0.898c2.722,0,4.736-0.407,6.045-1.221s1.963-1.917,1.963-3.311
			c0-1.159-0.358-1.963-1.074-2.412s-2.063-0.674-4.043-0.674h-3.887c-1.472,0-2.617,0.352-3.438,1.055
			S222.66,364.278,222.66,365.594z M224.418,347.449c0,1.497,0.423,2.63,1.27,3.398s2.024,1.152,3.535,1.152
			c3.164,0,4.746-1.536,4.746-4.609c0-3.216-1.602-4.824-4.805-4.824c-1.523,0-2.695,0.41-3.516,1.23
			S224.418,345.835,224.418,347.449z"/>
		<path id="XMLID_103_" class="st3" d="M253.89,340.203c0.95,0,1.804,0.078,2.559,0.234L256,343.445
			c-0.886-0.195-1.667-0.293-2.344-0.293c-1.731,0-3.213,0.703-4.443,2.109s-1.846,3.157-1.846,5.254V362h-3.242v-21.406h2.676
			l0.371,3.965h0.156c0.794-1.394,1.751-2.468,2.871-3.223S252.549,340.203,253.89,340.203z"/>
		<path id="XMLID_105_" class="st3" d="M273.617,362l-0.645-3.047h-0.156c-1.067,1.341-2.132,2.249-3.193,2.725
			s-2.386,0.713-3.975,0.713c-2.122,0-3.786-0.547-4.99-1.641s-1.807-2.649-1.807-4.668c0-4.323,3.457-6.589,10.371-6.797
			l3.633-0.117v-1.328c0-1.68-0.361-2.92-1.084-3.721s-1.878-1.201-3.467-1.201c-1.784,0-3.802,0.547-6.055,1.641l-0.996-2.48
			c1.055-0.573,2.21-1.022,3.467-1.348s2.517-0.488,3.779-0.488c2.552,0,4.443,0.566,5.674,1.699s1.846,2.949,1.846,5.449V362
			H273.617z M266.293,359.715c2.019,0,3.604-0.554,4.756-1.66s1.729-2.656,1.729-4.648v-1.934l-3.242,0.137
			c-2.578,0.091-4.437,0.491-5.576,1.201s-1.709,1.813-1.709,3.311c0,1.172,0.354,2.063,1.064,2.676
			S265.016,359.715,266.293,359.715z"/>
		<path id="XMLID_109_" class="st3" d="M309.984,362v-13.926c0-1.706-0.364-2.985-1.094-3.838s-1.862-1.279-3.398-1.279
			c-2.019,0-3.509,0.579-4.473,1.738s-1.445,2.942-1.445,5.352V362h-3.242v-13.926c0-1.706-0.364-2.985-1.094-3.838
			s-1.868-1.279-3.418-1.279c-2.031,0-3.519,0.608-4.463,1.826s-1.416,3.213-1.416,5.986V362h-3.242v-21.406h2.637l0.527,2.93h0.156
			c0.612-1.042,1.475-1.855,2.588-2.441s2.36-0.879,3.74-0.879c3.347,0,5.534,1.211,6.563,3.633h0.156
			c0.638-1.12,1.563-2.005,2.773-2.656s2.591-0.977,4.141-0.977c2.422,0,4.235,0.622,5.439,1.865s1.807,3.232,1.807,5.967V362
			H309.984z"/>
		<path id="XMLID_111_" class="st3" d="M333.07,362l-0.645-3.047h-0.156c-1.067,1.341-2.132,2.249-3.193,2.725
			s-2.386,0.713-3.975,0.713c-2.122,0-3.786-0.547-4.99-1.641s-1.807-2.649-1.807-4.668c0-4.323,3.457-6.589,10.371-6.797
			l3.633-0.117v-1.328c0-1.68-0.361-2.92-1.084-3.721s-1.878-1.201-3.467-1.201c-1.784,0-3.802,0.547-6.055,1.641l-0.996-2.48
			c1.055-0.573,2.21-1.022,3.467-1.348s2.517-0.488,3.779-0.488c2.552,0,4.443,0.566,5.674,1.699s1.846,2.949,1.846,5.449V362
			H333.07z M325.746,359.715c2.019,0,3.604-0.554,4.756-1.66s1.729-2.656,1.729-4.648v-1.934l-3.242,0.137
			c-2.578,0.091-4.437,0.491-5.576,1.201s-1.709,1.813-1.709,3.311c0,1.172,0.354,2.063,1.064,2.676
			S324.469,359.715,325.746,359.715z"/>
		<path id="XMLID_114_" class="st3" d="M355.961,356.16c0,1.992-0.742,3.528-2.227,4.609s-3.567,1.621-6.25,1.621
			c-2.839,0-5.052-0.449-6.641-1.348v-3.008c1.028,0.521,2.132,0.931,3.311,1.23s2.314,0.449,3.408,0.449
			c1.692,0,2.995-0.271,3.906-0.811s1.367-1.364,1.367-2.471c0-0.833-0.361-1.546-1.084-2.139s-2.132-1.292-4.229-2.1
			c-1.992-0.742-3.408-1.39-4.248-1.943s-1.465-1.182-1.875-1.885s-0.615-1.543-0.615-2.52c0-1.745,0.71-3.122,2.129-4.131
			s3.366-1.514,5.84-1.514c2.305,0,4.558,0.469,6.758,1.406l-1.152,2.637c-2.148-0.886-4.095-1.328-5.84-1.328
			c-1.536,0-2.695,0.241-3.477,0.723s-1.172,1.146-1.172,1.992c0,0.573,0.146,1.062,0.439,1.465s0.765,0.788,1.416,1.152
			s1.901,0.892,3.75,1.582c2.539,0.925,4.255,1.855,5.146,2.793S355.961,354.741,355.961,356.16z"/>
	</g>
	<g id="XMLID_580_" class="st2">
		<rect id="XMLID_614_" x="257.269" y="176.571" class="st4" width="5.648" height="50.905"/>
		<path id="XMLID_611_" class="st4" d="M308.987,112.369l4.005,3.991l-42.415,42.415l-4.005-3.991L308.987,112.369z
			 M308.987,112.369"/>
		<path id="XMLID_608_" class="st4" d="M252.433,168.922l4.005,4.005l-56.554,56.54l-4.005-3.991L252.433,168.922z M252.433,168.922
			"/>
		<path id="XMLID_605_" class="st4" d="M219.671,120.848l31.108,31.108l-4.005,4.001l-31.094-31.105L219.671,120.848z
			 M219.671,120.848"/>
		<path id="XMLID_602_" class="st4" d="M267.745,168.922l42.415,42.415l-4.001,3.991l-42.415-42.415L267.745,168.922z
			 M267.745,168.922"/>
		<path id="XMLID_599_" class="st4" d="M330.774,111.541c0,7.815-6.323,14.138-14.138,14.138c-7.801,0-14.139-6.323-14.139-14.138
			c0-7.815,6.338-14.138,14.139-14.138C324.451,97.403,330.774,103.726,330.774,111.541L330.774,111.541z M330.774,111.541"/>
		<path id="XMLID_596_" class="st4" d="M274.221,233.125c0,7.815-6.324,14.138-14.139,14.138c-7.801,0-14.138-6.323-14.138-14.138
			c0-7.801,6.338-14.138,14.138-14.138C267.897,218.987,274.221,225.324,274.221,233.125L274.221,233.125z M274.221,233.125"/>
		<path id="XMLID_593_" class="st4" d="M209.191,227.48c0,7.801-6.323,14.139-14.139,14.139c-7.815,0-14.138-6.338-14.138-14.139
			c0-7.815,6.323-14.138,14.138-14.138C202.867,213.342,209.191,219.665,209.191,227.48L209.191,227.48z M209.191,227.48"/>
		<path id="XMLID_590_" class="st4" d="M223.329,120.017c0,4.698-3.796,8.494-8.476,8.494c-4.698,0-8.494-3.796-8.494-8.494
			c0-4.68,3.796-8.476,8.494-8.476C219.533,111.541,223.329,115.338,223.329,120.017L223.329,120.017z M223.329,120.017"/>
		<path id="XMLID_586_" class="st4" d="M313.822,210.511c0,4.68-3.8,8.476-8.494,8.476c-4.68,0-8.476-3.796-8.476-8.476
			c0-4.68,3.796-8.476,8.476-8.476C310.023,202.035,313.822,205.831,313.822,210.511L313.822,210.511z M313.822,210.511"/>
		<path id="XMLID_582_" class="st4" d="M279.883,165.264c0,10.936-8.865,19.801-19.801,19.801c-10.919,0-19.783-8.865-19.783-19.801
			c0-10.936,8.865-19.783,19.783-19.783C271.018,145.481,279.883,154.328,279.883,165.264L279.883,165.264z M279.883,165.264"/>
	</g>
	<g id="XMLID_642_" class="st2">
		<defs>
			<rect id="XMLID_641_" x="140.274" y="80.251" width="116.994" height="237.888"/>
		</defs>
		<clipPath id="XMLID_3_">
			<use xlink:href="#XMLID_641_"  style="overflow:visible;"/>
		</clipPath>
		<g id="XMLID_514_" class="st5">
			<rect id="XMLID_512_" x="257.862" y="176.571" class="st6" width="5.648" height="50.905"/>
			<path id="XMLID_587_" class="st6" d="M309.581,112.369l4.005,3.991l-42.415,42.415l-4.005-3.991L309.581,112.369z
				 M309.581,112.369"/>
			<path id="XMLID_584_" class="st6" d="M253.027,168.922l4.005,4.005l-56.554,56.54l-4.005-3.991L253.027,168.922z
				 M253.027,168.922"/>
			<path id="XMLID_581_" class="st6" d="M220.265,120.848l31.108,31.108l-4.005,4.001l-31.094-31.105L220.265,120.848z
				 M220.265,120.848"/>
			<path id="XMLID_578_" class="st6" d="M268.339,168.922l42.415,42.415l-4.001,3.991l-42.415-42.415L268.339,168.922z
				 M268.339,168.922"/>
			<path id="XMLID_575_" class="st6" d="M331.368,111.541c0,7.815-6.323,14.138-14.138,14.138c-7.801,0-14.139-6.323-14.139-14.138
				c0-7.815,6.338-14.138,14.139-14.138C325.045,97.403,331.368,103.726,331.368,111.541L331.368,111.541z M331.368,111.541"/>
			<path id="XMLID_572_" class="st6" d="M274.815,233.125c0,7.815-6.324,14.138-14.139,14.138c-7.801,0-14.138-6.323-14.138-14.138
				c0-7.801,6.338-14.138,14.138-14.138C268.491,218.987,274.815,225.324,274.815,233.125L274.815,233.125z M274.815,233.125"/>
			<path id="XMLID_569_" class="st6" d="M209.785,227.48c0,7.801-6.323,14.139-14.139,14.139c-7.815,0-14.138-6.338-14.138-14.139
				c0-7.815,6.323-14.138,14.138-14.138C203.461,213.342,209.785,219.665,209.785,227.48L209.785,227.48z M209.785,227.48"/>
			<path id="XMLID_566_" class="st6" d="M223.923,120.017c0,4.698-3.796,8.494-8.476,8.494c-4.698,0-8.494-3.796-8.494-8.494
				c0-4.68,3.796-8.476,8.494-8.476C220.127,111.541,223.923,115.338,223.923,120.017L223.923,120.017z M223.923,120.017"/>
			<path id="XMLID_518_" class="st6" d="M314.416,210.511c0,4.68-3.8,8.476-8.494,8.476c-4.68,0-8.476-3.796-8.476-8.476
				c0-4.68,3.796-8.476,8.476-8.476C310.617,202.035,314.416,205.831,314.416,210.511L314.416,210.511z M314.416,210.511"/>
			<path id="XMLID_515_" class="st6" d="M280.477,165.264c0,10.936-8.865,19.801-19.801,19.801
				c-10.919,0-19.783-8.865-19.783-19.801c0-10.936,8.865-19.783,19.783-19.783C271.612,145.481,280.477,154.328,280.477,165.264
				L280.477,165.264z M280.477,165.264"/>
		</g>
	</g>
</g>
</svg>
