<?xml version="1.0" encoding="utf-8"?>
<!-- Generator: Adobe Illustrator 19.0.0, SVG Export Plug-In . SVG Version: 6.00 Build 0)  -->
<svg version="1.1" id="Capa_1" xmlns="http://www.w3.org/2000/svg" xmlns:xlink="http://www.w3.org/1999/xlink" x="0px" y="0px"
	 viewBox="0 0 280 280" style="enable-background:new 0 0 280 280;" xml:space="preserve">
<style type="text/css">
	.st0{fill:#5831A3;}
	.st1{fill:#FFFFFF;}
</style>
<circle id="XMLID_106_" class="st0" cx="140" cy="140" r="138.569"/>
<g id="XMLID_580_">
	<rect id="XMLID_614_" x="141.634" y="144.86" class="st1" width="6.477" height="58.379"/>
	<path id="XMLID_611_" class="st1" d="M200.944,71.232l4.593,4.576l-48.642,48.642l-4.593-4.576L200.944,71.232z M200.944,71.232"/>
	<path id="XMLID_608_" class="st1" d="M136.088,136.088l4.593,4.593l-64.856,64.84l-4.593-4.576L136.088,136.088z M136.088,136.088"
		/>
	<path id="XMLID_605_" class="st1" d="M98.516,80.956l35.675,35.675l-4.593,4.589L93.94,85.549L98.516,80.956z M98.516,80.956"/>
	<path id="XMLID_602_" class="st1" d="M153.648,136.088l48.642,48.642l-4.589,4.576l-48.642-48.642L153.648,136.088z
		 M153.648,136.088"/>
	<path id="XMLID_599_" class="st1" d="M225.93,70.284c0,8.962-7.252,16.214-16.214,16.214c-8.946,0-16.214-7.252-16.214-16.214
		c0-8.962,7.268-16.214,16.214-16.214C218.679,54.07,225.93,61.321,225.93,70.284L225.93,70.284z M225.93,70.284"/>
	<path id="XMLID_596_" class="st1" d="M161.074,209.716c0,8.962-7.252,16.214-16.214,16.214c-8.946,0-16.214-7.252-16.214-16.214
		c0-8.946,7.268-16.214,16.214-16.214C153.822,193.502,161.074,200.77,161.074,209.716L161.074,209.716z M161.074,209.716"/>
	<path id="XMLID_593_" class="st1" d="M86.498,203.243c0,8.946-7.252,16.214-16.214,16.214c-8.962,0-16.214-7.268-16.214-16.214
		c0-8.962,7.252-16.214,16.214-16.214C79.246,187.029,86.498,194.281,86.498,203.243L86.498,203.243z M86.498,203.243"/>
	<path id="XMLID_590_" class="st1" d="M102.712,80.004c0,5.387-4.353,9.741-9.72,9.741c-5.387,0-9.741-4.353-9.741-9.741
		c0-5.367,4.353-9.72,9.741-9.72C98.358,70.284,102.712,74.637,102.712,80.004L102.712,80.004z M102.712,80.004"/>
	<path id="XMLID_586_" class="st1" d="M206.49,183.782c0,5.367-4.358,9.72-9.741,9.72c-5.367,0-9.72-4.353-9.72-9.72
		c0-5.367,4.354-9.72,9.72-9.72C202.132,174.062,206.49,178.415,206.49,183.782L206.49,183.782z M206.49,183.782"/>
	<path id="XMLID_582_" class="st1" d="M167.568,131.893c0,12.541-10.166,22.708-22.708,22.708
		c-12.521,0-22.687-10.166-22.687-22.708c0-12.542,10.166-22.688,22.687-22.688C157.402,109.205,167.568,119.351,167.568,131.893
		L167.568,131.893z M167.568,131.893"/>
</g>
</svg>
