<?xml version="1.0" encoding="utf-8"?>
<!-- Generator: Adobe Illustrator 19.0.0, SVG Export Plug-In . SVG Version: 6.00 Build 0)  -->
<svg version="1.1" id="Capa_1" xmlns="http://www.w3.org/2000/svg" xmlns:xlink="http://www.w3.org/1999/xlink" x="0px" y="0px"
	 viewBox="0 0 280 280" style="enable-background:new 0 0 280 280;" xml:space="preserve">
<style type="text/css">
	.st0{fill:#B55C04;}
	.st1{fill:#FFFFFF;}
</style>
<circle id="XMLID_106_" class="st0" cx="140" cy="140" r="138.569"/>
<g id="XMLID_491_">
	<path id="XMLID_412_" class="st1" d="M168.44,88.064c0,8.082-6.57,14.652-14.652,14.652c-8.09,0-14.623-6.57-14.623-14.652
		c0-8.06,6.533-14.623,14.623-14.623C161.87,73.442,168.44,80.004,168.44,88.064L168.44,88.064z M168.44,88.064"/>
	<path id="XMLID_223_" class="st1" d="M144.238,66.182c0,6.056-4.904,10.93-10.952,10.93c-6.049,0-10.952-4.874-10.952-10.93
		c0-6.049,4.904-10.952,10.952-10.952C139.334,55.23,144.238,60.133,144.238,66.182L144.238,66.182z M144.238,66.182"/>
	<path id="XMLID_220_" class="st1" d="M182.403,72.407c0,4.214-3.413,7.656-7.656,7.656c-4.214,0-7.627-3.443-7.627-7.656
		s3.413-7.627,7.627-7.627C178.989,64.78,182.403,68.193,182.403,72.407L182.403,72.407z M182.403,72.407"/>
	<path id="XMLID_218_" class="st1" d="M235.483,123.577c-1.461-3.355-4.588-5.557-8.17-5.792c-2.327-0.169-4.617,0.433-6.68,1.409
		c-1.153-0.918-2.466-1.696-3.986-2.18c-3.56-1.174-11.356-0.147-14.799,3.494c-7.165-9.778-17.838-17.662-30.508-22.763
		c-2.349,3.839-5.909,6.82-10.181,8.427c0.829,0.69,1.292,1.174,1.351,1.233c1.057,1.233,0.918,3.098-0.286,4.162
		c-0.573,0.485-1.233,0.712-1.923,0.712c-0.83,0-1.637-0.345-2.239-0.998c-0.14-0.176-4.698-4.992-16.656-4.992
		c-11.929,0-16.487,4.816-16.693,5.014c-1.087,1.182-2.922,1.292-4.126,0.235c-1.204-1.094-1.321-2.899-0.286-4.103
		c0.257-0.286,5.586-6.049,18.293-6.849c-2.239-2.525-3.869-5.594-4.647-8.978c-8.346,0.404-16.34,1.894-23.71,4.361
		c-7.142-9.264-26.008-17.779-35.786-19.85c0,20.246,8.89,24.775,8.545,35.705c-7.458,6.937-12.905,15.254-15.687,24.43
		l-10.556-1.549c-3.178-0.462-5.271,1.747-4.639,4.904l4.214,21.046c0.631,3.186,3.78,5.763,7.025,5.763h4.728
		c3.729,10.409,10.989,19.585,20.62,26.727v31.624c16.003,0,28.988,0.462,28.988-12.098v-6.254
		c6.629,1.549,13.595,2.444,20.877,2.444c9.433,0,18.44-1.497,26.728-4.074v7.855c0,12.589,12.986,12.127,28.988,12.127V188.3
		c11.011-10.299,17.691-23.6,17.691-38.164c0-9.807-3.039-19.012-8.347-27.131c1.982-3.039,9.235-4.155,12.105-3.208
		c0.8,0.257,1.549,0.631,2.18,1.057c-2.613,1.982-4.507,4.617-4.962,7.084c-0.345,1.718-0.433,5.968,5.733,7.942
		c0.771,0.228,1.519,0.375,2.21,0.375c2.231,0,3.927-1.263,4.676-3.553c0.969-2.988,0.022-7.656-2.753-11.246
		c1.402-0.543,2.863-0.83,4.324-0.741c2.958,0.198,4.852,2.202,5.652,4.037c0.888,2.07,0.661,4.192-0.602,5.741
		c-0.514,0.631-0.433,1.549,0.198,2.063c0.602,0.514,1.549,0.433,2.063-0.198C236.4,129.97,236.804,126.616,235.483,123.577
		L235.483,123.577z M93.514,137.627c-3.098,0-5.616-2.488-5.616-5.616c0-3.098,2.518-5.623,5.616-5.623
		c3.127,0,5.652,2.525,5.652,5.623C99.166,135.138,96.641,137.627,93.514,137.627L93.514,137.627z M222.784,131.783
		c-0.286,0.888-0.947,2.004-3.215,1.285c-2.863-0.947-4.126-2.466-3.759-4.617c0.374-1.916,2.07-4.067,4.361-5.616
		C222.637,125.728,223.466,129.684,222.784,131.783L222.784,131.783z M222.784,131.783"/>
</g>
</svg>
