<?xml version="1.0" encoding="utf-8"?>
<!-- Generator: Adobe Illustrator 19.0.0, SVG Export Plug-In . SVG Version: 6.00 Build 0)  -->
<svg version="1.1" id="Capa_1" xmlns="http://www.w3.org/2000/svg" xmlns:xlink="http://www.w3.org/1999/xlink" x="0px" y="0px"
	 viewBox="0 0 512 404" style="enable-background:new 0 0 512 404;" xml:space="preserve">
<style type="text/css">
	.st0{clip-path:url(#XMLID_2_);fill:#B55C04;}
	.st1{clip-path:url(#XMLID_2_);fill:#AD5505;}
	.st2{clip-path:url(#XMLID_2_);}
	.st3{fill:#5B5B5B;}
	.st4{fill:#FFFFFF;}
	.st5{clip-path:url(#XMLID_3_);}
	.st6{fill:#F3F3F3;}
</style>
<g id="XMLID_899_">
	<defs>
		<rect id="XMLID_844_" width="512" height="404"/>
	</defs>
	<clipPath id="XMLID_2_">
		<use xlink:href="#XMLID_844_"  style="overflow:visible;"/>
	</clipPath>
	<circle id="XMLID_430_" class="st0" cx="256" cy="173.569" r="138.569"/>
	<path id="XMLID_429_" class="st1" d="M257.431,35v277.102c75.869-0.769,137.138-62.5,137.138-138.551S333.3,35.769,257.431,35z"/>
	<g id="XMLID_720_" class="st2">
		<path id="XMLID_721_" class="st3" d="M186.996,354.402c0,2.513-0.911,4.473-2.734,5.879s-4.297,2.109-7.422,2.109
			c-3.386,0-5.989-0.437-7.813-1.309v-3.203c1.172,0.495,2.448,0.886,3.828,1.172s2.747,0.43,4.102,0.43c2.214,0,3.88-0.42,5-1.26
			s1.68-2.009,1.68-3.506c0-0.989-0.198-1.8-0.596-2.432s-1.062-1.214-1.992-1.748s-2.347-1.14-4.248-1.816
			c-2.656-0.95-4.554-2.077-5.693-3.379s-1.709-3.001-1.709-5.098c0-2.2,0.827-3.952,2.48-5.254s3.841-1.953,6.563-1.953
			c2.839,0,5.449,0.521,7.832,1.563l-1.035,2.891c-2.356-0.989-4.648-1.484-6.875-1.484c-1.758,0-3.132,0.378-4.121,1.133
			s-1.484,1.804-1.484,3.145c0,0.989,0.183,1.8,0.547,2.432s0.979,1.211,1.846,1.738s2.19,1.11,3.975,1.748
			c2.995,1.067,5.056,2.214,6.182,3.438S186.996,352.449,186.996,354.402z"/>
		<path id="XMLID_723_" class="st3" d="M195.395,340.594v13.887c0,1.745,0.397,3.047,1.191,3.906s2.038,1.289,3.73,1.289
			c2.239,0,3.877-0.612,4.912-1.836s1.553-3.223,1.553-5.996v-11.25h3.242V362h-2.676l-0.469-2.871h-0.176
			c-0.664,1.055-1.585,1.862-2.764,2.422s-2.522,0.84-4.033,0.84c-2.604,0-4.554-0.618-5.85-1.855s-1.943-3.216-1.943-5.938v-14.004
			H195.395z"/>
		<path id="XMLID_725_" class="st3" d="M226.859,340.242c2.813,0,4.997,0.96,6.553,2.881s2.334,4.639,2.334,8.154
			s-0.784,6.247-2.354,8.193s-3.747,2.92-6.533,2.92c-1.394,0-2.666-0.257-3.818-0.771s-2.119-1.306-2.9-2.373h-0.234L219.223,362
			h-2.324v-30.391h3.242v7.383c0,1.653-0.052,3.138-0.156,4.453h0.156C221.651,341.31,223.891,340.242,226.859,340.242z
			 M226.391,342.957c-2.214,0-3.809,0.635-4.785,1.904s-1.465,3.408-1.465,6.416s0.501,5.159,1.504,6.455s2.61,1.943,4.824,1.943
			c1.992,0,3.477-0.726,4.453-2.178s1.465-3.538,1.465-6.26c0-2.786-0.488-4.863-1.465-6.23S228.435,342.957,226.391,342.957z"/>
		<path id="XMLID_728_" class="st3" d="M255.219,356.16c0,1.992-0.742,3.528-2.227,4.609s-3.567,1.621-6.25,1.621
			c-2.839,0-5.052-0.449-6.641-1.348v-3.008c1.028,0.521,2.132,0.931,3.311,1.23s2.314,0.449,3.408,0.449
			c1.692,0,2.995-0.271,3.906-0.811s1.367-1.364,1.367-2.471c0-0.833-0.361-1.546-1.084-2.139s-2.132-1.292-4.229-2.1
			c-1.992-0.742-3.408-1.39-4.248-1.943s-1.465-1.182-1.875-1.885s-0.615-1.543-0.615-2.52c0-1.745,0.71-3.122,2.129-4.131
			s3.366-1.514,5.84-1.514c2.305,0,4.558,0.469,6.758,1.406l-1.152,2.637c-2.148-0.886-4.095-1.328-5.84-1.328
			c-1.536,0-2.695,0.241-3.477,0.723s-1.172,1.146-1.172,1.992c0,0.573,0.146,1.062,0.439,1.465s0.765,0.788,1.416,1.152
			s1.901,0.892,3.75,1.582c2.539,0.925,4.255,1.855,5.146,2.793S255.219,354.741,255.219,356.16z"/>
		<path id="XMLID_730_" class="st3" d="M260.219,334.793c0-0.742,0.183-1.286,0.547-1.631s0.82-0.518,1.367-0.518
			c0.521,0,0.97,0.176,1.348,0.527s0.566,0.892,0.566,1.621s-0.188,1.272-0.566,1.631s-0.827,0.537-1.348,0.537
			c-0.547,0-1.003-0.179-1.367-0.537S260.219,335.522,260.219,334.793z M263.734,362h-3.242v-21.406h3.242V362z"/>
		<path id="XMLID_733_" class="st3" d="M285.18,359.129h-0.176c-1.497,2.175-3.737,3.262-6.719,3.262
			c-2.8,0-4.978-0.957-6.533-2.871s-2.334-4.636-2.334-8.164s0.781-6.27,2.344-8.223s3.737-2.93,6.523-2.93
			c2.903,0,5.13,1.055,6.68,3.164h0.254l-0.137-1.543l-0.078-1.504v-8.711h3.242V362h-2.637L285.18,359.129z M278.695,359.676
			c2.214,0,3.818-0.603,4.814-1.807s1.494-3.147,1.494-5.83v-0.684c0-3.034-0.505-5.198-1.514-6.494s-2.62-1.943-4.834-1.943
			c-1.901,0-3.356,0.739-4.365,2.217s-1.514,3.564-1.514,6.26c0,2.734,0.501,4.798,1.504,6.191S276.755,359.676,278.695,359.676z"/>
		<path id="XMLID_736_" class="st3" d="M294.848,334.793c0-0.742,0.183-1.286,0.547-1.631s0.82-0.518,1.367-0.518
			c0.521,0,0.97,0.176,1.348,0.527s0.566,0.892,0.566,1.621s-0.188,1.272-0.566,1.631s-0.827,0.537-1.348,0.537
			c-0.547,0-1.003-0.179-1.367-0.537S294.848,335.522,294.848,334.793z M298.363,362h-3.242v-21.406h3.242V362z"/>
		<path id="XMLID_739_" class="st3" d="M323.715,351.277c0,3.489-0.879,6.214-2.637,8.174s-4.187,2.939-7.285,2.939
			c-1.914,0-3.613-0.449-5.098-1.348s-2.63-2.188-3.438-3.867s-1.211-3.646-1.211-5.898c0-3.489,0.872-6.208,2.617-8.154
			s4.167-2.92,7.266-2.92c2.995,0,5.374,0.996,7.139,2.988S323.715,347.879,323.715,351.277z M307.406,351.277
			c0,2.734,0.547,4.817,1.641,6.25s2.702,2.148,4.824,2.148s3.733-0.713,4.834-2.139s1.65-3.513,1.65-6.26
			c0-2.722-0.55-4.788-1.65-6.201s-2.725-2.119-4.873-2.119c-2.122,0-3.724,0.696-4.805,2.09S307.406,348.517,307.406,351.277z"/>
		<path id="XMLID_742_" class="st3" d="M343.207,356.16c0,1.992-0.742,3.528-2.227,4.609s-3.567,1.621-6.25,1.621
			c-2.839,0-5.052-0.449-6.641-1.348v-3.008c1.028,0.521,2.132,0.931,3.311,1.23s2.314,0.449,3.408,0.449
			c1.692,0,2.995-0.271,3.906-0.811s1.367-1.364,1.367-2.471c0-0.833-0.361-1.546-1.084-2.139s-2.132-1.292-4.229-2.1
			c-1.992-0.742-3.408-1.39-4.248-1.943s-1.465-1.182-1.875-1.885s-0.615-1.543-0.615-2.52c0-1.745,0.71-3.122,2.129-4.131
			s3.366-1.514,5.84-1.514c2.305,0,4.558,0.469,6.758,1.406l-1.152,2.637c-2.148-0.886-4.095-1.328-5.84-1.328
			c-1.536,0-2.695,0.241-3.477,0.723s-1.172,1.146-1.172,1.992c0,0.573,0.146,1.062,0.439,1.465s0.765,0.788,1.416,1.152
			s1.901,0.892,3.75,1.582c2.539,0.925,4.255,1.855,5.146,2.793S343.207,354.741,343.207,356.16z"/>
	</g>
	<g id="XMLID_121_" class="st2">
		<g id="XMLID_491_">
			<path id="XMLID_412_" class="st4" d="M278.519,126.151c0,7.367-5.989,13.356-13.356,13.356c-7.374,0-13.329-5.989-13.329-13.356
				c0-7.347,5.955-13.329,13.329-13.329C272.53,112.822,278.519,118.804,278.519,126.151L278.519,126.151z M278.519,126.151"/>
			<path id="XMLID_223_" class="st4" d="M256.458,106.204c0,5.52-4.47,9.963-9.983,9.963c-5.514,0-9.983-4.443-9.983-9.963
				c0-5.514,4.47-9.983,9.983-9.983C251.988,96.221,256.458,100.691,256.458,106.204L256.458,106.204z M256.458,106.204"/>
			<path id="XMLID_220_" class="st4" d="M291.246,111.878c0,3.841-3.111,6.979-6.979,6.979c-3.841,0-6.952-3.138-6.952-6.979
				c0-3.841,3.111-6.952,6.952-6.952C288.135,104.926,291.246,108.038,291.246,111.878L291.246,111.878z M291.246,111.878"/>
			<path id="XMLID_218_" class="st4" d="M339.63,158.521c-1.332-3.058-4.182-5.065-7.448-5.279
				c-2.121-0.154-4.209,0.395-6.089,1.285c-1.051-0.836-2.248-1.546-3.633-1.987c-3.245-1.07-10.352-0.134-13.489,3.185
				c-6.531-8.913-16.26-16.099-27.809-20.749c-2.141,3.5-5.387,6.216-9.281,7.682c0.756,0.629,1.177,1.07,1.231,1.124
				c0.964,1.124,0.836,2.824-0.261,3.794c-0.522,0.442-1.124,0.649-1.753,0.649c-0.756,0-1.492-0.314-2.041-0.91
				c-0.127-0.161-4.283-4.55-15.183-4.55c-10.873,0-15.029,4.389-15.216,4.57c-0.99,1.078-2.663,1.178-3.761,0.214
				c-1.097-0.997-1.204-2.643-0.261-3.74c0.234-0.261,5.092-5.514,16.675-6.243c-2.041-2.302-3.526-5.099-4.236-8.183
				c-7.608,0.368-14.895,1.726-21.613,3.975c-6.511-8.444-23.707-16.206-32.62-18.093c0,18.455,8.103,22.583,7.789,32.546
				c-6.798,6.323-11.763,13.904-14.299,22.268l-9.622-1.412c-2.897-0.421-4.804,1.593-4.229,4.47l3.841,19.184
				c0.575,2.904,3.446,5.253,6.403,5.253h4.309c3.399,9.488,10.017,17.852,18.796,24.363v28.826
				c14.587,0,26.424,0.421,26.424-11.027v-5.701c6.042,1.412,12.392,2.228,19.03,2.228c8.598,0,16.809-1.365,24.363-3.714v7.16
				c0,11.475,11.837,11.054,26.424,11.054v-33.242c10.037-9.388,16.126-21.512,16.126-34.788c0-8.939-2.77-17.33-7.608-24.731
				c1.807-2.77,8.418-3.787,11.034-2.924c0.729,0.234,1.412,0.575,1.987,0.964c-2.382,1.807-4.108,4.209-4.523,6.457
				c-0.314,1.566-0.395,5.44,5.226,7.24c0.703,0.208,1.385,0.341,2.014,0.341c2.034,0,3.58-1.151,4.262-3.239
				c0.883-2.723,0.02-6.979-2.509-10.251c1.278-0.495,2.61-0.756,3.941-0.676c2.697,0.181,4.423,2.007,5.152,3.68
				c0.81,1.887,0.602,3.821-0.549,5.233c-0.468,0.575-0.395,1.412,0.181,1.88c0.549,0.468,1.412,0.395,1.88-0.181
				C340.466,164.349,340.835,161.291,339.63,158.521L339.63,158.521z M210.222,171.328c-2.824,0-5.119-2.268-5.119-5.119
				c0-2.824,2.295-5.125,5.119-5.125c2.851,0,5.152,2.302,5.152,5.125C215.374,169.06,213.072,171.328,210.222,171.328
				L210.222,171.328z M328.054,166.002c-0.261,0.81-0.863,1.827-2.931,1.171c-2.61-0.863-3.761-2.248-3.426-4.209
				c0.341-1.747,1.887-3.707,3.975-5.119C327.92,160.482,328.677,164.088,328.054,166.002L328.054,166.002z M328.054,166.002"/>
		</g>
		<g id="XMLID_495_">
			<defs>
				<rect id="XMLID_494_" x="168.119" y="78" width="89.08" height="180.185"/>
			</defs>
			<clipPath id="XMLID_3_">
				<use xlink:href="#XMLID_494_"  style="overflow:visible;"/>
			</clipPath>
			<g id="XMLID_493_" class="st5">
				<path id="XMLID_475_" class="st6" d="M278.519,126.137c0,7.367-5.989,13.356-13.356,13.356c-7.374,0-13.329-5.989-13.329-13.356
					c0-7.347,5.955-13.329,13.329-13.329C272.53,112.808,278.519,118.791,278.519,126.137L278.519,126.137z M278.519,126.137"/>
				<path id="XMLID_472_" class="st6" d="M256.458,106.204c0,5.52-4.47,9.963-9.983,9.963c-5.514,0-9.983-4.443-9.983-9.963
					c0-5.514,4.47-9.983,9.983-9.983C251.988,96.221,256.458,100.691,256.458,106.204L256.458,106.204z M256.458,106.204"/>
				<path id="XMLID_469_" class="st6" d="M291.246,111.878c0,3.841-3.111,6.979-6.979,6.979c-3.841,0-6.952-3.138-6.952-6.979
					c0-3.841,3.111-6.952,6.952-6.952C288.135,104.926,291.246,108.038,291.246,111.878L291.246,111.878z M291.246,111.878"/>
				<path id="XMLID_464_" class="st6" d="M339.63,158.545c-1.332-3.058-4.182-5.065-7.448-5.279
					c-2.121-0.154-4.209,0.395-6.089,1.285c-1.051-0.836-2.248-1.546-3.633-1.987c-3.245-1.07-10.352-0.134-13.489,3.185
					c-6.531-8.913-16.26-16.099-27.809-20.749c-2.141,3.5-5.387,6.216-9.281,7.682c0.756,0.629,1.177,1.07,1.231,1.124
					c0.964,1.124,0.836,2.824-0.261,3.794c-0.522,0.442-1.124,0.649-1.753,0.649c-0.756,0-1.492-0.314-2.041-0.91
					c-0.127-0.161-4.283-4.55-15.183-4.55c-10.873,0-15.029,4.389-15.216,4.57c-0.99,1.078-2.663,1.178-3.761,0.214
					c-1.097-0.997-1.204-2.643-0.261-3.74c0.234-0.261,5.092-5.514,16.675-6.243c-2.041-2.302-3.526-5.099-4.236-8.183
					c-7.608,0.368-14.895,1.726-21.613,3.975c-6.511-8.444-23.707-16.206-32.62-18.093c0,18.455,8.103,22.583,7.789,32.546
					c-6.798,6.323-11.763,13.904-14.299,22.268l-9.622-1.412c-2.897-0.421-4.804,1.593-4.229,4.47l3.841,19.184
					c0.575,2.904,3.446,5.253,6.403,5.253h4.309c3.399,9.488,10.017,17.852,18.796,24.363v28.826
					c14.587,0,26.424,0.421,26.424-11.027v-5.701c6.042,1.412,12.392,2.228,19.03,2.228c8.598,0,16.809-1.365,24.363-3.714v7.16
					c0,11.475,11.837,11.054,26.424,11.054v-33.242c10.037-9.388,16.126-21.512,16.126-34.788c0-8.939-2.77-17.33-7.608-24.731
					c1.807-2.77,8.418-3.787,11.034-2.924c0.729,0.234,1.412,0.575,1.987,0.964c-2.382,1.807-4.108,4.209-4.523,6.457
					c-0.314,1.566-0.395,5.44,5.226,7.24c0.703,0.208,1.385,0.341,2.014,0.341c2.034,0,3.58-1.151,4.262-3.239
					c0.883-2.723,0.02-6.979-2.509-10.251c1.278-0.495,2.61-0.756,3.941-0.676c2.697,0.181,4.423,2.007,5.152,3.68
					c0.81,1.887,0.602,3.821-0.549,5.233c-0.468,0.575-0.395,1.412,0.181,1.88c0.549,0.468,1.412,0.395,1.88-0.181
					C340.466,164.372,340.835,161.314,339.63,158.545L339.63,158.545z M210.222,171.351c-2.824,0-5.119-2.268-5.119-5.119
					c0-2.824,2.295-5.125,5.119-5.125c2.851,0,5.152,2.302,5.152,5.125C215.374,169.083,213.072,171.351,210.222,171.351
					L210.222,171.351z M328.054,166.025c-0.261,0.81-0.863,1.827-2.931,1.171c-2.61-0.863-3.761-2.248-3.426-4.209
					c0.341-1.747,1.887-3.707,3.975-5.119C327.92,160.505,328.677,164.112,328.054,166.025L328.054,166.025z M328.054,166.025"/>
			</g>
		</g>
	</g>
</g>
</svg>
